<?xml version="1.0" standalone="no"?>
<!DOCTYPE svg PUBLIC "-//W3C//DTD SVG 1.1//EN" "http://www.w3.org/Graphics/SVG/1.1/DTD/svg11.dtd" >
<svg>
<metadata>
Created by FontForge 20090914 at Thu Mar 31 15:14:48 2016
 By www-data
Copyright &#194;&#169; 2007 ParaType, Inc. All rights reserved.
</metadata>
<defs>
<font id="Pragmatica" horiz-adv-x="600" >
  <font-face 
    font-family="Pragmatica"
    font-weight="400"
    font-stretch="normal"
    units-per-em="1000"
    panose-1="2 11 5 3 4 5 2 2 2 4"
    ascent="800"
    descent="-200"
    x-height="508"
    cap-height="700"
    bbox="-519 -316.999 1632 960.004"
    underline-thickness="50"
    underline-position="-50"
    unicode-range="U+0020-U+FE60"
  />
<missing-glyph horiz-adv-x="500" 
d="M50 512h400v-512h-400v512zM442 8v496h-384v-496h384z" />
    <glyph glyph-name="IJ" unicode="IJ" horiz-adv-x="770" 
d="M367 232c0 -28 2.00098 -52.6689 6.00098 -74.002s10.5 -39.5 19.5 -54.5s21.167 -26.333 36.5 -34s35 -11.5 59 -11.5c24.667 0 44.667 4.33301 60 13s27.166 20.667 35.499 36s13.833 33.833 16.5 55.5s4 45.167 4 70.5v467h94v-458c0 -46 -3.83301 -85.5 -11.5 -118.5
s-19.834 -60.167 -36.501 -81.5s-38.5 -37.166 -65.5 -47.499s-59.5 -15.5 -97.5 -15.5c-18 0 -39.167 1.83301 -63.5 5.5s-47.666 12.834 -69.999 27.501s-41.333 36.5 -57 65.5s-23.5 68.5 -23.5 118.5v36h94zM179.001 699.998v-700h-94v700h94z" />
    <glyph glyph-name="ij" unicode="ij" horiz-adv-x="440" 
d="M282 700h88v-92h-88v92zM370 508l0.000976562 -555.001c0 -22.667 -1.83301 -42.834 -5.5 -60.501s-10 -32.5 -19 -44.5s-21.333 -21.167 -37 -27.5s-35.167 -9.5 -58.5 -9.5c-8.66699 0 -18.834 0.5 -30.501 1.5s-20.5 1.83301 -26.5 2.5v62c23.333 4 41 7.66699 53 11
s20.667 7.83301 26 13.5s8.33301 13.334 9 23.001s1 22.834 1 39.501v544h88zM70.001 699.999h88v-92h-88v92zM158.001 507.999v-508h-88v508h88z" />
    <glyph glyph-name="afii10017.var.accented" unicode="&#x410;`" horiz-adv-x="622" 
d="M433 260l-122 345l-122 -345h244zM97 0h-101l265 700h100l265 -700h-101l-66 181h-296zM430 900l-102 -140h-84l74 140h112z" />
    <glyph glyph-name="afii10022.var.accented" unicode="&#x415;`" horiz-adv-x="612" 
d="M546 401v-79h-367v-243h416v-79h-510v700h499v-79h-405v-220h367zM425 900l-102 -140h-84l74 140h112z" />
    <glyph glyph-name="afii10026.var.accented" unicode="&#x418;`" horiz-adv-x="731" 
d="M552 700h94v-700h-94v567l-373 -567h-94v700h94v-563zM484 900l-102 -140h-84l74 140h112z" />
    <glyph glyph-name="afii10032.var.accented" unicode="&#x41e;`" horiz-adv-x="758" 
d="M145 350c0 -28 2.8291 -58.9971 8.49609 -92.9971s16.834 -65.833 33.501 -95.5s40.334 -54.334 71.001 -74.001s71 -29.5 121 -29.5c8 0 19.333 0.666992 34 2s30.667 5 48 11s35 15.167 53 27.5s34.333 29.166 49 50.499s26.667 48.333 36 81s14 72.667 14 120
c0 41.333 -4.66699 79.833 -14 115.5s-23.5 66.5 -42.5 92.5s-43.333 46.5 -73 61.5s-64.5 22.5 -104.5 22.5c-35.333 0 -65.833 -5.5 -91.5 -16.5s-47.167 -25.167 -64.5 -42.5s-31.166 -36.833 -41.499 -58.5s-18.166 -43.334 -23.499 -65.001
s-8.83301 -42.167 -10.5 -61.5s-2.5 -35.333 -2.5 -48zM44.9961 350.003c0 61.333 8.33301 115.166 25 161.499s39.667 85 69 116s64.5 54.333 105.5 70s85.833 23.5 134.5 23.5c38.667 0 77.834 -6 117.501 -18s75.5 -32.167 107.5 -60.5s58.167 -66.333 78.5 -114
s30.5 -107.167 30.5 -178.5c0 -60.667 -7.33301 -112.167 -22 -154.5s-33.167 -77.166 -55.5 -104.499s-46.833 -48.5 -73.5 -63.5s-52.334 -26.167 -77.001 -33.5s-46.667 -11.666 -66 -12.999s-32.666 -2 -39.999 -2s-20.833 0.666992 -40.5 2
s-41.834 5.66602 -66.501 12.999s-50.334 18.5 -77.001 33.5s-51.167 36.167 -73.5 63.5s-40.666 62 -54.999 104s-21.5 93.667 -21.5 155zM497.996 900.003l-102 -140h-84l74 140h112z" />
    <glyph glyph-name="afii10037.var.accented" unicode="&#x423;`" horiz-adv-x="588" 
d="M493 700l98.998 -0.00195312l-237 -575c-14 -33.333 -28.5 -59.166 -43.5 -77.499s-30.167 -31.666 -45.5 -39.999s-30.5 -13.333 -45.5 -15s-29.5 -2.5 -43.5 -2.5c-15.333 0 -28.5 0.666992 -39.5 2s-23.833 4 -38.5 8v82c11.333 -4 22.333 -6.83301 33 -8.5
s21.667 -2.5 33 -2.5c10 0 19.833 0.833008 29.5 2.5s19.334 6 29.001 13s18.834 17.333 27.501 31s16.667 32.5 24 56.5l-266 526h115l201 -421zM412.998 899.998l-102 -140h-84l74 140h112z" />
    <glyph glyph-name="afii10045.var.accented" unicode="&#x42b;`" horiz-adv-x="858" 
d="M773 700v-700h-94v700h94zM179 79h189c12.667 0 27.167 1.5 43.5 4.5s31.833 9.16699 46.5 18.5s27 22.5 37 39.5s15 39.167 15 66.5c0 32.667 -6.5 57.667 -19.5 75s-29.333 30 -49 38s-40.667 12.5 -63 13.5s-42.5 1.5 -60.5 1.5h-139v-257zM179 415
l202.003 0.000976562c71.333 0 126.666 -18.333 165.999 -55s59 -88.334 59 -155.001c0 -46 -8.16699 -82.5 -24.5 -109.5s-36.333 -47.667 -60 -62s-48.334 -23.5 -74.001 -27.5s-47.834 -6 -66.501 -6h-296v700h94v-285zM548.003 900.001l-102 -140h-84l74 140h112z" />
    <glyph glyph-name="afii10047.var.accented" unicode="&#x42d;`" horiz-adv-x="719" 
d="M574 401c0 9.33301 -1.00098 21.665 -3.00098 36.998s-5.66699 31.833 -11 49.5s-13 35.667 -23 54s-23.167 35 -39.5 50s-36.666 27.167 -60.999 36.5s-53.5 14 -87.5 14c-31.333 0 -58.833 -4 -82.5 -12s-43.834 -18.667 -60.501 -32s-29.667 -28.833 -39 -46.5
s-15.333 -36.167 -18 -55.5h-94c2 27.333 9 54.5 21 81.5s29.667 51.167 53 72.5s52.333 38.5 87 51.5s76 19.5 124 19.5c46.667 0 87.167 -5.66699 121.5 -17s64 -26.333 89 -45s45.5 -40.334 61.5 -65.001s28.5 -50.5 37.5 -77.5s15.333 -54.167 19 -81.5s5.5 -53 5.5 -77
c0 -23.333 -1.5 -48.833 -4.5 -76.5s-8.66699 -55.5 -17 -83.5s-20 -55.167 -35 -81.5s-34.833 -49.666 -59.5 -69.999s-54.5 -36.666 -89.5 -48.999s-76.5 -18.5 -124.5 -18.5c-55.333 0 -101.333 8.83301 -138 26.5s-66.5 39.667 -89.5 66s-40 54.833 -51 85.5
s-17.833 59.334 -20.5 86.001h94c2 -14 6.33301 -31.5 13 -52.5s17.834 -41.333 33.501 -61s36.5 -36.5 62.5 -50.5s59.333 -21 100 -21c46 0 83.333 8 112 24s51.167 35.667 67.5 59s27.833 48.333 34.5 75s10.667 51 12 73c0.666992 10.667 0.666992 21.667 0 33h-330v79
h330zM477.999 899.999l-102 -140h-84l74 140h112z" />
    <glyph glyph-name="afii10048.var.accented" unicode="&#x42e;`" horiz-adv-x="993" 
d="M614 58c33.333 0 62.332 4.66699 86.999 14s45.667 21.666 63 36.999s31.5 33 42.5 53s19.5 40.833 25.5 62.5s10.167 43.334 12.5 65.001s3.5 41.834 3.5 60.501c0 43.333 -4 80.666 -12 111.999s-18.5 57.833 -31.5 79.5s-28 39 -45 52s-34.167 23.167 -51.5 30.5
s-34.166 12.166 -50.499 14.499s-30.833 3.5 -43.5 3.5c-12 0 -26.167 -1.16699 -42.5 -3.5s-33.166 -7 -50.499 -14s-34.5 -17.167 -51.5 -30.5s-32 -30.833 -45 -52.5s-23.667 -48.167 -32 -79.5s-12.5 -68.666 -12.5 -111.999c0 -38 4.16699 -74.667 12.5 -110
s21.666 -66.5 39.999 -93.5s42.333 -48.5 72 -64.5s66.167 -24 109.5 -24zM283.999 408c2.66699 38.667 10.999 76.667 24.999 114s34.333 70.666 61 99.999s60 53.166 100 71.499s87.667 27.5 143 27.5c48 0 92.5 -7.83301 133.5 -23.5s76.5 -39 106.5 -70
s53.333 -69.667 70 -116s25 -100.166 25 -161.499c0 -51.333 -6.33301 -99.5 -19 -144.5s-32.5 -84.167 -59.5 -117.5s-61.667 -59.833 -104 -79.5s-93.166 -29.5 -152.499 -29.5c-64 0 -117.167 10.833 -159.5 32.5s-76 49.334 -101 83.001s-42.833 71.167 -53.5 112.5
s-17 82 -19 122h-101v-329h-94v700h94v-292h105zM614.998 900l-102 -140h-84l74 140h112z" />
    <glyph glyph-name="afii10049.var.accented" unicode="&#x42f;`" horiz-adv-x="680" 
d="M304 621c-31.333 0 -57.001 -4.16699 -77.001 -12.5s-35.667 -19 -47 -32s-19 -27.167 -23 -42.5s-6 -30 -6 -44s2 -28.833 6 -44.5s11.833 -30 23.5 -43s28.334 -23.833 50.001 -32.5s50.5 -13 86.5 -13h184v264h-197zM341.999 278l-171 -278h-116l190 288
c-16 0.666992 -35 4 -57 10s-42.833 16.5 -62.5 31.5s-36.334 35.5 -50.001 61.5s-20.5 59.333 -20.5 100c0 28.667 4.16699 55.667 12.5 81s21.833 47.5 40.5 66.5s43.334 34 74.001 45s68.667 16.5 114 16.5h299v-700h-94v278h-159zM458.999 900l-102 -140h-84l74 140h112
z" />
    <glyph glyph-name="afii10065.var.accented" unicode="&#x430;`" horiz-adv-x="553" 
d="M385 260c-6.66699 -5.33301 -13.667 -9.16797 -21 -11.501s-15.333 -4.16602 -24 -5.49902s-18.5 -2.5 -29.5 -3.5s-23.5 -2.5 -37.5 -4.5l-55.5 -9.5c-17.667 -3 -33.167 -7.66699 -46.5 -14s-23.833 -15.5 -31.5 -27.5s-11.5 -28 -11.5 -48
c0 -30 9.16699 -53.167 27.5 -69.5s41.833 -24.5 70.5 -24.5c17.333 0 34.833 2.5 52.5 7.5s34 14 49 27s27.5 30.833 37.5 53.5s16 51.667 18 87zM55 357.998c0 16.667 2.83301 34.999 8.5 54.999s16.334 38.5 32.001 55.5s37.667 31.167 66 42.5s64.833 17 109.5 17
c20.667 0 42.834 -2 66.501 -6s45.667 -12 66 -24s37.166 -29.167 50.499 -51.5s19.666 -52.166 18.999 -89.499l-5 -235c0 -10 0.166992 -18.833 0.5 -26.5s2.16602 -14 5.49902 -19s8.66602 -8.83301 15.999 -11.5s17.666 -3.66699 30.999 -3v-62
c-6 -1.33301 -11.833 -2.33301 -17.5 -3s-13.167 -1 -22.5 -1c-12 0 -23.167 0.833008 -33.5 2.5s-19.333 5 -27 10s-14 12.333 -19 22s-8.83301 22.834 -11.5 39.501c-8.66699 -16 -19.334 -29.667 -32.001 -41s-26.667 -20.666 -42 -27.999s-31.5 -12.666 -48.5 -15.999
s-34.167 -5 -51.5 -5c-53.333 0 -96.5 12.167 -129.5 36.5s-49.5 63.166 -49.5 116.499c0 22 3.33301 41.833 10 59.5s19.334 33.334 38.001 47.001s44 25 76 34s73.667 15.833 125 20.5c18.667 1.33301 34.334 2.66602 47.001 3.99902s22.834 4.16602 30.501 8.49902
s13.167 10.833 16.5 19.5s5 21.334 5 38.001c0 6 -0.666992 14.667 -2 26s-5.66602 22.666 -12.999 33.999s-18.666 21.166 -33.999 29.499s-37 12.5 -65 12.5c-8 0 -19.5 -0.666992 -34.5 -2s-29.833 -5.5 -44.5 -12.5s-27.334 -17.667 -38.001 -32
s-15.667 -34.833 -15 -61.5h-84zM390 699.997l-96 -132h-80l70 132h106z" />
    <glyph glyph-name="afii10070.var.accented" unicode="&#x435;`" horiz-adv-x="570" 
d="M434 296c-0.666992 16.667 -2.99902 35 -6.99902 55s-11.167 38.5 -21.5 55.5s-24.5 31.167 -42.5 42.5s-41.333 17 -70 17c-32 0 -58.333 -5.83301 -79 -17.5s-36.834 -26.167 -48.501 -43.5s-19.5 -35.833 -23.5 -55.5s-6 -37.5 -6 -53.5h298zM522.001 147
c-3.33301 -18 -9.49707 -36.832 -18.4971 -56.499s-22 -37.667 -39 -54s-38.833 -29.833 -65.5 -40.5s-59.667 -16 -99 -16c-42 0 -77.5 5.66699 -106.5 17s-53 25.833 -72 43.5s-33.833 37.167 -44.5 58.5s-18.5 42 -23.5 62s-8 38.167 -9 54.5s-1.5 28.5 -1.5 36.5
c0 11.333 0.666992 26.166 2 44.499s4.66602 37.666 9.99902 57.999s13.333 40.833 24 61.5s25.167 39.334 43.5 56.001s41.166 30.167 68.499 40.5s60.666 15.5 99.999 15.5c50.667 0 91.167 -8.83301 121.5 -26.5s53.666 -39.834 69.999 -66.501
s27.333 -55.834 33 -87.501s9.16699 -61.167 10.5 -88.5c0 -4 0.166992 -8.16699 0.5 -12.5s0.5 -8.5 0.5 -12.5h-391c0 -22 3 -44.333 9 -67s15.333 -43.167 28 -61.5s29.167 -33.5 49.5 -45.5s45.166 -18 74.499 -18c20.667 0 39.334 2.83301 56.001 8.5
s30.834 13.334 42.501 23.001s21 20.834 28 33.501s11.833 26 14.5 40h84zM399.004 700.001l-96 -132h-80l70 132h106z" />
    <glyph glyph-name="afii10074.var.accented" unicode="&#x438;`" horiz-adv-x="595" 
d="M425 508h98v-508h-88v406l-264 -406h-99v508h88v-405zM411 700l-96 -132h-80l70 132h106z" />
    <glyph glyph-name="afii10080.var.accented" unicode="&#x43e;`" horiz-adv-x="586" 
d="M136 255c0 -50.667 6.33301 -90.334 19 -119.001s27.667 -50 45 -64s34.666 -22.5 51.999 -25.5s31 -4.5 41 -4.5s23.667 1.5 41 4.5s34.666 11.5 51.999 25.5s32.333 35.333 45 64s19 68.334 19 119.001s-6.33301 90.334 -19 119.001s-27.667 50 -45 64
s-34.666 22.5 -51.999 25.5s-31 4.5 -41 4.5s-23.667 -1.5 -41 -4.5s-34.666 -11.5 -51.999 -25.5s-32.333 -35.333 -45 -64s-19 -68.334 -19 -119.001zM43 254c0 34 4.33301 67.333 13 100s22.834 61.834 42.501 87.501s45.5 46.5 77.5 62.5s71 24 117 24s85 -8 117 -24
s57.833 -36.833 77.5 -62.5s33.834 -54.834 42.501 -87.501s13 -66 13 -100s-4.33301 -67.333 -13 -100s-22.834 -61.834 -42.501 -87.501s-45.5 -46.5 -77.5 -62.5s-71 -24 -117 -24s-85 8 -117 24s-57.833 36.833 -77.5 62.5s-33.834 54.834 -42.501 87.501
s-13 66 -13 100zM407 700l-96 -132h-80l70 132h106z" />
    <glyph glyph-name="afii10085.var.accented" unicode="&#x443;`" horiz-adv-x="498" 
d="M91 -119c13.333 -2 22.998 -3.33301 28.998 -4s11 -1 15 -1c12.667 0 23.334 2.33301 32.001 7s16 11 22 19s10.833 17.167 14.5 27.5l11.5 32.5l12 38l-220 508h105l163 -411l135 411h88l-202 -568l-14 -40.5c-5.33301 -15 -12.833 -29 -22.5 -42s-22.167 -24 -37.5 -33
s-35 -13.5 -59 -13.5c-14 0 -27.167 0.333008 -39.5 1s-23.166 2 -32.499 4v65zM362.998 700l-96 -132h-80l70 132h106z" />
    <glyph glyph-name="afii10093.var.accented" unicode="&#x44b;`" horiz-adv-x="714" 
d="M642 508v-508h-88v508h88zM160 62l122.999 -0.00292969c10.667 0 22.834 1 36.501 3s26.5 6.33301 38.5 13s22.167 16.334 30.5 29.001s12.5 29.667 12.5 51c0 22 -4.33301 38.833 -13 50.5s-19.667 20.334 -33 26.001s-27.833 8.83398 -43.5 9.50098s-30.5 1 -44.5 1
h-107v-183zM159.999 507.997l-0.00195312 -201h128c18 0 38.667 -1.16699 62 -3.5s45.5 -8.5 66.5 -18.5s38.833 -25.5 53.5 -46.5s22 -49.833 22 -86.5c0 -19.333 -2.66699 -38 -8 -56s-14.666 -34.167 -27.999 -48.5s-31.166 -25.833 -53.499 -34.5s-50.5 -13 -84.5 -13
h-246v508h88zM470.997 699.997l-96 -132h-80l70 132h106z" />
    <glyph glyph-name="afii10095.var.accented" unicode="&#x44d;`" horiz-adv-x="553" 
d="M198 295l219.004 0.000976562c-1.33301 39.333 -7.83301 70.333 -19.5 93s-25.167 39.834 -40.5 51.501s-30.833 19 -46.5 22s-28.167 4.5 -37.5 4.5c-46 0 -81.5 -11.333 -106.5 -34s-38.833 -50.334 -41.5 -83.001h-84c4.66699 42.667 16.667 76 36 100
s40.666 41.833 63.999 53.5s46.5 18.834 69.5 21.501s40.833 4 53.5 4c22.667 0 48.167 -2.66699 76.5 -8s55 -17.5 80 -36.5s46.167 -47 63.5 -84s26 -86.833 26 -149.5c0 -58 -7.66699 -104.667 -23 -140s-34.833 -62.666 -58.5 -81.999s-49.667 -32.166 -78 -38.499
s-55.5 -9.5 -81.5 -9.5c-17.333 0 -37.833 1.33301 -61.5 4s-47 10.5 -70 23.5s-43.833 32.5 -62.5 58.5s-31.334 62.667 -38.001 110h84c5.33301 -44 20 -77.333 44 -100s58.667 -34 104 -34c23.333 0 43.166 3.66699 59.499 11s30 16.666 41 27.999
s19.667 24.166 26 38.499s11.166 28.666 14.499 42.999s5.33301 27.666 6 39.999s1 22.5 1 30.5h-219v62zM390.004 700.001l-96 -132h-80l70 132h106z" />
    <glyph glyph-name="afii10096.var.accented" unicode="&#x44e;`" horiz-adv-x="780" 
d="M333 255c0 -19.333 1.66797 -41.3311 5.00098 -65.998s10.5 -47.834 21.5 -69.501s26.833 -40 47.5 -55s48 -22.5 82 -22.5c25.333 0 46.666 4.33301 63.999 13s31.833 19.667 43.5 33s20.667 28.166 27 44.499s11 32.5 14 48.5s4.83301 30.5 5.5 43.5s1 23.167 1 30.5
c0 10.667 -1 27.667 -3 51s-8 46.833 -18 70.5s-25.333 44.5 -46 62.5s-50 27 -88 27c-9.33301 0 -22.833 -1.5 -40.5 -4.5s-35 -11.333 -52 -25s-31.833 -34.667 -44.5 -63s-19 -67.833 -19 -118.5zM240.001 299.002c2.66699 27.333 9.16602 54.6641 19.499 81.9971
s25.333 51.833 45 73.5s44.5 39.334 74.5 53.001s66 20.5 108 20.5c32.667 0 64 -5 94 -15s56.5 -25.833 79.5 -47.5s41.5 -49.834 55.5 -84.501s21 -76.667 21 -126c0 -45.333 -5.5 -83.666 -16.5 -114.999s-25 -57.166 -42 -77.499s-35.5 -36.166 -55.5 -47.499
s-39.167 -19.5 -57.5 -24.5s-34.5 -8 -48.5 -9s-23.333 -1.5 -28 -1.5c-47.333 0 -86.666 8.16699 -117.999 24.5s-56.333 37 -75 62s-32.167 52.667 -40.5 83s-13.5 59.5 -15.5 87.5h-80v-237h-88v508h88v-209h80zM504 700l-96 -132h-80l70 132h106z" />
    <glyph glyph-name="afii10097.var.accented" unicode="&#x44f;`" horiz-adv-x="543" 
d="M256 446c-8.66699 0 -19.668 -0.498047 -33.001 -1.49805s-26.333 -4.5 -39 -10.5s-23.5 -15.5 -32.5 -28.5s-13.5 -31.167 -13.5 -54.5c0 -9.33301 1.66699 -19.333 5 -30s9.5 -20.334 18.5 -29.001s21.333 -15.834 37 -21.501s35.834 -8.5 60.501 -8.5h124v184h-127z
M133.999 0.00195312l-96.998 0.000976562l140 201c-17.333 2 -33.833 6.5 -49.5 13.5s-29.5 16.667 -41.5 29s-21.5 27.166 -28.5 44.499s-10.5 37.333 -10.5 60c0 16 2.16699 33.333 6.5 52s12.666 36 24.999 52s29.666 29.333 51.999 40s51.5 16 87.5 16h253v-508h-88v200
h-116zM385.001 700.003l-96 -132h-80l70 132h106z" />
    <glyph glyph-name="f_f" unicode="ff" horiz-adv-x="566" 
d="M108 577c0 44 11.0029 76.165 33.0029 96.498s55.667 30.5 101 30.5c9.33301 0 20.666 -0.5 33.999 -1.5s23.666 -1.83301 30.999 -2.5v-62c-21.333 1.33301 -35.833 1.83301 -43.5 1.5s-13.834 -0.5 -18.501 -0.5c-12 0 -21.333 -2.66699 -28 -8
s-11.5 -11.666 -14.5 -18.999s-4.83301 -15 -5.5 -23s-1 -14.667 -1 -20v-61h157v69c0 44 11 76.167 33 96.5s55.667 30.5 101 30.5c9.33301 0 20.666 -0.5 33.999 -1.5s23.666 -1.83301 30.999 -2.5v-62c-5.33301 0 -10.166 0.166992 -14.499 0.5s-9.16602 0.5 -14.499 0.5
c-5.33301 0.666992 -10.833 1.16699 -16.5 1.5s-11.167 -0.166992 -16.5 -1.5c-12 -2 -21.333 -5.66699 -28 -11s-11.5 -11.5 -14.5 -18.5s-4.83301 -14.167 -5.5 -21.5s-1 -13.666 -1 -18.999v-61h111v-62h-111v-446h-88v446h-157v-446h-88v446h-94v62h94v69z" />
    <glyph glyph-name="fi" unicode="fi" horiz-adv-x="510" 
d="M352 700h88v-92h-88v92zM107 577c0 44 11.0029 76.166 33.0029 96.499s55.667 30.5 101 30.5c9.33301 0 20.666 -0.5 33.999 -1.5s23.666 -1.83301 30.999 -2.5v-62c-21.333 1.33301 -35.833 1.83301 -43.5 1.5s-13.834 -0.5 -18.501 -0.5c-12 0 -21.333 -2.66699 -28 -8
s-11.5 -11.666 -14.5 -18.999s-4.83301 -15 -5.5 -23s-1 -14.667 -1 -20v-61h245v-508h-88v446h-157v-446h-88v446h-94v62h94v69z" />
    <glyph glyph-name="fl" unicode="fl" horiz-adv-x="512" 
d="M352 508l0.00292969 191.999h88v-700h-88v446h-157v-446h-88v446h-94v62h94v69c0 44 11 76.167 33 96.5s55.667 30.5 101 30.5c9.33301 0 20.666 -0.5 33.999 -1.5s23.666 -1.83301 30.999 -2.5v-62c-21.333 1.33301 -35.833 1.83301 -43.5 1.5
s-13.834 -0.5 -18.501 -0.5c-12 0 -21.333 -2.66699 -28 -8s-11.5 -11.666 -14.5 -18.999s-4.83301 -15 -5.5 -23s-1 -14.667 -1 -20v-61h157z" />
    <glyph glyph-name="f_f_i" unicode="ffi" horiz-adv-x="756" 
d="M598 700h88v-92h-88v92zM108 577c0 44 11.0029 76.165 33.0029 96.498s55.667 30.5 101 30.5c9.33301 0 20.666 -0.5 33.999 -1.5s23.666 -1.83301 30.999 -2.5v-62c-21.333 1.33301 -35.833 1.83301 -43.5 1.5s-13.834 -0.5 -18.501 -0.5c-12 0 -21.333 -2.66699 -28 -8
s-11.5 -11.666 -14.5 -18.999s-4.83301 -15 -5.5 -23s-1 -14.667 -1 -20v-61h157v69c0 44 11 76.167 33 96.5s55.667 30.5 101 30.5c9.33301 0 20.666 -0.5 33.999 -1.5s23.666 -1.83301 30.999 -2.5v-62c-5.33301 0 -10.166 0.166992 -14.499 0.5s-9.16602 0.5 -14.499 0.5
c-5.33301 0.666992 -10.833 1.16699 -16.5 1.5s-11.167 -0.166992 -16.5 -1.5c-12 -2 -21.333 -5.66699 -28 -11s-11.5 -11.5 -14.5 -18.5s-4.83301 -14.167 -5.5 -21.5s-1 -13.666 -1 -18.999v-61h245v-508h-88v446h-157v-446h-88v446h-157v-446h-88v446h-94v62h94v69z" />
    <glyph glyph-name="f_f_l" unicode="ffl" horiz-adv-x="758" 
d="M108 577c0 44 11.0029 76.165 33.0029 96.498s55.667 30.5 101 30.5c9.33301 0 20.666 -0.5 33.999 -1.5s23.666 -1.83301 30.999 -2.5v-62c-21.333 1.33301 -35.833 1.83301 -43.5 1.5s-13.834 -0.5 -18.501 -0.5c-12 0 -21.333 -2.66699 -28 -8
s-11.5 -11.666 -14.5 -18.999s-4.83301 -15 -5.5 -23s-1 -14.667 -1 -20v-61h157v69c0 44 11 76.167 33 96.5s55.667 30.5 101 30.5c9.33301 0 20.666 -0.5 33.999 -1.5s23.666 -1.83301 30.999 -2.5v-62c-5.33301 0 -10.166 0.166992 -14.499 0.5s-9.16602 0.5 -14.499 0.5
c-5.33301 0.666992 -10.833 1.16699 -16.5 1.5s-11.167 -0.166992 -16.5 -1.5c-12 -2 -21.333 -5.66699 -28 -11s-11.5 -11.5 -14.5 -18.5s-4.83301 -14.167 -5.5 -21.5s-1 -13.666 -1 -18.999v-61h157v192h88v-700h-88v446h-157v-446h-88v446h-157v-446h-88v446h-94v62h94
v69z" />
    <glyph glyph-name=".notdef" horiz-adv-x="500" 
d="M50 512h400v-512h-400v512zM442 8v496h-384v-496h384z" />
    <glyph glyph-name="space" unicode=" " horiz-adv-x="233" 
 />
    <glyph glyph-name="exclam" unicode="!" horiz-adv-x="311" 
d="M106 109h99v-109h-99v109zM205 700v-269l-25 -230h-49l-25 230v269h99z" />
    <glyph glyph-name="quotedbl" unicode="&#x22;" horiz-adv-x="420" 
d="M330 508h-52l-40 192h132zM142 508h-52l-40 192h132z" />
    <glyph glyph-name="numbersign" unicode="#" horiz-adv-x="580" 
d="M376 442h-143l-28 -179h143zM309 10l26 168h-143l-26 -168h-68l26 168h-134l13 85h134l28 179h-134l13 85h134l26 167h68l-26 -167h143l26 167h68l-26 -167h134l-13 -85h-134l-28 -179h134l-13 -85h-134l-26 -168h-68z" />
    <glyph glyph-name="dollar" unicode="$" horiz-adv-x="580" 
d="M268 646c-10.667 0 -23.334 -1.49902 -38.001 -4.49902s-28.5 -8.83301 -41.5 -17.5s-24 -20.834 -33 -36.501s-13.5 -36.167 -13.5 -61.5c0 -33.333 10.333 -59.333 31 -78s52.334 -32 95.001 -40v238zM321 57.001c21.333 -0.666992 40.167 2.83496 56.5 10.502
s30.166 17.667 41.499 30s19.833 26.833 25.5 43.5s8.5 33.667 8.5 51c0 22.667 -4.5 41.5 -13.5 56.5s-20.167 27.167 -33.5 36.5s-27.666 16.166 -42.999 20.499s-29.333 7.16602 -42 8.49902v-257zM126.001 208.003c1.33301 -30 7.00293 -54.6719 17.0029 -74.0049
s22 -34.666 36 -45.999s28.833 -19.166 44.5 -23.499s30.5 -6.83301 44.5 -7.5v266c-47.333 10 -85 22.167 -113 36.5s-49.333 30.166 -64 47.499s-24.334 35.666 -29.001 54.999s-7 39.666 -7 60.999c0 40 7.5 72.333 22.5 97s33.333 43.834 55 57.501
s44.834 22.834 69.501 27.501s46.667 7 66 7v65h53v-65c17.333 -0.666992 37.666 -3.5 60.999 -8.5s45.333 -14.167 66 -27.5s38 -31.666 52 -54.999s20.333 -53.666 19 -90.999h-86c0 14.667 -2.66699 29 -8 43s-12.833 26.333 -22.5 37s-21.5 19.334 -35.5 26.001
s-29.333 10 -46 10v-247c50 -8.66699 89.667 -21.167 119 -37.5s51.5 -34.166 66.5 -53.499s24.667 -39.333 29 -60s6.5 -39.334 6.5 -56.001c0 -44 -8.33301 -79.167 -25 -105.5s-36.834 -46.666 -60.501 -60.999s-48 -24 -73 -29s-45.833 -7.83301 -62.5 -8.5v-81h-53v81
c-74 3.33301 -129.833 22.333 -167.5 57s-58.834 89 -63.501 163h89z" />
    <glyph glyph-name="percent" unicode="%" horiz-adv-x="911" 
d="M594 192c0 -11.333 1.16699 -25.5 3.5 -42.5s7 -33.167 14 -48.5s17 -28.5 30 -39.5s30.5 -16.5 52.5 -16.5s39.5 5.5 52.5 16.5s23 24.167 30 39.5s11.667 31.5 14 48.5s3.5 31.167 3.5 42.5c0 28.667 -3.33301 52.5 -10 71.5s-15 34.167 -25 45.5
s-20.833 19.166 -32.5 23.499s-22.5 6.5 -32.5 6.5s-20.833 -2.16699 -32.5 -6.5s-22.5 -12.166 -32.5 -23.499s-18.333 -26.5 -25 -45.5s-10 -42.833 -10 -71.5zM530 192c0 41.333 5.99805 75 17.998 101s26.5 46.333 43.5 61s35 24.667 54 30s35.167 8 48.5 8
s29.5 -2.66699 48.5 -8s37 -15.333 54 -30s31.5 -35 43.5 -61s18 -59.667 18 -101c0 -18 -2.33301 -38.5 -7 -61.5s-13 -44.833 -25 -65.5s-28.667 -38 -50 -52s-48.666 -21 -81.999 -21s-60.666 7 -81.999 21s-38 31.333 -50 52s-20.333 42.5 -25 65.5s-7 43.5 -7 61.5z
M116.998 508c0 -11.333 1.16699 -25.5 3.5 -42.5s7 -33.167 14 -48.5s17 -28.5 30 -39.5s30.5 -16.5 52.5 -16.5s39.5 5.5 52.5 16.5s23 24.167 30 39.5s11.667 31.5 14 48.5s3.5 31.167 3.5 42.5c0 28.667 -3.33301 52.5 -10 71.5s-15 34.167 -25 45.5
s-20.833 19.166 -32.5 23.499s-22.5 6.5 -32.5 6.5s-20.833 -2.16699 -32.5 -6.5s-22.5 -12.166 -32.5 -23.499s-18.333 -26.5 -25 -45.5s-10 -42.833 -10 -71.5zM52.998 508c0 41.333 5.99805 75 17.998 101s26.5 46.333 43.5 61s35 24.667 54 30s35.167 8 48.5 8
s29.5 -2.66699 48.5 -8s37 -15.333 54 -30s31.5 -35 43.5 -61s18 -59.667 18 -101c0 -18 -2.33301 -38.5 -7 -61.5s-13 -44.833 -25 -65.5s-28.667 -38 -50 -52s-48.666 -21 -81.999 -21s-60.666 7 -81.999 21s-38 31.333 -50 52s-20.333 42.5 -25 65.5s-7 43.5 -7 61.5z
M648.996 700h71l-454 -700h-71z" />
    <glyph glyph-name="ampersand" unicode="&#x26;" horiz-adv-x="683" 
d="M317 438c26 9.33301 48.165 24.667 66.498 46s27.5 47 27.5 77c0 19.333 -6.83301 36.333 -20.5 51s-31.5 22 -53.5 22c-9.33301 0 -18.666 -1.33301 -27.999 -4s-17.833 -7 -25.5 -13s-14 -13.833 -19 -23.5s-7.5 -21.5 -7.5 -35.5c0 -24 6.33301 -45.5 19 -64.5
s26.334 -37.5 41.001 -55.5zM289.998 348.001c-25.333 -10 -46.168 -21.333 -62.501 -34s-29.333 -26 -39 -40s-16.334 -28.333 -20.001 -43s-5.5 -29 -5.5 -43c0 -15.333 2.66699 -30.833 8 -46.5s13.833 -30 25.5 -43s26.334 -23.667 44.001 -32
s38.834 -12.5 63.501 -12.5c32.667 0 63.167 7.16699 91.5 21.5s50.833 35.5 67.5 63.5zM620.996 306.001c-5.33301 -30.667 -11.8359 -58.8281 -19.5029 -84.4951s-20.5 -52.167 -38.5 -79.5l120 -142h-105l-69 82c-11.333 -18 -25.166 -33.333 -41.499 -46
s-34.166 -23.334 -53.499 -32.001s-39.333 -15 -60 -19s-41.334 -6 -62.001 -6c-40 0 -74 6.33301 -102 19s-50.667 29 -68 49s-30 42.333 -38 67s-12 49 -12 73c0 53.333 14.667 96.666 44 129.999s72 62.666 128 87.999c-16 18.667 -28.667 35.834 -38 51.501
s-16.333 29.667 -21 42s-7.5 23.333 -8.5 33s-1.5 17.834 -1.5 24.501c0 22.667 4.33301 43 13 61s20.334 33.167 35.001 45.5s31.834 21.666 51.501 27.999s40.834 9.5 63.501 9.5c25.333 0 47.666 -4 66.999 -12s35.333 -18.5 48 -31.5s22.167 -28 28.5 -45
s9.5 -34.5 9.5 -52.5c0 -22 -4.16699 -42.167 -12.5 -60.5s-18.833 -34.833 -31.5 -49.5s-26.667 -27.334 -42 -38.001s-30.333 -19.334 -45 -26.001l153 -182c6.66699 10.667 12 23.167 16 37.5s8.33301 36.166 13 65.499h79z" />
    <glyph glyph-name="quotesingle" unicode="'" horiz-adv-x="232" 
d="M142 508h-52l-40 192h132z" />
    <glyph glyph-name="parenleft" unicode="(" horiz-adv-x="365" 
d="M282 700c-45.333 -88 -77 -168.999 -95 -242.999s-27 -140.333 -27 -199c0 -37.333 3.16699 -75.166 9.5 -113.499s15 -76.5 26 -114.5s23.833 -75 38.5 -111s30.667 -70.333 48 -103h-66c-30.667 52 -55.5 98.167 -74.5 138.5s-33.667 77.666 -44 111.999
s-17.333 66.833 -21 97.5s-5.5 62 -5.5 94s1.83301 63.333 5.5 94s10.667 63.167 21 97.5s25 71.666 44 111.999s43.833 86.5 74.5 138.5h66z" />
    <glyph glyph-name="parenright" unicode=")" horiz-adv-x="365" 
d="M83 -184c29.333 56.667 52.166 108.333 68.499 155s28.5 88.5 36.5 125.5s12.833 69 14.5 96s2.5 48.833 2.5 65.5c0 14.667 -0.833008 35.167 -2.5 61.5s-6.5 58.333 -14.5 96s-20.167 80.334 -36.5 128.001s-39.166 99.834 -68.499 156.501h66
c32.667 -52 58.5 -99.667 77.5 -143s33.5 -83 43.5 -119s16.5 -68.833 19.5 -98.5s4.5 -56.834 4.5 -81.501s-1.5 -51.834 -4.5 -81.501s-9.5 -62.667 -19.5 -99s-24.5 -76 -43.5 -119s-44.833 -90.5 -77.5 -142.5h-66z" />
    <glyph glyph-name="asterisk" unicode="*" horiz-adv-x="465" 
d="M153 403l-40 30l78 108l-125 40l16 47l126 -40v132h50v-132l125 40l16 -47l-124 -40l78 -108l-41 -30l-79 108z" />
    <glyph glyph-name="plus" unicode="+" 
d="M269 386v219h62v-219h219v-62h-219v-219h-62v219h-219v62h219z" />
    <glyph glyph-name="comma" unicode="," horiz-adv-x="311" 
d="M205 109v-139.998c0 -20 -3.33301 -37 -10 -51s-15 -25.5 -25 -34.5s-20.667 -16 -32 -21s-22 -8.5 -32 -10.5v55c14 1.33301 25.833 8.16602 35.5 20.499s14.5 26.166 14.5 41.499v31h-50v109h99z" />
    <glyph glyph-name="hyphen" unicode="-" horiz-adv-x="422" 
d="M79 310h264v-85h-264v85z" />
    <glyph glyph-name="period" unicode="." horiz-adv-x="311" 
d="M106 109h99v-109h-99v109z" />
    <glyph glyph-name="slash" unicode="/" horiz-adv-x="420" 
d="M357 700h63l-357 -885h-63z" />
    <glyph glyph-name="zero" unicode="0" horiz-adv-x="580" 
d="M290 58c28 0 51.667 7.83301 71 23.5s35 36.667 47 63s20.667 57.166 26 92.499s8 73 8 113s-2.66699 77.667 -8 113s-14 66.166 -26 92.499s-27.667 47.333 -47 63s-43 23.5 -71 23.5s-51.667 -7.83301 -71 -23.5s-35 -36.667 -47 -63s-20.667 -57.166 -26 -92.499
s-8 -73 -8 -113s2.66699 -77.667 8 -113s14 -66.166 26 -92.499s27.667 -47.333 47 -63s43 -23.5 71 -23.5zM290 -21c-8.66699 0 -20.667 0.833008 -36 2.5s-32.166 6.33398 -50.499 14.001s-36.833 19.167 -55.5 34.5s-35.667 36.666 -51 63.999
s-27.833 61.833 -37.5 103.5s-14.5 92.5 -14.5 152.5s4.83301 110.833 14.5 152.5s22.167 76.167 37.5 103.5s32.333 48.666 51 63.999s37.167 26.833 55.5 34.5s35.166 12.334 50.499 14.001s27.333 2.5 36 2.5s20.667 -0.833008 36 -2.5s32.166 -6.33398 50.499 -14.001
s36.833 -19.167 55.5 -34.5s35.667 -36.666 51 -63.999s27.833 -61.833 37.5 -103.5s14.5 -92.5 14.5 -152.5s-4.83301 -110.833 -14.5 -152.5s-22.167 -76.167 -37.5 -103.5s-32.333 -48.666 -51 -63.999s-37.167 -26.833 -55.5 -34.5s-35.166 -12.334 -50.499 -14.001
s-27.333 -2.5 -36 -2.5z" />
    <glyph glyph-name="one" unicode="1" horiz-adv-x="580" 
d="M130 575l20.999 0.000976562c20.667 0 40.667 3 60 9s36.5 14.333 51.5 25s27.333 23.667 37 39s15.834 32.666 18.501 51.999h66v-700h-94v526h-160v49z" />
    <glyph glyph-name="two" unicode="2" horiz-adv-x="580" 
d="M531 0l-474 -0.00488281c0 42 5.83301 78.333 17.5 109s28.167 58 49.5 82s46.5 46 75.5 66s60.5 40.667 94.5 62l47 30c16.667 10.667 32.167 23.334 46.5 38.001s26.166 31.834 35.499 51.501s14 42.834 14 69.501c0 44 -13 77.333 -39 100s-60 34 -102 34
c-44.667 0 -80 -12.667 -106 -38s-39 -59 -39 -101v-26h-92v21c0 16 2.5 36.5 7.5 61.5s15.833 49.5 32.5 73.5s40.834 44.667 72.501 62s74.167 26 127.5 26c36 0 68.333 -4.83301 97 -14.5s53.167 -23.5 73.5 -41.5s36 -40.167 47 -66.5s16.5 -56.166 16.5 -89.499
c0 -32.667 -4 -60.667 -12 -84s-21 -45 -39 -65s-41.333 -39.833 -70 -59.5l-104 -68.5c-47.333 -30 -82 -56.667 -104 -80s-36.333 -47.666 -43 -72.999h370v-79z" />
    <glyph glyph-name="three" unicode="3" horiz-adv-x="580" 
d="M130 213c0.666992 -4 1.16699 -7.83008 1.5 -11.4971s0.833008 -7.5 1.5 -11.5c1.33301 -8 3.83301 -19.667 7.5 -35s10.667 -30.5 21 -45.5s24.833 -28 43.5 -39s43.334 -16.5 74.001 -16.5c36 0 64.667 5.66699 86 17s37.333 24.833 48 40.5s17.5 31.834 20.5 48.501
s4.5 30.667 4.5 42c0 38.667 -11.5 69.334 -34.5 92.001s-54.167 34 -93.5 34h-72v76h28c7.33301 0 19.5 0.666992 36.5 2s34.167 5.83301 51.5 13.5s32.5 19.667 45.5 36s19.5 39.5 19.5 69.5c0 14 -2 28.167 -6 42.5s-11.167 27.333 -21.5 39s-24.5 21.167 -42.5 28.5
s-40.667 11 -68 11c-8 0 -19.667 -1 -35 -3s-30.5 -8.16699 -45.5 -18.5s-28 -26.166 -39 -47.499s-16.5 -51.333 -16.5 -90h-87c0 10 0.5 22.833 1.5 38.5s4 32.167 9 49.5s12.333 34.666 22 51.999s22.834 33 39.501 47s37.5 25.333 62.5 34s55.5 13 91.5 13
c48.667 0 87.667 -7.5 117 -22.5s51.666 -32.667 66.999 -53s25.5 -41.333 30.5 -63s7.5 -39.5 7.5 -53.5c0 -38.667 -10.667 -71.834 -32 -99.501s-49 -46.167 -83 -55.5v-2c18 -2.66699 35 -8.33398 51 -17.001s30.333 -20.5 43 -35.5s22.667 -32.833 30 -53.5
s11 -44.334 11 -71.001c0 -34 -6 -64.5 -18 -91.5s-28.833 -49.667 -50.5 -68s-47.167 -32.333 -76.5 -42s-61.333 -14.5 -96 -14.5c-51.333 0 -92.666 7.83301 -123.999 23.5s-55.833 35.167 -73.5 58.5s-29.834 48.666 -36.501 75.999s-10.334 52.666 -11.001 75.999h90z
" />
    <glyph glyph-name="four" unicode="4" horiz-adv-x="580" 
d="M353 241v336l-240 -336h240zM23 162v79l329 459h95v-459h110v-79h-110v-162h-94v162h-330z" />
    <glyph glyph-name="five" unicode="5" horiz-adv-x="580" 
d="M138 179c1.33301 -11.333 4.50293 -24.3311 9.50293 -38.998s13 -28.334 24 -41.001s25.333 -23.334 43 -32.001s40.167 -13 67.5 -13c12 0 27.167 1.33301 45.5 4s36.166 9.66699 53.499 21s32.333 28.5 45 51.5s19 55.167 19 96.5c0 30.667 -4.5 56.667 -13.5 78
s-20.667 38.333 -35 51s-30.833 21.834 -49.5 27.501s-37.334 8.5 -56.001 8.5c-11.333 0 -23.833 -1.33301 -37.5 -4s-26.834 -6.5 -39.501 -11.5s-24.334 -11.333 -35.001 -19s-19 -16.5 -25 -26.5h-88l49 369h378v-79h-309l-28 -207c22 19.333 45.833 33 71.5 41
s54.5 12 86.5 12s61.5 -5.5 88.5 -16.5s50.167 -26.667 69.5 -47s34.333 -45.333 45 -75s16 -63.167 16 -100.5c0 -35.333 -5 -68 -15 -98s-25.167 -56.333 -45.5 -79s-46.333 -40.334 -78 -53.001s-69.167 -19 -112.5 -19c-45.333 0 -82.666 6.66699 -111.999 20
s-52.833 30 -70.5 50s-30.5 41.667 -38.5 65s-13 45 -15 65h92z" />
    <glyph glyph-name="six" unicode="6" horiz-adv-x="580" 
d="M143 224c0 -22 3.16504 -43.1641 9.49805 -63.4971s15.833 -38.333 28.5 -54s28.834 -28.334 48.501 -38.001s42.834 -14.5 69.501 -14.5c26 0 48.167 4.83301 66.5 14.5s33.333 22.667 45 39s20.334 34.833 26.001 55.5s8.5 42 8.5 64c0 21.333 -3 41.666 -9 60.999
s-15.167 36.166 -27.5 50.499s-27.833 25.833 -46.5 34.5s-40.334 13 -65.001 13c-49.333 0 -87.333 -15 -114 -45s-40 -69 -40 -117zM440.998 546.003c-6 24.667 -14.9961 43.8311 -26.9961 57.498s-24.667 23.667 -38 30s-26.5 10 -39.5 11s-22.833 1.5 -29.5 1.5
c-36.667 0 -66.167 -8.33301 -88.5 -25s-39.5 -37.834 -51.5 -63.501s-20 -53.667 -24 -84s-6 -59.166 -6 -86.499h2c20.667 27.333 46.334 46.5 77.001 57.5s62 16.5 94 16.5s61.667 -5.33301 89 -16s51.166 -26 71.499 -46s36.166 -44.5 47.499 -73.5s17 -62.167 17 -99.5
c0 -36 -5.33301 -69.167 -16 -99.5s-26.334 -56.5 -47.001 -78.5s-45.834 -39 -75.501 -51s-63.5 -18 -101.5 -18c-38.667 0 -73.5 5.66699 -104.5 17s-57.333 30.833 -79 58.5s-38.334 64.834 -50.001 111.501s-17.5 105 -17.5 175c0 62 5.16699 114.667 15.5 158
s23.5 79 39.5 107s34 49.833 54 65.5s39.667 27.167 59 34.5s37.5 11.666 54.5 12.999s30.833 2 41.5 2c10 0 25.5 -1.16699 46.5 -3.5s42.833 -9.16602 65.5 -20.499s44 -28.666 64 -51.999s33.667 -56.333 41 -99h-84z" />
    <glyph glyph-name="seven" unicode="7" horiz-adv-x="580" 
d="M34 700l510.997 0.00195312v-64c-23.333 -26 -44.333 -51.333 -63 -76s-35.667 -49.834 -51 -75.501s-29.5 -51.834 -42.5 -78.501s-25.5 -54.667 -37.5 -84c-11.333 -27.333 -21 -53.5 -29 -78.5s-15 -50.333 -21 -76s-11.167 -52.167 -15.5 -79.5
s-8.16602 -56.666 -11.499 -87.999h-100c6.66699 50.667 16.334 101.5 29.001 152.5s31 104.833 55 161.5c10.667 24.667 22.834 50.167 36.501 76.5s28.667 52.833 45 79.5s34 52.667 53 78s39.167 49.666 60.5 72.999h-419v79z" />
    <glyph glyph-name="eight" unicode="8" horiz-adv-x="580" 
d="M290 54c16.667 0 33.668 2.83301 51.001 8.5s33 14.5 47 26.5s25.5 27.5 34.5 46.5s13.5 41.5 13.5 67.5c0 14.667 -2.16699 30 -6.5 46s-12 30.667 -23 44s-26 24.5 -45 33.5s-42.833 13.5 -71.5 13.5c-29.333 0 -53.333 -4.5 -72 -13.5s-33.5 -20.167 -44.5 -33.5
s-18.667 -28 -23 -44s-6.5 -31.333 -6.5 -46c0 -26 4.33301 -48.5 13 -67.5s20 -34.5 34 -46.5s29.667 -20.833 47 -26.5s34.666 -8.5 51.999 -8.5zM290.001 412c22.667 0 41.832 3.16699 57.499 9.5s28.5 15 38.5 26s17.167 23.5 21.5 37.5s6.5 29 6.5 45
c0 8.66699 -1.33301 19.667 -4 33s-8.33398 26.166 -17.001 38.499s-21.167 22.833 -37.5 31.5s-38.166 13 -65.499 13s-49.166 -4.33301 -65.499 -13s-28.833 -19.167 -37.5 -31.5s-14.334 -25.166 -17.001 -38.499s-4 -24.333 -4 -33c0 -16 2.16699 -31 6.5 -45
s11.5 -26.5 21.5 -37.5s22.833 -19.667 38.5 -26s34.834 -9.5 57.501 -9.5zM180.999 379c-32 11.333 -56.833 31.5 -74.5 60.5s-26.5 60.167 -26.5 93.5c0 18 3 38 9 60s16.833 42.5 32.5 61.5s37.167 34.833 64.5 47.5s62 19 104 19s76.667 -6.33301 104 -19
s48.833 -28.5 64.5 -47.5s26.5 -39.5 32.5 -61.5s9 -42 9 -60c0 -33.333 -8.83301 -64.5 -26.5 -93.5s-42.5 -49.167 -74.5 -60.5c20 -5.33301 37.833 -14 53.5 -26s29 -26 40 -42s19.333 -33.833 25 -53.5s8.5 -39.5 8.5 -59.5c0 -30 -4.66699 -58.333 -14 -85
s-23.666 -49.834 -42.999 -69.501s-43.833 -35.334 -73.5 -47.001s-64.834 -17.5 -105.501 -17.5s-75.834 5.83301 -105.501 17.5s-54.167 27.334 -73.5 47.001s-33.666 42.834 -42.999 69.501s-14 55 -14 85c0 20 2.83301 39.833 8.5 59.5s14 37.5 25 53.5s24.333 30 40 42
s33.5 20.667 53.5 26z" />
    <glyph glyph-name="nine" unicode="9" horiz-adv-x="580" 
d="M436 476c0 22 -3.16504 43.165 -9.49805 63.498s-15.833 38.333 -28.5 54s-28.834 28.334 -48.501 38.001s-42.834 14.5 -69.501 14.5c-26 0 -48.167 -4.83301 -66.5 -14.5s-33.333 -22.667 -45 -39s-20.334 -34.833 -26.001 -55.5s-8.5 -42 -8.5 -64
c0 -21.333 3 -41.666 9 -60.999s15.167 -36.333 27.5 -51s27.833 -26.167 46.5 -34.5s40.334 -12.5 65.001 -12.5c49.333 0 87.333 15 114 45s40 69 40 117zM138.002 153.998c6 -24.667 14.998 -43.8359 26.998 -57.5029s24.667 -23.667 38 -30s26.333 -10 39 -11
s22.667 -1.5 30 -1.5c36.667 0 66.167 8.33301 88.5 25s39.5 37.667 51.5 63s20 53.333 24 84s6 59.667 6 87h-2c-20.667 -27.333 -46.334 -46.5 -77.001 -57.5s-62 -16.5 -94 -16.5s-61.667 5.33301 -89 16s-51.166 26 -71.499 46s-36.166 44.5 -47.499 73.5
s-17 62.167 -17 99.5c0 36 5.33301 69.167 16 99.5s26.334 56.5 47.001 78.5s45.834 39 75.501 51s63.5 18 101.5 18c20 0 40.167 -1.5 60.5 -4.5s39.666 -9.16699 57.999 -18.5s35.666 -22.166 51.999 -38.499s30.333 -38 42 -65s21 -59.667 28 -98
s10.5 -84.166 10.5 -137.499c0 -55.333 -4 -103.166 -12 -143.499s-18.667 -74.666 -32 -102.999s-29 -51.166 -47 -68.499s-36.667 -30.833 -56 -40.5s-39.166 -16.167 -59.499 -19.5s-39.5 -5 -57.5 -5c-10 0 -25.5 1.16699 -46.5 3.5s-42.833 9.16602 -65.5 20.499
s-44 28.666 -64 51.999s-33.667 56.333 -41 99h84z" />
    <glyph glyph-name="colon" unicode=":" horiz-adv-x="311" 
d="M106 109h99v-109h-99v109zM106 508h99v-109h-99v109z" />
    <glyph glyph-name="semicolon" unicode=";" horiz-adv-x="311" 
d="M205 109v-139.998c0 -20 -3.33301 -37 -10 -51s-15 -25.5 -25 -34.5s-20.667 -16 -32 -21s-22 -8.5 -32 -10.5v55c14 1.33301 25.833 8.16602 35.5 20.499s14.5 26.166 14.5 41.499v31h-50v109h99zM106 508.002h99v-109h-99v109z" />
    <glyph glyph-name="less" unicode="&#x3c;" horiz-adv-x="669" 
d="M555 651l30 -54l-449 -255l449 -255l-30 -54l-495 285v48z" />
    <glyph glyph-name="equal" unicode="=" 
d="M550 276v-62h-500v62h500zM550 476v-62h-500v62h500z" />
    <glyph glyph-name="greater" unicode="&#x3e;" horiz-adv-x="669" 
d="M114 33l-30 54l449 255l-449 255l30 54l495 -285v-48z" />
    <glyph glyph-name="question" unicode="?" horiz-adv-x="548" 
d="M53 489c-1.33301 28.667 1.16406 56.668 7.49707 84.001s17.833 51.666 34.5 72.999s39.834 38.5 69.501 51.5s67.5 19.5 113.5 19.5c32.667 0 62.334 -4 89.001 -12s49.5 -19.667 68.5 -35s33.667 -34.333 44 -57s15.5 -48.334 15.5 -77.001
c0 -19.333 -2.16699 -36.833 -6.5 -52.5s-10.666 -30.5 -18.999 -44.5s-19 -27.5 -32 -40.5s-28.167 -26.833 -45.5 -41.5c-10.667 -8.66699 -21 -17.5 -31 -26.5s-19 -18.833 -27 -29.5s-14.5 -22.167 -19.5 -34.5s-7.5 -26.5 -7.5 -42.5v-21h-73
c-1.33301 10.667 -1.66602 22.5 -0.999023 35.5s2.5 26.167 5.5 39.5s7.66699 26.5 14 39.5s15.166 25.5 26.499 37.5c12.667 13.333 26.667 26.333 42 39s29.333 25.667 42 39s23.334 28 32.001 44s13 34.333 13 55c0 10.667 -2 22.5 -6 35.5s-11 25.333 -21 37
s-23.333 21.334 -40 29.001s-38 11.5 -64 11.5c-10 0 -22.833 -1.16699 -38.5 -3.5s-31 -8.5 -46 -18.5s-27.833 -25.5 -38.5 -46.5s-15.334 -50.167 -14.001 -87.5h-87zM219.997 109.001h99v-109h-99v109z" />
    <glyph glyph-name="at" unicode="@" horiz-adv-x="863" 
d="M517 337c0 39.333 -7.66895 71.167 -23.002 95.5s-39.666 36.5 -72.999 36.5c-18 0 -33.333 -3.66699 -46 -11s-23 -17 -31 -29s-13.833 -26 -17.5 -42s-5.5 -32.667 -5.5 -50c0 -14 1.33301 -28.667 4 -44s7.66699 -29.5 15 -42.5s17.5 -23.667 30.5 -32
s29.5 -12.5 49.5 -12.5c20.667 0 37.334 4.33301 50.001 13s22.5 19.667 29.5 33s11.667 27.5 14 42.5s3.5 29.167 3.5 42.5zM616.998 29.001c-30.667 -18 -60.4971 -30.834 -89.4971 -38.501s-61.167 -11.5 -96.5 -11.5c-51.333 0 -99.5 8 -144.5 24
s-84.333 39.833 -118 71.5s-60.167 70.667 -79.5 117s-29 99.5 -29 159.5c0 54.667 9.66699 104.834 29 150.501s45.666 84.667 78.999 117s72.666 57.5 117.999 75.5s93.666 27 144.999 27c63.333 0 118.333 -9.66699 165 -29s85.334 -45.166 116.001 -77.499
s53.5 -69.5 68.5 -111.5s22.5 -86 22.5 -132c0 -26 -4 -52.333 -12 -79s-19.667 -50.834 -35 -72.501s-34.333 -39.167 -57 -52.5s-48.667 -20 -78 -20c-6.66699 0 -14.167 0.5 -22.5 1.5s-16.5 3.16699 -24.5 6.5s-15.833 8.16602 -23.5 14.499
s-13.834 14.833 -18.501 25.5c-3.33301 -6.66699 -8 -13.334 -14 -20.001s-13.667 -12.5 -23 -17.5s-21 -9 -35 -12s-30.667 -4.5 -50 -4.5c-54 0 -96.333 17.833 -127 53.5s-46 83.5 -46 143.5c0 27.333 3.66699 53 11 77s18.166 44.833 32.499 62.5s31.833 31.667 52.5 42
s44 15.5 70 15.5c33.333 0 59 -5.5 77 -16.5s31.667 -23.833 41 -38.5h3v41h76v-252c0 -26 3.83301 -42.167 11.5 -48.5s16.5 -9.5 26.5 -9.5c18 0 33.5 5 46.5 15s23.667 22.833 32 38.5s14.333 32.834 18 51.501s5.5 37 5.5 55c0 47.333 -8 89.333 -24 126
s-38 67.5 -66 92.5s-60.833 43.833 -98.5 56.5s-77.834 19 -120.501 19c-48 0 -91 -8.66699 -129 -26s-70.167 -40.5 -96.5 -69.5s-46.666 -62.5 -60.999 -100.5s-21.5 -77.333 -21.5 -118c0 -55.333 9.16699 -102.833 27.5 -142.5s42.333 -72.167 72 -97.5
s62.834 -44.166 99.501 -56.499s73 -18.5 109 -18.5c38 0 69.833 5.16699 95.5 15.5s46.167 20.5 61.5 30.5z" />
    <glyph glyph-name="A" unicode="A" horiz-adv-x="622" 
d="M433 260l-122 345l-122 -345h244zM97 0h-101l265 700h100l265 -700h-101l-66 181h-296z" />
    <glyph glyph-name="B" unicode="B" horiz-adv-x="689" 
d="M179 79l195.001 0.00390625c16 0 33.5 1.16699 52.5 3.5s36.5 7.66602 52.5 15.999s29.333 20.666 40 36.999s16 38.833 16 67.5c0 22.667 -3.83301 41.667 -11.5 57s-18.5 27.666 -32.5 36.999s-30.833 16.166 -50.5 20.499s-41.834 6.5 -66.501 6.5h-195v-245z
M179.001 403.004h188.999c26 0 47.667 3 65 9s31.333 14 42 24s18.334 21.5 23.001 34.5s7 26.833 7 41.5c0 10 -1.5 21.333 -4.5 34s-9.16699 24.5 -18.5 35.5s-22.833 20.333 -40.5 28s-41.167 11.5 -70.5 11.5h-192v-218zM392 700.004c42.667 0 77.5 -5.5 104.5 -16.5
s48.167 -25 63.5 -42s26 -36 32 -57s9 -41.833 9 -62.5c0 -18.667 -3 -36.5 -9 -53.5s-14.333 -32.167 -25 -45.5s-23 -24.5 -37 -33.5s-29.333 -14.833 -46 -17.5v-3c14.667 -2.66699 30.5 -7.33398 47.5 -14.001s32.833 -16.667 47.5 -30s27 -30.5 37 -51.5
s15 -47.167 15 -78.5c0 -25.333 -3.66699 -49.666 -11 -72.999s-20.5 -44 -39.5 -62s-44.5 -32.5 -76.5 -43.5s-73 -16.5 -123 -16.5h-296v700h307z" />
    <glyph glyph-name="C" unicode="C" horiz-adv-x="712" 
d="M674 232c-3.33301 -25.333 -10.002 -52.6709 -20.002 -82.0039s-26.167 -56.666 -48.5 -81.999s-51.833 -46.5 -88.5 -63.5s-83 -25.5 -139 -25.5c-52 0 -98.667 8.16699 -140 24.5s-76.166 40 -104.499 71s-50.166 68.667 -65.499 113s-23 94.5 -23 150.5
c0 62 6.83301 114.5 20.5 157.5s31 78.667 52 107s44.5 50.5 70.5 66.5s51.167 27.833 75.5 35.5s46.5 12.334 66.5 14.001s35 2.5 45 2.5c56 0 102 -7.33301 138 -22s64.833 -33.5 86.5 -56.5s37.334 -48.5 47.001 -76.5s15.834 -55.333 18.501 -82h-94
c-1.33301 12.667 -4.83301 28 -10.5 46s-15.5 35.333 -29.5 52s-33.5 30.834 -58.5 42.501s-57.5 17.5 -97.5 17.5c-44 0 -80.667 -8.5 -110 -25.5s-52.833 -39.5 -70.5 -67.5s-30.334 -60 -38.001 -96s-11.5 -73 -11.5 -111c0 -40.667 5.33301 -78.334 16 -113.001
s26.334 -64.667 47.001 -90s45.5 -45.166 74.5 -59.499s62.167 -21.5 99.5 -21.5c28 0 53.833 4.33301 77.5 13s44.167 20.834 61.5 36.501s31.166 34 41.499 55s16.166 44.167 17.499 69.5h94z" />
    <glyph glyph-name="D" unicode="D" horiz-adv-x="719" 
d="M179 79h130.999c90 0 156.667 21.833 200 65.5s65 112.167 65 205.5c0 52.667 -6.83301 96.5 -20.5 131.5s-31.667 62.833 -54 83.5s-47.666 35.167 -75.999 43.5s-57.5 12.5 -87.5 12.5h-158v-542zM341.999 700c12 0 28.498 -0.666992 49.498 -2s43.833 -5.5 68.5 -12.5
s49.834 -17.667 75.501 -32s48.834 -34.333 69.501 -60s37.5 -58.167 50.5 -97.5s19.5 -87.333 19.5 -144c0 -57.333 -6.33301 -105.833 -19 -145.5s-29.334 -72.5 -50.001 -98.5s-44.167 -46.333 -70.5 -61s-53.166 -25.5 -80.499 -32.5s-53.833 -11.167 -79.5 -12.5
s-48.5 -2 -68.5 -2h-222v700h257z" />
    <glyph glyph-name="E" unicode="E" horiz-adv-x="612" 
d="M546 401v-79h-367v-243h416v-79h-510v700h499v-79h-405v-220h367z" />
    <glyph glyph-name="F" unicode="F" horiz-adv-x="568" 
d="M508 393v-79h-329v-314h-94v700h470v-79h-376v-228h329z" />
    <glyph glyph-name="G" unicode="G" horiz-adv-x="740" 
d="M682 365l0.00683594 -365.003h-73v113h-2c-20 -42 -50 -74.833 -90 -98.5s-87.667 -35.5 -143 -35.5c-42 0 -82.667 6.5 -122 19.5s-74.333 34.333 -105 64s-55.334 68.667 -74.001 117s-28 107.5 -28 177.5c0 59.333 8 111.666 24 156.999s39 83.333 69 114
s66 53.834 108 69.501s89 23.5 141 23.5c46.667 0 87.167 -6.5 121.5 -19.5s63 -30.167 86 -51.5s40.833 -45.666 53.5 -72.999s20.667 -55.333 24 -84h-94c-1.33301 16 -5.33301 32.833 -12 50.5s-17.334 33.667 -32.001 48s-34.167 26.333 -58.5 36s-54.5 14.5 -90.5 14.5
c-36.667 0 -68.167 -5.33301 -94.5 -16s-48.333 -24.667 -66 -42s-31.834 -36.666 -42.501 -57.999s-18.667 -42.666 -24 -63.999s-8.83301 -41.5 -10.5 -60.5s-2.5 -34.833 -2.5 -47.5c0 -8.66699 0.666992 -22 2 -40s4.66602 -37.833 9.99902 -59.5
s13.166 -44.167 23.499 -67.5s24.333 -44.5 42 -63.5s39.667 -34.667 66 -47s58.166 -18.5 95.499 -18.5c43.333 0 78.666 7.83301 105.999 23.5s48.833 35 64.5 58s26.5 47.833 32.5 74.5s9 50.667 9 72h-200v79h286z" />
    <glyph glyph-name="H" unicode="H" horiz-adv-x="710" 
d="M179 0h-94v700h94v-292h352v292h94v-700h-94v329h-352v-329z" />
    <glyph glyph-name="I" unicode="I" horiz-adv-x="264" 
d="M179 700v-700h-94v700h94z" />
    <glyph glyph-name="J" unicode="J" horiz-adv-x="520" 
d="M117 232c0 -28 2.00098 -52.6689 6.00098 -74.002s10.5 -39.5 19.5 -54.5s21.167 -26.333 36.5 -34s35 -11.5 59 -11.5c24.667 0 44.667 4.33301 60 13s27.166 20.667 35.499 36s13.833 33.833 16.5 55.5s4 45.167 4 70.5v467h94v-458c0 -46 -3.83301 -85.5 -11.5 -118.5
s-19.834 -60.167 -36.501 -81.5s-38.5 -37.166 -65.5 -47.499s-59.5 -15.5 -97.5 -15.5c-18 0 -39.167 1.83301 -63.5 5.5s-47.666 12.834 -69.999 27.501s-41.333 36.5 -57 65.5s-23.5 68.5 -23.5 118.5v36h94z" />
    <glyph glyph-name="K" unicode="K" horiz-adv-x="667" 
d="M525 700h127l-292 -288l311 -412h-125l-255 349l-112 -109v-240h-94v700h94v-347z" />
    <glyph glyph-name="L" unicode="L" horiz-adv-x="529" 
d="M535 0h-450v700h94v-621h356v-79z" />
    <glyph glyph-name="M" unicode="M" horiz-adv-x="890" 
d="M179 588h-2l2 -27v-561h-94v700h141l219 -576l219 576h141v-700h-94v561l2 27h-3l-227 -588h-76z" />
    <glyph glyph-name="N" unicode="N" horiz-adv-x="740" 
d="M179 0h-94v700h104l372 -555v555h94v-700h-103l-373 555v-555z" />
    <glyph glyph-name="O" unicode="O" horiz-adv-x="758" 
d="M145 350c0 -28 2.8291 -58.9971 8.49609 -92.9971s16.834 -65.833 33.501 -95.5s40.334 -54.334 71.001 -74.001s71 -29.5 121 -29.5c8 0 19.333 0.666992 34 2s30.667 5 48 11s35 15.167 53 27.5s34.333 29.166 49 50.499s26.667 48.333 36 81s14 72.667 14 120
c0 41.333 -4.66699 79.833 -14 115.5s-23.5 66.5 -42.5 92.5s-43.333 46.5 -73 61.5s-64.5 22.5 -104.5 22.5c-35.333 0 -65.833 -5.5 -91.5 -16.5s-47.167 -25.167 -64.5 -42.5s-31.166 -36.833 -41.499 -58.5s-18.166 -43.334 -23.499 -65.001
s-8.83301 -42.167 -10.5 -61.5s-2.5 -35.333 -2.5 -48zM44.9961 350.003c0 61.333 8.33301 115.166 25 161.499s39.667 85 69 116s64.5 54.333 105.5 70s85.833 23.5 134.5 23.5c38.667 0 77.834 -6 117.501 -18s75.5 -32.167 107.5 -60.5s58.167 -66.333 78.5 -114
s30.5 -107.167 30.5 -178.5c0 -60.667 -7.33301 -112.167 -22 -154.5s-33.167 -77.166 -55.5 -104.499s-46.833 -48.5 -73.5 -63.5s-52.334 -26.167 -77.001 -33.5s-46.667 -11.666 -66 -12.999s-32.666 -2 -39.999 -2s-20.833 0.666992 -40.5 2
s-41.834 5.66602 -66.501 12.999s-50.334 18.5 -77.001 33.5s-51.167 36.167 -73.5 63.5s-40.666 62 -54.999 104s-21.5 93.667 -21.5 155z" />
    <glyph glyph-name="P" unicode="P" horiz-adv-x="639" 
d="M179 358h172c56 0 96.667 11.667 122 35s38 58 38 104c0 43.333 -13.167 74.833 -39.5 94.5s-66.5 29.5 -120.5 29.5h-172v-263zM370 700c36 0 68.498 -3.66699 97.498 -11s53.833 -19 74.5 -35s36.667 -36.833 48 -62.5s17 -56.5 17 -92.5
c0 -32.667 -4.33301 -62.5 -13 -89.5s-22.667 -50.167 -42 -69.5s-44.666 -34.333 -75.999 -45s-69.666 -16 -114.999 -16h-182v-279h-94v700h285z" />
    <glyph glyph-name="Q" unicode="Q" horiz-adv-x="758" 
d="M550 131c21.333 27.333 37.167 58.332 47.5 92.999s15.5 76.667 15.5 126c0 65.333 -8.83301 117.333 -26.5 156s-38.834 68 -63.501 88s-50.334 33 -77.001 39s-49 9 -67 9c-12.667 0 -27.167 -1.16699 -43.5 -3.5s-33.166 -7.16602 -50.499 -14.499
s-34.5 -17.5 -51.5 -30.5s-32 -30.333 -45 -52s-23.5 -48.167 -31.5 -79.5s-12 -68.666 -12 -111.999c0 -27.333 2.83301 -57.833 8.5 -91.5s16.834 -65.334 33.501 -95.001s40.334 -54.667 71.001 -75s71 -30.5 121 -30.5c8 0 17.167 0.5 27.5 1.5s20.666 2.5 30.999 4.5
s20.5 4.83301 30.5 8.5s19 8.16699 27 13.5l-78 87l54 47zM691.001 -25.001l-52 -49.002l-83 93c-3.33301 -2 -9.33301 -5.16699 -18 -9.5s-20.334 -8.83301 -35.001 -13.5s-32.334 -8.66699 -53.001 -12s-44.334 -5 -71.001 -5c-68 0 -123.5 12.167 -166.5 36.5
s-77 55 -102 92s-42.167 77.167 -51.5 120.5s-14 84 -14 122c0 20 1.66699 43 5 69s9.33301 52.667 18 80s20.834 54.333 36.501 81s35.834 50.5 60.501 71.5s54.5 37.833 89.5 50.5s76.5 19 124.5 19c48.667 0 93.5 -7.83301 134.5 -23.5s76.167 -39 105.5 -70
s52.333 -69.667 69 -116s25 -100.166 25 -161.499c0 -18 -0.833008 -38.5 -2.5 -61.5s-6 -47.167 -13 -72.5s-17.167 -51.166 -30.5 -77.499s-31.666 -51.833 -54.999 -76.5z" />
    <glyph glyph-name="R" unicode="R" horiz-adv-x="681" 
d="M179 376l209.999 0.00195312c11.333 0 24.833 1.5 40.5 4.5s30.834 9 45.501 18s27 21.667 37 38s15 38.166 15 65.499c0 22.667 -3.83301 41.667 -11.5 57s-18.167 27.666 -31.5 36.999s-29.333 15.833 -48 19.5s-39 5.5 -61 5.5h-196v-245zM84.999 700.002h310.002
c12.667 0 27.167 -0.5 43.5 -1.5s33.166 -3.66699 50.499 -8s34.166 -10.5 50.499 -18.5s31 -18.833 44 -32.5s23.5 -31 31.5 -52s12 -46.167 12 -75.5c0 -20 -2.66699 -39.5 -8 -58.5s-13.166 -36.333 -23.499 -52s-23 -29 -38 -40s-31.833 -18.5 -50.5 -22.5v-3
c23.333 -8.66699 41.666 -19 54.999 -31s23.333 -25.167 30 -39.5s10.834 -29.833 12.501 -46.5s2.83398 -34 3.50098 -52c0.666992 -24 1.16699 -44.333 1.5 -61s1.16602 -31.167 2.49902 -43.5s3.83301 -23.333 7.5 -33s9.16699 -19.5 16.5 -29.5h-99
c-6 8 -10.833 15.833 -14.5 23.5s-6.16699 17 -7.5 28s-2.33301 24.167 -3 39.5s-1 34.333 -1 57c0 18 -1 35.833 -3 53.5s-7.33301 33.667 -16 48s-21.834 25.833 -39.501 34.5s-42.167 13 -73.5 13h-200v-297h-94v700z" />
    <glyph glyph-name="S" unicode="S" horiz-adv-x="656" 
d="M139 222c-0.666992 -23.333 3.3291 -44.9951 11.9961 -64.9951s21.667 -37.333 39 -52s38.5 -26.167 63.5 -34.5s53.5 -12.5 85.5 -12.5c31.333 0 57.833 3.66699 79.5 11s39.334 17 53.001 29s23.667 25.833 30 41.5s9.5 31.834 9.5 48.501
c0 21.333 -4.33301 39.166 -13 53.499s-19.667 26 -33 35s-28.5 16.167 -45.5 21.5s-33.5 9.66602 -49.5 12.999l-114.5 24.5c-36.333 7.66699 -68.333 18.5 -96 32.5s-49.667 32.833 -66 56.5s-24.5 55.5 -24.5 95.5c0 32.667 6.33301 61.667 19 87s30.667 46.333 54 63
s51.333 29.334 84 38.001s68.667 13 108 13c43.333 0 80.833 -5.5 112.5 -16.5s58 -25.833 79 -44.5s37 -40.334 48 -65.001s17.5 -50.334 19.5 -77.001h-94c-3.33301 28.667 -11.833 51.334 -25.5 68.001s-29.167 29.167 -46.5 37.5s-35 13.5 -53 15.5s-32.333 3 -43 3
c-48.667 0 -87.834 -10.5 -117.501 -31.5s-44.5 -49.5 -44.5 -85.5c0 -21.333 4.83301 -38.5 14.5 -51.5s22.5 -23.667 38.5 -32s34.5 -14.833 55.5 -19.5s43.167 -9.33398 66.5 -14.001c31.333 -6 62.833 -12.833 94.5 -20.5s60.334 -19.167 86.001 -34.5
s46.5 -35.833 62.5 -61.5s24 -59.5 24 -101.5c0 -34.667 -5.5 -64 -16.5 -88s-25.167 -43.833 -42.5 -59.5s-36.666 -27.834 -57.999 -36.501s-42.166 -15 -62.499 -19s-39.333 -6.33301 -57 -7s-31.167 -1 -40.5 -1c-24.667 0 -53.167 2.33301 -85.5 7
s-63.166 15.167 -92.499 31.5s-54.5 40.666 -75.5 72.999s-32.833 76.166 -35.5 131.499h94z" />
    <glyph glyph-name="T" unicode="T" horiz-adv-x="575" 
d="M13 621v79h549v-79h-227v-621h-94v621h-228z" />
    <glyph glyph-name="U" unicode="U" horiz-adv-x="696" 
d="M166 700l-0.000976562 -417c0 -21.333 1.16699 -45.166 3.5 -71.499s9.5 -50.833 21.5 -73.5s30.167 -41.667 54.5 -57s58.5 -23 102.5 -23c34.667 0 63.667 4.83301 87 14.5s42 24 56 43s24 42.5 30 70.5s9 60.333 9 97v417h94v-429c0 -47.333 -5 -87.5 -15 -120.5
s-23.167 -60.333 -39.5 -82s-34.666 -38.5 -54.999 -50.5s-40.833 -20.833 -61.5 -26.5s-40.167 -9.16699 -58.5 -10.5s-33.833 -2 -46.5 -2c-42.667 0 -79 4.5 -109 13.5s-55.333 20.833 -76 35.5s-37 32 -49 52s-21.167 40.667 -27.5 62s-10.333 43.166 -12 65.499
s-2.5 43.5 -2.5 63.5v429h94z" />
    <glyph glyph-name="V" unicode="V" horiz-adv-x="594" 
d="M495 700h103l-245 -700h-112l-245 700h103l198 -603z" />
    <glyph glyph-name="W" unicode="W" horiz-adv-x="822" 
d="M266 0h-120l-186 700h106l146 -588l145 588h108l145 -588l146 588h106l-186 -700h-120l-145 589z" />
    <glyph glyph-name="X" unicode="X" horiz-adv-x="570" 
d="M460 700h117l-232 -342l245 -358h-121l-184 291l-184 -291h-121l245 358l-232 342h117l175 -275z" />
    <glyph glyph-name="Y" unicode="Y" horiz-adv-x="453" 
d="M421 700h112l-259 -408v-292h-94v292l-260 408h112l195 -324z" />
    <glyph glyph-name="Z" unicode="Z" horiz-adv-x="593" 
d="M547 700v-75l-406 -546h426v-79h-541v86l411 535h-389v79h499z" />
    <glyph glyph-name="bracketleft" unicode="[" horiz-adv-x="370" 
d="M317 700v-62h-123v-761h123v-62h-211v885h211z" />
    <glyph glyph-name="backslash" unicode="\" horiz-adv-x="420" 
d="M357 -185l-357 885h63l357 -885h-63z" />
    <glyph glyph-name="bracketright" unicode="]" horiz-adv-x="370" 
d="M264 700v-885h-211v62h122v761h-122v62h211z" />
    <glyph glyph-name="asciicircum" unicode="^" horiz-adv-x="442" 
d="M266 700l120 -218h-70l-95 175l-95 -175h-70l120 218h90z" />
    <glyph glyph-name="underscore" unicode="_" horiz-adv-x="497" 
d="M0 -133h497v-52h-497v52z" />
    <glyph glyph-name="grave" unicode="`" horiz-adv-x="312" 
d="M218 568h-80l-96 132h106z" />
    <glyph glyph-name="a" unicode="a" horiz-adv-x="553" 
d="M385 260c-6.66699 -5.33301 -13.667 -9.16797 -21 -11.501s-15.333 -4.16602 -24 -5.49902s-18.5 -2.5 -29.5 -3.5s-23.5 -2.5 -37.5 -4.5l-55.5 -9.5c-17.667 -3 -33.167 -7.66699 -46.5 -14s-23.833 -15.5 -31.5 -27.5s-11.5 -28 -11.5 -48
c0 -30 9.16699 -53.167 27.5 -69.5s41.833 -24.5 70.5 -24.5c17.333 0 34.833 2.5 52.5 7.5s34 14 49 27s27.5 30.833 37.5 53.5s16 51.667 18 87zM55 357.998c0 16.667 2.83301 34.999 8.5 54.999s16.334 38.5 32.001 55.5s37.667 31.167 66 42.5s64.833 17 109.5 17
c20.667 0 42.834 -2 66.501 -6s45.667 -12 66 -24s37.166 -29.167 50.499 -51.5s19.666 -52.166 18.999 -89.499l-5 -235c0 -10 0.166992 -18.833 0.5 -26.5s2.16602 -14 5.49902 -19s8.66602 -8.83301 15.999 -11.5s17.666 -3.66699 30.999 -3v-62
c-6 -1.33301 -11.833 -2.33301 -17.5 -3s-13.167 -1 -22.5 -1c-12 0 -23.167 0.833008 -33.5 2.5s-19.333 5 -27 10s-14 12.333 -19 22s-8.83301 22.834 -11.5 39.501c-8.66699 -16 -19.334 -29.667 -32.001 -41s-26.667 -20.666 -42 -27.999s-31.5 -12.666 -48.5 -15.999
s-34.167 -5 -51.5 -5c-53.333 0 -96.5 12.167 -129.5 36.5s-49.5 63.166 -49.5 116.499c0 22 3.33301 41.833 10 59.5s19.334 33.334 38.001 47.001s44 25 76 34s73.667 15.833 125 20.5c18.667 1.33301 34.334 2.66602 47.001 3.99902s22.834 4.16602 30.501 8.49902
s13.167 10.833 16.5 19.5s5 21.334 5 38.001c0 6 -0.666992 14.667 -2 26s-5.66602 22.666 -12.999 33.999s-18.666 21.166 -33.999 29.499s-37 12.5 -65 12.5c-8 0 -19.5 -0.666992 -34.5 -2s-29.833 -5.5 -44.5 -12.5s-27.334 -17.667 -38.001 -32
s-15.667 -34.833 -15 -61.5h-84z" />
    <glyph glyph-name="b" unicode="b" horiz-adv-x="601" 
d="M154 257c0 -40 4.33203 -73.6641 12.999 -100.997s20.167 -49.5 34.5 -66.5s30.5 -29.167 48.5 -36.5s36.667 -11 56 -11c20.667 0 40.667 3.66699 60 11s36.333 19.333 51 36s26.334 38.667 35.001 66s13 60.666 13 99.999c0 38 -4.16699 70.333 -12.5 97
s-19.5 48.5 -33.5 65.5s-30.333 29.333 -49 37s-38.334 11.5 -59.001 11.5c-21.333 0 -41.5 -4 -60.5 -12s-35.667 -20.333 -50 -37s-25.666 -38.334 -33.999 -65.001s-12.5 -58.334 -12.5 -95.001zM159.999 700.003l-0.00292969 -257.999c14 30 36.167 51.833 66.5 65.5
s63.833 20.5 100.5 20.5s67.834 -5.33301 93.501 -16s47 -24.334 64 -41.001s30.5 -35.334 40.5 -56.001s17.333 -41.167 22 -61.5s7.66699 -39.166 9 -56.499s2 -31.333 2 -42c0 -55.333 -7.66699 -100.833 -23 -136.5s-34.666 -63.667 -57.999 -84
s-48.666 -34.5 -75.999 -42.5s-52.666 -12 -75.999 -12c-21.333 0 -40.5 2.5 -57.5 7.5s-32.333 11.667 -46 20s-25.834 17.833 -36.501 28.5s-20 22 -28 34h-3v-70h-82v700h88z" />
    <glyph glyph-name="c" unicode="c" horiz-adv-x="548" 
d="M512 181c-1.33301 -15.333 -5.16992 -34.3301 -11.5029 -56.9971s-17.333 -44.667 -33 -66s-37.667 -39.666 -66 -54.999s-65.166 -23 -110.499 -23c-8.66699 0 -20.667 0.666992 -36 2s-32.333 4.66602 -51 9.99902s-37.5 13.833 -56.5 25.5s-36.167 27.667 -51.5 48
s-28 46.166 -38 77.499s-15 69.666 -15 114.999c0 29.333 3.33301 60 10 92s19 61.167 37 87.5s42.667 48 74 65s71.666 25.5 120.999 25.5c36 0 67.333 -4.83301 94 -14.5s49 -22.834 67 -39.501s32.167 -35.667 42.5 -57s16.833 -44 19.5 -68h-84
c-4.66699 28 -13 50 -25 66s-25 27.667 -39 35s-27.833 11.833 -41.5 13.5s-24.167 2.5 -31.5 2.5c-27.333 0 -50.666 -5.5 -69.999 -16.5s-35 -25.833 -47 -44.5s-20.667 -40.667 -26 -66s-8 -52.333 -8 -81s3 -56 9 -82s15.167 -49 27.5 -69s28.5 -35.833 48.5 -47.5
s44 -17.5 72 -17.5c24.667 0 45.5 4.66699 62.5 14s30.833 20.833 41.5 34.5s18.334 28.667 23.001 45s7.33398 31.5 8.00098 45.5h84z" />
    <glyph glyph-name="d" unicode="d" horiz-adv-x="599" 
d="M136 255c0 -48 5.83301 -86.168 17.5 -114.501s25.667 -49.666 42 -63.999s33.5 -23.666 51.5 -27.999s33.333 -6.5 46 -6.5c19.333 0 38.166 3.83301 56.499 11.5s34.5 20 48.5 37s25.333 39.167 34 66.5s13 60.666 13 99.999c0 36.667 -4.16699 68.167 -12.5 94.5
s-19.833 48 -34.5 65s-31.5 29.5 -50.5 37.5s-38.833 12 -59.5 12c-21.333 0 -41.166 -4 -59.499 -12s-34.333 -20.5 -48 -37.5s-24.5 -38.833 -32.5 -65.5s-12 -58.667 -12 -96zM527 699.999l-0.00292969 -700.002h-82v70h-3c-4 -8 -10 -17.333 -18 -28
s-18.667 -20.5 -32 -29.5s-29.666 -16.667 -48.999 -23s-42.333 -9.5 -69 -9.5c-37.333 0 -70.333 6.66699 -99 20s-52.667 32.166 -72 56.499s-34.166 53.333 -44.499 87s-15.5 70.834 -15.5 111.501c0 26.667 2.66699 55.834 8 87.501s16.333 61.334 33 89.001
s39.834 50.667 69.501 69s69.167 27.5 118.5 27.5c34 0 65.167 -5.66699 93.5 -17s52.833 -34.333 73.5 -69v258h88z" />
    <glyph glyph-name="e" unicode="e" horiz-adv-x="570" 
d="M434 296c-0.666992 16.667 -2.99902 35 -6.99902 55s-11.167 38.5 -21.5 55.5s-24.5 31.167 -42.5 42.5s-41.333 17 -70 17c-32 0 -58.333 -5.83301 -79 -17.5s-36.834 -26.167 -48.501 -43.5s-19.5 -35.833 -23.5 -55.5s-6 -37.5 -6 -53.5h298zM522.001 147
c-3.33301 -18 -9.49707 -36.832 -18.4971 -56.499s-22 -37.667 -39 -54s-38.833 -29.833 -65.5 -40.5s-59.667 -16 -99 -16c-42 0 -77.5 5.66699 -106.5 17s-53 25.833 -72 43.5s-33.833 37.167 -44.5 58.5s-18.5 42 -23.5 62s-8 38.167 -9 54.5s-1.5 28.5 -1.5 36.5
c0 11.333 0.666992 26.166 2 44.499s4.66602 37.666 9.99902 57.999s13.333 40.833 24 61.5s25.167 39.334 43.5 56.001s41.166 30.167 68.499 40.5s60.666 15.5 99.999 15.5c50.667 0 91.167 -8.83301 121.5 -26.5s53.666 -39.834 69.999 -66.501
s27.333 -55.834 33 -87.501s9.16699 -61.167 10.5 -88.5c0 -4 0.166992 -8.16699 0.5 -12.5s0.5 -8.5 0.5 -12.5h-391c0 -22 3 -44.333 9 -67s15.333 -43.167 28 -61.5s29.167 -33.5 49.5 -45.5s45.166 -18 74.499 -18c20.667 0 39.334 2.83301 56.001 8.5
s30.834 13.334 42.501 23.001s21 20.834 28 33.501s11.833 26 14.5 40h84z" />
    <glyph glyph-name="f" unicode="f" horiz-adv-x="319" 
d="M306 446l-110.997 -0.000976562v-446h-88v446h-94v62h94v69c0 44 11 76.167 33 96.5s55.667 30.5 101 30.5c9.33301 0 20.666 -0.5 33.999 -1.5s23.666 -1.83301 30.999 -2.5v-62c-21.333 1.33301 -35.833 1.83301 -43.5 1.5s-13.834 -0.5 -18.501 -0.5
c-12 0 -21.333 -2.66699 -28 -8s-11.5 -11.666 -14.5 -18.999s-4.83301 -15 -5.5 -23s-1 -14.667 -1 -20v-61h111v-62z" />
    <glyph glyph-name="g" unicode="g" 
d="M296 42c8 0 20.3311 2.16504 36.998 6.49805s33.334 14 50.001 29s31.334 36.833 44.001 65.5s19 67.667 19 117c0 64 -13.333 114.333 -40 151s-66 55 -118 55c-24.667 0 -45.5 -4.16699 -62.5 -12.5s-31 -18.833 -42 -31.5s-19.333 -27 -25 -43s-10 -31.5 -13 -46.5
s-4.66699 -29 -5 -42s-0.5 -22.833 -0.5 -29.5c0 -51.333 6.16699 -91.666 18.5 -120.999s27 -51.166 44 -65.499s34.333 -23.333 52 -27s31.5 -5.5 41.5 -5.5zM165.998 -57.002c4 -14.667 10.6699 -26.6641 20.0029 -35.9971s20.166 -16.833 32.499 -22.5
s25.666 -9.5 39.999 -11.5s28.166 -3 41.499 -3c34.667 0 61.334 7 80.001 21s32.5 30 41.5 48s14.333 35.667 16 53s2.5 29.333 2.5 36v55c-12 -19.333 -23.667 -35.5 -35 -48.5s-23.5 -23.5 -36.5 -31.5s-27 -13.833 -42 -17.5s-31.833 -5.5 -50.5 -5.5
c-30 0 -58.833 5.33301 -86.5 16s-52 27.167 -73 49.5s-37.833 51 -50.5 86s-19 77.167 -19 126.5c0 8 0.333008 20.167 1 36.5s3 34.5 7 54.5s10.5 40.5 19.5 61.5s21.667 40.333 38 58s37 32 62 43s55.833 16.5 92.5 16.5c42 0 77.833 -7.66699 107.5 -23
s52.5 -37.666 68.5 -66.999h3v70h82v-495c0 -32.667 -4.5 -60.334 -13.5 -83.001s-20.5 -41.667 -34.5 -57s-29.833 -27.333 -47.5 -36s-34.834 -15.334 -51.501 -20.001s-32.334 -7.5 -47.001 -8.5s-26 -1.5 -34 -1.5c-12 0 -28.667 0.666992 -50 2
s-43.166 6.16602 -65.499 14.499s-43 21.666 -62 39.999s-32.5 44.833 -40.5 79.5h84z" />
    <glyph glyph-name="h" unicode="h" horiz-adv-x="572" 
d="M160 700l0.00292969 -263.001c23.333 32 49.166 55.167 77.499 69.5s60.5 21.5 96.5 21.5c28 0 51.667 -3.66699 71 -11s35.166 -17 47.499 -29s21.666 -25.167 27.999 -39.5s11 -28.5 14 -42.5s4.66699 -27.167 5 -39.5s0.5 -21.833 0.5 -28.5v-338h-88v311
c0 14.667 -0.333008 31 -1 49s-4.33398 34.833 -11.001 50.5s-17.167 28.834 -31.5 39.501s-35.166 16 -62.499 16c-12 0 -26.333 -2 -43 -6s-32.667 -12.5 -48 -25.5s-28.333 -32 -39 -57s-16 -58.5 -16 -100.5v-277h-88v700h88z" />
    <glyph glyph-name="i" unicode="i" horiz-adv-x="228" 
d="M70 700h88v-92h-88v92zM158 508v-508h-88v508h88z" />
    <glyph glyph-name="j" unicode="j" horiz-adv-x="231" 
d="M73 700h88v-92h-88v92zM161 508l0.000976562 -555.001c0 -22.667 -1.83301 -42.834 -5.5 -60.501s-10 -32.5 -19 -44.5s-21.333 -21.167 -37 -27.5s-35.167 -9.5 -58.5 -9.5c-8.66699 0 -18.834 0.5 -30.501 1.5s-20.5 1.83301 -26.5 2.5v62c23.333 4 41 7.66699 53 11
s20.667 7.83301 26 13.5s8.33301 13.334 9 23.001s1 22.834 1 39.501v544h88z" />
    <glyph glyph-name="k" unicode="k" horiz-adv-x="523" 
d="M402 508h105l-200 -196l220 -312h-102l-179 258l-86 -85v-173h-88v700h88v-434z" />
    <glyph glyph-name="l" unicode="l" horiz-adv-x="232" 
d="M160 700v-700h-88v700h88z" />
    <glyph glyph-name="m" unicode="m" horiz-adv-x="872" 
d="M160 508l-0.000976562 -68.999l-1 -6c6.66699 14.667 15.667 27.834 27 39.501s24 21.667 38 30s28.833 14.666 44.5 18.999s31.5 6.5 47.5 6.5c22 0 41.333 -3.16699 58 -9.5s30.834 -14.666 42.501 -24.999s21.167 -22 28.5 -35s12.666 -26.167 15.999 -39.5
c4.66699 10 11.667 21.167 21 33.5s21 24.166 35 35.499s30.833 20.833 50.5 28.5s42.834 11.5 69.501 11.5c38.667 0 69 -7.83301 91 -23.5s38.333 -34.167 49 -55.5s17.167 -43.333 19.5 -66s3.5 -41 3.5 -55v-328h-88v322c0 13.333 -0.833008 28.333 -2.5 45
s-5.83398 32.334 -12.501 47.001s-16.5 27 -29.5 37s-30.833 15 -53.5 15c-14.667 0 -30 -2.33301 -46 -7s-30.5 -13.167 -43.5 -25.5s-23.667 -29 -32 -50s-12.5 -47.833 -12.5 -80.5v-303h-88v321c0 18.667 -1.33301 36.667 -4 54s-7.66699 32.666 -15 45.999
s-17.333 24.166 -30 32.499s-29 12.5 -49 12.5c-18 0 -35.167 -3.83301 -51.5 -11.5s-30.666 -18.5 -42.999 -32.5s-22 -31.167 -29 -51.5s-10.5 -42.833 -10.5 -67.5v-303h-88v508h88z" />
    <glyph glyph-name="n" unicode="n" horiz-adv-x="573" 
d="M160 508l0.000976562 -71.001c17.333 25.333 40.666 46.833 69.999 64.5s64 26.5 104 26.5c33.333 0 60.833 -5.16699 82.5 -15.5s38.667 -24.166 51 -41.499s21 -37.5 26 -60.5s7.5 -47.167 7.5 -72.5v-338h-88v311c0 13.333 -0.5 29 -1.5 47s-4.66699 35 -11 51
s-16.833 29.5 -31.5 40.5s-35.667 16.5 -63 16.5c-12 0 -26.333 -2 -43 -6s-32.667 -12.5 -48 -25.5s-28.333 -32 -39 -57s-16 -58.5 -16 -100.5v-277h-88v508h88z" />
    <glyph glyph-name="o" unicode="o" horiz-adv-x="586" 
d="M136 255c0 -50.667 6.33301 -90.334 19 -119.001s27.667 -50 45 -64s34.666 -22.5 51.999 -25.5s31 -4.5 41 -4.5s23.667 1.5 41 4.5s34.666 11.5 51.999 25.5s32.333 35.333 45 64s19 68.334 19 119.001s-6.33301 90.334 -19 119.001s-27.667 50 -45 64
s-34.666 22.5 -51.999 25.5s-31 4.5 -41 4.5s-23.667 -1.5 -41 -4.5s-34.666 -11.5 -51.999 -25.5s-32.333 -35.333 -45 -64s-19 -68.334 -19 -119.001zM43 254c0 34 4.33301 67.333 13 100s22.834 61.834 42.501 87.501s45.5 46.5 77.5 62.5s71 24 117 24s85 -8 117 -24
s57.833 -36.833 77.5 -62.5s33.834 -54.834 42.501 -87.501s13 -66 13 -100s-4.33301 -67.333 -13 -100s-22.834 -61.834 -42.501 -87.501s-45.5 -46.5 -77.5 -62.5s-71 -24 -117 -24s-85 8 -117 24s-57.833 36.833 -77.5 62.5s-33.834 54.834 -42.501 87.501
s-13 66 -13 100z" />
    <glyph glyph-name="p" unicode="p" horiz-adv-x="597" 
d="M154 252c0 -39.333 4.99902 -72.332 14.999 -98.999s22.833 -48.334 38.5 -65.001s32.667 -28.5 51 -35.5s35.833 -10.5 52.5 -10.5c18 0 35.833 3.5 53.5 10.5s33.667 18.667 48 35s26 38 35 65s13.5 60.833 13.5 101.5c0 65.333 -13.333 117 -40 155s-65 57 -115 57
c-11.333 0 -25.666 -2.16699 -42.999 -6.5s-34 -13.833 -50 -28.5s-29.833 -36.167 -41.5 -64.5s-17.5 -66.5 -17.5 -114.5zM153.999 508.001v-69.999h3c12.667 19.333 26.5 34.833 41.5 46.5s30 20.834 45 27.501s29.5 11 43.5 13s26.667 3 38 3
c31.333 0 60.833 -5.33301 88.5 -16s52 -27.167 73 -49.5s37.5 -50.833 49.5 -85.5s18 -75.667 18 -123c0 -49.333 -6.33301 -91.333 -19 -126s-29.667 -63 -51 -85s-45.666 -38 -72.999 -48s-55.333 -15 -84 -15c-5.33301 0 -14.833 0.666992 -28.5 2
s-28.834 5.16602 -45.501 11.499s-33.5 15.666 -50.5 27.999s-31.167 29.5 -42.5 51.5v-258h-88v693h82z" />
    <glyph glyph-name="q" unicode="q" horiz-adv-x="598" 
d="M136 254c0 -40.667 4.50098 -74.498 13.501 -101.498s20.667 -48.667 35 -65s30.666 -28 48.999 -35s36.5 -10.5 54.5 -10.5c16.667 0 34.167 3.5 52.5 10.5s35.166 18.667 50.499 35s28 38 38 65s15 60.167 15 99.5c0 42 -4.66699 76.833 -14 104.5
s-21.166 49.667 -35.499 66s-30.5 27.666 -48.5 33.999s-35.667 9.5 -53 9.5c-20.667 0 -40.5 -3.83301 -59.5 -11.5s-35.667 -19.834 -50 -36.501s-25.833 -38.5 -34.5 -65.5s-13 -59.833 -13 -98.5zM526.001 508.002l0.000976562 -693h-88v257
c-2.66699 -5.33301 -7.5 -13.166 -14.5 -23.499s-17 -20.5 -30 -30.5s-29.5 -18.833 -49.5 -26.5s-44.333 -11.5 -73 -11.5c-48 0 -87 9.66699 -117 29s-53.167 43.166 -69.5 71.499s-27.333 58.333 -33 90s-8.5 59.5 -8.5 83.5c0 37.333 4.66699 72.5 14 105.5
s23.666 62 42.999 87s43.333 44.833 72 59.5s62.667 22 102 22c42 0 76.5 -9 103.5 -27s48.167 -39 63.5 -63h3v70h82z" />
    <glyph glyph-name="r" unicode="r" horiz-adv-x="369" 
d="M356 466c-30 -1.33301 -56.5 -5.33301 -79.5 -12s-42.667 -17 -59 -31s-29.333 -32 -39 -54s-15.5 -49 -17.5 -81c-0.666992 -9.33301 -1 -18.333 -1 -27v-27v-234h-88v508h88v-98h2c6 18.667 14.833 35.167 26.5 49.5s25 26.333 40 36s31.167 17.167 48.5 22.5
s35 8.33301 53 9l26 1v-62z" />
    <glyph glyph-name="s" unicode="s" horiz-adv-x="506" 
d="M124 151c0.666992 -20 4.99902 -37.001 12.999 -51.001s18.5 -25.333 31.5 -34s27.667 -14.834 44 -18.501s32.833 -5.5 49.5 -5.5c29.333 0 52 4 68 12s27.667 17.333 35 28s11.5 21.334 12.5 32.001s1.5 18.667 1.5 24c0 8 -0.833008 15.833 -2.5 23.5
s-6.16699 15 -13.5 22s-18.166 13.667 -32.499 20s-33.833 12.5 -58.5 18.5l-54 12c-21.333 4.66699 -41.666 10 -60.999 16s-36.333 14.333 -51 25s-26.334 24.5 -35.001 41.5s-13 38.833 -13 65.5c0 28 5.66699 51.5 17 70.5s26.333 34 45 45s39.334 18.833 62.001 23.5
s45.667 7 69 7c43.333 0 78.166 -5.33301 104.499 -16s46.833 -23.834 61.5 -39.501s24.667 -32.334 30 -50.001s8.66602 -33.5 9.99902 -47.5h-84c-0.666992 7.33301 -2.5 16.166 -5.5 26.499s-8.66699 20.333 -17 30s-20.166 17.834 -35.499 24.501s-35.666 10 -60.999 10
c-2.66699 0 -9.66699 -0.333008 -21 -1s-23.166 -3.5 -35.499 -8.5s-23.5 -13 -33.5 -24s-15 -26.5 -15 -46.5c0 -18 3.83301 -32.333 11.5 -43s18 -19 31 -25s28 -10.833 45 -14.5l52.5 -11.5c26 -6 50 -12.167 72 -18.5s41.167 -14.666 57.5 -24.999s29 -23.833 38 -40.5
s13.5 -38 13.5 -64c0 -26.667 -4.66699 -49.167 -14 -67.5s-21 -33.666 -35 -45.999s-29.5 -21.833 -46.5 -28.5s-33.333 -11.667 -49 -15s-29.334 -5.33301 -41.001 -6s-19.5 -1 -23.5 -1c-38 0 -70.833 4.5 -98.5 13.5s-50.834 21.333 -69.501 37
s-32.667 33.834 -42 54.501s-14.333 42.667 -15 66h88z" />
    <glyph glyph-name="t" unicode="t" horiz-adv-x="320" 
d="M104 508v151.999h88v-152h108v-62h-108v-323c0 -9.33301 0.166992 -18.166 0.5 -26.499s2 -15.833 5 -22.5s8.16699 -11.834 15.5 -15.501s18 -5.5 32 -5.5c9.33301 0 18.666 0.833008 27.999 2.5s18.333 3.83398 27 6.50098v-62c-14 -6 -29 -10.833 -45 -14.5
s-31.667 -5.5 -47 -5.5c-26 0 -46.167 4 -60.5 12s-24.666 18.167 -30.999 30.5s-10 25.833 -11 40.5s-1.5 28.667 -1.5 42v341h-91v62h91z" />
    <glyph glyph-name="u" unicode="u" horiz-adv-x="573" 
d="M413 0l-0.000976562 72.001h-2c-12.667 -22 -28 -39.167 -46 -51.5s-35.5 -21.5 -52.5 -27.5s-32.333 -9.66699 -46 -11s-22.834 -2 -27.501 -2c-37.333 0 -67.166 6.33301 -89.499 19s-39.166 28.667 -50.499 48s-18.666 40 -21.999 62s-5 42.667 -5 62v337h88v-311
c0 -32 2.66699 -58 8 -78s12.666 -35.833 21.999 -47.5s20.5 -19.5 33.5 -23.5s27.5 -6 43.5 -6c36.667 0 65 8.16699 85 24.5s34.5 35.166 43.5 56.499s14.167 42.333 15.5 63s2 35.667 2 45v277h88v-508h-88z" />
    <glyph glyph-name="v" unicode="v" horiz-adv-x="470" 
d="M379 508h95l-188 -508h-102l-188 508h95l144 -420z" />
    <glyph glyph-name="w" unicode="w" horiz-adv-x="720" 
d="M254 0h-94l-164 508h91l124 -407l106 407h86l106 -407l124 407h91l-164 -508h-94l-106 407z" />
    <glyph glyph-name="x" unicode="x" horiz-adv-x="484" 
d="M372 508h98l-178 -243l192 -265h-98l-144 209l-144 -209h-98l192 265l-178 243h98l130 -188z" />
    <glyph glyph-name="y" unicode="y" horiz-adv-x="498" 
d="M91 -119c13.333 -2 22.998 -3.33301 28.998 -4s11 -1 15 -1c12.667 0 23.334 2.33301 32.001 7s16 11 22 19s10.833 17.167 14.5 27.5l11.5 32.5l12 38l-220 508h105l163 -411l135 411h88l-202 -568l-14 -40.5c-5.33301 -15 -12.833 -29 -22.5 -42s-22.167 -24 -37.5 -33
s-35 -13.5 -59 -13.5c-14 0 -27.167 0.333008 -39.5 1s-23.166 2 -32.499 4v65z" />
    <glyph glyph-name="z" unicode="z" horiz-adv-x="468" 
d="M427 508v-62l-295 -384h310v-62h-416v62l304 384h-283v62h380z" />
    <glyph glyph-name="braceleft" unicode="{" horiz-adv-x="366" 
d="M75 290c8 0.666992 17.167 3.00684 27.5 7.00684s20 10.833 29 20.5s16.667 23.167 23 40.5s9.5 39.666 9.5 66.999c0 9.33301 -0.166992 18.333 -0.5 27s-0.833008 17.667 -1.5 27s-1.16699 18.166 -1.5 26.499s-0.5 17.166 -0.5 26.499c0 15.333 1.5 32.333 4.5 51
s10 36.167 21 52.5s26.667 30.666 47 42.999s48.166 19.5 83.499 21.5v-53c-46.667 -10 -70 -41.667 -70 -95c0 -17.333 1 -35 3 -53c2 -19.333 3 -38.333 3 -57c0 -46 -9.16699 -83.5 -27.5 -112.5s-47.833 -52.833 -88.5 -71.5v-2c40.667 -18.667 70.167 -42.5 88.5 -71.5
s27.5 -66.5 27.5 -112.5c0 -19.333 -1 -38.333 -3 -57c-2 -18 -3 -35.667 -3 -53c0 -53.333 23.333 -85 70 -95v-53c-35.333 2 -63.166 9.16699 -83.499 21.5s-36 26.666 -47 42.999s-18 33.833 -21 52.5s-4.5 35.667 -4.5 51c0 9.33301 0.166992 18.166 0.5 26.499
s0.833008 17.166 1.5 26.499s1.16699 18.333 1.5 27s0.5 17.667 0.5 27c0 27.333 -3.16699 49.666 -9.5 66.999s-14 30.833 -23 40.5s-18.667 16.334 -29 20.001s-19.5 6.16699 -27.5 7.5v66z" />
    <glyph glyph-name="bar" unicode="|" horiz-adv-x="478" 
d="M208 829h62v-1053h-62v1053z" />
    <glyph glyph-name="braceright" unicode="}" horiz-adv-x="366" 
d="M291 224c-8 -1.33301 -17.167 -3.83984 -27.5 -7.50684s-20 -10.334 -29 -20.001s-16.667 -23.167 -23 -40.5s-9.5 -39.666 -9.5 -66.999c0 -9.33301 0.166992 -18.333 0.5 -27s0.833008 -17.667 1.5 -27s1.16699 -18.166 1.5 -26.499s0.5 -17.166 0.5 -26.499
c0 -15.333 -1.5 -32.333 -4.5 -51s-10 -36.167 -21 -52.5s-26.833 -30.666 -47.5 -42.999s-48.334 -19.5 -83.001 -21.5v53c46.667 10 70 41.667 70 95c0 17.333 -1 35 -3 53c-2 18.667 -3 37.667 -3 57c0 46 9.16699 83.5 27.5 112.5s47.833 52.833 88.5 71.5v2
c-40.667 18.667 -70.167 42.5 -88.5 71.5s-27.5 66.5 -27.5 112.5c0 18.667 1 37.667 3 57c2 18 3 35.667 3 53c0 53.333 -23.333 85 -70 95v53c34.667 -2 62.334 -9.16699 83.001 -21.5s36.5 -26.666 47.5 -42.999s18 -33.833 21 -52.5s4.5 -35.667 4.5 -51
c0 -9.33301 -0.166992 -18.166 -0.5 -26.499s-0.833008 -17.166 -1.5 -26.499s-1.16699 -18.333 -1.5 -27s-0.5 -17.667 -0.5 -27c0 -27.333 3.16699 -49.666 9.5 -66.999s14 -30.833 23 -40.5s18.667 -16.5 29 -20.5s19.5 -6.33301 27.5 -7v-66z" />
    <glyph glyph-name="asciitilde" unicode="~" 
d="M50 304c4.66699 12.667 10.8359 26.498 18.5029 41.498s17 29 28 42s23.667 23.667 38 32s30.5 12.5 48.5 12.5c15.333 0 30.333 -2 45 -6s28.667 -9.66699 42 -17l103 -55c0.666992 -0.666992 6.16699 -3 16.5 -7s22.166 -6 35.499 -6c4.66699 0 10.667 1 18 3
s14.833 5.83301 22.5 11.5s15.5 13.834 23.5 24.501s15.333 24.667 22 42l39 -16c-4.66699 -13.333 -10.834 -27.333 -18.501 -42s-17 -28.5 -28 -41.5s-23.667 -23.667 -38 -32s-30.5 -12.5 -48.5 -12.5c-15.333 0 -30.333 2 -45 6s-28.667 9.66699 -42 17l-103 55
c-7.33301 3.33301 -15.833 6.33301 -25.5 9s-18.834 4 -27.501 4c-19.333 0 -36.5 -8.16699 -51.5 -24.5s-26.167 -35.166 -33.5 -56.499z" />
    <glyph glyph-name="uni00A0" unicode="&#xa0;" horiz-adv-x="233" 
 />
    <glyph glyph-name="exclamdown" unicode="&#xa1;" horiz-adv-x="311" 
d="M205 399h-99v109h99v-109zM106 -185v262l25 231h49l25 -231v-262h-99z" />
    <glyph glyph-name="cent" unicode="&#xa2;" horiz-adv-x="580" 
d="M280 466c-24.667 -2 -45.166 -9.8291 -61.499 -23.4961s-29.5 -30.334 -39.5 -50.001s-17 -41.334 -21 -65.001s-6 -46.834 -6 -69.501c0 -25.333 2.33301 -50 7 -74s12 -45.833 22 -65.5s23.167 -36.334 39.5 -50.001s36.166 -22.5 59.499 -26.5v424zM528.001 181.004
c-2.66699 -25.333 -8.66211 -50.0029 -17.9951 -74.0029s-22.333 -45.333 -39 -64s-36.5 -33.667 -59.5 -45s-49.167 -17.333 -78.5 -18v-72h-53v72c-41.333 0.666992 -76 9.5 -104 26.5s-50.667 38.833 -68 65.5s-29.833 56.334 -37.5 89.001s-11.5 65 -11.5 97
c0 40.667 5.16699 77.5 15.5 110.5s25.166 61.167 44.499 84.5s42.5 41.5 69.5 54.5s57.5 19.833 91.5 20.5v66h53v-66c23.333 -1.33301 45.833 -6.16602 67.5 -14.499s41.167 -20.166 58.5 -35.499s31.666 -33.833 42.999 -55.5s18.666 -46.167 21.999 -73.5h-84
c-2 12.667 -5.5 25.667 -10.5 39s-11.833 25.333 -20.5 36s-19.334 19.834 -32.001 27.501s-27.334 12.5 -44.001 14.5v-424c18 2.66699 33.833 8.5 47.5 17.5s25 20 34 33s15.833 27.167 20.5 42.5s7.66699 30.666 9 45.999h84z" />
    <glyph glyph-name="sterling" unicode="&#xa3;" horiz-adv-x="580" 
d="M551 46c-18 -18 -37.1709 -33.6699 -57.5039 -47.0029s-45.166 -20 -74.499 -20c-8 0 -21.333 1.33301 -40 4s-46 11.334 -82 26.001l-34.5 15c-11 4.66699 -27.5 7 -49.5 7c-14 0 -30.167 -2.33301 -48.5 -7s-38.166 -15 -59.499 -31l-45 65
c30.667 21.333 55.167 45.333 73.5 72s27.5 58.334 27.5 95.001c0 14.667 -1.66699 28.167 -5 40.5s-7 25.166 -11 38.499h-104v61h73c-6.66699 14 -12.334 26.667 -17.001 38s-8.5 22.166 -11.5 32.499s-5.33301 21 -7 32s-2.5 23.5 -2.5 37.5
c0 36.667 5.33301 67.334 16 92.001s24.334 45 41.001 61s34.834 28.333 54.501 37s38.5 14.834 56.5 18.501s33.833 5.83398 47.5 6.50098s22.834 1 27.501 1c18.667 0 40.5 -2.16699 65.5 -6.5s49 -14.666 72 -30.999s42.667 -40.333 59 -72s24.5 -74.834 24.5 -129.501
h-89v32c0 18.667 -2.66699 36.667 -8 54s-13.5 32.5 -24.5 45.5s-25.167 23.333 -42.5 31s-38.333 11.5 -63 11.5c-22.667 0 -43 -4 -61 -12s-33.167 -19 -45.5 -33s-21.833 -30.5 -28.5 -49.5s-10 -39.833 -10 -62.5c0 -13.333 1.16699 -25 3.5 -35s5.5 -20 9.5 -30
s8.83301 -20.5 14.5 -31.5l19.5 -37.5h141v-61h-117c3.33301 -10.667 5.66602 -20.667 6.99902 -30s2 -20 2 -32c0 -22.667 -3.83301 -46 -11.5 -70s-25.5 -48.667 -53.5 -74l2 -6c10.667 4.66699 21.834 7.66699 33.501 9s24.834 2 39.501 2c18 0 32.833 -2 44.5 -6
s24.167 -8.66699 37.5 -14c19.333 -8 35.333 -13.833 48 -17.5s24 -5.5 34 -5.5c19.333 0 36.166 5 50.499 15s25.833 20.333 34.5 31z" />
    <glyph glyph-name="currency" unicode="&#xa4;" horiz-adv-x="825" 
d="M199 330c0 -29.333 5.5 -57.002 16.5 -83.002s26.167 -48.667 45.5 -68s42 -34.666 68 -45.999s53.667 -17 83 -17c30 0 58 5.66699 84 17s48.667 26.833 68 46.5s34.666 42.334 45.999 68.001s17 53.167 17 82.5s-5.66699 57 -17 83s-26.833 48.833 -46.5 68.5
s-42.5 35.167 -68.5 46.5s-53.667 17 -83 17s-56.833 -5.66699 -82.5 -17s-48.167 -26.833 -67.5 -46.5s-34.666 -42.5 -45.999 -68.5s-17 -53.667 -17 -83zM177 163.998c-19.333 27.333 -32.833 55.335 -40.5 84.002s-11.5 56 -11.5 82c0 20 3.16699 45.167 9.5 75.5
s20.5 60.5 42.5 90.5l-111 112l66 66l110 -112c28.667 22 57.834 37 87.501 45s57.167 12 82.5 12c24 0 45.333 -2.33301 64 -7s35.167 -10 49.5 -16s26.166 -12.167 35.499 -18.5s16.333 -11.5 21 -15.5l111 112l66 -66l-111 -112c19.333 -26.667 33 -54.334 41 -83.001
s12 -56.334 12 -83.001c0 -26 -4 -53.333 -12 -82s-21.667 -56.667 -41 -84l111 -111l-66 -66l-111 111c-5.33301 -4 -12.666 -9.16699 -21.999 -15.5s-21 -12.5 -35 -18.5s-30.333 -11.167 -49 -15.5s-40 -6.5 -64 -6.5c-23.333 0 -44.5 2.16699 -63.5 6.5
s-35.5 9.5 -49.5 15.5s-25.833 12.167 -35.5 18.5s-16.834 11.5 -21.501 15.5l-110 -111l-66 66z" />
    <glyph glyph-name="yen" unicode="&#xa5;" horiz-adv-x="580" 
d="M484 700h112l-259 -408v-39h105v-46h-105v-32h105v-46h-105v-129h-94v129h-105v46h105v32h-105v46h105v39l-260 408h112l195 -324z" />
    <glyph glyph-name="brokenbar" unicode="&#xa6;" horiz-adv-x="478" 
d="M208 399v430h62v-430h-62zM270 206v-430h-62v430h62z" />
    <glyph glyph-name="section" unicode="&#xa7;" horiz-adv-x="579" 
d="M332 150c10 2.66699 20.666 7.16699 31.999 13.5s22 14.5 32 24.5s18.167 22.333 24.5 37s9.5 32.334 9.5 53.001c0 16.667 -2.83301 32 -8.5 46s-15.5 27 -29.5 39s-33 23.833 -57 35.5s-54.333 24.167 -91 37.5c-35.333 -10 -60.166 -25.833 -74.499 -47.5
s-21.5 -44.834 -21.5 -69.501s4.5 -45 13.5 -61s21.5 -30 37.5 -42s35.333 -23 58 -33zM377.999 557c-0.666992 23.333 -3.83691 41.6709 -9.50391 55.0039s-12.834 23.5 -21.501 30.5s-18 11.5 -28 13.5s-19.667 3 -29 3c-25.333 0 -44.166 -6.66699 -56.499 -20
s-18.5 -30.333 -18.5 -51c0 -18.667 4.33301 -34.167 13 -46.5s20.167 -22.833 34.5 -31.5s30.5 -16.5 48.5 -23.5l55 -22.5c23.333 -10 44.333 -21 63 -33s34.334 -25.5 47.001 -40.5s22.334 -32 29.001 -51s10 -40.833 10 -65.5c0 -28.667 -4.66699 -52.5 -14 -71.5
s-20.5 -34.667 -33.5 -47s-26.5 -21.5 -40.5 -27.5s-25.333 -10.333 -34 -13c16 -5.33301 28.167 -13.5 36.5 -24.5s14.333 -22.5 18 -34.5s5.66699 -23 6 -33s0.5 -16.667 0.5 -20c0 -24 -3.5 -44.333 -10.5 -61s-16 -30.334 -27 -41.001s-23.167 -19.167 -36.5 -25.5
s-26.5 -10.833 -39.5 -13.5s-25 -4.33398 -36 -5.00098s-19.5 -1 -25.5 -1c-39.333 0 -70.166 7 -92.499 21s-39.166 30.5 -50.499 49.5s-18.333 38.5 -21 58.5s-4 36 -4 48l74 -1c-0.666992 -12 0.5 -24.5 3.5 -37.5s8.16699 -24.833 15.5 -35.5s17 -19.5 29 -26.5
s27 -10.5 45 -10.5c18.667 0 34 2.33301 46 7s21.5 10.667 28.5 18s11.667 15.5 14 24.5s3.5 17.833 3.5 26.5c0 17.333 -3.66699 31.666 -11 42.999s-17.166 21.166 -29.499 29.499s-27 15.833 -44 22.5l-54.5 22c-18 7.33301 -36.667 16 -56 26s-37.333 22.833 -54 38.5
s-30.334 34.334 -41.001 56.001s-16 47.834 -16 78.501c0 46.667 11.5 83 34.5 109s51.167 42.667 84.5 50c-19.333 13.333 -33 29.333 -41 48s-12 41.667 -12 69c0 18 3.33301 35 10 51s16.667 30.333 30 43s30 22.667 50 30s43.667 11 71 11
c10 0 24.167 -1.16699 42.5 -3.5s36.5 -8.83301 54.5 -19.5s33.5 -27.334 46.5 -50.001s18.833 -54.334 17.5 -95.001h-74z" />
    <glyph glyph-name="dieresis" unicode="&#xa8;" horiz-adv-x="386" 
d="M248 700h88v-92h-88v92zM50 700h88v-92h-88v92z" />
    <glyph glyph-name="copyright" unicode="&#xa9;" horiz-adv-x="806" 
d="M551 297c-4.66699 -26.667 -12.001 -48.1689 -22.001 -64.502s-21.5 -29 -34.5 -38s-27.167 -15 -42.5 -18s-30.333 -4.5 -45 -4.5c-34 0 -61.833 6.16699 -83.5 18.5s-38.667 27.5 -51 45.5s-20.666 37.333 -24.999 58s-6.5 39.667 -6.5 57c0 38 5.33301 69.167 16 93.5
s24 43.5 40 57.5s33.5 23.667 52.5 29s36.833 8 53.5 8c14 0 29 -1.83301 45 -5.5s31 -9.83398 45 -18.501s25.667 -20.5 35 -35.5s14 -33.5 14 -55.5h-62c-0.666992 5.33301 -2 11.833 -4 19.5s-5.83301 14.834 -11.5 21.501s-13.334 12.334 -23.001 17.001
s-22.5 7 -38.5 7c-21.333 0 -38.166 -5 -50.499 -15s-21.833 -22.167 -28.5 -36.5s-10.834 -29.333 -12.501 -45s-2.5 -29.5 -2.5 -41.5c0 -9.33301 1.16699 -21.333 3.5 -36s7 -28.834 14 -42.501s17 -25.5 30 -35.5s30.167 -15 51.5 -15c15.333 0 27.833 2.83301 37.5 8.5
s17.334 12.334 23.001 20.001s9.66699 15.834 12 24.501s3.83301 16 4.5 22h66zM118.999 349.998c0 -41.333 7.33301 -80 22 -116s34.834 -67.5 60.501 -94.5s55.667 -48.167 90 -63.5s71.5 -23 111.5 -23s77.167 7.66699 111.5 23s64.333 36.5 90 63.5
s45.834 58.5 60.501 94.5s22 74.667 22 116s-7.33301 80 -22 116s-34.834 67.5 -60.501 94.5s-55.667 48.167 -90 63.5s-71.5 23 -111.5 23s-77.167 -7.66699 -111.5 -23s-64.333 -36.5 -90 -63.5s-45.834 -58.5 -60.501 -94.5s-22 -74.667 -22 -116zM52.999 349.998
c0 48 9 93.333 27 136s42.833 79.834 74.5 111.501s68.667 56.667 111 75s88.166 27.5 137.499 27.5c48.667 0 94.334 -9.16699 137.001 -27.5s79.834 -43.333 111.501 -75s56.5 -68.834 74.5 -111.501s27 -88 27 -136s-9 -93.333 -27 -136s-42.833 -79.834 -74.5 -111.501
s-68.834 -56.667 -111.501 -75s-88.334 -27.5 -137.001 -27.5c-49.333 0 -95.166 9.16699 -137.499 27.5s-79.333 43.333 -111 75s-56.5 68.834 -74.5 111.501s-27 88 -27 136z" />
    <glyph glyph-name="ordfeminine" unicode="&#xaa;" horiz-adv-x="368" 
d="M37 354h299v-31h-299v31zM254 560c-2.66699 -2.66699 -5.33105 -4.49805 -7.99805 -5.49805s-6.33398 -1.83301 -11.001 -2.5s-10.834 -1.5 -18.501 -2.5s-17.5 -2.5 -29.5 -4.5l-33.5 -5.5c-10.333 -1.66699 -19.5 -4.5 -27.5 -8.5s-14.333 -9.5 -19 -16.5
s-7 -16.5 -7 -28.5c0 -18.667 5.5 -32.834 16.5 -42.501s25.167 -14.5 42.5 -14.5c10 0 20.333 1.5 31 4.5s20.5 8.5 29.5 16.5s16.667 18.667 23 32s9.83301 30.666 10.5 51.999zM56.0029 619.002c0 10.667 1.66699 21.9971 5 33.9971s9.66602 23 18.999 33
s22.5 18.333 39.5 25s39.167 10 66.5 10c30 0 53.167 -4.16699 69.5 -12.5s28.333 -18.333 36 -30s12.167 -23.167 13.5 -34.5s2 -20 2 -26l-3 -141c0 -11.333 1.33301 -20.5 4 -27.5s12 -9.83301 28 -8.5v-37c-3.33301 -0.666992 -6.83301 -1.16699 -10.5 -1.5
s-8.16699 -0.5 -13.5 -0.5s-11 0.333008 -17 1s-11.667 2.33398 -17 5.00098s-10 7 -14 13s-6.33301 14.333 -7 25c-11.333 -19.333 -26.666 -33.166 -45.999 -41.499s-38.666 -12.5 -57.999 -12.5c-14.667 0 -28.5 1.5 -41.5 4.5s-24.5 8 -34.5 15s-17.833 16.5 -23.5 28.5
s-8.5 26.667 -8.5 44c0 22 5.66699 39 17 51s24.833 21.167 40.5 27.5s32 10.5 49 12.5l43.5 5c10.667 0.666992 19.667 1.33398 27 2.00098s13.333 2.33398 18 5.00098s8.16699 6.66699 10.5 12s3.5 13 3.5 23c0 2.66699 -0.333008 7.33398 -1 14.001s-3 13.5 -7 20.5
s-10.667 13.333 -20 19s-22.666 8.5 -39.999 8.5c-8 0 -16.5 -0.5 -25.5 -1.5s-17.333 -3.83301 -25 -8.5s-14.334 -11.334 -20.001 -20.001s-8.83398 -20.334 -9.50098 -35.001h-50z" />
    <glyph glyph-name="guillemotleft" unicode="&#xab;" horiz-adv-x="462" 
d="M387 182v-82l-149 131v82l149 131v-82l-106 -90zM211 182v-82l-149 131v82l149 131v-82l-106 -90z" />
    <glyph glyph-name="logicalnot" unicode="&#xac;" 
d="M550 386v-202h-62v140h-438v62h500z" />
    <glyph glyph-name="uni00AD" unicode="&#xad;" horiz-adv-x="422" 
d="M79 310h264v-85h-264v85z" />
    <glyph glyph-name="registered" unicode="&#xae;" horiz-adv-x="806" 
d="M340 371l75 -0.000976562c13.333 0 24.166 1.66699 32.499 5s14.833 7.83301 19.5 13.5s7.83398 11.834 9.50098 18.501s2.5 13 2.5 19c0 21.333 -6.5 35.5 -19.5 42.5s-30.167 10.5 -51.5 10.5h-68v-109zM275 527.999h155c9.33301 0 20.5 -1 33.5 -3
s25.5 -6.5 37.5 -13.5s22.333 -17.167 31 -30.5s13 -31.333 13 -54c0 -6 -0.666992 -12.5 -2 -19.5s-4 -14.167 -8 -21.5s-10 -14.333 -18 -21s-18.333 -12.667 -31 -18v-2c11.333 -2 20.166 -6 26.499 -12s11.166 -12.833 14.499 -20.5s5.5 -16 6.5 -25
s1.83301 -17.833 2.5 -26.5c0.666992 -13.333 1.16699 -24.333 1.5 -33s0.833008 -15.834 1.5 -21.501s1.83398 -10.667 3.50098 -15s4.16699 -8.83301 7.5 -13.5h-67c-3.33301 3.33301 -5.66602 6.66602 -6.99902 9.99902s-2.33301 7.83301 -3 13.5
s-1.16699 12.834 -1.5 21.501s-0.833008 20.334 -1.5 35.001c0 8 -0.666992 15.833 -2 23.5s-4.5 14.667 -9.5 21s-12.5 11.333 -22.5 15s-24.333 5.5 -43 5.5h-53v-145h-65v350zM119 349.999c0 -41.333 7.33301 -80 22 -116s34.834 -67.5 60.501 -94.5
s55.667 -48.167 90 -63.5s71.5 -23 111.5 -23s77.167 7.66699 111.5 23s64.333 36.5 90 63.5s45.834 58.5 60.501 94.5s22 74.667 22 116s-7.33301 80 -22 116s-34.834 67.5 -60.501 94.5s-55.667 48.167 -90 63.5s-71.5 23 -111.5 23s-77.167 -7.66699 -111.5 -23
s-64.333 -36.5 -90 -63.5s-45.834 -58.5 -60.501 -94.5s-22 -74.667 -22 -116zM53 349.999c0 48 9 93.333 27 136s42.833 79.834 74.5 111.501s68.667 56.667 111 75s88.166 27.5 137.499 27.5c48.667 0 94.334 -9.16699 137.001 -27.5s79.834 -43.333 111.501 -75
s56.5 -68.834 74.5 -111.501s27 -88 27 -136s-9 -93.333 -27 -136s-42.833 -79.834 -74.5 -111.501s-68.834 -56.667 -111.501 -75s-88.334 -27.5 -137.001 -27.5c-49.333 0 -95.166 9.16699 -137.499 27.5s-79.333 43.333 -111 75s-56.5 68.834 -74.5 111.501
s-27 88 -27 136z" />
    <glyph glyph-name="macron" unicode="&#xaf;" horiz-adv-x="416" 
d="M50 673h316v-60h-158h-158v60z" />
    <glyph glyph-name="degree" unicode="&#xb0;" horiz-adv-x="266" 
d="M83 605c0 -13.333 5 -25 15 -35s21.667 -15 35 -15s25 5 35 15s15 21.667 15 35s-5 25 -15 35s-21.667 15 -35 15s-25 -5 -35 -15s-15 -21.667 -15 -35zM37 605c0 26.667 9.33301 49.334 28 68.001s41.334 28 68.001 28s49.334 -9.33301 68.001 -28
s28 -41.334 28 -68.001s-9.33301 -49.334 -28 -68.001s-41.334 -28 -68.001 -28s-49.334 9.33301 -68.001 28s-28 41.334 -28 68.001z" />
    <glyph glyph-name="plusminus" unicode="&#xb1;" 
d="M550 142v-62h-500v62h500zM269 451v199h62v-199h219v-62h-219v-179h-62v179h-219v62h219z" />
    <glyph glyph-name="twosuperior" unicode="&#xb2;" horiz-adv-x="360" 
d="M322 280l-285.001 -0.000976562c0.666992 25.333 4.33398 47 11.001 65s16.167 34.167 28.5 48.5s27.166 27.5 44.499 39.5s36.666 24.667 57.999 38c12 7.33301 23.167 14.833 33.5 22.5s19.333 15.834 27 24.501s13.834 18.5 18.501 29.5s7 23.5 7 37.5
c0 8 -1.16699 16.667 -3.5 26s-6.5 18 -12.5 26s-14.5 14.667 -25.5 20s-25.167 8 -42.5 8c-28 0 -49.5 -7.5 -64.5 -22.5s-22.5 -35.167 -22.5 -60.5v-16h-56v13c0 6 1.16699 16.5 3.5 31.5s8.33301 30 18 45s24 28.333 43 40s45.5 17.5 79.5 17.5c42 0 76 -11 102 -33
s39 -53.667 39 -95c0 -22.667 -4 -42.167 -12 -58.5s-18.5 -30.833 -31.5 -43.5s-27.5 -24 -43.5 -34l-48 -30c-31.333 -20 -53.166 -36.667 -65.499 -50s-19.833 -27 -22.5 -41h222v-48z" />
    <glyph glyph-name="threesuperior" unicode="&#xb3;" horiz-adv-x="360" 
d="M88 408c0 -19.333 3.33496 -35 10.002 -47s14.667 -21.5 24 -28.5s19 -11.667 29 -14s19 -3.5 27 -3.5c5.33301 0 13.166 0.666992 23.499 2s20.5 4.83301 30.5 10.5s18.833 14.167 26.5 25.5s11.5 27.333 11.5 48c0 23.333 -6.66699 41.5 -20 54.5
s-31.333 19.5 -54 19.5h-43v48h17c4.66699 0 12 0.5 22 1.5s20 3.66699 30 8s18.833 11.333 26.5 21s11.5 23.5 11.5 41.5c0 6.66699 -1.16699 14.167 -3.5 22.5s-6.5 16 -12.5 23s-14.333 12.833 -25 17.5s-24 7 -40 7c-28 0 -48.333 -8 -61 -24s-19.667 -39 -21 -69h-52
c0 14.667 1.83301 30.334 5.5 47.001s10.5 32 20.5 46s23.833 25.5 41.5 34.5s40.5 13.5 68.5 13.5c40.667 0 73 -10.333 97 -31s36 -49 36 -85c0 -14 -2.16699 -26.333 -6.5 -37s-9.83301 -19.667 -16.5 -27s-14 -13.333 -22 -18s-16 -8.33398 -24 -11.001v-3
c21.333 -3.33301 40.166 -13.5 56.499 -30.5s24.5 -41.5 24.5 -73.5c0 -40.667 -13.167 -72.5 -39.5 -95.5s-61.5 -34.5 -105.5 -34.5c-30 0 -54.5 4.83301 -73.5 14.5s-33.833 21.5 -44.5 35.5s-18 29.167 -22 45.5s-6.33301 31.5 -7 45.5h54z" />
    <glyph glyph-name="acute" unicode="&#xb4;" horiz-adv-x="312" 
d="M270 700l-96 -132h-80l70 132h106z" />
    <glyph glyph-name="mu" unicode="&#xb5;" horiz-adv-x="580" 
d="M173 -185l-88.0039 0.00390625v693h88v-277c0 -9.33301 0.5 -24 1.5 -44s5 -40.167 12 -60.5s18.5 -38.166 34.5 -53.499s39 -23 69 -23c28.667 0 50.834 7 66.501 21s27.167 30.667 34.5 50s11.833 39.166 13.5 59.499s2.5 37.166 2.5 50.499v277h88v-386
c0 -7.33301 0.333008 -14.833 1 -22.5s2.33398 -14.5 5.00098 -20.5s6.83398 -10.833 12.501 -14.5s13.834 -4.83398 24.501 -3.50098l10 1v-62c-10 -1.33301 -18.333 -2.33301 -25 -3s-12.667 -1 -18 -1c-20.667 0 -37.334 2 -50.001 6s-22.5 9.16699 -29.5 15.5
s-11.833 13.333 -14.5 21s-4 15.5 -4 23.5c-8.66699 -16.667 -18 -30.334 -28 -41.001s-20.167 -19 -30.5 -25s-20.5 -10.167 -30.5 -12.5s-19.333 -3.5 -28 -3.5c-22 0 -43.667 6.16699 -65 18.5s-38.666 30.166 -51.999 53.499v-237z" />
    <glyph glyph-name="paragraph" unicode="&#xb6;" horiz-adv-x="491" 
d="M362 700h62v-885h-62v885zM205 370c-23.333 0.666992 -44.999 5.16504 -64.999 13.498s-37.333 19.833 -52 34.5s-26.334 31.834 -35.001 51.501s-13 41.5 -13 65.5c0 22.667 4.33301 44.167 13 64.5s20.5 37.833 35.5 52.5s32.5 26.334 52.5 35.001s41.333 13 64 13h62
v-885h-62v555z" />
    <glyph glyph-name="periodcentered" unicode="&#xb7;" horiz-adv-x="250" 
d="M76 323h99v-110h-99v110z" />
    <glyph glyph-name="cedilla" unicode="&#xb8;" horiz-adv-x="298" 
d="M60 -176c5.33301 -2 12.667 -3.83105 22 -5.49805s22.666 -2.5 39.999 -2.5c22.667 0 38.834 3.5 48.501 10.5s14.5 15.833 14.5 26.5c0 10 -3 17.5 -9 22.5s-13.333 8.66699 -22 11s-18 3.5 -28 3.5h-27h-17l15 52h32c28.667 0 51.667 -3.16699 69 -9.5
s30.833 -14.333 40.5 -24s16 -20.334 19 -32.001s4.5 -22.5 4.5 -32.5c0 -8.66699 -1.66699 -17.834 -5 -27.501s-9.66602 -18.667 -18.999 -27s-22.333 -15.333 -39 -21s-38.334 -8.5 -65.001 -8.5c-7.33301 0 -18.5 0.5 -33.5 1.5s-34.167 3.16699 -57.5 6.5z" />
    <glyph glyph-name="onesuperior" unicode="&#xb9;" horiz-adv-x="360" 
d="M85 625l12.002 0.000976562c25.333 0 47.666 6.66699 66.999 20s30.666 31.666 33.999 54.999h39v-420h-56v316h-96v29z" />
    <glyph glyph-name="ordmasculine" unicode="&#xba;" horiz-adv-x="385" 
d="M43 354h299v-31h-299v31zM99 557c0 -6 0.498047 -16.168 1.49805 -30.501s4.5 -28.666 10.5 -42.999s15.333 -27 28 -38s30.334 -16.5 53.001 -16.5s40.334 5.5 53.001 16.5s22 23.833 28 38.5s9.66699 29 11 43s2 24 2 30c0 30.667 -3.83301 54.5 -11.5 71.5
s-16.5 29.667 -26.5 38s-20.333 13.333 -31 15s-19 2.5 -25 2.5s-14.167 -0.833008 -24.5 -2.5s-20.5 -6.66699 -30.5 -15s-18.833 -21 -26.5 -38s-11.5 -40.833 -11.5 -71.5zM42.998 556.999c0 18 2.16699 36.667 6.5 56s12.166 37 23.499 53s26.666 29.167 45.999 39.5
s43.666 15.5 72.999 15.5c30 0 54.667 -5.16699 74 -15.5s34.666 -23.5 45.999 -39.5s19.166 -33.667 23.499 -53s6.5 -38 6.5 -56s-2.16699 -36.667 -6.5 -56s-12.166 -37.166 -23.499 -53.499s-26.666 -29.666 -45.999 -39.999s-44 -15.5 -74 -15.5
c-29.333 0 -53.666 5.16699 -72.999 15.5s-34.666 23.666 -45.999 39.999s-19.166 34.166 -23.499 53.499s-6.5 38 -6.5 56z" />
    <glyph glyph-name="guillemotright" unicode="&#xbb;" horiz-adv-x="462" 
d="M75 362v82l149 -131v-82l-149 -131v82l106 90zM251 362v82l149 -131v-82l-149 -131v82l106 90z" />
    <glyph glyph-name="onequarter" unicode="&#xbc;" horiz-adv-x="820" 
d="M627 700h56l-450 -700h-56zM85 625l12.002 0.000976562c25.333 0 47.666 6.66699 66.999 20s30.666 31.666 33.999 54.999h39v-420h-56v316h-96v29zM678.002 145.001v201l-144 -201h144zM480.002 97.001v48l197 275h57v-275h66v-48h-66v-97h-56v97h-198z" />
    <glyph glyph-name="onehalf" unicode="&#xbd;" horiz-adv-x="820" 
d="M587 700h56l-450 -700h-56zM782 0l-285.001 -0.000976562c0.666992 25.333 4.33398 47 11.001 65s16.167 34.167 28.5 48.5s27.166 27.5 44.499 39.5s36.666 24.667 57.999 38c12 7.33301 23.167 14.833 33.5 22.5s19.333 15.834 27 24.501s13.834 18.5 18.501 29.5
s7 23.5 7 37.5c0 8 -1.16699 16.667 -3.5 26s-6.5 18 -12.5 26s-14.5 14.667 -25.5 20s-25.167 8 -42.5 8c-28 0 -49.5 -7.5 -64.5 -22.5s-22.5 -35.167 -22.5 -60.5v-16h-56v13c0 6 1.16699 16.5 3.5 31.5s8.33301 30 18 45s24 28.333 43 40s45.5 17.5 79.5 17.5
c42 0 76 -11 102 -33s39 -53.667 39 -95c0 -22.667 -4 -42.167 -12 -58.5s-18.5 -30.833 -31.5 -43.5s-27.5 -24 -43.5 -34l-48 -30c-31.333 -20 -53.166 -36.667 -65.499 -50s-19.833 -27 -22.5 -41h222v-48zM84.999 624.999l12.002 0.000976562
c25.333 0 47.666 6.66699 66.999 20s30.666 31.666 33.999 54.999h39v-420h-56v316h-96v29z" />
    <glyph glyph-name="threequarters" unicode="&#xbe;" horiz-adv-x="820" 
d="M647 700h56l-450 -700h-56zM678 145v201l-144 -201h144zM480 97v48l197 275h57v-275h66v-48h-66v-97h-56v97h-198zM88 408c0 -19.333 3.33496 -35 10.002 -47s14.667 -21.5 24 -28.5s19 -11.667 29 -14s19 -3.5 27 -3.5c5.33301 0 13.166 0.666992 23.499 2
s20.5 4.83301 30.5 10.5s18.833 14.167 26.5 25.5s11.5 27.333 11.5 48c0 23.333 -6.66699 41.5 -20 54.5s-31.333 19.5 -54 19.5h-43v48h17c4.66699 0 12 0.5 22 1.5s20 3.66699 30 8s18.833 11.333 26.5 21s11.5 23.5 11.5 41.5c0 6.66699 -1.16699 14.167 -3.5 22.5
s-6.5 16 -12.5 23s-14.333 12.833 -25 17.5s-24 7 -40 7c-28 0 -48.333 -8 -61 -24s-19.667 -39 -21 -69h-52c0 14.667 1.83301 30.334 5.5 47.001s10.5 32 20.5 46s23.833 25.5 41.5 34.5s40.5 13.5 68.5 13.5c40.667 0 73 -10.333 97 -31s36 -49 36 -85
c0 -14 -2.16699 -26.333 -6.5 -37s-9.83301 -19.667 -16.5 -27s-14 -13.333 -22 -18s-16 -8.33398 -24 -11.001v-3c21.333 -3.33301 40.166 -13.5 56.499 -30.5s24.5 -41.5 24.5 -73.5c0 -40.667 -13.167 -72.5 -39.5 -95.5s-61.5 -34.5 -105.5 -34.5
c-30 0 -54.5 4.83301 -73.5 14.5s-33.833 21.5 -44.5 35.5s-18 29.167 -22 45.5s-6.33301 31.5 -7 45.5h54z" />
    <glyph glyph-name="questiondown" unicode="&#xbf;" horiz-adv-x="548" 
d="M495 26c1.33301 -50 -5.16602 -90 -19.499 -120s-32.5 -53 -54.5 -69s-46 -26.5 -72 -31.5s-50.333 -7.5 -73 -7.5c-33.333 0 -63.666 4 -90.999 12s-50.666 19.833 -69.999 35.5s-34.5 34.667 -45.5 57s-16.5 47.833 -16.5 76.5c0 20 2.16699 37.667 6.5 53
s10.833 30 19.5 44s19.5 27.5 32.5 40.5s28.167 26.833 45.5 41.5l29 25.5c10 9 19.167 19 27.5 30s15.166 23 20.499 36s8 27.167 8 42.5v14h72c3.33301 -26.667 0.833008 -53.334 -7.5 -80.001s-20.5 -48.667 -36.5 -66c-13.333 -14 -27.666 -27.167 -42.999 -39.5
s-29.333 -25.166 -42 -38.499s-23.167 -28 -31.5 -44s-12.5 -34.333 -12.5 -55c0 -11.333 2 -23.5 6 -36.5s11.167 -25.167 21.5 -36.5s24.166 -20.833 41.499 -28.5s39.666 -11.5 66.999 -11.5c30 0 53.833 5.5 71.5 16.5s31.167 24.5 40.5 40.5s15.166 33 17.499 51
s2.83301 34 1.5 48h87zM328.001 399h-99v109h99v-109z" />
    <glyph glyph-name="Agrave" unicode="&#xc0;" horiz-adv-x="622" 
d="M433 260l-122 345l-122 -345h244zM97 0h-101l265 700h100l265 -700h-101l-66 181h-296zM378 760h-84l-103 140h112z" />
    <glyph glyph-name="Aacute" unicode="&#xc1;" horiz-adv-x="622" 
d="M433 260l-122 345l-122 -345h244zM97 0h-101l265 700h100l265 -700h-101l-66 181h-296zM430 900l-102 -140h-84l74 140h112z" />
    <glyph glyph-name="Acircumflex" unicode="&#xc2;" horiz-adv-x="622" 
d="M433 260l-122 345l-122 -345h244zM97 0h-101l265 700h100l265 -700h-101l-66 181h-296zM240 900h142l125 -140h-94l-102 105l-102 -105h-94z" />
    <glyph glyph-name="Atilde" unicode="&#xc3;" horiz-adv-x="622" 
d="M433 260l-122 345l-122 -345h244zM97 0h-101l265 700h100l265 -700h-101l-66 181h-296zM507 868c-2 -12.667 -5.66699 -25.502 -11 -38.502s-12.833 -24.667 -22.5 -35s-21.334 -18.666 -35.001 -24.999s-29.5 -9.5 -47.5 -9.5s-33 2.5 -45 7.5s-26.333 11.5 -43 19.5
l-35 17.5c-10 5 -21.667 7.5 -35 7.5c-14 0 -26.333 -3.5 -37 -10.5s-17 -17.167 -19 -30.5h-62c2 13.333 6.16699 26.333 12.5 39s14.5 23.834 24.5 33.501s21.833 17.5 35.5 23.5s28.834 9 45.501 9c21.333 0 37.833 -2.66699 49.5 -8s21.167 -10.333 28.5 -15
c15.333 -9.33301 29.333 -16.5 42 -21.5s24.667 -7.5 36 -7.5s22.833 3.33301 34.5 10s19.167 18 22.5 34h61z" />
    <glyph glyph-name="Adieresis" unicode="&#xc4;" horiz-adv-x="622" 
d="M433 260l-122 345l-122 -345h244zM97 0h-101l265 700h100l265 -700h-101l-66 181h-296zM372 851h94v-79h-94v79zM156 851h94v-79h-94v79z" />
    <glyph glyph-name="Aring" unicode="&#xc5;" horiz-adv-x="622" 
d="M433 260l-122 345l-122 -345h244zM97 0h-101l265 700h100l265 -700h-101l-66 181h-296zM255 822c0 -15.333 5.5 -28.5 16.5 -39.5s24.167 -16.5 39.5 -16.5s28.5 5.5 39.5 16.5s16.5 24.167 16.5 39.5s-5.5 28.5 -16.5 39.5s-24.167 16.5 -39.5 16.5
s-28.5 -5.5 -39.5 -16.5s-16.5 -24.167 -16.5 -39.5zM213 822c0 27.333 9.5 50.5 28.5 69.5s42.167 28.5 69.5 28.5s50.5 -9.5 69.5 -28.5s28.5 -42.167 28.5 -69.5s-9.5 -50.5 -28.5 -69.5s-42.167 -28.5 -69.5 -28.5s-50.5 9.5 -69.5 28.5s-28.5 42.167 -28.5 69.5z" />
    <glyph glyph-name="AE" unicode="&#xc6;" horiz-adv-x="996" 
d="M470 621h-27l-195 -361h222v361zM470 181h-264l-99 -181h-111l390 700h583v-79h-405v-220h366v-79h-366v-243h415v-79h-509v181z" />
    <glyph glyph-name="Ccedilla" unicode="&#xc7;" horiz-adv-x="712" 
d="M674 232c-3.33301 -25.333 -10.002 -52.6709 -20.002 -82.0039s-26.167 -56.666 -48.5 -81.999s-51.833 -46.5 -88.5 -63.5s-83 -25.5 -139 -25.5c-52 0 -98.667 8.16699 -140 24.5s-76.166 40 -104.499 71s-50.166 68.667 -65.499 113s-23 94.5 -23 150.5
c0 62 6.83301 114.5 20.5 157.5s31 78.667 52 107s44.5 50.5 70.5 66.5s51.167 27.833 75.5 35.5s46.5 12.334 66.5 14.001s35 2.5 45 2.5c56 0 102 -7.33301 138 -22s64.833 -33.5 86.5 -56.5s37.334 -48.5 47.001 -76.5s15.834 -55.333 18.501 -82h-94
c-1.33301 12.667 -4.83301 28 -10.5 46s-15.5 35.333 -29.5 52s-33.5 30.834 -58.5 42.501s-57.5 17.5 -97.5 17.5c-44 0 -80.667 -8.5 -110 -25.5s-52.833 -39.5 -70.5 -67.5s-30.334 -60 -38.001 -96s-11.5 -73 -11.5 -111c0 -40.667 5.33301 -78.334 16 -113.001
s26.334 -64.667 47.001 -90s45.5 -45.166 74.5 -59.499s62.167 -21.5 99.5 -21.5c28 0 53.833 4.33301 77.5 13s44.167 20.834 61.5 36.501s31.166 34 41.499 55s16.166 44.167 17.499 69.5h94zM266.998 -176.005c5.33301 -2 12.667 -3.83105 22 -5.49805
s22.666 -2.5 39.999 -2.5c22.667 0 38.834 3.5 48.501 10.5s14.5 15.833 14.5 26.5c0 10 -3 17.5 -9 22.5s-13.333 8.66699 -22 11s-18 3.5 -28 3.5h-27h-17l15 52h32c28.667 0 51.667 -3.16699 69 -9.5s30.833 -14.333 40.5 -24s16 -20.334 19 -32.001s4.5 -22.5 4.5 -32.5
c0 -8.66699 -1.66699 -17.834 -5 -27.501s-9.66602 -18.667 -18.999 -27s-22.333 -15.333 -39 -21s-38.334 -8.5 -65.001 -8.5c-7.33301 0 -18.5 0.5 -33.5 1.5s-34.167 3.16699 -57.5 6.5z" />
    <glyph glyph-name="Egrave" unicode="&#xc8;" horiz-adv-x="612" 
d="M546 401v-79h-367v-243h416v-79h-510v700h499v-79h-405v-220h367zM373 760h-84l-103 140h112z" />
    <glyph glyph-name="Eacute" unicode="&#xc9;" horiz-adv-x="612" 
d="M546 401v-79h-367v-243h416v-79h-510v700h499v-79h-405v-220h367zM425 900l-102 -140h-84l74 140h112z" />
    <glyph glyph-name="Ecircumflex" unicode="&#xca;" horiz-adv-x="612" 
d="M546 401v-79h-367v-243h416v-79h-510v700h499v-79h-405v-220h367zM235 900h142l125 -140h-94l-102 105l-102 -105h-94z" />
    <glyph glyph-name="Edieresis" unicode="&#xcb;" horiz-adv-x="612" 
d="M546 401v-79h-367v-243h416v-79h-510v700h499v-79h-405v-220h367zM367 851h94v-79h-94v79zM151 851h94v-79h-94v79z" />
    <glyph glyph-name="Igrave" unicode="&#xcc;" horiz-adv-x="264" 
d="M179 700v-700h-94v700h94zM202 760h-84l-103 140h112z" />
    <glyph glyph-name="Iacute" unicode="&#xcd;" horiz-adv-x="264" 
d="M179 700v-700h-94v700h94zM253 900l-102 -140h-84l74 140h112z" />
    <glyph glyph-name="Icircumflex" unicode="&#xce;" horiz-adv-x="264" 
d="M179 700v-700h-94v700h94zM63 900h142l125 -140h-94l-102 105l-102 -105h-94z" />
    <glyph glyph-name="Idieresis" unicode="&#xcf;" horiz-adv-x="264" 
d="M179 700v-700h-94v700h94zM195 851h94v-79h-94v79zM-21 851h94v-79h-94v79z" />
    <glyph glyph-name="Eth" unicode="&#xd0;" horiz-adv-x="728" 
d="M188 428h197.999v-62h-198v-287h131c90 0 156.667 21.833 200 65.5s65 112.167 65 205.5c0 52.667 -6.83301 96.5 -20.5 131.5s-31.667 62.833 -54 83.5s-47.666 35.167 -75.999 43.5s-57.5 12.5 -87.5 12.5h-158v-193zM350.999 700c12 0 28.498 -0.666992 49.498 -2
s43.833 -5.5 68.5 -12.5s49.834 -17.667 75.501 -32s48.834 -34.333 69.501 -60s37.5 -58.167 50.5 -97.5s19.5 -87.333 19.5 -144c0 -57.333 -6.33301 -105.833 -19 -145.5s-29.334 -72.5 -50.001 -98.5s-44.167 -46.333 -70.5 -61s-53.166 -25.5 -80.499 -32.5
s-53.833 -11.167 -79.5 -12.5s-48.5 -2 -68.5 -2h-222v366h-94v62h94v272h257z" />
    <glyph glyph-name="Ntilde" unicode="&#xd1;" horiz-adv-x="740" 
d="M179 0h-94v700h104l372 -555v555h94v-700h-103l-373 555v-555zM566 868c-2 -12.667 -5.66699 -25.502 -11 -38.502s-12.833 -24.667 -22.5 -35s-21.334 -18.666 -35.001 -24.999s-29.5 -9.5 -47.5 -9.5s-33 2.5 -45 7.5s-26.333 11.5 -43 19.5l-35 17.5
c-10 5 -21.667 7.5 -35 7.5c-14 0 -26.333 -3.5 -37 -10.5s-17 -17.167 -19 -30.5h-62c2 13.333 6.16699 26.333 12.5 39s14.5 23.834 24.5 33.501s21.833 17.5 35.5 23.5s28.834 9 45.501 9c21.333 0 37.833 -2.66699 49.5 -8s21.167 -10.333 28.5 -15
c15.333 -9.33301 29.333 -16.5 42 -21.5s24.667 -7.5 36 -7.5s22.833 3.33301 34.5 10s19.167 18 22.5 34h61z" />
    <glyph glyph-name="Ograve" unicode="&#xd2;" horiz-adv-x="758" 
d="M145 350c0 -28 2.8291 -58.9971 8.49609 -92.9971s16.834 -65.833 33.501 -95.5s40.334 -54.334 71.001 -74.001s71 -29.5 121 -29.5c8 0 19.333 0.666992 34 2s30.667 5 48 11s35 15.167 53 27.5s34.333 29.166 49 50.499s26.667 48.333 36 81s14 72.667 14 120
c0 41.333 -4.66699 79.833 -14 115.5s-23.5 66.5 -42.5 92.5s-43.333 46.5 -73 61.5s-64.5 22.5 -104.5 22.5c-35.333 0 -65.833 -5.5 -91.5 -16.5s-47.167 -25.167 -64.5 -42.5s-31.166 -36.833 -41.499 -58.5s-18.166 -43.334 -23.499 -65.001
s-8.83301 -42.167 -10.5 -61.5s-2.5 -35.333 -2.5 -48zM44.9961 350.003c0 61.333 8.33301 115.166 25 161.499s39.667 85 69 116s64.5 54.333 105.5 70s85.833 23.5 134.5 23.5c38.667 0 77.834 -6 117.501 -18s75.5 -32.167 107.5 -60.5s58.167 -66.333 78.5 -114
s30.5 -107.167 30.5 -178.5c0 -60.667 -7.33301 -112.167 -22 -154.5s-33.167 -77.166 -55.5 -104.499s-46.833 -48.5 -73.5 -63.5s-52.334 -26.167 -77.001 -33.5s-46.667 -11.666 -66 -12.999s-32.666 -2 -39.999 -2s-20.833 0.666992 -40.5 2
s-41.834 5.66602 -66.501 12.999s-50.334 18.5 -77.001 33.5s-51.167 36.167 -73.5 63.5s-40.666 62 -54.999 104s-21.5 93.667 -21.5 155zM445.996 760.003h-84l-103 140h112z" />
    <glyph glyph-name="Oacute" unicode="&#xd3;" horiz-adv-x="758" 
d="M145 350c0 -28 2.8291 -58.9971 8.49609 -92.9971s16.834 -65.833 33.501 -95.5s40.334 -54.334 71.001 -74.001s71 -29.5 121 -29.5c8 0 19.333 0.666992 34 2s30.667 5 48 11s35 15.167 53 27.5s34.333 29.166 49 50.499s26.667 48.333 36 81s14 72.667 14 120
c0 41.333 -4.66699 79.833 -14 115.5s-23.5 66.5 -42.5 92.5s-43.333 46.5 -73 61.5s-64.5 22.5 -104.5 22.5c-35.333 0 -65.833 -5.5 -91.5 -16.5s-47.167 -25.167 -64.5 -42.5s-31.166 -36.833 -41.499 -58.5s-18.166 -43.334 -23.499 -65.001
s-8.83301 -42.167 -10.5 -61.5s-2.5 -35.333 -2.5 -48zM44.9961 350.003c0 61.333 8.33301 115.166 25 161.499s39.667 85 69 116s64.5 54.333 105.5 70s85.833 23.5 134.5 23.5c38.667 0 77.834 -6 117.501 -18s75.5 -32.167 107.5 -60.5s58.167 -66.333 78.5 -114
s30.5 -107.167 30.5 -178.5c0 -60.667 -7.33301 -112.167 -22 -154.5s-33.167 -77.166 -55.5 -104.499s-46.833 -48.5 -73.5 -63.5s-52.334 -26.167 -77.001 -33.5s-46.667 -11.666 -66 -12.999s-32.666 -2 -39.999 -2s-20.833 0.666992 -40.5 2
s-41.834 5.66602 -66.501 12.999s-50.334 18.5 -77.001 33.5s-51.167 36.167 -73.5 63.5s-40.666 62 -54.999 104s-21.5 93.667 -21.5 155zM497.996 900.003l-102 -140h-84l74 140h112z" />
    <glyph glyph-name="Ocircumflex" unicode="&#xd4;" horiz-adv-x="758" 
d="M145 350c0 -28 2.8291 -58.9971 8.49609 -92.9971s16.834 -65.833 33.501 -95.5s40.334 -54.334 71.001 -74.001s71 -29.5 121 -29.5c8 0 19.333 0.666992 34 2s30.667 5 48 11s35 15.167 53 27.5s34.333 29.166 49 50.499s26.667 48.333 36 81s14 72.667 14 120
c0 41.333 -4.66699 79.833 -14 115.5s-23.5 66.5 -42.5 92.5s-43.333 46.5 -73 61.5s-64.5 22.5 -104.5 22.5c-35.333 0 -65.833 -5.5 -91.5 -16.5s-47.167 -25.167 -64.5 -42.5s-31.166 -36.833 -41.499 -58.5s-18.166 -43.334 -23.499 -65.001
s-8.83301 -42.167 -10.5 -61.5s-2.5 -35.333 -2.5 -48zM44.9961 350.003c0 61.333 8.33301 115.166 25 161.499s39.667 85 69 116s64.5 54.333 105.5 70s85.833 23.5 134.5 23.5c38.667 0 77.834 -6 117.501 -18s75.5 -32.167 107.5 -60.5s58.167 -66.333 78.5 -114
s30.5 -107.167 30.5 -178.5c0 -60.667 -7.33301 -112.167 -22 -154.5s-33.167 -77.166 -55.5 -104.499s-46.833 -48.5 -73.5 -63.5s-52.334 -26.167 -77.001 -33.5s-46.667 -11.666 -66 -12.999s-32.666 -2 -39.999 -2s-20.833 0.666992 -40.5 2
s-41.834 5.66602 -66.501 12.999s-50.334 18.5 -77.001 33.5s-51.167 36.167 -73.5 63.5s-40.666 62 -54.999 104s-21.5 93.667 -21.5 155zM307.996 900.003h142l125 -140h-94l-102 105l-102 -105h-94z" />
    <glyph glyph-name="Otilde" unicode="&#xd5;" horiz-adv-x="758" 
d="M145 350c0 -28 2.8291 -58.9971 8.49609 -92.9971s16.834 -65.833 33.501 -95.5s40.334 -54.334 71.001 -74.001s71 -29.5 121 -29.5c8 0 19.333 0.666992 34 2s30.667 5 48 11s35 15.167 53 27.5s34.333 29.166 49 50.499s26.667 48.333 36 81s14 72.667 14 120
c0 41.333 -4.66699 79.833 -14 115.5s-23.5 66.5 -42.5 92.5s-43.333 46.5 -73 61.5s-64.5 22.5 -104.5 22.5c-35.333 0 -65.833 -5.5 -91.5 -16.5s-47.167 -25.167 -64.5 -42.5s-31.166 -36.833 -41.499 -58.5s-18.166 -43.334 -23.499 -65.001
s-8.83301 -42.167 -10.5 -61.5s-2.5 -35.333 -2.5 -48zM44.9961 350.003c0 61.333 8.33301 115.166 25 161.499s39.667 85 69 116s64.5 54.333 105.5 70s85.833 23.5 134.5 23.5c38.667 0 77.834 -6 117.501 -18s75.5 -32.167 107.5 -60.5s58.167 -66.333 78.5 -114
s30.5 -107.167 30.5 -178.5c0 -60.667 -7.33301 -112.167 -22 -154.5s-33.167 -77.166 -55.5 -104.499s-46.833 -48.5 -73.5 -63.5s-52.334 -26.167 -77.001 -33.5s-46.667 -11.666 -66 -12.999s-32.666 -2 -39.999 -2s-20.833 0.666992 -40.5 2
s-41.834 5.66602 -66.501 12.999s-50.334 18.5 -77.001 33.5s-51.167 36.167 -73.5 63.5s-40.666 62 -54.999 104s-21.5 93.667 -21.5 155zM574.996 868.003c-2 -12.667 -5.66699 -25.502 -11 -38.502s-12.833 -24.667 -22.5 -35s-21.334 -18.666 -35.001 -24.999
s-29.5 -9.5 -47.5 -9.5s-33 2.5 -45 7.5s-26.333 11.5 -43 19.5l-35 17.5c-10 5 -21.667 7.5 -35 7.5c-14 0 -26.333 -3.5 -37 -10.5s-17 -17.167 -19 -30.5h-62c2 13.333 6.16699 26.333 12.5 39s14.5 23.834 24.5 33.501s21.833 17.5 35.5 23.5s28.834 9 45.501 9
c21.333 0 37.833 -2.66699 49.5 -8s21.167 -10.333 28.5 -15c15.333 -9.33301 29.333 -16.5 42 -21.5s24.667 -7.5 36 -7.5s22.833 3.33301 34.5 10s19.167 18 22.5 34h61z" />
    <glyph glyph-name="Odieresis" unicode="&#xd6;" horiz-adv-x="758" 
d="M145 350c0 -28 2.8291 -58.9971 8.49609 -92.9971s16.834 -65.833 33.501 -95.5s40.334 -54.334 71.001 -74.001s71 -29.5 121 -29.5c8 0 19.333 0.666992 34 2s30.667 5 48 11s35 15.167 53 27.5s34.333 29.166 49 50.499s26.667 48.333 36 81s14 72.667 14 120
c0 41.333 -4.66699 79.833 -14 115.5s-23.5 66.5 -42.5 92.5s-43.333 46.5 -73 61.5s-64.5 22.5 -104.5 22.5c-35.333 0 -65.833 -5.5 -91.5 -16.5s-47.167 -25.167 -64.5 -42.5s-31.166 -36.833 -41.499 -58.5s-18.166 -43.334 -23.499 -65.001
s-8.83301 -42.167 -10.5 -61.5s-2.5 -35.333 -2.5 -48zM44.9961 350.003c0 61.333 8.33301 115.166 25 161.499s39.667 85 69 116s64.5 54.333 105.5 70s85.833 23.5 134.5 23.5c38.667 0 77.834 -6 117.501 -18s75.5 -32.167 107.5 -60.5s58.167 -66.333 78.5 -114
s30.5 -107.167 30.5 -178.5c0 -60.667 -7.33301 -112.167 -22 -154.5s-33.167 -77.166 -55.5 -104.499s-46.833 -48.5 -73.5 -63.5s-52.334 -26.167 -77.001 -33.5s-46.667 -11.666 -66 -12.999s-32.666 -2 -39.999 -2s-20.833 0.666992 -40.5 2
s-41.834 5.66602 -66.501 12.999s-50.334 18.5 -77.001 33.5s-51.167 36.167 -73.5 63.5s-40.666 62 -54.999 104s-21.5 93.667 -21.5 155zM439.996 851.003h94v-79h-94v79zM223.996 851.003h94v-79h-94v79z" />
    <glyph glyph-name="multiply" unicode="&#xd7;" 
d="M256 349l-191 191l44 44l191 -191l191 191l44 -44l-191 -191l191 -191l-44 -44l-191 191l-191 -191l-44 44z" />
    <glyph glyph-name="Oslash" unicode="&#xd8;" horiz-adv-x="758" 
d="M533 585c-9.33301 9.33301 -20.5 17.666 -33.5 24.999s-26.5 13.333 -40.5 18s-28.167 8.16699 -42.5 10.5s-26.833 3.5 -37.5 3.5c-12.667 0 -27.167 -1.16699 -43.5 -3.5s-33.166 -7.16602 -50.499 -14.499s-34.5 -17.5 -51.5 -30.5s-32 -30.333 -45 -52
s-23.5 -48.167 -31.5 -79.5s-12 -68.666 -12 -111.999c0 -27.333 1.5 -51 4.5 -71s6.5 -37.333 10.5 -52s8.16699 -26.834 12.5 -36.501s8.16602 -17.5 11.499 -23.5zM219 119c4.66699 -5.33301 11.167 -11.5 19.5 -18.5s19 -13.667 32 -20s28.5 -11.666 46.5 -15.999
s38.667 -6.5 62 -6.5c8 0 19.333 0.666992 34 2s30.667 5 48 11s35 15.167 53 27.5s34.333 29.166 49 50.499s26.667 48.333 36 81s14 72.667 14 120c0 31.333 -3 62.333 -9 93s-17.667 61.667 -35 93zM632 611c8.66699 -10.667 17.6689 -23.332 27.002 -37.999
s18 -32.5 26 -53.5s14.667 -45.333 20 -73s8 -59.834 8 -96.501c0 -60.667 -7.33301 -112.167 -22 -154.5s-33.167 -77.166 -55.5 -104.499s-46.833 -48.5 -73.5 -63.5s-52.334 -26.167 -77.001 -33.5s-46.667 -11.666 -66 -12.999s-32.666 -2 -39.999 -2
c-13.333 0 -29 0.666992 -47 2s-36.833 4.5 -56.5 9.5s-39.334 12.167 -59.001 21.5s-38.167 22 -55.5 38l-94 -113l-45 37l99 118c-7.33301 9.33301 -15.333 21.166 -24 35.499s-16.834 32 -24.501 53s-14.167 45.5 -19.5 73.5s-8 60 -8 96
c0 61.333 8.33301 115.166 25 161.499s39.667 85 69 116s64.5 54.333 105.5 70s85.833 23.5 134.5 23.5c37.333 0 75.5 -5.5 114.5 -16.5s71.167 -28.167 96.5 -51.5l81 97l49 -34z" />
    <glyph glyph-name="Ugrave" unicode="&#xd9;" horiz-adv-x="696" 
d="M166 700l-0.000976562 -417c0 -21.333 1.16699 -45.166 3.5 -71.499s9.5 -50.833 21.5 -73.5s30.167 -41.667 54.5 -57s58.5 -23 102.5 -23c34.667 0 63.667 4.83301 87 14.5s42 24 56 43s24 42.5 30 70.5s9 60.333 9 97v417h94v-429c0 -47.333 -5 -87.5 -15 -120.5
s-23.167 -60.333 -39.5 -82s-34.666 -38.5 -54.999 -50.5s-40.833 -20.833 -61.5 -26.5s-40.167 -9.16699 -58.5 -10.5s-33.833 -2 -46.5 -2c-42.667 0 -79 4.5 -109 13.5s-55.333 20.833 -76 35.5s-37 32 -49 52s-21.167 40.667 -27.5 62s-10.333 43.166 -12 65.499
s-2.5 43.5 -2.5 63.5v429h94zM414.999 760h-84l-103 140h112z" />
    <glyph glyph-name="Uacute" unicode="&#xda;" horiz-adv-x="696" 
d="M166 700l-0.000976562 -417c0 -21.333 1.16699 -45.166 3.5 -71.499s9.5 -50.833 21.5 -73.5s30.167 -41.667 54.5 -57s58.5 -23 102.5 -23c34.667 0 63.667 4.83301 87 14.5s42 24 56 43s24 42.5 30 70.5s9 60.333 9 97v417h94v-429c0 -47.333 -5 -87.5 -15 -120.5
s-23.167 -60.333 -39.5 -82s-34.666 -38.5 -54.999 -50.5s-40.833 -20.833 -61.5 -26.5s-40.167 -9.16699 -58.5 -10.5s-33.833 -2 -46.5 -2c-42.667 0 -79 4.5 -109 13.5s-55.333 20.833 -76 35.5s-37 32 -49 52s-21.167 40.667 -27.5 62s-10.333 43.166 -12 65.499
s-2.5 43.5 -2.5 63.5v429h94zM466.999 900l-102 -140h-84l74 140h112z" />
    <glyph glyph-name="Ucircumflex" unicode="&#xdb;" horiz-adv-x="696" 
d="M166 700l-0.000976562 -417c0 -21.333 1.16699 -45.166 3.5 -71.499s9.5 -50.833 21.5 -73.5s30.167 -41.667 54.5 -57s58.5 -23 102.5 -23c34.667 0 63.667 4.83301 87 14.5s42 24 56 43s24 42.5 30 70.5s9 60.333 9 97v417h94v-429c0 -47.333 -5 -87.5 -15 -120.5
s-23.167 -60.333 -39.5 -82s-34.666 -38.5 -54.999 -50.5s-40.833 -20.833 -61.5 -26.5s-40.167 -9.16699 -58.5 -10.5s-33.833 -2 -46.5 -2c-42.667 0 -79 4.5 -109 13.5s-55.333 20.833 -76 35.5s-37 32 -49 52s-21.167 40.667 -27.5 62s-10.333 43.166 -12 65.499
s-2.5 43.5 -2.5 63.5v429h94zM276.999 900h142l125 -140h-94l-102 105l-102 -105h-94z" />
    <glyph glyph-name="Udieresis" unicode="&#xdc;" horiz-adv-x="696" 
d="M166 700l-0.000976562 -417c0 -21.333 1.16699 -45.166 3.5 -71.499s9.5 -50.833 21.5 -73.5s30.167 -41.667 54.5 -57s58.5 -23 102.5 -23c34.667 0 63.667 4.83301 87 14.5s42 24 56 43s24 42.5 30 70.5s9 60.333 9 97v417h94v-429c0 -47.333 -5 -87.5 -15 -120.5
s-23.167 -60.333 -39.5 -82s-34.666 -38.5 -54.999 -50.5s-40.833 -20.833 -61.5 -26.5s-40.167 -9.16699 -58.5 -10.5s-33.833 -2 -46.5 -2c-42.667 0 -79 4.5 -109 13.5s-55.333 20.833 -76 35.5s-37 32 -49 52s-21.167 40.667 -27.5 62s-10.333 43.166 -12 65.499
s-2.5 43.5 -2.5 63.5v429h94zM408.999 851h94v-79h-94v79zM192.999 851h94v-79h-94v79z" />
    <glyph glyph-name="Yacute" unicode="&#xdd;" horiz-adv-x="453" 
d="M421 700h112l-259 -408v-292h-94v292l-260 408h112l195 -324zM345 900l-102 -140h-84l74 140h112z" />
    <glyph glyph-name="Thorn" unicode="&#xde;" horiz-adv-x="639" 
d="M179 219h172c56 0 96.667 11.667 122 35s38 58 38 104c0 43.333 -13.167 74.833 -39.5 94.5s-66.5 29.5 -120.5 29.5h-172v-263zM179 700l-0.00195312 -139h191c36 0 68.5 -3.66699 97.5 -11s53.833 -19 74.5 -35s36.667 -36.833 48 -62.5s17 -56.5 17 -92.5
c0 -32.667 -4.33301 -62.5 -13 -89.5s-22.667 -50.167 -42 -69.5s-44.666 -34.333 -75.999 -45s-69.666 -16 -114.999 -16h-182v-140h-94v700h94z" />
    <glyph glyph-name="germandbls" unicode="&#xdf;" horiz-adv-x="560" 
d="M72 455c0 28 1.66211 57 4.99512 87s12 57.167 26 81.5s35.167 44.5 63.5 60.5s67.5 24 117.5 24c32 0 59.833 -4.33301 83.5 -13s43.334 -20.5 59.001 -35.5s27.334 -33 35.001 -54s11.5 -43.5 11.5 -67.5c0 -16 -2.33301 -31.667 -7 -47s-11 -29.166 -19 -41.499
s-17.667 -22.833 -29 -31.5s-24 -14.667 -38 -18v-3c20.667 -4 39.834 -11.167 57.501 -21.5s32.834 -23.666 45.501 -39.999s22.667 -35.333 30 -57s11 -45.834 11 -72.501c0 -34.667 -4.5 -64 -13.5 -88s-20.667 -43.833 -35 -59.5s-30 -28 -47 -37
s-33.333 -15.5 -49 -19.5s-30 -6.5 -43 -7.5s-22.167 -1.5 -27.5 -1.5c-14.667 0 -28 0.666992 -40 2s-23.667 3 -35 5v65c10.667 -4 20.5 -6.5 29.5 -7.5s18.833 -1.5 29.5 -1.5c6.66699 0 17.667 1.16699 33 3.5s31 8.5 47 18.5s30 25.167 42 45.5s18 48.5 18 84.5
c0 35.333 -6.33301 63 -19 83s-28 35 -46 45s-37 16.167 -57 18.5s-37.333 3.5 -52 3.5h-25v61l31 -1c8 0 18.667 0.666992 32 2s26.5 5.83301 39.5 13.5s24.333 19.167 34 34.5s14.5 36.666 14.5 63.999c0 12 -1.5 24.833 -4.5 38.5s-8.33301 26 -16 37
s-18 20.167 -31 27.5s-29.833 11 -50.5 11c-17.333 0 -33.333 -1.83301 -48 -5.5s-27.667 -11.5 -39 -23.5s-20.166 -29.833 -26.499 -53.5s-9.5 -55.5 -9.5 -95.5v-468h-88v455z" />
    <glyph glyph-name="agrave" unicode="&#xe0;" horiz-adv-x="553" 
d="M385 260c-6.66699 -5.33301 -13.667 -9.16797 -21 -11.501s-15.333 -4.16602 -24 -5.49902s-18.5 -2.5 -29.5 -3.5s-23.5 -2.5 -37.5 -4.5l-55.5 -9.5c-17.667 -3 -33.167 -7.66699 -46.5 -14s-23.833 -15.5 -31.5 -27.5s-11.5 -28 -11.5 -48
c0 -30 9.16699 -53.167 27.5 -69.5s41.833 -24.5 70.5 -24.5c17.333 0 34.833 2.5 52.5 7.5s34 14 49 27s27.5 30.833 37.5 53.5s16 51.667 18 87zM55 357.998c0 16.667 2.83301 34.999 8.5 54.999s16.334 38.5 32.001 55.5s37.667 31.167 66 42.5s64.833 17 109.5 17
c20.667 0 42.834 -2 66.501 -6s45.667 -12 66 -24s37.166 -29.167 50.499 -51.5s19.666 -52.166 18.999 -89.499l-5 -235c0 -10 0.166992 -18.833 0.5 -26.5s2.16602 -14 5.49902 -19s8.66602 -8.83301 15.999 -11.5s17.666 -3.66699 30.999 -3v-62
c-6 -1.33301 -11.833 -2.33301 -17.5 -3s-13.167 -1 -22.5 -1c-12 0 -23.167 0.833008 -33.5 2.5s-19.333 5 -27 10s-14 12.333 -19 22s-8.83301 22.834 -11.5 39.501c-8.66699 -16 -19.334 -29.667 -32.001 -41s-26.667 -20.666 -42 -27.999s-31.5 -12.666 -48.5 -15.999
s-34.167 -5 -51.5 -5c-53.333 0 -96.5 12.167 -129.5 36.5s-49.5 63.166 -49.5 116.499c0 22 3.33301 41.833 10 59.5s19.334 33.334 38.001 47.001s44 25 76 34s73.667 15.833 125 20.5c18.667 1.33301 34.334 2.66602 47.001 3.99902s22.834 4.16602 30.501 8.49902
s13.167 10.833 16.5 19.5s5 21.334 5 38.001c0 6 -0.666992 14.667 -2 26s-5.66602 22.666 -12.999 33.999s-18.666 21.166 -33.999 29.499s-37 12.5 -65 12.5c-8 0 -19.5 -0.666992 -34.5 -2s-29.833 -5.5 -44.5 -12.5s-27.334 -17.667 -38.001 -32
s-15.667 -34.833 -15 -61.5h-84zM338 567.997h-80l-96 132h106z" />
    <glyph glyph-name="aacute" unicode="&#xe1;" horiz-adv-x="553" 
d="M385 260c-6.66699 -5.33301 -13.667 -9.16797 -21 -11.501s-15.333 -4.16602 -24 -5.49902s-18.5 -2.5 -29.5 -3.5s-23.5 -2.5 -37.5 -4.5l-55.5 -9.5c-17.667 -3 -33.167 -7.66699 -46.5 -14s-23.833 -15.5 -31.5 -27.5s-11.5 -28 -11.5 -48
c0 -30 9.16699 -53.167 27.5 -69.5s41.833 -24.5 70.5 -24.5c17.333 0 34.833 2.5 52.5 7.5s34 14 49 27s27.5 30.833 37.5 53.5s16 51.667 18 87zM55 357.998c0 16.667 2.83301 34.999 8.5 54.999s16.334 38.5 32.001 55.5s37.667 31.167 66 42.5s64.833 17 109.5 17
c20.667 0 42.834 -2 66.501 -6s45.667 -12 66 -24s37.166 -29.167 50.499 -51.5s19.666 -52.166 18.999 -89.499l-5 -235c0 -10 0.166992 -18.833 0.5 -26.5s2.16602 -14 5.49902 -19s8.66602 -8.83301 15.999 -11.5s17.666 -3.66699 30.999 -3v-62
c-6 -1.33301 -11.833 -2.33301 -17.5 -3s-13.167 -1 -22.5 -1c-12 0 -23.167 0.833008 -33.5 2.5s-19.333 5 -27 10s-14 12.333 -19 22s-8.83301 22.834 -11.5 39.501c-8.66699 -16 -19.334 -29.667 -32.001 -41s-26.667 -20.666 -42 -27.999s-31.5 -12.666 -48.5 -15.999
s-34.167 -5 -51.5 -5c-53.333 0 -96.5 12.167 -129.5 36.5s-49.5 63.166 -49.5 116.499c0 22 3.33301 41.833 10 59.5s19.334 33.334 38.001 47.001s44 25 76 34s73.667 15.833 125 20.5c18.667 1.33301 34.334 2.66602 47.001 3.99902s22.834 4.16602 30.501 8.49902
s13.167 10.833 16.5 19.5s5 21.334 5 38.001c0 6 -0.666992 14.667 -2 26s-5.66602 22.666 -12.999 33.999s-18.666 21.166 -33.999 29.499s-37 12.5 -65 12.5c-8 0 -19.5 -0.666992 -34.5 -2s-29.833 -5.5 -44.5 -12.5s-27.334 -17.667 -38.001 -32
s-15.667 -34.833 -15 -61.5h-84zM390 699.997l-96 -132h-80l70 132h106z" />
    <glyph glyph-name="acircumflex" unicode="&#xe2;" horiz-adv-x="553" 
d="M385 260c-6.66699 -5.33301 -13.667 -9.16797 -21 -11.501s-15.333 -4.16602 -24 -5.49902s-18.5 -2.5 -29.5 -3.5s-23.5 -2.5 -37.5 -4.5l-55.5 -9.5c-17.667 -3 -33.167 -7.66699 -46.5 -14s-23.833 -15.5 -31.5 -27.5s-11.5 -28 -11.5 -48
c0 -30 9.16699 -53.167 27.5 -69.5s41.833 -24.5 70.5 -24.5c17.333 0 34.833 2.5 52.5 7.5s34 14 49 27s27.5 30.833 37.5 53.5s16 51.667 18 87zM55 357.998c0 16.667 2.83301 34.999 8.5 54.999s16.334 38.5 32.001 55.5s37.667 31.167 66 42.5s64.833 17 109.5 17
c20.667 0 42.834 -2 66.501 -6s45.667 -12 66 -24s37.166 -29.167 50.499 -51.5s19.666 -52.166 18.999 -89.499l-5 -235c0 -10 0.166992 -18.833 0.5 -26.5s2.16602 -14 5.49902 -19s8.66602 -8.83301 15.999 -11.5s17.666 -3.66699 30.999 -3v-62
c-6 -1.33301 -11.833 -2.33301 -17.5 -3s-13.167 -1 -22.5 -1c-12 0 -23.167 0.833008 -33.5 2.5s-19.333 5 -27 10s-14 12.333 -19 22s-8.83301 22.834 -11.5 39.501c-8.66699 -16 -19.334 -29.667 -32.001 -41s-26.667 -20.666 -42 -27.999s-31.5 -12.666 -48.5 -15.999
s-34.167 -5 -51.5 -5c-53.333 0 -96.5 12.167 -129.5 36.5s-49.5 63.166 -49.5 116.499c0 22 3.33301 41.833 10 59.5s19.334 33.334 38.001 47.001s44 25 76 34s73.667 15.833 125 20.5c18.667 1.33301 34.334 2.66602 47.001 3.99902s22.834 4.16602 30.501 8.49902
s13.167 10.833 16.5 19.5s5 21.334 5 38.001c0 6 -0.666992 14.667 -2 26s-5.66602 22.666 -12.999 33.999s-18.666 21.166 -33.999 29.499s-37 12.5 -65 12.5c-8 0 -19.5 -0.666992 -34.5 -2s-29.833 -5.5 -44.5 -12.5s-27.334 -17.667 -38.001 -32
s-15.667 -34.833 -15 -61.5h-84zM210 699.997h132l119 -132h-88l-97 99l-97 -99h-88z" />
    <glyph glyph-name="atilde" unicode="&#xe3;" horiz-adv-x="553" 
d="M385 260c-6.66699 -5.33301 -13.667 -9.16797 -21 -11.501s-15.333 -4.16602 -24 -5.49902s-18.5 -2.5 -29.5 -3.5s-23.5 -2.5 -37.5 -4.5l-55.5 -9.5c-17.667 -3 -33.167 -7.66699 -46.5 -14s-23.833 -15.5 -31.5 -27.5s-11.5 -28 -11.5 -48
c0 -30 9.16699 -53.167 27.5 -69.5s41.833 -24.5 70.5 -24.5c17.333 0 34.833 2.5 52.5 7.5s34 14 49 27s27.5 30.833 37.5 53.5s16 51.667 18 87zM55 357.998c0 16.667 2.83301 34.999 8.5 54.999s16.334 38.5 32.001 55.5s37.667 31.167 66 42.5s64.833 17 109.5 17
c20.667 0 42.834 -2 66.501 -6s45.667 -12 66 -24s37.166 -29.167 50.499 -51.5s19.666 -52.166 18.999 -89.499l-5 -235c0 -10 0.166992 -18.833 0.5 -26.5s2.16602 -14 5.49902 -19s8.66602 -8.83301 15.999 -11.5s17.666 -3.66699 30.999 -3v-62
c-6 -1.33301 -11.833 -2.33301 -17.5 -3s-13.167 -1 -22.5 -1c-12 0 -23.167 0.833008 -33.5 2.5s-19.333 5 -27 10s-14 12.333 -19 22s-8.83301 22.834 -11.5 39.501c-8.66699 -16 -19.334 -29.667 -32.001 -41s-26.667 -20.666 -42 -27.999s-31.5 -12.666 -48.5 -15.999
s-34.167 -5 -51.5 -5c-53.333 0 -96.5 12.167 -129.5 36.5s-49.5 63.166 -49.5 116.499c0 22 3.33301 41.833 10 59.5s19.334 33.334 38.001 47.001s44 25 76 34s73.667 15.833 125 20.5c18.667 1.33301 34.334 2.66602 47.001 3.99902s22.834 4.16602 30.501 8.49902
s13.167 10.833 16.5 19.5s5 21.334 5 38.001c0 6 -0.666992 14.667 -2 26s-5.66602 22.666 -12.999 33.999s-18.666 21.166 -33.999 29.499s-37 12.5 -65 12.5c-8 0 -19.5 -0.666992 -34.5 -2s-29.833 -5.5 -44.5 -12.5s-27.334 -17.667 -38.001 -32
s-15.667 -34.833 -15 -61.5h-84zM461 699.997c-2 -10 -5.33496 -21 -10.002 -33s-11.334 -23.167 -20.001 -33.5s-19.667 -18.833 -33 -25.5s-29.333 -10 -48 -10c-16 0 -30.5 2.66699 -43.5 8s-25.833 11.333 -38.5 18l-32.5 16c-11 5.33301 -22.5 8 -34.5 8
c-10.667 0 -21.5 -2.83301 -32.5 -8.5s-17.167 -16.167 -18.5 -31.5h-59c4.66699 26 16.334 49.167 35.001 69.5s44 30.5 76 30.5c14 0 26.333 -1.66699 37 -5s23 -9 37 -17l33 -18c12.667 -6.66699 26.334 -10 41.001 -10c12.667 0 23.834 4 33.501 12s16.167 18 19.5 30
h58z" />
    <glyph glyph-name="adieresis" unicode="&#xe4;" horiz-adv-x="553" 
d="M385 260c-6.66699 -5.33301 -13.667 -9.16797 -21 -11.501s-15.333 -4.16602 -24 -5.49902s-18.5 -2.5 -29.5 -3.5s-23.5 -2.5 -37.5 -4.5l-55.5 -9.5c-17.667 -3 -33.167 -7.66699 -46.5 -14s-23.833 -15.5 -31.5 -27.5s-11.5 -28 -11.5 -48
c0 -30 9.16699 -53.167 27.5 -69.5s41.833 -24.5 70.5 -24.5c17.333 0 34.833 2.5 52.5 7.5s34 14 49 27s27.5 30.833 37.5 53.5s16 51.667 18 87zM55 357.998c0 16.667 2.83301 34.999 8.5 54.999s16.334 38.5 32.001 55.5s37.667 31.167 66 42.5s64.833 17 109.5 17
c20.667 0 42.834 -2 66.501 -6s45.667 -12 66 -24s37.166 -29.167 50.499 -51.5s19.666 -52.166 18.999 -89.499l-5 -235c0 -10 0.166992 -18.833 0.5 -26.5s2.16602 -14 5.49902 -19s8.66602 -8.83301 15.999 -11.5s17.666 -3.66699 30.999 -3v-62
c-6 -1.33301 -11.833 -2.33301 -17.5 -3s-13.167 -1 -22.5 -1c-12 0 -23.167 0.833008 -33.5 2.5s-19.333 5 -27 10s-14 12.333 -19 22s-8.83301 22.834 -11.5 39.501c-8.66699 -16 -19.334 -29.667 -32.001 -41s-26.667 -20.666 -42 -27.999s-31.5 -12.666 -48.5 -15.999
s-34.167 -5 -51.5 -5c-53.333 0 -96.5 12.167 -129.5 36.5s-49.5 63.166 -49.5 116.499c0 22 3.33301 41.833 10 59.5s19.334 33.334 38.001 47.001s44 25 76 34s73.667 15.833 125 20.5c18.667 1.33301 34.334 2.66602 47.001 3.99902s22.834 4.16602 30.501 8.49902
s13.167 10.833 16.5 19.5s5 21.334 5 38.001c0 6 -0.666992 14.667 -2 26s-5.66602 22.666 -12.999 33.999s-18.666 21.166 -33.999 29.499s-37 12.5 -65 12.5c-8 0 -19.5 -0.666992 -34.5 -2s-29.833 -5.5 -44.5 -12.5s-27.334 -17.667 -38.001 -32
s-15.667 -34.833 -15 -61.5h-84zM331 699.997h88v-92h-88v92zM133 699.997h88v-92h-88v92z" />
    <glyph glyph-name="aring" unicode="&#xe5;" horiz-adv-x="553" 
d="M385 260c-6.66699 -5.33301 -13.667 -9.16797 -21 -11.501s-15.333 -4.16602 -24 -5.49902s-18.5 -2.5 -29.5 -3.5s-23.5 -2.5 -37.5 -4.5l-55.5 -9.5c-17.667 -3 -33.167 -7.66699 -46.5 -14s-23.833 -15.5 -31.5 -27.5s-11.5 -28 -11.5 -48
c0 -30 9.16699 -53.167 27.5 -69.5s41.833 -24.5 70.5 -24.5c17.333 0 34.833 2.5 52.5 7.5s34 14 49 27s27.5 30.833 37.5 53.5s16 51.667 18 87zM55 357.998c0 16.667 2.83301 34.999 8.5 54.999s16.334 38.5 32.001 55.5s37.667 31.167 66 42.5s64.833 17 109.5 17
c20.667 0 42.834 -2 66.501 -6s45.667 -12 66 -24s37.166 -29.167 50.499 -51.5s19.666 -52.166 18.999 -89.499l-5 -235c0 -10 0.166992 -18.833 0.5 -26.5s2.16602 -14 5.49902 -19s8.66602 -8.83301 15.999 -11.5s17.666 -3.66699 30.999 -3v-62
c-6 -1.33301 -11.833 -2.33301 -17.5 -3s-13.167 -1 -22.5 -1c-12 0 -23.167 0.833008 -33.5 2.5s-19.333 5 -27 10s-14 12.333 -19 22s-8.83301 22.834 -11.5 39.501c-8.66699 -16 -19.334 -29.667 -32.001 -41s-26.667 -20.666 -42 -27.999s-31.5 -12.666 -48.5 -15.999
s-34.167 -5 -51.5 -5c-53.333 0 -96.5 12.167 -129.5 36.5s-49.5 63.166 -49.5 116.499c0 22 3.33301 41.833 10 59.5s19.334 33.334 38.001 47.001s44 25 76 34s73.667 15.833 125 20.5c18.667 1.33301 34.334 2.66602 47.001 3.99902s22.834 4.16602 30.501 8.49902
s13.167 10.833 16.5 19.5s5 21.334 5 38.001c0 6 -0.666992 14.667 -2 26s-5.66602 22.666 -12.999 33.999s-18.666 21.166 -33.999 29.499s-37 12.5 -65 12.5c-8 0 -19.5 -0.666992 -34.5 -2s-29.833 -5.5 -44.5 -12.5s-27.334 -17.667 -38.001 -32
s-15.667 -34.833 -15 -61.5h-84zM224 659.997c0 -14.667 5 -27 15 -37s22.333 -15 37 -15s27 5 37 15s15 22.333 15 37s-5 27 -15 37s-22.333 15 -37 15s-27 -5 -37 -15s-15 -22.333 -15 -37zM184 659.997c0 12.667 2.33301 24.667 7 36s11.167 21.166 19.5 29.499
s18.166 14.833 29.499 19.5s23.333 7 36 7s24.667 -2.33301 36 -7s21.166 -11.167 29.499 -19.5s14.833 -18.166 19.5 -29.499s7 -23.333 7 -36s-2.33301 -24.667 -7 -36s-11.167 -21.166 -19.5 -29.499s-18.166 -14.833 -29.499 -19.5s-23.333 -7 -36 -7
s-24.667 2.33301 -36 7s-21.166 11.167 -29.499 19.5s-14.833 18.166 -19.5 29.499s-7 23.333 -7 36z" />
    <glyph glyph-name="ae" unicode="&#xe6;" horiz-adv-x="914" 
d="M780 296c0.666992 17.333 -0.833008 35.834 -4.5 55.501s-11 38 -22 55s-26 31.167 -45 42.5s-43.5 17 -73.5 17c-27.333 0 -50.833 -4.83301 -70.5 -14.5s-36 -22.334 -49 -38.001s-22.5 -33.667 -28.5 -54s-9 -41.5 -9 -63.5h302zM390 260.001
c-7.33301 -5.33301 -14.501 -9.16797 -21.501 -11.501s-15 -4.16602 -24 -5.49902s-19 -2.5 -30 -3.5s-23.833 -2.5 -38.5 -4.5l-56 -9.5c-18 -3 -33.833 -7.66699 -47.5 -14s-24.5 -15.5 -32.5 -27.5s-12 -28 -12 -48c0 -10.667 1.83301 -21.667 5.5 -33
s9.5 -21.5 17.5 -30.5s18.5 -16.333 31.5 -22s29.167 -8.5 48.5 -8.5c33.333 0 60.333 6.33301 81 19s36.834 28.167 48.501 46.5s19.5 37.5 23.5 57.5s6 37.333 6 52v43zM59.999 357.999c-0.666992 22.667 2.99902 44.1621 10.999 64.4951s20.833 38.333 38.5 54
s40.167 28.167 67.5 37.5s60 14 98 14c10.667 0 24.334 -0.666992 41.001 -2s33.5 -5 50.5 -11s33 -14.667 48 -26s26.5 -27 34.5 -47c13.333 20.667 28.833 36.834 46.5 48.501s35.167 20.334 52.5 26.001s33.666 9 48.999 10s27 1.5 35 1.5
c22.667 0 47.834 -2.83301 75.501 -8.5s53.667 -17.834 78 -36.501s44.666 -45.667 60.999 -81s24.5 -83 24.5 -143v-25h-393c0 -19.333 2.5 -40.166 7.5 -62.499s13.5 -43.166 25.5 -62.499s28.333 -35.333 49 -48s46.667 -19 78 -19c22 0 40.833 2.83301 56.5 8.5
s29.167 13.334 40.5 23.001s20.333 20.834 27 33.501s12 26 16 40h84c-3.33301 -18 -9.5 -36.833 -18.5 -56.5s-21.833 -37.667 -38.5 -54s-38.167 -29.833 -64.5 -40.5s-58.5 -16 -96.5 -16c-16 0 -33.5 0.833008 -52.5 2.5s-38 6.16699 -57 13.5s-37.5 18.333 -55.5 33
s-34 35 -48 61c-13.333 -23.333 -28.166 -42.166 -44.499 -56.499s-33 -25.5 -50 -33.5s-34.333 -13.333 -52 -16s-34.834 -4 -51.501 -4c-15.333 0 -34.166 1 -56.499 3s-43.833 8 -64.5 18s-38.334 25.333 -53.001 46s-22 49.334 -22 86.001c0 22 3.5 41.833 10.5 59.5
s19.667 33.334 38 47.001s43.833 25.167 76.5 34.5s75 16 127 20c19.333 1.33301 35.5 2.66602 48.5 3.99902s23.333 4.16602 31 8.49902s13.167 10.833 16.5 19.5s5 21.334 5 38.001c0 6 -0.666992 14.667 -2 26s-5.66602 22.666 -12.999 33.999
s-18.666 21.166 -33.999 29.499s-37 12.5 -65 12.5c-8 0 -19.5 -0.666992 -34.5 -2s-29.833 -5.5 -44.5 -12.5s-27.334 -17.667 -38.001 -32s-15.667 -34.833 -15 -61.5h-84z" />
    <glyph glyph-name="ccedilla" unicode="&#xe7;" horiz-adv-x="548" 
d="M512 181c-1.33301 -15.333 -5.16992 -34.3301 -11.5029 -56.9971s-17.333 -44.667 -33 -66s-37.667 -39.666 -66 -54.999s-65.166 -23 -110.499 -23c-8.66699 0 -20.667 0.666992 -36 2s-32.333 4.66602 -51 9.99902s-37.5 13.833 -56.5 25.5s-36.167 27.667 -51.5 48
s-28 46.166 -38 77.499s-15 69.666 -15 114.999c0 29.333 3.33301 60 10 92s19 61.167 37 87.5s42.667 48 74 65s71.666 25.5 120.999 25.5c36 0 67.333 -4.83301 94 -14.5s49 -22.834 67 -39.501s32.167 -35.667 42.5 -57s16.833 -44 19.5 -68h-84
c-4.66699 28 -13 50 -25 66s-25 27.667 -39 35s-27.833 11.833 -41.5 13.5s-24.167 2.5 -31.5 2.5c-27.333 0 -50.666 -5.5 -69.999 -16.5s-35 -25.833 -47 -44.5s-20.667 -40.667 -26 -66s-8 -52.333 -8 -81s3 -56 9 -82s15.167 -49 27.5 -69s28.5 -35.833 48.5 -47.5
s44 -17.5 72 -17.5c24.667 0 45.5 4.66699 62.5 14s30.833 20.833 41.5 34.5s18.334 28.667 23.001 45s7.33398 31.5 8.00098 45.5h84zM184.996 -175.997c5.33301 -2 12.667 -3.83105 22 -5.49805s22.666 -2.5 39.999 -2.5c22.667 0 38.834 3.5 48.501 10.5
s14.5 15.833 14.5 26.5c0 10 -3 17.5 -9 22.5s-13.333 8.66699 -22 11s-18 3.5 -28 3.5h-27h-17l15 52h32c28.667 0 51.667 -3.16699 69 -9.5s30.833 -14.333 40.5 -24s16 -20.334 19 -32.001s4.5 -22.5 4.5 -32.5c0 -8.66699 -1.66699 -17.834 -5 -27.501
s-9.66602 -18.667 -18.999 -27s-22.333 -15.333 -39 -21s-38.334 -8.5 -65.001 -8.5c-7.33301 0 -18.5 0.5 -33.5 1.5s-34.167 3.16699 -57.5 6.5z" />
    <glyph glyph-name="egrave" unicode="&#xe8;" horiz-adv-x="570" 
d="M434 296c-0.666992 16.667 -2.99902 35 -6.99902 55s-11.167 38.5 -21.5 55.5s-24.5 31.167 -42.5 42.5s-41.333 17 -70 17c-32 0 -58.333 -5.83301 -79 -17.5s-36.834 -26.167 -48.501 -43.5s-19.5 -35.833 -23.5 -55.5s-6 -37.5 -6 -53.5h298zM522.001 147
c-3.33301 -18 -9.49707 -36.832 -18.4971 -56.499s-22 -37.667 -39 -54s-38.833 -29.833 -65.5 -40.5s-59.667 -16 -99 -16c-42 0 -77.5 5.66699 -106.5 17s-53 25.833 -72 43.5s-33.833 37.167 -44.5 58.5s-18.5 42 -23.5 62s-8 38.167 -9 54.5s-1.5 28.5 -1.5 36.5
c0 11.333 0.666992 26.166 2 44.499s4.66602 37.666 9.99902 57.999s13.333 40.833 24 61.5s25.167 39.334 43.5 56.001s41.166 30.167 68.499 40.5s60.666 15.5 99.999 15.5c50.667 0 91.167 -8.83301 121.5 -26.5s53.666 -39.834 69.999 -66.501
s27.333 -55.834 33 -87.501s9.16699 -61.167 10.5 -88.5c0 -4 0.166992 -8.16699 0.5 -12.5s0.5 -8.5 0.5 -12.5h-391c0 -22 3 -44.333 9 -67s15.333 -43.167 28 -61.5s29.167 -33.5 49.5 -45.5s45.166 -18 74.499 -18c20.667 0 39.334 2.83301 56.001 8.5
s30.834 13.334 42.501 23.001s21 20.834 28 33.501s11.833 26 14.5 40h84zM347.004 568.001h-80l-96 132h106z" />
    <glyph glyph-name="eacute" unicode="&#xe9;" horiz-adv-x="570" 
d="M434 296c-0.666992 16.667 -2.99902 35 -6.99902 55s-11.167 38.5 -21.5 55.5s-24.5 31.167 -42.5 42.5s-41.333 17 -70 17c-32 0 -58.333 -5.83301 -79 -17.5s-36.834 -26.167 -48.501 -43.5s-19.5 -35.833 -23.5 -55.5s-6 -37.5 -6 -53.5h298zM522.001 147
c-3.33301 -18 -9.49707 -36.832 -18.4971 -56.499s-22 -37.667 -39 -54s-38.833 -29.833 -65.5 -40.5s-59.667 -16 -99 -16c-42 0 -77.5 5.66699 -106.5 17s-53 25.833 -72 43.5s-33.833 37.167 -44.5 58.5s-18.5 42 -23.5 62s-8 38.167 -9 54.5s-1.5 28.5 -1.5 36.5
c0 11.333 0.666992 26.166 2 44.499s4.66602 37.666 9.99902 57.999s13.333 40.833 24 61.5s25.167 39.334 43.5 56.001s41.166 30.167 68.499 40.5s60.666 15.5 99.999 15.5c50.667 0 91.167 -8.83301 121.5 -26.5s53.666 -39.834 69.999 -66.501
s27.333 -55.834 33 -87.501s9.16699 -61.167 10.5 -88.5c0 -4 0.166992 -8.16699 0.5 -12.5s0.5 -8.5 0.5 -12.5h-391c0 -22 3 -44.333 9 -67s15.333 -43.167 28 -61.5s29.167 -33.5 49.5 -45.5s45.166 -18 74.499 -18c20.667 0 39.334 2.83301 56.001 8.5
s30.834 13.334 42.501 23.001s21 20.834 28 33.501s11.833 26 14.5 40h84zM399.004 700.001l-96 -132h-80l70 132h106z" />
    <glyph glyph-name="ecircumflex" unicode="&#xea;" horiz-adv-x="570" 
d="M434 296c-0.666992 16.667 -2.99902 35 -6.99902 55s-11.167 38.5 -21.5 55.5s-24.5 31.167 -42.5 42.5s-41.333 17 -70 17c-32 0 -58.333 -5.83301 -79 -17.5s-36.834 -26.167 -48.501 -43.5s-19.5 -35.833 -23.5 -55.5s-6 -37.5 -6 -53.5h298zM522.001 147
c-3.33301 -18 -9.49707 -36.832 -18.4971 -56.499s-22 -37.667 -39 -54s-38.833 -29.833 -65.5 -40.5s-59.667 -16 -99 -16c-42 0 -77.5 5.66699 -106.5 17s-53 25.833 -72 43.5s-33.833 37.167 -44.5 58.5s-18.5 42 -23.5 62s-8 38.167 -9 54.5s-1.5 28.5 -1.5 36.5
c0 11.333 0.666992 26.166 2 44.499s4.66602 37.666 9.99902 57.999s13.333 40.833 24 61.5s25.167 39.334 43.5 56.001s41.166 30.167 68.499 40.5s60.666 15.5 99.999 15.5c50.667 0 91.167 -8.83301 121.5 -26.5s53.666 -39.834 69.999 -66.501
s27.333 -55.834 33 -87.501s9.16699 -61.167 10.5 -88.5c0 -4 0.166992 -8.16699 0.5 -12.5s0.5 -8.5 0.5 -12.5h-391c0 -22 3 -44.333 9 -67s15.333 -43.167 28 -61.5s29.167 -33.5 49.5 -45.5s45.166 -18 74.499 -18c20.667 0 39.334 2.83301 56.001 8.5
s30.834 13.334 42.501 23.001s21 20.834 28 33.501s11.833 26 14.5 40h84zM219.004 700.001h132l119 -132h-88l-97 99l-97 -99h-88z" />
    <glyph glyph-name="edieresis" unicode="&#xeb;" horiz-adv-x="570" 
d="M434 296c-0.666992 16.667 -2.99902 35 -6.99902 55s-11.167 38.5 -21.5 55.5s-24.5 31.167 -42.5 42.5s-41.333 17 -70 17c-32 0 -58.333 -5.83301 -79 -17.5s-36.834 -26.167 -48.501 -43.5s-19.5 -35.833 -23.5 -55.5s-6 -37.5 -6 -53.5h298zM522.001 147
c-3.33301 -18 -9.49707 -36.832 -18.4971 -56.499s-22 -37.667 -39 -54s-38.833 -29.833 -65.5 -40.5s-59.667 -16 -99 -16c-42 0 -77.5 5.66699 -106.5 17s-53 25.833 -72 43.5s-33.833 37.167 -44.5 58.5s-18.5 42 -23.5 62s-8 38.167 -9 54.5s-1.5 28.5 -1.5 36.5
c0 11.333 0.666992 26.166 2 44.499s4.66602 37.666 9.99902 57.999s13.333 40.833 24 61.5s25.167 39.334 43.5 56.001s41.166 30.167 68.499 40.5s60.666 15.5 99.999 15.5c50.667 0 91.167 -8.83301 121.5 -26.5s53.666 -39.834 69.999 -66.501
s27.333 -55.834 33 -87.501s9.16699 -61.167 10.5 -88.5c0 -4 0.166992 -8.16699 0.5 -12.5s0.5 -8.5 0.5 -12.5h-391c0 -22 3 -44.333 9 -67s15.333 -43.167 28 -61.5s29.167 -33.5 49.5 -45.5s45.166 -18 74.499 -18c20.667 0 39.334 2.83301 56.001 8.5
s30.834 13.334 42.501 23.001s21 20.834 28 33.501s11.833 26 14.5 40h84zM340.004 700.001h88v-92h-88v92zM142.004 700.001h88v-92h-88v92z" />
    <glyph glyph-name="igrave" unicode="&#xec;" horiz-adv-x="233" 
d="M161 508v-508h-89v508h89zM181 568h-80l-96 132h106z" />
    <glyph glyph-name="iacute" unicode="&#xed;" horiz-adv-x="233" 
d="M161 508v-508h-89v508h89zM233 700l-96 -132h-80l70 132h106z" />
    <glyph glyph-name="icircumflex" unicode="&#xee;" horiz-adv-x="233" 
d="M161 508v-508h-89v508h89zM53 700h132l119 -132h-88l-97 99l-97 -99h-88z" />
    <glyph glyph-name="idieresis" unicode="&#xef;" horiz-adv-x="233" 
d="M161 508v-508h-89v508h89zM174 700h88v-92h-88v92zM-24 700h88v-92h-88v92z" />
    <glyph glyph-name="eth" unicode="&#xf0;" horiz-adv-x="605" 
d="M460 247c0 12.667 -1.33105 30.167 -3.99805 52.5s-9.33398 44.333 -20.001 66s-26.667 40.5 -48 56.5s-51 24 -89 24c-37.333 0 -66.5 -8.33301 -87.5 -25s-36.833 -36.5 -47.5 -59.5s-17.334 -46.833 -20.001 -71.5s-4 -44.667 -4 -60c0 -42 5.5 -75.5 16.5 -100.5
s24.5 -44 40.5 -57s33.167 -21.333 51.5 -25s35.166 -5.5 50.499 -5.5c10.667 0 25 1.5 43 4.5s35.833 11.333 53.5 25s32.834 34.167 45.501 61.5s19 65.333 19 114zM163.002 733c32.667 -5.33301 63.5 -12.332 92.5 -20.999s56.167 -18.667 81.5 -30l85 51l26 -32l-67 -40
c36.667 -18.667 66.334 -40.334 89.001 -65.001s40.167 -51.5 52.5 -80.5s20.5 -59.833 24.5 -92.5s6 -66 6 -100c0 -49.333 -4 -92.166 -12 -128.499s-18.667 -67.166 -32 -92.499s-28.833 -46 -46.5 -62s-36.334 -28.333 -56.001 -37s-39.334 -14.667 -59.001 -18
s-38.5 -5 -56.5 -5c-37.333 0 -71 5.83301 -101 17.5s-55.667 28.5 -77 50.5s-37.666 48.833 -48.999 80.5s-17 67.5 -17 107.5c0 36.667 4.33301 71.334 13 104.001s22.834 61.5 42.501 86.5s44.834 44.833 75.501 59.5s68 22 112 22c14 0 30 -1.33301 48 -4s36 -8 54 -16
s35.333 -19.5 52 -34.5s30.667 -35.167 42 -60.5h3c-2 23.333 -6.33301 46.166 -13 68.499s-16.334 43.666 -29.001 63.999s-28.834 39.166 -48.501 56.499s-43.167 32.666 -70.5 45.999l-139 -84l-26 32l119 72c-45.333 18.667 -89.333 31.334 -132 38.001z" />
    <glyph glyph-name="ntilde" unicode="&#xf1;" horiz-adv-x="573" 
d="M160 508l0.000976562 -71.001c17.333 25.333 40.666 46.833 69.999 64.5s64 26.5 104 26.5c33.333 0 60.833 -5.16699 82.5 -15.5s38.667 -24.166 51 -41.499s21 -37.5 26 -60.5s7.5 -47.167 7.5 -72.5v-338h-88v311c0 13.333 -0.5 29 -1.5 47s-4.66699 35 -11 51
s-16.833 29.5 -31.5 40.5s-35.667 16.5 -63 16.5c-12 0 -26.333 -2 -43 -6s-32.667 -12.5 -48 -25.5s-28.333 -32 -39 -57s-16 -58.5 -16 -100.5v-277h-88v508h88zM471.001 699.999c-2 -10 -5.33496 -21 -10.002 -33s-11.334 -23.167 -20.001 -33.5
s-19.667 -18.833 -33 -25.5s-29.333 -10 -48 -10c-16 0 -30.5 2.66699 -43.5 8s-25.833 11.333 -38.5 18l-32.5 16c-11 5.33301 -22.5 8 -34.5 8c-10.667 0 -21.5 -2.83301 -32.5 -8.5s-17.167 -16.167 -18.5 -31.5h-59c4.66699 26 16.334 49.167 35.001 69.5
s44 30.5 76 30.5c14 0 26.333 -1.66699 37 -5s23 -9 37 -17l33 -18c12.667 -6.66699 26.334 -10 41.001 -10c12.667 0 23.834 4 33.501 12s16.167 18 19.5 30h58z" />
    <glyph glyph-name="ograve" unicode="&#xf2;" horiz-adv-x="586" 
d="M136 255c0 -50.667 6.33301 -90.334 19 -119.001s27.667 -50 45 -64s34.666 -22.5 51.999 -25.5s31 -4.5 41 -4.5s23.667 1.5 41 4.5s34.666 11.5 51.999 25.5s32.333 35.333 45 64s19 68.334 19 119.001s-6.33301 90.334 -19 119.001s-27.667 50 -45 64
s-34.666 22.5 -51.999 25.5s-31 4.5 -41 4.5s-23.667 -1.5 -41 -4.5s-34.666 -11.5 -51.999 -25.5s-32.333 -35.333 -45 -64s-19 -68.334 -19 -119.001zM43 254c0 34 4.33301 67.333 13 100s22.834 61.834 42.501 87.501s45.5 46.5 77.5 62.5s71 24 117 24s85 -8 117 -24
s57.833 -36.833 77.5 -62.5s33.834 -54.834 42.501 -87.501s13 -66 13 -100s-4.33301 -67.333 -13 -100s-22.834 -61.834 -42.501 -87.501s-45.5 -46.5 -77.5 -62.5s-71 -24 -117 -24s-85 8 -117 24s-57.833 36.833 -77.5 62.5s-33.834 54.834 -42.501 87.501
s-13 66 -13 100zM355 568h-80l-96 132h106z" />
    <glyph glyph-name="oacute" unicode="&#xf3;" horiz-adv-x="586" 
d="M136 255c0 -50.667 6.33301 -90.334 19 -119.001s27.667 -50 45 -64s34.666 -22.5 51.999 -25.5s31 -4.5 41 -4.5s23.667 1.5 41 4.5s34.666 11.5 51.999 25.5s32.333 35.333 45 64s19 68.334 19 119.001s-6.33301 90.334 -19 119.001s-27.667 50 -45 64
s-34.666 22.5 -51.999 25.5s-31 4.5 -41 4.5s-23.667 -1.5 -41 -4.5s-34.666 -11.5 -51.999 -25.5s-32.333 -35.333 -45 -64s-19 -68.334 -19 -119.001zM43 254c0 34 4.33301 67.333 13 100s22.834 61.834 42.501 87.501s45.5 46.5 77.5 62.5s71 24 117 24s85 -8 117 -24
s57.833 -36.833 77.5 -62.5s33.834 -54.834 42.501 -87.501s13 -66 13 -100s-4.33301 -67.333 -13 -100s-22.834 -61.834 -42.501 -87.501s-45.5 -46.5 -77.5 -62.5s-71 -24 -117 -24s-85 8 -117 24s-57.833 36.833 -77.5 62.5s-33.834 54.834 -42.501 87.501
s-13 66 -13 100zM407 700l-96 -132h-80l70 132h106z" />
    <glyph glyph-name="ocircumflex" unicode="&#xf4;" horiz-adv-x="586" 
d="M136 255c0 -50.667 6.33301 -90.334 19 -119.001s27.667 -50 45 -64s34.666 -22.5 51.999 -25.5s31 -4.5 41 -4.5s23.667 1.5 41 4.5s34.666 11.5 51.999 25.5s32.333 35.333 45 64s19 68.334 19 119.001s-6.33301 90.334 -19 119.001s-27.667 50 -45 64
s-34.666 22.5 -51.999 25.5s-31 4.5 -41 4.5s-23.667 -1.5 -41 -4.5s-34.666 -11.5 -51.999 -25.5s-32.333 -35.333 -45 -64s-19 -68.334 -19 -119.001zM43 254c0 34 4.33301 67.333 13 100s22.834 61.834 42.501 87.501s45.5 46.5 77.5 62.5s71 24 117 24s85 -8 117 -24
s57.833 -36.833 77.5 -62.5s33.834 -54.834 42.501 -87.501s13 -66 13 -100s-4.33301 -67.333 -13 -100s-22.834 -61.834 -42.501 -87.501s-45.5 -46.5 -77.5 -62.5s-71 -24 -117 -24s-85 8 -117 24s-57.833 36.833 -77.5 62.5s-33.834 54.834 -42.501 87.501
s-13 66 -13 100zM227 700h132l119 -132h-88l-97 99l-97 -99h-88z" />
    <glyph glyph-name="otilde" unicode="&#xf5;" horiz-adv-x="586" 
d="M136 255c0 -50.667 6.33301 -90.334 19 -119.001s27.667 -50 45 -64s34.666 -22.5 51.999 -25.5s31 -4.5 41 -4.5s23.667 1.5 41 4.5s34.666 11.5 51.999 25.5s32.333 35.333 45 64s19 68.334 19 119.001s-6.33301 90.334 -19 119.001s-27.667 50 -45 64
s-34.666 22.5 -51.999 25.5s-31 4.5 -41 4.5s-23.667 -1.5 -41 -4.5s-34.666 -11.5 -51.999 -25.5s-32.333 -35.333 -45 -64s-19 -68.334 -19 -119.001zM43 254c0 34 4.33301 67.333 13 100s22.834 61.834 42.501 87.501s45.5 46.5 77.5 62.5s71 24 117 24s85 -8 117 -24
s57.833 -36.833 77.5 -62.5s33.834 -54.834 42.501 -87.501s13 -66 13 -100s-4.33301 -67.333 -13 -100s-22.834 -61.834 -42.501 -87.501s-45.5 -46.5 -77.5 -62.5s-71 -24 -117 -24s-85 8 -117 24s-57.833 36.833 -77.5 62.5s-33.834 54.834 -42.501 87.501
s-13 66 -13 100zM478 700c-2 -10 -5.33496 -21 -10.002 -33s-11.334 -23.167 -20.001 -33.5s-19.667 -18.833 -33 -25.5s-29.333 -10 -48 -10c-16 0 -30.5 2.66699 -43.5 8s-25.833 11.333 -38.5 18l-32.5 16c-11 5.33301 -22.5 8 -34.5 8
c-10.667 0 -21.5 -2.83301 -32.5 -8.5s-17.167 -16.167 -18.5 -31.5h-59c4.66699 26 16.334 49.167 35.001 69.5s44 30.5 76 30.5c14 0 26.333 -1.66699 37 -5s23 -9 37 -17l33 -18c12.667 -6.66699 26.334 -10 41.001 -10c12.667 0 23.834 4 33.501 12s16.167 18 19.5 30
h58z" />
    <glyph glyph-name="odieresis" unicode="&#xf6;" horiz-adv-x="586" 
d="M136 255c0 -50.667 6.33301 -90.334 19 -119.001s27.667 -50 45 -64s34.666 -22.5 51.999 -25.5s31 -4.5 41 -4.5s23.667 1.5 41 4.5s34.666 11.5 51.999 25.5s32.333 35.333 45 64s19 68.334 19 119.001s-6.33301 90.334 -19 119.001s-27.667 50 -45 64
s-34.666 22.5 -51.999 25.5s-31 4.5 -41 4.5s-23.667 -1.5 -41 -4.5s-34.666 -11.5 -51.999 -25.5s-32.333 -35.333 -45 -64s-19 -68.334 -19 -119.001zM43 254c0 34 4.33301 67.333 13 100s22.834 61.834 42.501 87.501s45.5 46.5 77.5 62.5s71 24 117 24s85 -8 117 -24
s57.833 -36.833 77.5 -62.5s33.834 -54.834 42.501 -87.501s13 -66 13 -100s-4.33301 -67.333 -13 -100s-22.834 -61.834 -42.501 -87.501s-45.5 -46.5 -77.5 -62.5s-71 -24 -117 -24s-85 8 -117 24s-57.833 36.833 -77.5 62.5s-33.834 54.834 -42.501 87.501
s-13 66 -13 100zM348 700h88v-92h-88v92zM150 700h88v-92h-88v92z" />
    <glyph glyph-name="divide" unicode="&#xf7;" 
d="M50 357h500v-62h-500v62zM240 152c0 6.66699 1.16699 13.5 3.5 20.5s6 13.5 11 19.5s11.167 10.833 18.5 14.5s16.333 5.5 27 5.5s19.667 -1.83301 27 -5.5s13.5 -8.5 18.5 -14.5s8.66699 -12.5 11 -19.5s3.5 -13.833 3.5 -20.5s-1.16699 -13.5 -3.5 -20.5
s-6 -13.5 -11 -19.5s-11.167 -10.833 -18.5 -14.5s-16.333 -5.5 -27 -5.5s-19.667 1.83301 -27 5.5s-13.5 8.5 -18.5 14.5s-8.66699 12.5 -11 19.5s-3.5 13.833 -3.5 20.5zM240 500c0 6.66699 1.16699 13.5 3.5 20.5s6 13.5 11 19.5s11.167 10.833 18.5 14.5
s16.333 5.5 27 5.5s19.667 -1.83301 27 -5.5s13.5 -8.5 18.5 -14.5s8.66699 -12.5 11 -19.5s3.5 -13.833 3.5 -20.5s-1.16699 -13.5 -3.5 -20.5s-6 -13.5 -11 -19.5s-11.167 -10.833 -18.5 -14.5s-16.333 -5.5 -27 -5.5s-19.667 1.83301 -27 5.5s-13.5 8.5 -18.5 14.5
s-8.66699 12.5 -11 19.5s-3.5 13.833 -3.5 20.5z" />
    <glyph glyph-name="oslash" unicode="&#xf8;" horiz-adv-x="584" 
d="M189 83c18 -17.333 34.835 -28.499 50.502 -33.499s33.167 -7.5 52.5 -7.5c9.33301 0 22.666 1.5 39.999 4.5s34.666 11.5 51.999 25.5s32.333 35.333 45 64s19 68.334 19 119.001c0 35.333 -2 61.666 -6 78.999s-7.66699 29.666 -11 36.999zM399.002 423.001
c-16 18 -33.5 29.667 -52.5 35s-37.167 8 -54.5 8c-34 0 -61.333 -7.33301 -82 -22s-36.5 -32.834 -47.5 -54.501s-18.167 -44.667 -21.5 -69s-5 -46.166 -5 -65.499c0 -7.33301 0.333008 -16.333 1 -27s1.66699 -21.667 3 -33s3.33301 -22.333 6 -33s6 -20 10 -28z
M99.002 66.001c-19.333 26.667 -33.499 56.834 -42.499 90.501s-13.5 66.5 -13.5 98.5c0 39.333 5 75.666 15 108.999s25.167 62.166 45.5 86.499s46.166 43.333 77.499 57s68.333 20.5 111 20.5c42 0 75.167 -5 99.5 -15s43.166 -20.667 56.499 -32l55 65l44 -38l-58 -69
l16.5 -27c6.33301 -10.667 12 -23.667 17 -39s9.33301 -32.833 13 -52.5s5.5 -41.5 5.5 -65.5c0 -30 -3.66699 -61.167 -11 -93.5s-20.333 -62 -39 -89s-44.167 -49.167 -76.5 -66.5s-73.166 -26 -122.499 -26c-36 0 -65.833 3.83301 -89.5 11.5
s-44.167 18.834 -61.5 33.501l-53 -63l-45 38z" />
    <glyph glyph-name="ugrave" unicode="&#xf9;" horiz-adv-x="573" 
d="M413 0l-0.000976562 72.001h-2c-12.667 -22 -28 -39.167 -46 -51.5s-35.5 -21.5 -52.5 -27.5s-32.333 -9.66699 -46 -11s-22.834 -2 -27.501 -2c-37.333 0 -67.166 6.33301 -89.499 19s-39.166 28.667 -50.499 48s-18.666 40 -21.999 62s-5 42.667 -5 62v337h88v-311
c0 -32 2.66699 -58 8 -78s12.666 -35.833 21.999 -47.5s20.5 -19.5 33.5 -23.5s27.5 -6 43.5 -6c36.667 0 65 8.16699 85 24.5s34.5 35.166 43.5 56.499s14.167 42.333 15.5 63s2 35.667 2 45v277h88v-508h-88zM347.999 568.001h-80l-96 132h106z" />
    <glyph glyph-name="uacute" unicode="&#xfa;" horiz-adv-x="573" 
d="M413 0l-0.000976562 72.001h-2c-12.667 -22 -28 -39.167 -46 -51.5s-35.5 -21.5 -52.5 -27.5s-32.333 -9.66699 -46 -11s-22.834 -2 -27.501 -2c-37.333 0 -67.166 6.33301 -89.499 19s-39.166 28.667 -50.499 48s-18.666 40 -21.999 62s-5 42.667 -5 62v337h88v-311
c0 -32 2.66699 -58 8 -78s12.666 -35.833 21.999 -47.5s20.5 -19.5 33.5 -23.5s27.5 -6 43.5 -6c36.667 0 65 8.16699 85 24.5s34.5 35.166 43.5 56.499s14.167 42.333 15.5 63s2 35.667 2 45v277h88v-508h-88zM399.999 700.001l-96 -132h-80l70 132h106z" />
    <glyph glyph-name="ucircumflex" unicode="&#xfb;" horiz-adv-x="573" 
d="M413 0l-0.000976562 72.001h-2c-12.667 -22 -28 -39.167 -46 -51.5s-35.5 -21.5 -52.5 -27.5s-32.333 -9.66699 -46 -11s-22.834 -2 -27.501 -2c-37.333 0 -67.166 6.33301 -89.499 19s-39.166 28.667 -50.499 48s-18.666 40 -21.999 62s-5 42.667 -5 62v337h88v-311
c0 -32 2.66699 -58 8 -78s12.666 -35.833 21.999 -47.5s20.5 -19.5 33.5 -23.5s27.5 -6 43.5 -6c36.667 0 65 8.16699 85 24.5s34.5 35.166 43.5 56.499s14.167 42.333 15.5 63s2 35.667 2 45v277h88v-508h-88zM219.999 700.001h132l119 -132h-88l-97 99l-97 -99h-88z" />
    <glyph glyph-name="udieresis" unicode="&#xfc;" horiz-adv-x="573" 
d="M413 0l-0.000976562 72.001h-2c-12.667 -22 -28 -39.167 -46 -51.5s-35.5 -21.5 -52.5 -27.5s-32.333 -9.66699 -46 -11s-22.834 -2 -27.501 -2c-37.333 0 -67.166 6.33301 -89.499 19s-39.166 28.667 -50.499 48s-18.666 40 -21.999 62s-5 42.667 -5 62v337h88v-311
c0 -32 2.66699 -58 8 -78s12.666 -35.833 21.999 -47.5s20.5 -19.5 33.5 -23.5s27.5 -6 43.5 -6c36.667 0 65 8.16699 85 24.5s34.5 35.166 43.5 56.499s14.167 42.333 15.5 63s2 35.667 2 45v277h88v-508h-88zM340.999 700.001h88v-92h-88v92zM142.999 700.001h88v-92h-88
v92z" />
    <glyph glyph-name="yacute" unicode="&#xfd;" horiz-adv-x="498" 
d="M91 -119c13.333 -2 22.998 -3.33301 28.998 -4s11 -1 15 -1c12.667 0 23.334 2.33301 32.001 7s16 11 22 19s10.833 17.167 14.5 27.5l11.5 32.5l12 38l-220 508h105l163 -411l135 411h88l-202 -568l-14 -40.5c-5.33301 -15 -12.833 -29 -22.5 -42s-22.167 -24 -37.5 -33
s-35 -13.5 -59 -13.5c-14 0 -27.167 0.333008 -39.5 1s-23.166 2 -32.499 4v65zM362.998 700l-96 -132h-80l70 132h106z" />
    <glyph glyph-name="thorn" unicode="&#xfe;" horiz-adv-x="597" 
d="M154 252c0 -39.333 4.99902 -72.332 14.999 -98.999s22.833 -48.334 38.5 -65.001s32.667 -28.5 51 -35.5s35.833 -10.5 52.5 -10.5c18 0 35.833 3.5 53.5 10.5s33.667 18.667 48 35s26 38 35 65s13.5 60.833 13.5 101.5c0 65.333 -13.333 117 -40 155s-65 57 -115 57
c-11.333 0 -25.666 -2.16699 -42.999 -6.5s-34 -13.833 -50 -28.5s-29.833 -36.167 -41.5 -64.5s-17.5 -66.5 -17.5 -114.5zM159.999 700.001l0.000976562 -261.999c15.333 28.667 38.166 50.834 68.499 66.501s62.5 23.5 96.5 23.5c38 0 71.333 -6.83301 100 -20.5
s52.5 -32.667 71.5 -57s33.333 -53.333 43 -87s14.5 -70.167 14.5 -109.5c0 -49.333 -6.33301 -91.333 -19 -126s-29.667 -63 -51 -85s-45.666 -38 -72.999 -48s-55.333 -15 -84 -15c-5.33301 0 -14.833 0.666992 -28.5 2s-28.834 5.16602 -45.501 11.499
s-33.5 15.666 -50.5 27.999s-31.167 29.5 -42.5 51.5v-258h-88v885h88z" />
    <glyph glyph-name="ydieresis" unicode="&#xff;" horiz-adv-x="498" 
d="M91 -119c13.333 -2 22.998 -3.33301 28.998 -4s11 -1 15 -1c12.667 0 23.334 2.33301 32.001 7s16 11 22 19s10.833 17.167 14.5 27.5l11.5 32.5l12 38l-220 508h105l163 -411l135 411h88l-202 -568l-14 -40.5c-5.33301 -15 -12.833 -29 -22.5 -42s-22.167 -24 -37.5 -33
s-35 -13.5 -59 -13.5c-14 0 -27.167 0.333008 -39.5 1s-23.166 2 -32.499 4v65zM303.998 700h88v-92h-88v92zM105.998 700h88v-92h-88v92z" />
    <glyph glyph-name="Amacron" unicode="&#x100;" horiz-adv-x="622" 
d="M433 260l-122 345l-122 -345h244zM97 0h-101l265 700h100l265 -700h-101l-66 181h-296zM153 832h316v-60h-158h-158v60z" />
    <glyph glyph-name="amacron" unicode="&#x101;" horiz-adv-x="553" 
d="M385 260c-6.66699 -5.33301 -13.667 -9.16797 -21 -11.501s-15.333 -4.16602 -24 -5.49902s-18.5 -2.5 -29.5 -3.5s-23.5 -2.5 -37.5 -4.5l-55.5 -9.5c-17.667 -3 -33.167 -7.66699 -46.5 -14s-23.833 -15.5 -31.5 -27.5s-11.5 -28 -11.5 -48
c0 -30 9.16699 -53.167 27.5 -69.5s41.833 -24.5 70.5 -24.5c17.333 0 34.833 2.5 52.5 7.5s34 14 49 27s27.5 30.833 37.5 53.5s16 51.667 18 87zM55 357.998c0 16.667 2.83301 34.999 8.5 54.999s16.334 38.5 32.001 55.5s37.667 31.167 66 42.5s64.833 17 109.5 17
c20.667 0 42.834 -2 66.501 -6s45.667 -12 66 -24s37.166 -29.167 50.499 -51.5s19.666 -52.166 18.999 -89.499l-5 -235c0 -10 0.166992 -18.833 0.5 -26.5s2.16602 -14 5.49902 -19s8.66602 -8.83301 15.999 -11.5s17.666 -3.66699 30.999 -3v-62
c-6 -1.33301 -11.833 -2.33301 -17.5 -3s-13.167 -1 -22.5 -1c-12 0 -23.167 0.833008 -33.5 2.5s-19.333 5 -27 10s-14 12.333 -19 22s-8.83301 22.834 -11.5 39.501c-8.66699 -16 -19.334 -29.667 -32.001 -41s-26.667 -20.666 -42 -27.999s-31.5 -12.666 -48.5 -15.999
s-34.167 -5 -51.5 -5c-53.333 0 -96.5 12.167 -129.5 36.5s-49.5 63.166 -49.5 116.499c0 22 3.33301 41.833 10 59.5s19.334 33.334 38.001 47.001s44 25 76 34s73.667 15.833 125 20.5c18.667 1.33301 34.334 2.66602 47.001 3.99902s22.834 4.16602 30.501 8.49902
s13.167 10.833 16.5 19.5s5 21.334 5 38.001c0 6 -0.666992 14.667 -2 26s-5.66602 22.666 -12.999 33.999s-18.666 21.166 -33.999 29.499s-37 12.5 -65 12.5c-8 0 -19.5 -0.666992 -34.5 -2s-29.833 -5.5 -44.5 -12.5s-27.334 -17.667 -38.001 -32
s-15.667 -34.833 -15 -61.5h-84zM118 672.997h316v-60h-158h-158v60z" />
    <glyph glyph-name="Abreve" unicode="&#x102;" horiz-adv-x="622" 
d="M433 260l-122 345l-122 -345h244zM97 0h-101l265 700h100l265 -700h-101l-66 181h-296zM206 900c0.666992 -26 10.835 -46.499 30.502 -61.499s44.5 -22.5 74.5 -22.5s53.5 6.16699 70.5 18.5s28.5 34.166 34.5 65.499h78c-2.66699 -14 -7.33398 -29.167 -14.001 -45.5
s-17 -31.5 -31 -45.5s-32 -25.667 -54 -35s-50 -14 -84 -14s-62 4.66699 -84 14s-40 21 -54 35s-24.333 29.167 -31 45.5s-11.334 31.5 -14.001 45.5h78z" />
    <glyph glyph-name="abreve" unicode="&#x103;" horiz-adv-x="553" 
d="M385 260c-6.66699 -5.33301 -13.667 -9.16797 -21 -11.501s-15.333 -4.16602 -24 -5.49902s-18.5 -2.5 -29.5 -3.5s-23.5 -2.5 -37.5 -4.5l-55.5 -9.5c-17.667 -3 -33.167 -7.66699 -46.5 -14s-23.833 -15.5 -31.5 -27.5s-11.5 -28 -11.5 -48
c0 -30 9.16699 -53.167 27.5 -69.5s41.833 -24.5 70.5 -24.5c17.333 0 34.833 2.5 52.5 7.5s34 14 49 27s27.5 30.833 37.5 53.5s16 51.667 18 87zM55 357.998c0 16.667 2.83301 34.999 8.5 54.999s16.334 38.5 32.001 55.5s37.667 31.167 66 42.5s64.833 17 109.5 17
c20.667 0 42.834 -2 66.501 -6s45.667 -12 66 -24s37.166 -29.167 50.499 -51.5s19.666 -52.166 18.999 -89.499l-5 -235c0 -10 0.166992 -18.833 0.5 -26.5s2.16602 -14 5.49902 -19s8.66602 -8.83301 15.999 -11.5s17.666 -3.66699 30.999 -3v-62
c-6 -1.33301 -11.833 -2.33301 -17.5 -3s-13.167 -1 -22.5 -1c-12 0 -23.167 0.833008 -33.5 2.5s-19.333 5 -27 10s-14 12.333 -19 22s-8.83301 22.834 -11.5 39.501c-8.66699 -16 -19.334 -29.667 -32.001 -41s-26.667 -20.666 -42 -27.999s-31.5 -12.666 -48.5 -15.999
s-34.167 -5 -51.5 -5c-53.333 0 -96.5 12.167 -129.5 36.5s-49.5 63.166 -49.5 116.499c0 22 3.33301 41.833 10 59.5s19.334 33.334 38.001 47.001s44 25 76 34s73.667 15.833 125 20.5c18.667 1.33301 34.334 2.66602 47.001 3.99902s22.834 4.16602 30.501 8.49902
s13.167 10.833 16.5 19.5s5 21.334 5 38.001c0 6 -0.666992 14.667 -2 26s-5.66602 22.666 -12.999 33.999s-18.666 21.166 -33.999 29.499s-37 12.5 -65 12.5c-8 0 -19.5 -0.666992 -34.5 -2s-29.833 -5.5 -44.5 -12.5s-27.334 -17.667 -38.001 -32
s-15.667 -34.833 -15 -61.5h-84zM178 699.997c1.33301 -20 9.66992 -38.167 25.0029 -54.5s39.666 -24.5 72.999 -24.5s57.666 8.16699 72.999 24.5s23.666 34.5 24.999 54.5h74c-2 -13.333 -6.33301 -27.666 -13 -42.999s-16.667 -29.666 -30 -42.999
s-30.5 -24.333 -51.5 -33s-46.833 -13 -77.5 -13c-31.333 0 -57.333 4.33301 -78 13s-37.667 19.667 -51 33s-23.333 27.666 -30 42.999s-11 29.666 -13 42.999h74z" />
    <glyph glyph-name="Aogonek" unicode="&#x104;" horiz-adv-x="727" 
d="M433 260l-122 345l-122 -345h244zM97 0l-100.998 0.00292969l265 700h100l265 -700c-17.333 -13.333 -31.5 -29.5 -42.5 -48.5s-16.5 -37.167 -16.5 -54.5c0 -15.333 3.66699 -29 11 -41s19 -18 35 -18c8.66699 0 15.667 1.83301 21 5.5s9.66602 8 12.999 13
s5.83301 10.5 7.5 16.5s2.5 11.667 2.5 17h74c-0.666992 -13.333 -3.66699 -26.833 -9 -40.5s-13 -26 -23 -37s-22.5 -19.833 -37.5 -26.5s-32.833 -10 -53.5 -10c-38 0 -69.333 9.16699 -94 27.5s-37 43.166 -37 74.499c0 25.333 7.16699 48.666 21.5 69.999
s30.166 38.666 47.499 51.999h-21l-66 181h-296z" />
    <glyph glyph-name="aogonek" unicode="&#x105;" horiz-adv-x="553" 
d="M385 260c-6.66699 -5.33301 -13.667 -9.16699 -21 -11.5s-15.333 -4.16602 -24 -5.49902s-18.5 -2.5 -29.5 -3.5s-23.5 -2.5 -37.5 -4.5c-18.667 -2.66699 -36.667 -5.66699 -54 -9s-32.833 -8.33301 -46.5 -15s-24.5 -15.834 -32.5 -27.501s-12 -27.5 -12 -47.5
c0 -7.33301 1.16699 -16.333 3.5 -27s7 -21 14 -31s16.833 -18.5 29.5 -25.5s29.667 -10.5 51 -10.5c17.333 0 34.833 2.5 52.5 7.5s34 14 49 27s27.5 30.833 37.5 53.5s16 51.667 18 87zM55 357.999c0 16.667 2.83105 35.0029 8.49805 55.0029s16.334 38.5 32.001 55.5
s37.667 31.167 66 42.5s64.833 17 109.5 17c20.667 0 42.834 -2 66.501 -6s45.667 -12 66 -24s37.166 -29.167 50.499 -51.5s19.666 -52.166 18.999 -89.499l-5 -235c0 -14 0.833008 -25 2.5 -33s4.33398 -14 8.00098 -18s8.16699 -6.5 13.5 -7.5s11.333 -1.5 18 -1.5h11
v-62c-17.333 -13.333 -31.5 -29.5 -42.5 -48.5s-16.5 -37.167 -16.5 -54.5c0 -15.333 3.66699 -29 11 -41s19 -18 35 -18c8.66699 0 15.667 1.83301 21 5.5s9.66602 8 12.999 13s5.83301 10.5 7.5 16.5s2.5 11.667 2.5 17h74c-0.666992 -13.333 -3.66699 -26.833 -9 -40.5
s-13 -26 -23 -37s-22.5 -19.833 -37.5 -26.5s-32.833 -10 -53.5 -10c-38 0 -69.333 9.16699 -94 27.5s-37 43.166 -37 74.499c0 25.333 7.16699 48.666 21.5 69.999s30.166 38.666 47.499 51.999c-15.333 3.33301 -26.833 10.5 -34.5 21.5s-13.167 27.167 -16.5 48.5
c-8.66699 -16 -19.334 -29.667 -32.001 -41s-26.667 -20.666 -42 -27.999s-31.5 -12.666 -48.5 -15.999s-34.167 -5 -51.5 -5c-53.333 0 -96.5 12.167 -129.5 36.5s-49.5 63.166 -49.5 116.499c0 22 3.33301 41.833 10 59.5s19.334 33.334 38.001 47.001s44 25 76 34
s73.667 15.833 125 20.5c18.667 1.33301 34.334 2.66602 47.001 3.99902s22.834 4.16602 30.501 8.49902s13.167 10.833 16.5 19.5s5 21.334 5 38.001c0 6 -0.666992 14.667 -2 26s-5.66602 22.666 -12.999 33.999s-18.666 21.166 -33.999 29.499s-37 12.5 -65 12.5
c-8 0 -19.5 -0.666992 -34.5 -2s-29.833 -5.5 -44.5 -12.5s-27.334 -17.667 -38.001 -32s-15.667 -34.833 -15 -61.5h-84z" />
    <glyph glyph-name="Cacute" unicode="&#x106;" horiz-adv-x="712" 
d="M674 232c-3.33301 -25.333 -10.002 -52.6709 -20.002 -82.0039s-26.167 -56.666 -48.5 -81.999s-51.833 -46.5 -88.5 -63.5s-83 -25.5 -139 -25.5c-52 0 -98.667 8.16699 -140 24.5s-76.166 40 -104.499 71s-50.166 68.667 -65.499 113s-23 94.5 -23 150.5
c0 62 6.83301 114.5 20.5 157.5s31 78.667 52 107s44.5 50.5 70.5 66.5s51.167 27.833 75.5 35.5s46.5 12.334 66.5 14.001s35 2.5 45 2.5c56 0 102 -7.33301 138 -22s64.833 -33.5 86.5 -56.5s37.334 -48.5 47.001 -76.5s15.834 -55.333 18.501 -82h-94
c-1.33301 12.667 -4.83301 28 -10.5 46s-15.5 35.333 -29.5 52s-33.5 30.834 -58.5 42.501s-57.5 17.5 -97.5 17.5c-44 0 -80.667 -8.5 -110 -25.5s-52.833 -39.5 -70.5 -67.5s-30.334 -60 -38.001 -96s-11.5 -73 -11.5 -111c0 -40.667 5.33301 -78.334 16 -113.001
s26.334 -64.667 47.001 -90s45.5 -45.166 74.5 -59.499s62.167 -21.5 99.5 -21.5c28 0 53.833 4.33301 77.5 13s44.167 20.834 61.5 36.501s31.166 34 41.499 55s16.166 44.167 17.499 69.5h94zM474.998 899.995l-102 -140h-84l74 140h112z" />
    <glyph glyph-name="cacute" unicode="&#x107;" horiz-adv-x="548" 
d="M512 181c-1.33301 -15.333 -5.16992 -34.3301 -11.5029 -56.9971s-17.333 -44.667 -33 -66s-37.667 -39.666 -66 -54.999s-65.166 -23 -110.499 -23c-8.66699 0 -20.667 0.666992 -36 2s-32.333 4.66602 -51 9.99902s-37.5 13.833 -56.5 25.5s-36.167 27.667 -51.5 48
s-28 46.166 -38 77.499s-15 69.666 -15 114.999c0 29.333 3.33301 60 10 92s19 61.167 37 87.5s42.667 48 74 65s71.666 25.5 120.999 25.5c36 0 67.333 -4.83301 94 -14.5s49 -22.834 67 -39.501s32.167 -35.667 42.5 -57s16.833 -44 19.5 -68h-84
c-4.66699 28 -13 50 -25 66s-25 27.667 -39 35s-27.833 11.833 -41.5 13.5s-24.167 2.5 -31.5 2.5c-27.333 0 -50.666 -5.5 -69.999 -16.5s-35 -25.833 -47 -44.5s-20.667 -40.667 -26 -66s-8 -52.333 -8 -81s3 -56 9 -82s15.167 -49 27.5 -69s28.5 -35.833 48.5 -47.5
s44 -17.5 72 -17.5c24.667 0 45.5 4.66699 62.5 14s30.833 20.833 41.5 34.5s18.334 28.667 23.001 45s7.33398 31.5 8.00098 45.5h84zM387.996 700.003l-96 -132h-80l70 132h106z" />
    <glyph glyph-name="Ccircumflex" unicode="&#x108;" horiz-adv-x="712" 
d="M674 232c-3.33301 -25.333 -10.002 -52.6709 -20.002 -82.0039s-26.167 -56.666 -48.5 -81.999s-51.833 -46.5 -88.5 -63.5s-83 -25.5 -139 -25.5c-52 0 -98.667 8.16699 -140 24.5s-76.166 40 -104.499 71s-50.166 68.667 -65.499 113s-23 94.5 -23 150.5
c0 62 6.83301 114.5 20.5 157.5s31 78.667 52 107s44.5 50.5 70.5 66.5s51.167 27.833 75.5 35.5s46.5 12.334 66.5 14.001s35 2.5 45 2.5c56 0 102 -7.33301 138 -22s64.833 -33.5 86.5 -56.5s37.334 -48.5 47.001 -76.5s15.834 -55.333 18.501 -82h-94
c-1.33301 12.667 -4.83301 28 -10.5 46s-15.5 35.333 -29.5 52s-33.5 30.834 -58.5 42.501s-57.5 17.5 -97.5 17.5c-44 0 -80.667 -8.5 -110 -25.5s-52.833 -39.5 -70.5 -67.5s-30.334 -60 -38.001 -96s-11.5 -73 -11.5 -111c0 -40.667 5.33301 -78.334 16 -113.001
s26.334 -64.667 47.001 -90s45.5 -45.166 74.5 -59.499s62.167 -21.5 99.5 -21.5c28 0 53.833 4.33301 77.5 13s44.167 20.834 61.5 36.501s31.166 34 41.499 55s16.166 44.167 17.499 69.5h94zM284.998 899.995h142l125 -140h-94l-102 105l-102 -105h-94z" />
    <glyph glyph-name="ccircumflex" unicode="&#x109;" horiz-adv-x="548" 
d="M512 181c-1.33301 -15.333 -5.16992 -34.3301 -11.5029 -56.9971s-17.333 -44.667 -33 -66s-37.667 -39.666 -66 -54.999s-65.166 -23 -110.499 -23c-8.66699 0 -20.667 0.666992 -36 2s-32.333 4.66602 -51 9.99902s-37.5 13.833 -56.5 25.5s-36.167 27.667 -51.5 48
s-28 46.166 -38 77.499s-15 69.666 -15 114.999c0 29.333 3.33301 60 10 92s19 61.167 37 87.5s42.667 48 74 65s71.666 25.5 120.999 25.5c36 0 67.333 -4.83301 94 -14.5s49 -22.834 67 -39.501s32.167 -35.667 42.5 -57s16.833 -44 19.5 -68h-84
c-4.66699 28 -13 50 -25 66s-25 27.667 -39 35s-27.833 11.833 -41.5 13.5s-24.167 2.5 -31.5 2.5c-27.333 0 -50.666 -5.5 -69.999 -16.5s-35 -25.833 -47 -44.5s-20.667 -40.667 -26 -66s-8 -52.333 -8 -81s3 -56 9 -82s15.167 -49 27.5 -69s28.5 -35.833 48.5 -47.5
s44 -17.5 72 -17.5c24.667 0 45.5 4.66699 62.5 14s30.833 20.833 41.5 34.5s18.334 28.667 23.001 45s7.33398 31.5 8.00098 45.5h84zM207.996 700.003h132l119 -132h-88l-97 99l-97 -99h-88z" />
    <glyph glyph-name="Ccaron" unicode="&#x10c;" horiz-adv-x="712" 
d="M674 232c-3.33301 -25.333 -10.002 -52.6709 -20.002 -82.0039s-26.167 -56.666 -48.5 -81.999s-51.833 -46.5 -88.5 -63.5s-83 -25.5 -139 -25.5c-52 0 -98.667 8.16699 -140 24.5s-76.166 40 -104.499 71s-50.166 68.667 -65.499 113s-23 94.5 -23 150.5
c0 62 6.83301 114.5 20.5 157.5s31 78.667 52 107s44.5 50.5 70.5 66.5s51.167 27.833 75.5 35.5s46.5 12.334 66.5 14.001s35 2.5 45 2.5c56 0 102 -7.33301 138 -22s64.833 -33.5 86.5 -56.5s37.334 -48.5 47.001 -76.5s15.834 -55.333 18.501 -82h-94
c-1.33301 12.667 -4.83301 28 -10.5 46s-15.5 35.333 -29.5 52s-33.5 30.834 -58.5 42.501s-57.5 17.5 -97.5 17.5c-44 0 -80.667 -8.5 -110 -25.5s-52.833 -39.5 -70.5 -67.5s-30.334 -60 -38.001 -96s-11.5 -73 -11.5 -111c0 -40.667 5.33301 -78.334 16 -113.001
s26.334 -64.667 47.001 -90s45.5 -45.166 74.5 -59.499s62.167 -21.5 99.5 -21.5c28 0 53.833 4.33301 77.5 13s44.167 20.834 61.5 36.501s31.166 34 41.499 55s16.166 44.167 17.499 69.5h94zM284.998 759.995l-125 140h94l102 -105l102 105h94l-125 -140h-142z" />
    <glyph glyph-name="ccaron" unicode="&#x10d;" horiz-adv-x="548" 
d="M512 181c-1.33301 -15.333 -5.16992 -34.3301 -11.5029 -56.9971s-17.333 -44.667 -33 -66s-37.667 -39.666 -66 -54.999s-65.166 -23 -110.499 -23c-8.66699 0 -20.667 0.666992 -36 2s-32.333 4.66602 -51 9.99902s-37.5 13.833 -56.5 25.5s-36.167 27.667 -51.5 48
s-28 46.166 -38 77.499s-15 69.666 -15 114.999c0 29.333 3.33301 60 10 92s19 61.167 37 87.5s42.667 48 74 65s71.666 25.5 120.999 25.5c36 0 67.333 -4.83301 94 -14.5s49 -22.834 67 -39.501s32.167 -35.667 42.5 -57s16.833 -44 19.5 -68h-84
c-4.66699 28 -13 50 -25 66s-25 27.667 -39 35s-27.833 11.833 -41.5 13.5s-24.167 2.5 -31.5 2.5c-27.333 0 -50.666 -5.5 -69.999 -16.5s-35 -25.833 -47 -44.5s-20.667 -40.667 -26 -66s-8 -52.333 -8 -81s3 -56 9 -82s15.167 -49 27.5 -69s28.5 -35.833 48.5 -47.5
s44 -17.5 72 -17.5c24.667 0 45.5 4.66699 62.5 14s30.833 20.833 41.5 34.5s18.334 28.667 23.001 45s7.33398 31.5 8.00098 45.5h84zM207.996 568.003l-119 132h88l97 -99l97 99h88l-119 -132h-132z" />
    <glyph glyph-name="Dcaron" unicode="&#x10e;" horiz-adv-x="719" 
d="M179 79h130.999c90 0 156.667 21.833 200 65.5s65 112.167 65 205.5c0 52.667 -6.83301 96.5 -20.5 131.5s-31.667 62.833 -54 83.5s-47.666 35.167 -75.999 43.5s-57.5 12.5 -87.5 12.5h-158v-542zM341.999 700c12 0 28.498 -0.666992 49.498 -2s43.833 -5.5 68.5 -12.5
s49.834 -17.667 75.501 -32s48.834 -34.333 69.501 -60s37.5 -58.167 50.5 -97.5s19.5 -87.333 19.5 -144c0 -57.333 -6.33301 -105.833 -19 -145.5s-29.334 -72.5 -50.001 -98.5s-44.167 -46.333 -70.5 -61s-53.166 -25.5 -80.499 -32.5s-53.833 -11.167 -79.5 -12.5
s-48.5 -2 -68.5 -2h-222v700h257zM287.997 760l-125 140h94l102 -105l102 105h94l-125 -140h-142z" />
    <glyph glyph-name="dcaron" unicode="&#x10f;" horiz-adv-x="719" 
d="M124 255c0 -48 5.83301 -86.168 17.5 -114.501s25.667 -49.666 42 -63.999s33.5 -23.666 51.5 -27.999s33.333 -6.5 46 -6.5c19.333 0 38.166 3.83301 56.499 11.5s34.5 20 48.5 37s25.333 39.167 34 66.5s13 60.666 13 99.999c0 36.667 -4.16699 68.167 -12.5 94.5
s-19.833 48 -34.5 65s-31.5 29.5 -50.5 37.5s-38.833 12 -59.5 12c-21.333 0 -41.166 -4 -59.499 -12s-34.333 -20.5 -48 -37.5s-24.5 -38.833 -32.5 -65.5s-12 -58.667 -12 -96zM515 699.999l-0.00292969 -700.002h-82v70h-3c-4 -8 -10 -17.333 -18 -28
s-18.667 -20.5 -32 -29.5s-29.666 -16.667 -48.999 -23s-42.333 -9.5 -69 -9.5c-37.333 0 -70.333 6.66699 -99 20s-52.667 32.166 -72 56.499s-34.166 53.333 -44.499 87s-15.5 70.834 -15.5 111.501c0 26.667 2.66699 55.834 8 87.501s16.333 61.334 33 89.001
s39.834 50.667 69.501 69s69.167 27.5 118.5 27.5c34 0 65.167 -5.66699 93.5 -17s52.833 -34.333 73.5 -69v258h88zM705.997 699.997v-139.998c0 -20 -3.33301 -37 -10 -51s-15 -25.5 -25 -34.5s-20.667 -16 -32 -21s-22 -8.5 -32 -10.5v55
c14 1.33301 25.833 8.16602 35.5 20.499s14.5 26.166 14.5 41.499v31h-50v109h99z" />
    <glyph glyph-name="Dcroat" unicode="&#x110;" horiz-adv-x="728" 
d="M188 428h197.999v-62h-198v-287h131c90 0 156.667 21.833 200 65.5s65 112.167 65 205.5c0 52.667 -6.83301 96.5 -20.5 131.5s-31.667 62.833 -54 83.5s-47.666 35.167 -75.999 43.5s-57.5 12.5 -87.5 12.5h-158v-193zM350.999 700c12 0 28.498 -0.666992 49.498 -2
s43.833 -5.5 68.5 -12.5s49.834 -17.667 75.501 -32s48.834 -34.333 69.501 -60s37.5 -58.167 50.5 -97.5s19.5 -87.333 19.5 -144c0 -57.333 -6.33301 -105.833 -19 -145.5s-29.334 -72.5 -50.001 -98.5s-44.167 -46.333 -70.5 -61s-53.166 -25.5 -80.499 -32.5
s-53.833 -11.167 -79.5 -12.5s-48.5 -2 -68.5 -2h-222v366h-94v62h94v272h257z" />
    <glyph glyph-name="dcroat" unicode="&#x111;" horiz-adv-x="599" 
d="M136 255c0 -48 5.83203 -86.167 17.499 -114.5s25.667 -49.666 42 -63.999s33.5 -23.666 51.5 -27.999s33.333 -6.5 46 -6.5c5.33301 0 12.833 0.666992 22.5 2s20 4.16602 31 8.49902s22.333 11.166 34 20.499s22.167 21.833 31.5 37.5s17 35.5 23 59.5s9 53 9 87
c0 36.667 -4.16699 68.167 -12.5 94.5s-19.5 48 -33.5 65s-30.5 29.5 -49.5 37.5s-39.167 12 -60.5 12s-41.166 -4 -59.499 -12s-34.333 -20.5 -48 -37.5s-24.5 -38.833 -32.5 -65.5s-12 -58.667 -12 -96zM526.999 700l-0.00292969 -65.002h85v-54h-85v-581h-83v70h-2
c-4 -8 -10 -17.333 -18 -28s-18.667 -20.5 -32 -29.5s-29.666 -16.667 -48.999 -23s-42.333 -9.5 -69 -9.5c-37.333 0 -70.333 6.66699 -99 20s-52.667 32.166 -72 56.499s-34.166 53.333 -44.499 87s-15.5 70.834 -15.5 111.501c0 26.667 2.66699 55.834 8 87.501
s16.333 61.334 33 89.001s39.834 50.667 69.501 69s69.167 27.5 118.5 27.5c34 0 65.167 -5.66699 93.5 -17s52.833 -34.333 73.5 -69v139h-184v54h184v65h88z" />
    <glyph glyph-name="Emacron" unicode="&#x112;" horiz-adv-x="612" 
d="M546 401v-79h-367v-243h416v-79h-510v700h499v-79h-405v-220h367zM148 832h316v-60h-158h-158v60z" />
    <glyph glyph-name="emacron" unicode="&#x113;" horiz-adv-x="570" 
d="M434 296c-0.666992 16.667 -2.99902 35 -6.99902 55s-11.167 38.5 -21.5 55.5s-24.5 31.167 -42.5 42.5s-41.333 17 -70 17c-32 0 -58.333 -5.83301 -79 -17.5s-36.834 -26.167 -48.501 -43.5s-19.5 -35.833 -23.5 -55.5s-6 -37.5 -6 -53.5h298zM522.001 147
c-3.33301 -18 -9.49707 -36.832 -18.4971 -56.499s-22 -37.667 -39 -54s-38.833 -29.833 -65.5 -40.5s-59.667 -16 -99 -16c-42 0 -77.5 5.66699 -106.5 17s-53 25.833 -72 43.5s-33.833 37.167 -44.5 58.5s-18.5 42 -23.5 62s-8 38.167 -9 54.5s-1.5 28.5 -1.5 36.5
c0 11.333 0.666992 26.166 2 44.499s4.66602 37.666 9.99902 57.999s13.333 40.833 24 61.5s25.167 39.334 43.5 56.001s41.166 30.167 68.499 40.5s60.666 15.5 99.999 15.5c50.667 0 91.167 -8.83301 121.5 -26.5s53.666 -39.834 69.999 -66.501
s27.333 -55.834 33 -87.501s9.16699 -61.167 10.5 -88.5c0 -4 0.166992 -8.16699 0.5 -12.5s0.5 -8.5 0.5 -12.5h-391c0 -22 3 -44.333 9 -67s15.333 -43.167 28 -61.5s29.167 -33.5 49.5 -45.5s45.166 -18 74.499 -18c20.667 0 39.334 2.83301 56.001 8.5
s30.834 13.334 42.501 23.001s21 20.834 28 33.501s11.833 26 14.5 40h84zM127.004 673.001h316v-60h-158h-158v60z" />
    <glyph glyph-name="Edotaccent" unicode="&#x116;" horiz-adv-x="612" 
d="M546 401v-79h-367v-243h416v-79h-510v700h499v-79h-405v-220h367zM259 851h94v-79h-94v79z" />
    <glyph glyph-name="edotaccent" unicode="&#x117;" horiz-adv-x="570" 
d="M434 296c-0.666992 16.667 -2.99902 35 -6.99902 55s-11.167 38.5 -21.5 55.5s-24.5 31.167 -42.5 42.5s-41.333 17 -70 17c-32 0 -58.333 -5.83301 -79 -17.5s-36.834 -26.167 -48.501 -43.5s-19.5 -35.833 -23.5 -55.5s-6 -37.5 -6 -53.5h298zM522.001 147
c-3.33301 -18 -9.49707 -36.832 -18.4971 -56.499s-22 -37.667 -39 -54s-38.833 -29.833 -65.5 -40.5s-59.667 -16 -99 -16c-42 0 -77.5 5.66699 -106.5 17s-53 25.833 -72 43.5s-33.833 37.167 -44.5 58.5s-18.5 42 -23.5 62s-8 38.167 -9 54.5s-1.5 28.5 -1.5 36.5
c0 11.333 0.666992 26.166 2 44.499s4.66602 37.666 9.99902 57.999s13.333 40.833 24 61.5s25.167 39.334 43.5 56.001s41.166 30.167 68.499 40.5s60.666 15.5 99.999 15.5c50.667 0 91.167 -8.83301 121.5 -26.5s53.666 -39.834 69.999 -66.501
s27.333 -55.834 33 -87.501s9.16699 -61.167 10.5 -88.5c0 -4 0.166992 -8.16699 0.5 -12.5s0.5 -8.5 0.5 -12.5h-391c0 -22 3 -44.333 9 -67s15.333 -43.167 28 -61.5s29.167 -33.5 49.5 -45.5s45.166 -18 74.499 -18c20.667 0 39.334 2.83301 56.001 8.5
s30.834 13.334 42.501 23.001s21 20.834 28 33.501s11.833 26 14.5 40h84zM239.004 700.001h92v-92h-92v92z" />
    <glyph glyph-name="Eogonek" unicode="&#x118;" horiz-adv-x="612" 
d="M546 401l0.00195312 -78.9971h-367v-243h416v-79h-50c-20 -11.333 -35.667 -26.5 -47 -45.5s-17 -38.167 -17 -57.5c0 -15.333 3.5 -29 10.5 -41s18.833 -18 35.5 -18c8.66699 0 15.667 1.83301 21 5.5s9.66602 8 12.999 13s5.83301 10.5 7.5 16.5s2.5 11.667 2.5 17h74
c-0.666992 -13.333 -3.66699 -26.833 -9 -40.5s-13 -26 -23 -37s-22.5 -19.833 -37.5 -26.5s-32.833 -10 -53.5 -10c-38 0 -69.333 9.16699 -94 27.5s-37 43.166 -37 74.499c0 25.333 7.16699 48.666 21.5 69.999s30.166 38.666 47.499 51.999h-375v700h499v-79h-405v-220
h367z" />
    <glyph glyph-name="eogonek" unicode="&#x119;" horiz-adv-x="580" 
d="M442 297c-0.666992 16.667 -2.99902 34.833 -6.99902 54.5s-11.333 38 -22 55s-25.334 31.167 -44.001 42.5s-42.667 17 -72 17c-28 0 -51.833 -4.83301 -71.5 -14.5s-36 -22.334 -49 -38.001s-22.5 -33.667 -28.5 -54s-9 -41.166 -9 -62.499h303zM531.001 144.999
c-3.33301 -14.667 -9.5 -30.835 -18.5 -48.502s-19.667 -34.167 -32 -49.5s-26 -28.166 -41 -38.499s-29.5 -15.5 -43.5 -15.5h-1c-14 -11.333 -26.333 -25.666 -37 -42.999s-16 -34.666 -16 -51.999c0 -14.667 3.5 -27.834 10.5 -39.501s18.167 -17.5 33.5 -17.5
c14 0 24.667 5 32 15s10.666 21.667 9.99902 35h71c-2 -32.667 -13.833 -59 -35.5 -79s-48.834 -30 -81.501 -30c-36 0 -66 8.83301 -90 26.5s-36 41.5 -36 71.5c0 21.333 5.33301 40.833 16 58.5s21 31.5 31 41.5c-35.333 -2.66699 -68.666 1 -99.999 11
s-58.833 26.333 -82.5 49s-42.5 51.667 -56.5 87s-21 77 -21 125c0 11.333 0.666992 26.166 2 44.499s4.66602 37.666 9.99902 57.999s13.333 40.833 24 61.5s25.334 39.334 44.001 56.001s42 30.167 70 40.5s62 15.5 102 15.5c41.333 0 76 -5.66699 104 -17
s51.167 -26 69.5 -44s32.166 -38.333 41.499 -61s16.166 -44.834 20.499 -66.501s6.5 -42.167 6.5 -61.5c0 -18.667 -0.333008 -33.667 -1 -45h-398c2 -36 7.83301 -66.167 17.5 -90.5s22 -43.833 37 -58.5s32 -25.167 51 -31.5s38.167 -9.5 57.5 -9.5
c17.333 0 33.833 2.33301 49.5 7s29.834 11.334 42.501 20.001s23.334 19.334 32.001 32.001s14.334 27 17.001 43h89z" />
    <glyph glyph-name="Ecaron" unicode="&#x11a;" horiz-adv-x="612" 
d="M546 401v-79h-367v-243h416v-79h-510v700h499v-79h-405v-220h367zM235 760l-125 140h94l102 -105l102 105h94l-125 -140h-142z" />
    <glyph glyph-name="ecaron" unicode="&#x11b;" horiz-adv-x="570" 
d="M434 296c-0.666992 16.667 -2.99902 35 -6.99902 55s-11.167 38.5 -21.5 55.5s-24.5 31.167 -42.5 42.5s-41.333 17 -70 17c-32 0 -58.333 -5.83301 -79 -17.5s-36.834 -26.167 -48.501 -43.5s-19.5 -35.833 -23.5 -55.5s-6 -37.5 -6 -53.5h298zM522.001 147
c-3.33301 -18 -9.49707 -36.832 -18.4971 -56.499s-22 -37.667 -39 -54s-38.833 -29.833 -65.5 -40.5s-59.667 -16 -99 -16c-42 0 -77.5 5.66699 -106.5 17s-53 25.833 -72 43.5s-33.833 37.167 -44.5 58.5s-18.5 42 -23.5 62s-8 38.167 -9 54.5s-1.5 28.5 -1.5 36.5
c0 11.333 0.666992 26.166 2 44.499s4.66602 37.666 9.99902 57.999s13.333 40.833 24 61.5s25.167 39.334 43.5 56.001s41.166 30.167 68.499 40.5s60.666 15.5 99.999 15.5c50.667 0 91.167 -8.83301 121.5 -26.5s53.666 -39.834 69.999 -66.501
s27.333 -55.834 33 -87.501s9.16699 -61.167 10.5 -88.5c0 -4 0.166992 -8.16699 0.5 -12.5s0.5 -8.5 0.5 -12.5h-391c0 -22 3 -44.333 9 -67s15.333 -43.167 28 -61.5s29.167 -33.5 49.5 -45.5s45.166 -18 74.499 -18c20.667 0 39.334 2.83301 56.001 8.5
s30.834 13.334 42.501 23.001s21 20.834 28 33.501s11.833 26 14.5 40h84zM219.004 568.001l-119 132h88l97 -99l97 99h88l-119 -132h-132z" />
    <glyph glyph-name="Gcircumflex" unicode="&#x11c;" horiz-adv-x="740" 
d="M682 365l0.00683594 -365.003h-73v113h-2c-20 -42 -50 -74.833 -90 -98.5s-87.667 -35.5 -143 -35.5c-42 0 -82.667 6.5 -122 19.5s-74.333 34.333 -105 64s-55.334 68.667 -74.001 117s-28 107.5 -28 177.5c0 59.333 8 111.666 24 156.999s39 83.333 69 114
s66 53.834 108 69.501s89 23.5 141 23.5c46.667 0 87.167 -6.5 121.5 -19.5s63 -30.167 86 -51.5s40.833 -45.666 53.5 -72.999s20.667 -55.333 24 -84h-94c-1.33301 16 -5.33301 32.833 -12 50.5s-17.334 33.667 -32.001 48s-34.167 26.333 -58.5 36s-54.5 14.5 -90.5 14.5
c-36.667 0 -68.167 -5.33301 -94.5 -16s-48.333 -24.667 -66 -42s-31.834 -36.666 -42.501 -57.999s-18.667 -42.666 -24 -63.999s-8.83301 -41.5 -10.5 -60.5s-2.5 -34.833 -2.5 -47.5c0 -8.66699 0.666992 -22 2 -40s4.66602 -37.833 9.99902 -59.5
s13.166 -44.167 23.499 -67.5s24.333 -44.5 42 -63.5s39.667 -34.667 66 -47s58.166 -18.5 95.499 -18.5c43.333 0 78.666 7.83301 105.999 23.5s48.833 35 64.5 58s26.5 47.833 32.5 74.5s9 50.667 9 72h-200v79h286zM299.007 899.997h142l125 -140h-94l-102 105l-102 -105
h-94z" />
    <glyph glyph-name="gcircumflex" unicode="&#x11d;" 
d="M296 42c8 0 20.3311 2.16504 36.998 6.49805s33.334 14 50.001 29s31.334 36.833 44.001 65.5s19 67.667 19 117c0 64 -13.333 114.333 -40 151s-66 55 -118 55c-24.667 0 -45.5 -4.16699 -62.5 -12.5s-31 -18.833 -42 -31.5s-19.333 -27 -25 -43s-10 -31.5 -13 -46.5
s-4.66699 -29 -5 -42s-0.5 -22.833 -0.5 -29.5c0 -51.333 6.16699 -91.666 18.5 -120.999s27 -51.166 44 -65.499s34.333 -23.333 52 -27s31.5 -5.5 41.5 -5.5zM165.998 -57.002c4 -14.667 10.6699 -26.6641 20.0029 -35.9971s20.166 -16.833 32.499 -22.5
s25.666 -9.5 39.999 -11.5s28.166 -3 41.499 -3c34.667 0 61.334 7 80.001 21s32.5 30 41.5 48s14.333 35.667 16 53s2.5 29.333 2.5 36v55c-12 -19.333 -23.667 -35.5 -35 -48.5s-23.5 -23.5 -36.5 -31.5s-27 -13.833 -42 -17.5s-31.833 -5.5 -50.5 -5.5
c-30 0 -58.833 5.33301 -86.5 16s-52 27.167 -73 49.5s-37.833 51 -50.5 86s-19 77.167 -19 126.5c0 8 0.333008 20.167 1 36.5s3 34.5 7 54.5s10.5 40.5 19.5 61.5s21.667 40.333 38 58s37 32 62 43s55.833 16.5 92.5 16.5c42 0 77.833 -7.66699 107.5 -23
s52.5 -37.666 68.5 -66.999h3v70h82v-495c0 -32.667 -4.5 -60.334 -13.5 -83.001s-20.5 -41.667 -34.5 -57s-29.833 -27.333 -47.5 -36s-34.834 -15.334 -51.501 -20.001s-32.334 -7.5 -47.001 -8.5s-26 -1.5 -34 -1.5c-12 0 -28.667 0.666992 -50 2
s-43.166 6.16602 -65.499 14.499s-43 21.666 -62 39.999s-32.5 44.833 -40.5 79.5h84zM234.001 700.001h132l119 -132h-88l-97 99l-97 -99h-88z" />
    <glyph glyph-name="Gbreve" unicode="&#x11e;" horiz-adv-x="740" 
d="M682 365l0.00683594 -365.003h-73v113h-2c-20 -42 -50 -74.833 -90 -98.5s-87.667 -35.5 -143 -35.5c-42 0 -82.667 6.5 -122 19.5s-74.333 34.333 -105 64s-55.334 68.667 -74.001 117s-28 107.5 -28 177.5c0 59.333 8 111.666 24 156.999s39 83.333 69 114
s66 53.834 108 69.501s89 23.5 141 23.5c46.667 0 87.167 -6.5 121.5 -19.5s63 -30.167 86 -51.5s40.833 -45.666 53.5 -72.999s20.667 -55.333 24 -84h-94c-1.33301 16 -5.33301 32.833 -12 50.5s-17.334 33.667 -32.001 48s-34.167 26.333 -58.5 36s-54.5 14.5 -90.5 14.5
c-36.667 0 -68.167 -5.33301 -94.5 -16s-48.333 -24.667 -66 -42s-31.834 -36.666 -42.501 -57.999s-18.667 -42.666 -24 -63.999s-8.83301 -41.5 -10.5 -60.5s-2.5 -34.833 -2.5 -47.5c0 -8.66699 0.666992 -22 2 -40s4.66602 -37.833 9.99902 -59.5
s13.166 -44.167 23.499 -67.5s24.333 -44.5 42 -63.5s39.667 -34.667 66 -47s58.166 -18.5 95.499 -18.5c43.333 0 78.666 7.83301 105.999 23.5s48.833 35 64.5 58s26.5 47.833 32.5 74.5s9 50.667 9 72h-200v79h286zM265.007 899.997
c0.666992 -26 10.835 -46.499 30.502 -61.499s44.5 -22.5 74.5 -22.5s53.5 6.16699 70.5 18.5s28.5 34.166 34.5 65.499h78c-2.66699 -14 -7.33398 -29.167 -14.001 -45.5s-17 -31.5 -31 -45.5s-32 -25.667 -54 -35s-50 -14 -84 -14s-62 4.66699 -84 14s-40 21 -54 35
s-24.333 29.167 -31 45.5s-11.334 31.5 -14.001 45.5h78z" />
    <glyph glyph-name="gbreve" unicode="&#x11f;" 
d="M296 42c8 0 20.3311 2.16504 36.998 6.49805s33.334 14 50.001 29s31.334 36.833 44.001 65.5s19 67.667 19 117c0 64 -13.333 114.333 -40 151s-66 55 -118 55c-24.667 0 -45.5 -4.16699 -62.5 -12.5s-31 -18.833 -42 -31.5s-19.333 -27 -25 -43s-10 -31.5 -13 -46.5
s-4.66699 -29 -5 -42s-0.5 -22.833 -0.5 -29.5c0 -51.333 6.16699 -91.666 18.5 -120.999s27 -51.166 44 -65.499s34.333 -23.333 52 -27s31.5 -5.5 41.5 -5.5zM165.998 -57.002c4 -14.667 10.6699 -26.6641 20.0029 -35.9971s20.166 -16.833 32.499 -22.5
s25.666 -9.5 39.999 -11.5s28.166 -3 41.499 -3c34.667 0 61.334 7 80.001 21s32.5 30 41.5 48s14.333 35.667 16 53s2.5 29.333 2.5 36v55c-12 -19.333 -23.667 -35.5 -35 -48.5s-23.5 -23.5 -36.5 -31.5s-27 -13.833 -42 -17.5s-31.833 -5.5 -50.5 -5.5
c-30 0 -58.833 5.33301 -86.5 16s-52 27.167 -73 49.5s-37.833 51 -50.5 86s-19 77.167 -19 126.5c0 8 0.333008 20.167 1 36.5s3 34.5 7 54.5s10.5 40.5 19.5 61.5s21.667 40.333 38 58s37 32 62 43s55.833 16.5 92.5 16.5c42 0 77.833 -7.66699 107.5 -23
s52.5 -37.666 68.5 -66.999h3v70h82v-495c0 -32.667 -4.5 -60.334 -13.5 -83.001s-20.5 -41.667 -34.5 -57s-29.833 -27.333 -47.5 -36s-34.834 -15.334 -51.501 -20.001s-32.334 -7.5 -47.001 -8.5s-26 -1.5 -34 -1.5c-12 0 -28.667 0.666992 -50 2
s-43.166 6.16602 -65.499 14.499s-43 21.666 -62 39.999s-32.5 44.833 -40.5 79.5h84zM202.001 700.001c1.33301 -20 9.66992 -38.167 25.0029 -54.5s39.666 -24.5 72.999 -24.5s57.666 8.16699 72.999 24.5s23.666 34.5 24.999 54.5h74
c-2 -13.333 -6.33301 -27.666 -13 -42.999s-16.667 -29.666 -30 -42.999s-30.5 -24.333 -51.5 -33s-46.833 -13 -77.5 -13c-31.333 0 -57.333 4.33301 -78 13s-37.667 19.667 -51 33s-23.333 27.666 -30 42.999s-11 29.666 -13 42.999h74z" />
    <glyph glyph-name="Gcommaaccent" unicode="&#x122;" horiz-adv-x="740" 
d="M682 365l0.00683594 -365.003h-73v113h-2c-20 -42 -50 -74.833 -90 -98.5s-87.667 -35.5 -143 -35.5c-42 0 -82.667 6.5 -122 19.5s-74.333 34.333 -105 64s-55.334 68.667 -74.001 117s-28 107.5 -28 177.5c0 59.333 8 111.666 24 156.999s39 83.333 69 114
s66 53.834 108 69.501s89 23.5 141 23.5c46.667 0 87.167 -6.5 121.5 -19.5s63 -30.167 86 -51.5s40.833 -45.666 53.5 -72.999s20.667 -55.333 24 -84h-94c-1.33301 16 -5.33301 32.833 -12 50.5s-17.334 33.667 -32.001 48s-34.167 26.333 -58.5 36s-54.5 14.5 -90.5 14.5
c-36.667 0 -68.167 -5.33301 -94.5 -16s-48.333 -24.667 -66 -42s-31.834 -36.666 -42.501 -57.999s-18.667 -42.666 -24 -63.999s-8.83301 -41.5 -10.5 -60.5s-2.5 -34.833 -2.5 -47.5c0 -8.66699 0.666992 -22 2 -40s4.66602 -37.833 9.99902 -59.5
s13.166 -44.167 23.499 -67.5s24.333 -44.5 42 -63.5s39.667 -34.667 66 -47s58.166 -18.5 95.499 -18.5c43.333 0 78.666 7.83301 105.999 23.5s48.833 35 64.5 58s26.5 47.833 32.5 74.5s9 50.667 9 72h-200v79h286zM419.007 -60.0029v-100.998
c0 -17.333 -3.33301 -32 -10 -44s-15 -21.667 -25 -29s-20.833 -13 -32.5 -17s-22.167 -7 -31.5 -9v55c14 1.33301 25.833 6.16602 35.5 14.499s14.5 18.166 14.5 29.499v11h-50v90h99z" />
    <glyph glyph-name="gcommaaccent" unicode="&#x123;" 
d="M296 42c8 0 20.3311 2.16504 36.998 6.49805s33.334 14 50.001 29s31.334 36.833 44.001 65.5s19 67.667 19 117c0 64 -13.333 114.333 -40 151s-66 55 -118 55c-24.667 0 -45.5 -4.16699 -62.5 -12.5s-31 -18.833 -42 -31.5s-19.333 -27 -25 -43s-10 -31.5 -13 -46.5
s-4.66699 -29 -5 -42s-0.5 -22.833 -0.5 -29.5c0 -51.333 6.16699 -91.666 18.5 -120.999s27 -51.166 44 -65.499s34.333 -23.333 52 -27s31.5 -5.5 41.5 -5.5zM165.998 -57.002c4 -14.667 10.6699 -26.6641 20.0029 -35.9971s20.166 -16.833 32.499 -22.5
s25.666 -9.5 39.999 -11.5s28.166 -3 41.499 -3c34.667 0 61.334 7 80.001 21s32.5 30 41.5 48s14.333 35.667 16 53s2.5 29.333 2.5 36v55c-12 -19.333 -23.667 -35.5 -35 -48.5s-23.5 -23.5 -36.5 -31.5s-27 -13.833 -42 -17.5s-31.833 -5.5 -50.5 -5.5
c-30 0 -58.833 5.33301 -86.5 16s-52 27.167 -73 49.5s-37.833 51 -50.5 86s-19 77.167 -19 126.5c0 8 0.333008 20.167 1 36.5s3 34.5 7 54.5s10.5 40.5 19.5 61.5s21.667 40.333 38 58s37 32 62 43s55.833 16.5 92.5 16.5c42 0 77.833 -7.66699 107.5 -23
s52.5 -37.666 68.5 -66.999h3v70h82v-495c0 -32.667 -4.5 -60.334 -13.5 -83.001s-20.5 -41.667 -34.5 -57s-29.833 -27.333 -47.5 -36s-34.834 -15.334 -51.501 -20.001s-32.334 -7.5 -47.001 -8.5s-26 -1.5 -34 -1.5c-12 0 -28.667 0.666992 -50 2
s-43.166 6.16602 -65.499 14.499s-43 21.666 -62 39.999s-32.5 44.833 -40.5 79.5h84zM248.02 598.993v100.988c0 17.3311 3.33301 31.9961 9.99805 43.9941c6.66602 11.999 14.998 21.665 24.9971 28.998c9.99902 7.33203 20.8311 12.998 32.4961 16.998
c11.665 3.99902 22.1641 6.99902 31.4961 8.99902v-54.9941c-13.998 -1.33301 -25.8301 -6.16602 -35.4951 -14.499c-9.66602 -8.33203 -14.499 -18.1641 -14.499 -29.4961v-10.999h49.9941v-89.9893h-98.9873z" />
    <glyph glyph-name="Hcircumflex" unicode="&#x124;" horiz-adv-x="710" 
d="M179 0h-94v700h94v-292h352v292h94v-700h-94v329h-352v-329zM284 900h142l125 -140h-94l-102 105l-102 -105h-94z" />
    <glyph glyph-name="hcircumflex" unicode="&#x125;" horiz-adv-x="572" 
d="M160 700l0.00292969 -263.001c23.333 32 49.166 55.167 77.499 69.5s60.5 21.5 96.5 21.5c28 0 51.667 -3.66699 71 -11s35.166 -17 47.499 -29s21.666 -25.167 27.999 -39.5s11 -28.5 14 -42.5s4.66699 -27.167 5 -39.5s0.5 -21.833 0.5 -28.5v-338h-88v311
c0 14.667 -0.333008 31 -1 49s-4.33398 34.833 -11.001 50.5s-17.167 28.834 -31.5 39.501s-35.166 16 -62.499 16c-12 0 -26.333 -2 -43 -6s-32.667 -12.5 -48 -25.5s-28.333 -32 -39 -57s-16 -58.5 -16 -100.5v-277h-88v700h88zM212.003 911.999h132l119 -132h-88l-97 99
l-97 -99h-88z" />
    <glyph glyph-name="Imacron" unicode="&#x12a;" horiz-adv-x="264" 
d="M179 700v-700h-94v700h94zM-24 832h316v-60h-158h-158v60z" />
    <glyph glyph-name="imacron" unicode="&#x12b;" horiz-adv-x="233" 
d="M161 508v-508h-89v508h89zM-39 673h316v-60h-158h-158v60z" />
    <glyph glyph-name="Iogonek" unicode="&#x12e;" horiz-adv-x="264" 
d="M179 700l0.00195312 -699.999h-4c-19.333 -11.333 -34.833 -26.666 -46.5 -45.999s-17.5 -38.333 -17.5 -57c0 -15.333 3.66699 -29 11 -41s19 -18 35 -18c8.66699 0 15.667 1.83301 21 5.5s9.66602 8 12.999 13s5.83301 10.5 7.5 16.5s2.5 11.667 2.5 17h74
c-0.666992 -13.333 -3.66699 -26.833 -9 -40.5s-13 -26 -23 -37s-22.5 -19.833 -37.5 -26.5s-32.833 -10 -53.5 -10c-38 0 -69.333 9.16699 -94 27.5s-37 43.166 -37 74.499c0 19.333 3.66699 36.666 11 51.999s15.666 28.333 24.999 39l16 16
c5.33301 5.33301 11 10.333 17 15h-5v700h94z" />
    <glyph glyph-name="iogonek" unicode="&#x12f;" horiz-adv-x="228" 
d="M70 700h88v-92h-88v92zM158 508l0.00195312 -508h-2c-12 -6.66699 -22.333 -15 -31 -25c-8 -9.33301 -15.5 -21.333 -22.5 -36s-10.5 -28.667 -10.5 -42c0 -15.333 3.66699 -29 11 -41s19 -18 35 -18c8.66699 0 15.667 1.83301 21 5.5s9.66602 8 12.999 13
s5.83301 10.5 7.5 16.5s2.5 11.667 2.5 17h74c-0.666992 -13.333 -3.66699 -26.833 -9 -40.5s-13 -26 -23 -37s-22.5 -19.833 -37.5 -26.5s-32.833 -10 -53.5 -10c-38 0 -69.333 9.16699 -94 27.5s-37 43.166 -37 74.499c0 9.33301 0.833008 18.5 2.5 27.5
s4.5 17.5 8.5 25.5c4.66699 10 10 19 16 27s12 15 18 21s11.167 10.833 15.5 14.5s7.16602 5.83398 8.49902 6.50098h-1v508h88z" />
    <glyph glyph-name="Idotaccent" unicode="&#x130;" horiz-adv-x="238" 
d="M72 851h94v-79h-94v79zM166 700v-700h-94v700h94z" />
    <glyph glyph-name="dotlessi" unicode="&#x131;" horiz-adv-x="233" 
d="M161 508v-508h-89v508h89z" />
    <glyph glyph-name="Jcircumflex" unicode="&#x134;" horiz-adv-x="520" 
d="M117 232c0 -28 2.00098 -52.6689 6.00098 -74.002s10.5 -39.5 19.5 -54.5s21.167 -26.333 36.5 -34s35 -11.5 59 -11.5c24.667 0 44.667 4.33301 60 13s27.166 20.667 35.499 36s13.833 33.833 16.5 55.5s4 45.167 4 70.5v467h94v-458c0 -46 -3.83301 -85.5 -11.5 -118.5
s-19.834 -60.167 -36.501 -81.5s-38.5 -37.166 -65.5 -47.499s-59.5 -15.5 -97.5 -15.5c-18 0 -39.167 1.83301 -63.5 5.5s-47.666 12.834 -69.999 27.501s-41.333 36.5 -57 65.5s-23.5 68.5 -23.5 118.5v36h94zM329.001 899.998h142l125 -140h-94l-102 105l-102 -105h-94z
" />
    <glyph glyph-name="jcircumflex" unicode="&#x135;" horiz-adv-x="231" 
d="M182 700l119 -132h-88l-97 99l-97 -99h-89l120 132h132zM161 508l0.000976562 -555.001c0 -22.667 -1.83301 -42.834 -5.5 -60.501s-10 -32.5 -19 -44.5s-21.333 -21.167 -37 -27.5s-35.167 -9.5 -58.5 -9.5c-8.66699 0 -18.834 0.5 -30.501 1.5s-20.5 1.83301 -26.5 2.5
v62c23.333 4 41 7.66699 53 11s20.667 7.83301 26 13.5s8.33301 13.334 9 23.001s1 22.834 1 39.501v544h88z" />
    <glyph glyph-name="Kcommaaccent" unicode="&#x136;" horiz-adv-x="667" 
d="M525 700h127l-292 -288l311 -412h-125l-255 349l-112 -109v-240h-94v700h94v-347zM383 -60v-100.998c0 -17.333 -3.33301 -32 -10 -44s-15 -21.667 -25 -29s-20.833 -13 -32.5 -17s-22.167 -7 -31.5 -9v55c14 1.33301 25.833 6.16602 35.5 14.499
s14.5 18.166 14.5 29.499v11h-50v90h99z" />
    <glyph glyph-name="kcommaaccent" unicode="&#x137;" horiz-adv-x="523" 
d="M402 508h105l-200 -196l220 -312h-102l-179 258l-86 -85v-173h-88v700h88v-434zM331 -60v-100.998c0 -17.333 -3.33301 -32 -10 -44s-15 -21.667 -25 -29s-20.833 -13 -32.5 -17s-22.167 -7 -31.5 -9v55c14 1.33301 25.833 6.16602 35.5 14.499s14.5 18.166 14.5 29.499
v11h-50v90h99z" />
    <glyph glyph-name="Lacute" unicode="&#x139;" horiz-adv-x="529" 
d="M535 0h-450v700h94v-621h356v-79zM383 900l-102 -140h-84l74 140h112z" />
    <glyph glyph-name="lacute" unicode="&#x13a;" horiz-adv-x="232" 
d="M160 700v-700h-88v700h88zM252 883l-96 -132h-80l70 132h106z" />
    <glyph glyph-name="Lcommaaccent" unicode="&#x13b;" horiz-adv-x="529" 
d="M535 0h-450v700h94v-621h356v-79zM314 -60v-100.998c0 -17.333 -3.33301 -32 -10 -44s-15 -21.667 -25 -29s-20.833 -13 -32.5 -17s-22.167 -7 -31.5 -9v55c14 1.33301 25.833 6.16602 35.5 14.499s14.5 18.166 14.5 29.499v11h-50v90h99z" />
    <glyph glyph-name="lcommaaccent" unicode="&#x13c;" horiz-adv-x="232" 
d="M160 700v-700h-88v700h88zM165 -60v-100.998c0 -17.333 -3.33301 -32 -10 -44s-15 -21.667 -25 -29s-20.833 -13 -32.5 -17s-22.167 -7 -31.5 -9v55c14 1.33301 25.833 6.16602 35.5 14.499s14.5 18.166 14.5 29.499v11h-50v90h99z" />
    <glyph glyph-name="Lcaron" unicode="&#x13d;" horiz-adv-x="529" 
d="M535 0h-450v700h94v-621h356v-79zM516 700v-139.998c0 -20 -3.33301 -37 -10 -51s-15 -25.5 -25 -34.5s-20.667 -16 -32 -21s-22 -8.5 -32 -10.5v55c14 1.33301 25.833 8.16602 35.5 20.499s14.5 26.166 14.5 41.499v31h-50v109h99z" />
    <glyph glyph-name="lcaron" unicode="&#x13e;" horiz-adv-x="319" 
d="M160 700v-700h-88v700h88zM328 700v-139.998c0 -20 -3.33301 -37 -10 -51s-15 -25.5 -25 -34.5s-20.667 -16 -32 -21s-22 -8.5 -32 -10.5v55c14 1.33301 25.833 8.16602 35.5 20.499s14.5 26.166 14.5 41.499v31h-50v109h99z" />
    <glyph glyph-name="Lslash" unicode="&#x141;" horiz-adv-x="531" 
d="M537 0h-450v194l-77 -76v84l77 76v422h94v-348l200 200v-84l-200 -200v-189h356v-79z" />
    <glyph glyph-name="lslash" unicode="&#x142;" horiz-adv-x="294" 
d="M191 700v-247l123 85v-70l-123 -85v-383h-88v331l-123 -84v70l123 84v299h88z" />
    <glyph glyph-name="Nacute" unicode="&#x143;" horiz-adv-x="740" 
d="M179 0h-94v700h104l372 -555v555h94v-700h-103l-373 555v-555zM489 900l-102 -140h-84l74 140h112z" />
    <glyph glyph-name="nacute" unicode="&#x144;" horiz-adv-x="573" 
d="M160 508l0.000976562 -71.001c17.333 25.333 40.666 46.833 69.999 64.5s64 26.5 104 26.5c33.333 0 60.833 -5.16699 82.5 -15.5s38.667 -24.166 51 -41.499s21 -37.5 26 -60.5s7.5 -47.167 7.5 -72.5v-338h-88v311c0 13.333 -0.5 29 -1.5 47s-4.66699 35 -11 51
s-16.833 29.5 -31.5 40.5s-35.667 16.5 -63 16.5c-12 0 -26.333 -2 -43 -6s-32.667 -12.5 -48 -25.5s-28.333 -32 -39 -57s-16 -58.5 -16 -100.5v-277h-88v508h88zM400.001 699.999l-96 -132h-80l70 132h106z" />
    <glyph glyph-name="Ncommaaccent" unicode="&#x145;" horiz-adv-x="740" 
d="M179 0h-94v700h104l372 -555v555h94v-700h-103l-373 555v-555zM419 -60v-100.998c0 -17.333 -3.33301 -32 -10 -44s-15 -21.667 -25 -29s-20.833 -13 -32.5 -17s-22.167 -7 -31.5 -9v55c14 1.33301 25.833 6.16602 35.5 14.499s14.5 18.166 14.5 29.499v11h-50v90h99z
" />
    <glyph glyph-name="ncommaaccent" unicode="&#x146;" horiz-adv-x="573" 
d="M160 508l0.000976562 -71.001c17.333 25.333 40.666 46.833 69.999 64.5s64 26.5 104 26.5c33.333 0 60.833 -5.16699 82.5 -15.5s38.667 -24.166 51 -41.499s21 -37.5 26 -60.5s7.5 -47.167 7.5 -72.5v-338h-88v311c0 13.333 -0.5 29 -1.5 47s-4.66699 35 -11 51
s-16.833 29.5 -31.5 40.5s-35.667 16.5 -63 16.5c-12 0 -26.333 -2 -43 -6s-32.667 -12.5 -48 -25.5s-28.333 -32 -39 -57s-16 -58.5 -16 -100.5v-277h-88v508h88zM336.001 -60.001v-100.998c0 -17.333 -3.33301 -32 -10 -44s-15 -21.667 -25 -29s-20.833 -13 -32.5 -17
s-22.167 -7 -31.5 -9v55c14 1.33301 25.833 6.16602 35.5 14.499s14.5 18.166 14.5 29.499v11h-50v90h99z" />
    <glyph glyph-name="Ncaron" unicode="&#x147;" horiz-adv-x="740" 
d="M179 0h-94v700h104l372 -555v555h94v-700h-103l-373 555v-555zM299 760l-125 140h94l102 -105l102 105h94l-125 -140h-142z" />
    <glyph glyph-name="ncaron" unicode="&#x148;" horiz-adv-x="573" 
d="M160 508l0.000976562 -71.001c17.333 25.333 40.666 46.833 69.999 64.5s64 26.5 104 26.5c33.333 0 60.833 -5.16699 82.5 -15.5s38.667 -24.166 51 -41.499s21 -37.5 26 -60.5s7.5 -47.167 7.5 -72.5v-338h-88v311c0 13.333 -0.5 29 -1.5 47s-4.66699 35 -11 51
s-16.833 29.5 -31.5 40.5s-35.667 16.5 -63 16.5c-12 0 -26.333 -2 -43 -6s-32.667 -12.5 -48 -25.5s-28.333 -32 -39 -57s-16 -58.5 -16 -100.5v-277h-88v508h88zM220.001 567.999l-119 132h88l97 -99l97 99h88l-119 -132h-132z" />
    <glyph glyph-name="Omacron" unicode="&#x14c;" horiz-adv-x="758" 
d="M145 350c0 -28 2.8291 -58.9971 8.49609 -92.9971s16.834 -65.833 33.501 -95.5s40.334 -54.334 71.001 -74.001s71 -29.5 121 -29.5c8 0 19.333 0.666992 34 2s30.667 5 48 11s35 15.167 53 27.5s34.333 29.166 49 50.499s26.667 48.333 36 81s14 72.667 14 120
c0 41.333 -4.66699 79.833 -14 115.5s-23.5 66.5 -42.5 92.5s-43.333 46.5 -73 61.5s-64.5 22.5 -104.5 22.5c-35.333 0 -65.833 -5.5 -91.5 -16.5s-47.167 -25.167 -64.5 -42.5s-31.166 -36.833 -41.499 -58.5s-18.166 -43.334 -23.499 -65.001
s-8.83301 -42.167 -10.5 -61.5s-2.5 -35.333 -2.5 -48zM44.9961 350.003c0 61.333 8.33301 115.166 25 161.499s39.667 85 69 116s64.5 54.333 105.5 70s85.833 23.5 134.5 23.5c38.667 0 77.834 -6 117.501 -18s75.5 -32.167 107.5 -60.5s58.167 -66.333 78.5 -114
s30.5 -107.167 30.5 -178.5c0 -60.667 -7.33301 -112.167 -22 -154.5s-33.167 -77.166 -55.5 -104.499s-46.833 -48.5 -73.5 -63.5s-52.334 -26.167 -77.001 -33.5s-46.667 -11.666 -66 -12.999s-32.666 -2 -39.999 -2s-20.833 0.666992 -40.5 2
s-41.834 5.66602 -66.501 12.999s-50.334 18.5 -77.001 33.5s-51.167 36.167 -73.5 63.5s-40.666 62 -54.999 104s-21.5 93.667 -21.5 155zM220.996 832.003h316v-60h-158h-158v60z" />
    <glyph glyph-name="omacron" unicode="&#x14d;" horiz-adv-x="586" 
d="M136 255c0 -50.667 6.33301 -90.334 19 -119.001s27.667 -50 45 -64s34.666 -22.5 51.999 -25.5s31 -4.5 41 -4.5s23.667 1.5 41 4.5s34.666 11.5 51.999 25.5s32.333 35.333 45 64s19 68.334 19 119.001s-6.33301 90.334 -19 119.001s-27.667 50 -45 64
s-34.666 22.5 -51.999 25.5s-31 4.5 -41 4.5s-23.667 -1.5 -41 -4.5s-34.666 -11.5 -51.999 -25.5s-32.333 -35.333 -45 -64s-19 -68.334 -19 -119.001zM43 254c0 34 4.33301 67.333 13 100s22.834 61.834 42.501 87.501s45.5 46.5 77.5 62.5s71 24 117 24s85 -8 117 -24
s57.833 -36.833 77.5 -62.5s33.834 -54.834 42.501 -87.501s13 -66 13 -100s-4.33301 -67.333 -13 -100s-22.834 -61.834 -42.501 -87.501s-45.5 -46.5 -77.5 -62.5s-71 -24 -117 -24s-85 8 -117 24s-57.833 36.833 -77.5 62.5s-33.834 54.834 -42.501 87.501
s-13 66 -13 100zM135 673h316v-60h-158h-158v60z" />
    <glyph glyph-name="Obreve" unicode="&#x14e;" horiz-adv-x="758" 
d="M145 350c0 -28 2.8291 -58.9971 8.49609 -92.9971s16.834 -65.833 33.501 -95.5s40.334 -54.334 71.001 -74.001s71 -29.5 121 -29.5c8 0 19.333 0.666992 34 2s30.667 5 48 11s35 15.167 53 27.5s34.333 29.166 49 50.499s26.667 48.333 36 81s14 72.667 14 120
c0 41.333 -4.66699 79.833 -14 115.5s-23.5 66.5 -42.5 92.5s-43.333 46.5 -73 61.5s-64.5 22.5 -104.5 22.5c-35.333 0 -65.833 -5.5 -91.5 -16.5s-47.167 -25.167 -64.5 -42.5s-31.166 -36.833 -41.499 -58.5s-18.166 -43.334 -23.499 -65.001
s-8.83301 -42.167 -10.5 -61.5s-2.5 -35.333 -2.5 -48zM44.9961 350.003c0 61.333 8.33301 115.166 25 161.499s39.667 85 69 116s64.5 54.333 105.5 70s85.833 23.5 134.5 23.5c38.667 0 77.834 -6 117.501 -18s75.5 -32.167 107.5 -60.5s58.167 -66.333 78.5 -114
s30.5 -107.167 30.5 -178.5c0 -60.667 -7.33301 -112.167 -22 -154.5s-33.167 -77.166 -55.5 -104.499s-46.833 -48.5 -73.5 -63.5s-52.334 -26.167 -77.001 -33.5s-46.667 -11.666 -66 -12.999s-32.666 -2 -39.999 -2s-20.833 0.666992 -40.5 2
s-41.834 5.66602 -66.501 12.999s-50.334 18.5 -77.001 33.5s-51.167 36.167 -73.5 63.5s-40.666 62 -54.999 104s-21.5 93.667 -21.5 155zM273.996 900.003c0.666992 -26 10.835 -46.499 30.502 -61.499s44.5 -22.5 74.5 -22.5s53.5 6.16699 70.5 18.5
s28.5 34.166 34.5 65.499h78c-2.66699 -14 -7.33398 -29.167 -14.001 -45.5s-17 -31.5 -31 -45.5s-32 -25.667 -54 -35s-50 -14 -84 -14s-62 4.66699 -84 14s-40 21 -54 35s-24.333 29.167 -31 45.5s-11.334 31.5 -14.001 45.5h78z" />
    <glyph glyph-name="obreve" unicode="&#x14f;" horiz-adv-x="586" 
d="M136 255c0 -50.667 6.33301 -90.334 19 -119.001s27.667 -50 45 -64s34.666 -22.5 51.999 -25.5s31 -4.5 41 -4.5s23.667 1.5 41 4.5s34.666 11.5 51.999 25.5s32.333 35.333 45 64s19 68.334 19 119.001s-6.33301 90.334 -19 119.001s-27.667 50 -45 64
s-34.666 22.5 -51.999 25.5s-31 4.5 -41 4.5s-23.667 -1.5 -41 -4.5s-34.666 -11.5 -51.999 -25.5s-32.333 -35.333 -45 -64s-19 -68.334 -19 -119.001zM43 254c0 34 4.33301 67.333 13 100s22.834 61.834 42.501 87.501s45.5 46.5 77.5 62.5s71 24 117 24s85 -8 117 -24
s57.833 -36.833 77.5 -62.5s33.834 -54.834 42.501 -87.501s13 -66 13 -100s-4.33301 -67.333 -13 -100s-22.834 -61.834 -42.501 -87.501s-45.5 -46.5 -77.5 -62.5s-71 -24 -117 -24s-85 8 -117 24s-57.833 36.833 -77.5 62.5s-33.834 54.834 -42.501 87.501
s-13 66 -13 100zM195 700c1.33301 -20 9.66992 -38.167 25.0029 -54.5s39.666 -24.5 72.999 -24.5s57.666 8.16699 72.999 24.5s23.666 34.5 24.999 54.5h74c-2 -13.333 -6.33301 -27.666 -13 -42.999s-16.667 -29.666 -30 -42.999s-30.5 -24.333 -51.5 -33
s-46.833 -13 -77.5 -13c-31.333 0 -57.333 4.33301 -78 13s-37.667 19.667 -51 33s-23.333 27.666 -30 42.999s-11 29.666 -13 42.999h74z" />
    <glyph glyph-name="Ohungarumlaut" unicode="&#x150;" horiz-adv-x="758" 
d="M145 350c0 -28 2.8291 -58.9971 8.49609 -92.9971s16.834 -65.833 33.501 -95.5s40.334 -54.334 71.001 -74.001s71 -29.5 121 -29.5c8 0 19.333 0.666992 34 2s30.667 5 48 11s35 15.167 53 27.5s34.333 29.166 49 50.499s26.667 48.333 36 81s14 72.667 14 120
c0 41.333 -4.66699 79.833 -14 115.5s-23.5 66.5 -42.5 92.5s-43.333 46.5 -73 61.5s-64.5 22.5 -104.5 22.5c-35.333 0 -65.833 -5.5 -91.5 -16.5s-47.167 -25.167 -64.5 -42.5s-31.166 -36.833 -41.499 -58.5s-18.166 -43.334 -23.499 -65.001
s-8.83301 -42.167 -10.5 -61.5s-2.5 -35.333 -2.5 -48zM44.9961 350.003c0 61.333 8.33301 115.166 25 161.499s39.667 85 69 116s64.5 54.333 105.5 70s85.833 23.5 134.5 23.5c38.667 0 77.834 -6 117.501 -18s75.5 -32.167 107.5 -60.5s58.167 -66.333 78.5 -114
s30.5 -107.167 30.5 -178.5c0 -60.667 -7.33301 -112.167 -22 -154.5s-33.167 -77.166 -55.5 -104.499s-46.833 -48.5 -73.5 -63.5s-52.334 -26.167 -77.001 -33.5s-46.667 -11.666 -66 -12.999s-32.666 -2 -39.999 -2s-20.833 0.666992 -40.5 2
s-41.834 5.66602 -66.501 12.999s-50.334 18.5 -77.001 33.5s-51.167 36.167 -73.5 63.5s-40.666 62 -54.999 104s-21.5 93.667 -21.5 155zM542.996 900.003l-96 -140h-80l70 140h106zM389.996 900.003l-96 -140h-80l70 140h106z" />
    <glyph glyph-name="ohungarumlaut" unicode="&#x151;" horiz-adv-x="586" 
d="M136 255c0 -50.667 6.33301 -90.334 19 -119.001s27.667 -50 45 -64s34.666 -22.5 51.999 -25.5s31 -4.5 41 -4.5s23.667 1.5 41 4.5s34.666 11.5 51.999 25.5s32.333 35.333 45 64s19 68.334 19 119.001s-6.33301 90.334 -19 119.001s-27.667 50 -45 64
s-34.666 22.5 -51.999 25.5s-31 4.5 -41 4.5s-23.667 -1.5 -41 -4.5s-34.666 -11.5 -51.999 -25.5s-32.333 -35.333 -45 -64s-19 -68.334 -19 -119.001zM43 254c0 34 4.33301 67.333 13 100s22.834 61.834 42.501 87.501s45.5 46.5 77.5 62.5s71 24 117 24s85 -8 117 -24
s57.833 -36.833 77.5 -62.5s33.834 -54.834 42.501 -87.501s13 -66 13 -100s-4.33301 -67.333 -13 -100s-22.834 -61.834 -42.501 -87.501s-45.5 -46.5 -77.5 -62.5s-71 -24 -117 -24s-85 8 -117 24s-57.833 36.833 -77.5 62.5s-33.834 54.834 -42.501 87.501
s-13 66 -13 100zM457 700l-96 -132h-80l70 132h106zM304 700l-96 -132h-80l70 132h106z" />
    <glyph glyph-name="OE" unicode="&#x152;" horiz-adv-x="1141" 
d="M379 58c8 0 19.3291 0.670898 33.9961 2.00391s30.667 5 48 11s35 15.167 53 27.5s34.333 29.166 49 50.499s26.667 48.333 36 81s14 72.667 14 120c0 43.333 -4.16699 80.666 -12.5 111.999s-19 57.833 -32 79.5s-28 39 -45 52s-34.167 23.167 -51.5 30.5
s-34.166 12.166 -50.499 14.499s-30.5 3.5 -42.5 3.5c-19.333 0 -42.333 -3 -69 -9s-52.167 -19 -76.5 -39s-45.166 -49.333 -62.499 -88s-26 -90.667 -26 -156c0 -28 2.83301 -59 8.5 -93s16.834 -65.833 33.501 -95.5s40.334 -54.334 71.001 -74.001s71 -29.5 121 -29.5z
M1112 700.004l0.000976562 -78.999h-405v-220h367v-79h-367v-243h417v-79h-511v84c-8 -11.333 -18.333 -23 -31 -35s-28.334 -23.333 -47.001 -34s-40.834 -19.334 -66.501 -26.001s-55.5 -10 -89.5 -10c-58.667 0 -109.167 10 -151.5 30s-77 46.833 -104 80.5
s-46.833 73 -59.5 118s-19 92.5 -19 142.5c0 46 5.5 91.333 16.5 136s29.333 84.334 55 119.001s59.834 62.667 102.501 84s95.667 32 159 32c14.667 0 32.167 -1 52.5 -3s41.333 -6.83301 63 -14.5s43 -19.334 64 -35.001s39.5 -37.167 55.5 -64.5v96h499z" />
    <glyph glyph-name="oe" unicode="&#x153;" horiz-adv-x="972" 
d="M836 297c-3.33301 28 -8.00195 52.5 -14.002 73.5s-14.5 38.667 -25.5 53s-25 25 -42 32s-37.5 10.5 -61.5 10.5c-32 0 -58.167 -5.83301 -78.5 -17.5s-36.166 -26 -47.499 -43s-19.166 -35.333 -23.499 -55s-6.83301 -37.5 -7.5 -53.5h300zM135.998 256
c0 -34 2.99707 -62.834 8.99707 -86.501s13.667 -43.5 23 -59.5s19.833 -28.5 31.5 -37.5s23.334 -15.833 35.001 -20.5s22.5 -7.5 32.5 -8.5s18.333 -1.5 25 -1.5c34 0 61.167 7.5 81.5 22.5s36 33.5 47 55.5s18.333 45.333 22 70s5.5 46.667 5.5 66
c0 18.667 -1.83301 40.167 -5.5 64.5s-11 47.333 -22 69s-26.667 39.834 -47 54.501s-47.5 22 -81.5 22c-9.33301 0 -22.666 -1.5 -39.999 -4.5s-34.666 -11.5 -51.999 -25.5s-32.333 -35 -45 -63s-19 -67 -19 -117zM923.995 147.999
c-8.66699 -36.667 -21.834 -66 -39.501 -88s-37.334 -39 -59.001 -51s-43.667 -19.833 -66 -23.5s-42.5 -5.5 -60.5 -5.5c-14 0 -30 0.666992 -48 2s-36.5 5.33301 -55.5 12s-37.5 17 -55.5 31s-34 33.667 -48 59c-12.667 -24 -27.5 -42.833 -44.5 -56.5
s-34.833 -24 -53.5 -31s-36.834 -11.5 -54.501 -13.5s-33.5 -3 -47.5 -3c-42.667 0 -79.667 7.16699 -111 21.5s-57.166 33.833 -77.499 58.5s-35.5 53.834 -45.5 87.501s-15 69.834 -15 108.501c0 13.333 0.833008 29.166 2.5 47.499s5.5 37.666 11.5 57.999
s14.5 40.333 25.5 60s25.833 37.5 44.5 53.5s41.834 28.833 69.501 38.5s60.834 14.5 99.501 14.5c12.667 0 27.5 -0.833008 44.5 -2.5s34.5 -5.66699 52.5 -12s35.5 -16.166 52.5 -29.499s32.5 -32 46.5 -56c14.667 22.667 30.667 40.667 48 54s35 23.5 53 30.5
s35.333 11.333 52 13s32 2.5 46 2.5c38 0 70.333 -5 97 -15s48.834 -23 66.501 -39s31.5 -34 41.5 -54s17.5 -39.833 22.5 -59.5s8 -38.5 9 -56.5s1.5 -32.667 1.5 -44v-25h-393c0 -22 2.83301 -44.5 8.5 -67.5s14.834 -43.833 27.501 -62.5s29.167 -33.834 49.5 -45.501
s45.166 -17.5 74.499 -17.5c22 0 41.167 3 57.5 9s30.333 14 42 24s21.167 21.333 28.5 34s12.666 25.667 15.999 39h84z" />
    <glyph glyph-name="Racute" unicode="&#x154;" horiz-adv-x="681" 
d="M179 376l209.999 0.00195312c11.333 0 24.833 1.5 40.5 4.5s30.834 9 45.501 18s27 21.667 37 38s15 38.166 15 65.499c0 22.667 -3.83301 41.667 -11.5 57s-18.167 27.666 -31.5 36.999s-29.333 15.833 -48 19.5s-39 5.5 -61 5.5h-196v-245zM84.999 700.002h310.002
c12.667 0 27.167 -0.5 43.5 -1.5s33.166 -3.66699 50.499 -8s34.166 -10.5 50.499 -18.5s31 -18.833 44 -32.5s23.5 -31 31.5 -52s12 -46.167 12 -75.5c0 -20 -2.66699 -39.5 -8 -58.5s-13.166 -36.333 -23.499 -52s-23 -29 -38 -40s-31.833 -18.5 -50.5 -22.5v-3
c23.333 -8.66699 41.666 -19 54.999 -31s23.333 -25.167 30 -39.5s10.834 -29.833 12.501 -46.5s2.83398 -34 3.50098 -52c0.666992 -24 1.16699 -44.333 1.5 -61s1.16602 -31.167 2.49902 -43.5s3.83301 -23.333 7.5 -33s9.16699 -19.5 16.5 -29.5h-99
c-6 8 -10.833 15.833 -14.5 23.5s-6.16699 17 -7.5 28s-2.33301 24.167 -3 39.5s-1 34.333 -1 57c0 18 -1 35.833 -3 53.5s-7.33301 33.667 -16 48s-21.834 25.833 -39.501 34.5s-42.167 13 -73.5 13h-200v-297h-94v700zM459.001 900.002l-102 -140h-84l74 140h112z" />
    <glyph glyph-name="racute" unicode="&#x155;" horiz-adv-x="369" 
d="M356 466c-30 -1.33301 -56.5 -5.33301 -79.5 -12s-42.667 -17 -59 -31s-29.333 -32 -39 -54s-15.5 -49 -17.5 -81c-0.666992 -9.33301 -1 -18.333 -1 -27v-27v-234h-88v508h88v-98h2c6 18.667 14.833 35.167 26.5 49.5s25 26.333 40 36s31.167 17.167 48.5 22.5
s35 8.33301 53 9l26 1v-62zM298 700l-96 -132h-80l70 132h106z" />
    <glyph glyph-name="Rcommaaccent" unicode="&#x156;" horiz-adv-x="681" 
d="M179 376l209.999 0.00195312c11.333 0 24.833 1.5 40.5 4.5s30.834 9 45.501 18s27 21.667 37 38s15 38.166 15 65.499c0 22.667 -3.83301 41.667 -11.5 57s-18.167 27.666 -31.5 36.999s-29.333 15.833 -48 19.5s-39 5.5 -61 5.5h-196v-245zM84.999 700.002h310.002
c12.667 0 27.167 -0.5 43.5 -1.5s33.166 -3.66699 50.499 -8s34.166 -10.5 50.499 -18.5s31 -18.833 44 -32.5s23.5 -31 31.5 -52s12 -46.167 12 -75.5c0 -20 -2.66699 -39.5 -8 -58.5s-13.166 -36.333 -23.499 -52s-23 -29 -38 -40s-31.833 -18.5 -50.5 -22.5v-3
c23.333 -8.66699 41.666 -19 54.999 -31s23.333 -25.167 30 -39.5s10.834 -29.833 12.501 -46.5s2.83398 -34 3.50098 -52c0.666992 -24 1.16699 -44.333 1.5 -61s1.16602 -31.167 2.49902 -43.5s3.83301 -23.333 7.5 -33s9.16699 -19.5 16.5 -29.5h-99
c-6 8 -10.833 15.833 -14.5 23.5s-6.16699 17 -7.5 28s-2.33301 24.167 -3 39.5s-1 34.333 -1 57c0 18 -1 35.833 -3 53.5s-7.33301 33.667 -16 48s-21.834 25.833 -39.501 34.5s-42.167 13 -73.5 13h-200v-297h-94v700zM390.001 -59.998v-100.998
c0 -17.333 -3.33301 -32 -10 -44s-15 -21.667 -25 -29s-20.833 -13 -32.5 -17s-22.167 -7 -31.5 -9v55c14 1.33301 25.833 6.16602 35.5 14.499s14.5 18.166 14.5 29.499v11h-50v90h99z" />
    <glyph glyph-name="rcommaaccent" unicode="&#x157;" horiz-adv-x="369" 
d="M356 466c-30 -1.33301 -56.5 -5.33301 -79.5 -12s-42.667 -17 -59 -31s-29.333 -32 -39 -54s-15.5 -49 -17.5 -81c-0.666992 -9.33301 -1 -18.333 -1 -27v-27v-234h-88v508h88v-98h2c6 18.667 14.833 35.167 26.5 49.5s25 26.333 40 36s31.167 17.167 48.5 22.5
s35 8.33301 53 9l26 1v-62zM234 -60v-100.998c0 -17.333 -3.33301 -32 -10 -44s-15 -21.667 -25 -29s-20.833 -13 -32.5 -17s-22.167 -7 -31.5 -9v55c14 1.33301 25.833 6.16602 35.5 14.499s14.5 18.166 14.5 29.499v11h-50v90h99z" />
    <glyph glyph-name="Rcaron" unicode="&#x158;" horiz-adv-x="681" 
d="M179 376l209.999 0.00195312c11.333 0 24.833 1.5 40.5 4.5s30.834 9 45.501 18s27 21.667 37 38s15 38.166 15 65.499c0 22.667 -3.83301 41.667 -11.5 57s-18.167 27.666 -31.5 36.999s-29.333 15.833 -48 19.5s-39 5.5 -61 5.5h-196v-245zM84.999 700.002h310.002
c12.667 0 27.167 -0.5 43.5 -1.5s33.166 -3.66699 50.499 -8s34.166 -10.5 50.499 -18.5s31 -18.833 44 -32.5s23.5 -31 31.5 -52s12 -46.167 12 -75.5c0 -20 -2.66699 -39.5 -8 -58.5s-13.166 -36.333 -23.499 -52s-23 -29 -38 -40s-31.833 -18.5 -50.5 -22.5v-3
c23.333 -8.66699 41.666 -19 54.999 -31s23.333 -25.167 30 -39.5s10.834 -29.833 12.501 -46.5s2.83398 -34 3.50098 -52c0.666992 -24 1.16699 -44.333 1.5 -61s1.16602 -31.167 2.49902 -43.5s3.83301 -23.333 7.5 -33s9.16699 -19.5 16.5 -29.5h-99
c-6 8 -10.833 15.833 -14.5 23.5s-6.16699 17 -7.5 28s-2.33301 24.167 -3 39.5s-1 34.333 -1 57c0 18 -1 35.833 -3 53.5s-7.33301 33.667 -16 48s-21.834 25.833 -39.501 34.5s-42.167 13 -73.5 13h-200v-297h-94v700zM269.001 760.002l-125 140h94l102 -105l102 105h94
l-125 -140h-142z" />
    <glyph glyph-name="rcaron" unicode="&#x159;" horiz-adv-x="369" 
d="M356 466c-30 -1.33301 -56.5 -5.33301 -79.5 -12s-42.667 -17 -59 -31s-29.333 -32 -39 -54s-15.5 -49 -17.5 -81c-0.666992 -9.33301 -1 -18.333 -1 -27v-27v-234h-88v508h88v-98h2c6 18.667 14.833 35.167 26.5 49.5s25 26.333 40 36s31.167 17.167 48.5 22.5
s35 8.33301 53 9l26 1v-62zM121 568l-119 132h88l97 -99l97 99h88l-119 -132h-132z" />
    <glyph glyph-name="Sacute" unicode="&#x15a;" horiz-adv-x="656" 
d="M139 222c-0.666992 -23.333 3.3291 -44.9951 11.9961 -64.9951s21.667 -37.333 39 -52s38.5 -26.167 63.5 -34.5s53.5 -12.5 85.5 -12.5c31.333 0 57.833 3.66699 79.5 11s39.334 17 53.001 29s23.667 25.833 30 41.5s9.5 31.834 9.5 48.501
c0 21.333 -4.33301 39.166 -13 53.499s-19.667 26 -33 35s-28.5 16.167 -45.5 21.5s-33.5 9.66602 -49.5 12.999l-114.5 24.5c-36.333 7.66699 -68.333 18.5 -96 32.5s-49.667 32.833 -66 56.5s-24.5 55.5 -24.5 95.5c0 32.667 6.33301 61.667 19 87s30.667 46.333 54 63
s51.333 29.334 84 38.001s68.667 13 108 13c43.333 0 80.833 -5.5 112.5 -16.5s58 -25.833 79 -44.5s37 -40.334 48 -65.001s17.5 -50.334 19.5 -77.001h-94c-3.33301 28.667 -11.833 51.334 -25.5 68.001s-29.167 29.167 -46.5 37.5s-35 13.5 -53 15.5s-32.333 3 -43 3
c-48.667 0 -87.834 -10.5 -117.501 -31.5s-44.5 -49.5 -44.5 -85.5c0 -21.333 4.83301 -38.5 14.5 -51.5s22.5 -23.667 38.5 -32s34.5 -14.833 55.5 -19.5s43.167 -9.33398 66.5 -14.001c31.333 -6 62.833 -12.833 94.5 -20.5s60.334 -19.167 86.001 -34.5
s46.5 -35.833 62.5 -61.5s24 -59.5 24 -101.5c0 -34.667 -5.5 -64 -16.5 -88s-25.167 -43.833 -42.5 -59.5s-36.666 -27.834 -57.999 -36.501s-42.166 -15 -62.499 -19s-39.333 -6.33301 -57 -7s-31.167 -1 -40.5 -1c-24.667 0 -53.167 2.33301 -85.5 7
s-63.166 15.167 -92.499 31.5s-54.5 40.666 -75.5 72.999s-32.833 76.166 -35.5 131.499h94zM446.996 900.005l-102 -140h-84l74 140h112z" />
    <glyph glyph-name="sacute" unicode="&#x15b;" horiz-adv-x="506" 
d="M124 151c0.666992 -20 4.99902 -37.001 12.999 -51.001s18.5 -25.333 31.5 -34s27.667 -14.834 44 -18.501s32.833 -5.5 49.5 -5.5c29.333 0 52 4 68 12s27.667 17.333 35 28s11.5 21.334 12.5 32.001s1.5 18.667 1.5 24c0 8 -0.833008 15.833 -2.5 23.5
s-6.16699 15 -13.5 22s-18.166 13.667 -32.499 20s-33.833 12.5 -58.5 18.5l-54 12c-21.333 4.66699 -41.666 10 -60.999 16s-36.333 14.333 -51 25s-26.334 24.5 -35.001 41.5s-13 38.833 -13 65.5c0 28 5.66699 51.5 17 70.5s26.333 34 45 45s39.334 18.833 62.001 23.5
s45.667 7 69 7c43.333 0 78.166 -5.33301 104.499 -16s46.833 -23.834 61.5 -39.501s24.667 -32.334 30 -50.001s8.66602 -33.5 9.99902 -47.5h-84c-0.666992 7.33301 -2.5 16.166 -5.5 26.499s-8.66699 20.333 -17 30s-20.166 17.834 -35.499 24.501s-35.666 10 -60.999 10
c-2.66699 0 -9.66699 -0.333008 -21 -1s-23.166 -3.5 -35.499 -8.5s-23.5 -13 -33.5 -24s-15 -26.5 -15 -46.5c0 -18 3.83301 -32.333 11.5 -43s18 -19 31 -25s28 -10.833 45 -14.5l52.5 -11.5c26 -6 50 -12.167 72 -18.5s41.167 -14.666 57.5 -24.999s29 -23.833 38 -40.5
s13.5 -38 13.5 -64c0 -26.667 -4.66699 -49.167 -14 -67.5s-21 -33.666 -35 -45.999s-29.5 -21.833 -46.5 -28.5s-33.333 -11.667 -49 -15s-29.334 -5.33301 -41.001 -6s-19.5 -1 -23.5 -1c-38 0 -70.833 4.5 -98.5 13.5s-50.834 21.333 -69.501 37
s-32.667 33.834 -42 54.501s-14.333 42.667 -15 66h88zM366.999 699.999l-96 -132h-80l70 132h106z" />
    <glyph glyph-name="Scircumflex" unicode="&#x15c;" horiz-adv-x="656" 
d="M139 222c-0.666992 -23.333 3.3291 -44.9951 11.9961 -64.9951s21.667 -37.333 39 -52s38.5 -26.167 63.5 -34.5s53.5 -12.5 85.5 -12.5c31.333 0 57.833 3.66699 79.5 11s39.334 17 53.001 29s23.667 25.833 30 41.5s9.5 31.834 9.5 48.501
c0 21.333 -4.33301 39.166 -13 53.499s-19.667 26 -33 35s-28.5 16.167 -45.5 21.5s-33.5 9.66602 -49.5 12.999l-114.5 24.5c-36.333 7.66699 -68.333 18.5 -96 32.5s-49.667 32.833 -66 56.5s-24.5 55.5 -24.5 95.5c0 32.667 6.33301 61.667 19 87s30.667 46.333 54 63
s51.333 29.334 84 38.001s68.667 13 108 13c43.333 0 80.833 -5.5 112.5 -16.5s58 -25.833 79 -44.5s37 -40.334 48 -65.001s17.5 -50.334 19.5 -77.001h-94c-3.33301 28.667 -11.833 51.334 -25.5 68.001s-29.167 29.167 -46.5 37.5s-35 13.5 -53 15.5s-32.333 3 -43 3
c-48.667 0 -87.834 -10.5 -117.501 -31.5s-44.5 -49.5 -44.5 -85.5c0 -21.333 4.83301 -38.5 14.5 -51.5s22.5 -23.667 38.5 -32s34.5 -14.833 55.5 -19.5s43.167 -9.33398 66.5 -14.001c31.333 -6 62.833 -12.833 94.5 -20.5s60.334 -19.167 86.001 -34.5
s46.5 -35.833 62.5 -61.5s24 -59.5 24 -101.5c0 -34.667 -5.5 -64 -16.5 -88s-25.167 -43.833 -42.5 -59.5s-36.666 -27.834 -57.999 -36.501s-42.166 -15 -62.499 -19s-39.333 -6.33301 -57 -7s-31.167 -1 -40.5 -1c-24.667 0 -53.167 2.33301 -85.5 7
s-63.166 15.167 -92.499 31.5s-54.5 40.666 -75.5 72.999s-32.833 76.166 -35.5 131.499h94zM256.996 900.005h142l125 -140h-94l-102 105l-102 -105h-94z" />
    <glyph glyph-name="scircumflex" unicode="&#x15d;" horiz-adv-x="506" 
d="M124 151c0.666992 -20 4.99902 -37.001 12.999 -51.001s18.5 -25.333 31.5 -34s27.667 -14.834 44 -18.501s32.833 -5.5 49.5 -5.5c29.333 0 52 4 68 12s27.667 17.333 35 28s11.5 21.334 12.5 32.001s1.5 18.667 1.5 24c0 8 -0.833008 15.833 -2.5 23.5
s-6.16699 15 -13.5 22s-18.166 13.667 -32.499 20s-33.833 12.5 -58.5 18.5l-54 12c-21.333 4.66699 -41.666 10 -60.999 16s-36.333 14.333 -51 25s-26.334 24.5 -35.001 41.5s-13 38.833 -13 65.5c0 28 5.66699 51.5 17 70.5s26.333 34 45 45s39.334 18.833 62.001 23.5
s45.667 7 69 7c43.333 0 78.166 -5.33301 104.499 -16s46.833 -23.834 61.5 -39.501s24.667 -32.334 30 -50.001s8.66602 -33.5 9.99902 -47.5h-84c-0.666992 7.33301 -2.5 16.166 -5.5 26.499s-8.66699 20.333 -17 30s-20.166 17.834 -35.499 24.501s-35.666 10 -60.999 10
c-2.66699 0 -9.66699 -0.333008 -21 -1s-23.166 -3.5 -35.499 -8.5s-23.5 -13 -33.5 -24s-15 -26.5 -15 -46.5c0 -18 3.83301 -32.333 11.5 -43s18 -19 31 -25s28 -10.833 45 -14.5l52.5 -11.5c26 -6 50 -12.167 72 -18.5s41.167 -14.666 57.5 -24.999s29 -23.833 38 -40.5
s13.5 -38 13.5 -64c0 -26.667 -4.66699 -49.167 -14 -67.5s-21 -33.666 -35 -45.999s-29.5 -21.833 -46.5 -28.5s-33.333 -11.667 -49 -15s-29.334 -5.33301 -41.001 -6s-19.5 -1 -23.5 -1c-38 0 -70.833 4.5 -98.5 13.5s-50.834 21.333 -69.501 37
s-32.667 33.834 -42 54.501s-14.333 42.667 -15 66h88zM186.999 699.999h132l119 -132h-88l-97 99l-97 -99h-88z" />
    </font>
</defs>
</svg>
