<?xml version="1.0" standalone="no"?>
<!DOCTYPE svg PUBLIC "-//W3C//DTD SVG 1.1//EN" "http://www.w3.org/Graphics/SVG/1.1/DTD/svg11.dtd" >
<svg>
<metadata>
Created by FontForge 20090914 at Thu Mar 31 15:13:41 2016
 By www-data
Copyright &#194;&#169; 2007 ParaType, Inc. All rights reserved.
</metadata>
<defs>
<font id="PragmaticaCondensed-Black" horiz-adv-x="614" >
  <font-face 
    font-family="Pragmatica Condensed"
    font-weight="900"
    font-stretch="condensed"
    units-per-em="1000"
    panose-1="2 11 9 6 4 5 2 2 2 4"
    ascent="800"
    descent="-200"
    x-height="508"
    cap-height="700"
    bbox="-420 -352.006 1189 984"
    underline-thickness="50"
    underline-position="-50"
    unicode-range="U+0020-U+FB02"
  />
<missing-glyph horiz-adv-x="500" 
d="M442 8v496h-384v-496h384zM50 512h400v-512h-400v512z" />
    <glyph glyph-name="afii10017.var.accented" unicode="&#x410;`" horiz-adv-x="653" 
d="M200 0h-203l233 700h193l233 -700h-203l-29 99h-195zM387 243l-61 215l-60 -215h121zM482 908l-105 -142h-132l60 142h177z" />
    <glyph glyph-name="afii10022.var.accented" unicode="&#x415;`" horiz-adv-x="649" 
d="M554 436v-165h-277v-86h331v-185h-531v700h523v-185h-323v-79h277zM480 908l-105 -142h-132l60 142h177z" />
    <glyph glyph-name="afii10026.var.accented" unicode="&#x418;`" horiz-adv-x="725" 
d="M453 700h195v-700h-195v379l-181 -379h-195v700h195v-375zM518 908l-105 -142h-132l60 142h177z" />
    <glyph glyph-name="afii10032.var.accented" unicode="&#x41e;`" horiz-adv-x="748" 
d="M42 349c0 64.667 8.83203 119.33 26.499 163.997s38.5 81 62.5 109c18.667 21.333 38 38.333 58 51s40.333 22.5 61 29.5s41.167 11.667 61.5 14s40.166 3.5 59.499 3.5c21.333 0 43 -1.33301 65 -4s43.833 -7.5 65.5 -14.5s42.667 -17 63 -30s39.5 -29.833 57.5 -50.5
c18 -20 32.5 -41.5 43.5 -64.5s19.5 -46.167 25.5 -69.5s10 -46.166 12 -68.499s3 -43.5 3 -63.5c0 -17.333 -0.833008 -37.166 -2.5 -59.499s-5.33398 -45.666 -11.001 -69.999s-14 -48.833 -25 -73.5s-25.5 -48 -43.5 -70c-18.667 -22 -38.167 -39.5 -58.5 -52.5
s-41.166 -23 -62.499 -30s-42.666 -11.667 -63.999 -14s-42 -3.5 -62 -3.5c-21.333 0 -43 1.16699 -65 3.5s-44 7.16602 -66 14.499s-43.333 17.666 -64 30.999s-40.334 31 -59.001 53c-7.33301 8.66699 -15.666 20.334 -24.999 35.001s-18.166 32.834 -26.499 54.501
s-15.333 47 -21 76s-8.5 62.167 -8.5 99.5zM254.999 350.996c0 -27.333 2.33008 -54 6.99707 -80s15 -48.667 31 -68c11.333 -13.333 23.5 -22.833 36.5 -28.5s27.833 -8.5 44.5 -8.5c16 0 30.833 2.5 44.5 7.5s26.167 14.833 37.5 29.5c10 13.333 18.667 31.833 26 55.5
s11 54.5 11 92.5c0 26.667 -2 53 -6 79s-14.333 49 -31 69c-9.33301 11.333 -20.166 20.333 -32.499 27s-27.5 10 -45.5 10c-16 0 -31.167 -2.66699 -45.5 -8s-27.166 -15 -38.499 -29c-15.333 -18.667 -25.666 -41.5 -30.999 -68.5s-8 -53.5 -8 -79.5zM528.996 907.996
l-105 -142h-132l60 142h177z" />
    <glyph glyph-name="afii10037.var.accented" unicode="&#x423;`" horiz-adv-x="594" 
d="M398 700h208l-197 -535c-8 -22.667 -18.5 -46.167 -31.5 -70.5s-29.5 -45.166 -49.5 -62.499c-12 -10 -23.667 -17.833 -35 -23.5s-22.5 -9.83398 -33.5 -12.501s-21.833 -4.16699 -32.5 -4.5s-20.667 -0.5 -30 -0.5c-22.667 0 -43.167 1 -61.5 3
s-39.166 7.33301 -62.499 16v174c6 -3.33301 14.667 -6.83301 26 -10.5s24.666 -5.5 39.999 -5.5c17.333 0 32.333 4 45 12s21.667 20.333 27 37l-211 483h218l99 -306zM452 908l-105 -142h-132l60 142h177z" />
    <glyph glyph-name="afii10045.var.accented" unicode="&#x42b;`" horiz-adv-x="960" 
d="M883 700v-700h-200v700h200zM277 463l120.002 -0.000976562c14 0 29.167 -0.833008 45.5 -2.5s33 -5 50 -10s33.667 -12.167 50 -21.5s31.166 -21.333 44.499 -36c15.333 -17.333 28.166 -39.666 38.499 -66.999s15.5 -59.333 15.5 -96c0 -30 -4.33301 -60.833 -13 -92.5
s-22.667 -57.5 -42 -77.5c-13.333 -14.667 -28.5 -26 -45.5 -34s-34 -14 -51 -18s-33.5 -6.33301 -49.5 -7s-30 -1 -42 -1h-321v700h200v-237zM276.002 171.999l93 0.000976562c24 0 42 6 54 18c4 4 7.5 9.66699 10.5 17s4.5 17 4.5 29c0 6 -1.16699 13.333 -3.5 22
s-7.5 16.667 -15.5 24c-6 5.33301 -13.5 9.16602 -22.5 11.499s-18.167 3.5 -27.5 3.5h-93v-125zM635.002 908l-105 -142h-132l60 142h177z" />
    <glyph glyph-name="afii10047.var.accented" unicode="&#x42d;`" horiz-adv-x="731" 
d="M40 455c3.33301 40 12.8369 74.8271 28.5039 104.494s32.167 53.5 49.5 71.5s35.833 32.833 55.5 44.5s39.834 20.834 60.501 27.501s41.667 11.167 63 13.5s42.666 3.5 63.999 3.5c18.667 0 38.667 -1 60 -3s42.666 -6.33301 63.999 -13s42.5 -16.167 63.5 -28.5
s40.833 -28.833 59.5 -49.5c17.333 -19.333 31.333 -40.333 42 -63s18.834 -45.5 24.501 -68.5s9.5 -45.667 11.5 -68s3 -43.5 3 -63.5c0 -17.333 -0.833008 -37.666 -2.5 -60.999s-5.33398 -48 -11.001 -74s-14.167 -52 -25.5 -78s-26.666 -50 -45.999 -72
c-20 -22 -41.167 -39.5 -63.5 -52.5s-44.833 -22.667 -67.5 -29s-44.334 -10.333 -65.001 -12s-39.334 -2.5 -56.001 -2.5c-18.667 0 -38.834 1 -60.501 3s-43.5 6 -65.5 12s-43.5 14.833 -64.5 26.5s-40.167 27.167 -57.5 46.5c-19.333 21.333 -35.333 48 -48 80
s-20.667 64.333 -24 97h201c1.33301 -12 4.5 -24.833 9.5 -38.5s12.167 -25.834 21.5 -36.501c7.33301 -8.66699 18.166 -16.667 32.499 -24s32.833 -11 55.5 -11c22 0 40 3.5 54 10.5s24.667 14.167 32 21.5c12 12.667 21.333 29.834 28 51.501s10 42.167 10 61.5h-197v141
h194c1.33301 19.333 -1.33398 37.833 -8.00098 55.5s-14.667 31.834 -24 42.501c-10.667 11.333 -24 20 -40 26s-32 9 -48 9c-13.333 0 -26.666 -2.16699 -39.999 -6.5s-25.333 -11.166 -36 -20.499c-9.33301 -7.33301 -17.5 -17.166 -24.5 -29.499
s-11.5 -27.166 -13.5 -44.499h-199zM525.004 907.994l-105 -142h-132l60 142h177z" />
    <glyph glyph-name="afii10048.var.accented" unicode="&#x42e;`" horiz-adv-x="1045" 
d="M277 277l0.000976562 -276.999h-200v700h200v-245h76c5.33301 31.333 14.333 61.166 27 89.499s28.667 53.5 48 75.5c18 20.667 36.833 37.5 56.5 50.5s40 23.167 61 30.5s42.167 12.333 63.5 15s42.333 4 63 4c19.333 0 39.666 -1.33301 60.999 -4
s42.833 -7.66699 64.5 -15s42.834 -17.666 63.501 -30.999s40 -30.333 58 -51c7.33301 -8 15.833 -19.333 25.5 -34s18.834 -32.667 27.501 -54s16 -46.5 22 -75.5s9 -61.833 9 -98.5c0 -54 -7.83301 -105.5 -23.5 -154.5s-38.5 -90.5 -68.5 -124.5
c-18.667 -21.333 -38.334 -38.333 -59.001 -51s-41.667 -22.334 -63 -29.001s-42.5 -11 -63.5 -13s-41.167 -3 -60.5 -3c-18.667 0 -38.167 0.833008 -58.5 2.5s-40.5 5.5 -60.5 11.5s-39.833 14.5 -59.5 25.5s-38.167 25.833 -55.5 44.5
c-24.667 26 -44.334 57.833 -59.001 95.5s-23 76.167 -25 115.5h-70zM551.001 350.001c0 -10 0.498047 -21.3311 1.49805 -33.998s2.83301 -25.667 5.5 -39s6.66699 -26.5 12 -39.5s12.333 -24.833 21 -35.5c11.333 -13.333 23.5 -22.833 36.5 -28.5s27.5 -8.5 43.5 -8.5
c18 0 33.333 3 46 9s24 15.333 34 28c8 10 14.667 21.667 20 35s9.33301 26.666 12 39.999s4.5 26.5 5.5 39.5s1.5 24.167 1.5 33.5c0 42.667 -4.16699 75.167 -12.5 97.5s-17.166 39.166 -26.499 50.499s-20.166 20.333 -32.499 27s-27.166 10 -44.499 10
c-15.333 0 -29.833 -2.66699 -43.5 -8s-26.167 -15 -37.5 -29c-8.66699 -10.667 -15.834 -22.5 -21.501 -35.5s-10 -26.333 -13 -40s-5 -26.667 -6 -39s-1.5 -23.5 -1.5 -33.5zM674.999 908.003l-105 -142h-132l60 142h177z" />
    <glyph glyph-name="afii10049.var.accented" unicode="&#x42f;`" horiz-adv-x="667" 
d="M378 230l-125 -229.998h-230l163 248c-28 5.33301 -50.5 14.166 -67.5 26.499s-29.167 22.166 -36.5 29.499c-22.667 23.333 -37 48.5 -43 75.5s-9 53.167 -9 78.5c0 10 0.5 22 1.5 36s3.5 28.5 7.5 43.5s9.66699 30.333 17 46s17.333 30.5 30 44.5
c14 15.333 28.833 27.833 44.5 37.5s31.667 17 48 22s32.333 8.33301 48 10s30.167 2.5 43.5 2.5h338v-700h-200v230h-30zM303 526.002c-8 0 -17.3311 -1.16699 -27.998 -3.5s-20.334 -8.16602 -29.001 -17.499c-6.66699 -7.33301 -10.834 -15 -12.501 -23
s-2.5 -15.667 -2.5 -23c0 -6.66699 0.833008 -14.834 2.5 -24.501s6.5 -18.167 14.5 -25.5c7.33301 -6.66699 16.333 -11.667 27 -15s21.667 -5 33 -5h101v137h-106zM489.002 908.002l-105 -142h-132l60 142h177z" />
    <glyph glyph-name="afii10065.var.accented" unicode="&#x430;`" horiz-adv-x="568" 
d="M47 340c1.33301 23.333 6.16699 45.3301 14.5 65.9971s18.5 38 30.5 52c12.667 14.667 26.834 26.5 42.501 35.5s31.834 15.833 48.501 20.5s33.334 7.83398 50.001 9.50098s32.667 2.5 48 2.5c12 0 25.833 -0.5 41.5 -1.5s32 -3.33301 49 -7s33.833 -9.5 50.5 -17.5
s31.667 -19 45 -33c10.667 -11.333 19.167 -23.333 25.5 -36s11 -25.334 14 -38.001s4.83301 -25.167 5.5 -37.5s1 -23.5 1 -33.5v-234c0 -15.333 0.5 -27.5 1.5 -36.5s2.83301 -16.167 5.5 -21.5c3.33301 -7.33301 7.33301 -12.666 12 -15.999
s8.66699 -5.66602 12 -6.99902v-7h-194l-11 55h-2c-14.667 -20 -33 -36.333 -55 -49c-18.667 -10.667 -37.5 -17.334 -56.5 -20.001s-35.833 -4 -50.5 -4c-18 0 -37 2.16699 -57 6.5s-38.667 15.166 -56 32.499c-16.667 16.667 -27.167 34.834 -31.5 54.501
s-6.5 38.167 -6.5 55.5c0 19.333 2.16699 37 6.5 53s13.166 31.333 26.499 46c18 20 38.167 33.667 60.5 41s42.833 12 61.5 14l59 7c21.333 2.66699 38.666 5.33398 51.999 8.00098s23.333 7.33398 30 14.001c6 6 9.66699 12.5 11 19.5s2 13.833 2 20.5
c0 7.33301 -0.5 13.833 -1.5 19.5s-4.16699 11.167 -9.5 16.5c-6.66699 7.33301 -14.5 11.5 -23.5 12.5s-16.167 1.5 -21.5 1.5c-9.33301 0 -17.833 -0.833008 -25.5 -2.5s-14.834 -6.16699 -21.501 -13.5c-5.33301 -6 -9.33301 -13.5 -12 -22.5s-3.66699 -17.5 -3 -25.5
h-168zM333.001 229.997c-11.333 -8 -21.334 -13.3301 -30.001 -15.9971s-18 -4.66699 -28 -6c-11.333 -2 -22.166 -4.33301 -32.499 -7s-19.166 -8.33398 -26.499 -17.001c-8 -8.66699 -12 -19.334 -12 -32.001c0 -7.33301 1.33301 -13.833 4 -19.5s5.66699 -10.167 9 -13.5
c5.33301 -5.33301 11 -8.83301 17 -10.5s11.667 -2.5 17 -2.5c11.333 0 21.333 1.66699 30 5s17 9.33301 25 18c13.333 14.667 21.166 29.167 23.499 43.5s3.5 29.166 3.5 44.499v13zM430 700l-104 -132h-120l59 132h165z" />
    <glyph glyph-name="afii10070.var.accented" unicode="&#x435;`" horiz-adv-x="583" 
d="M545 147c-9.33301 -35.333 -23 -63.168 -41 -83.501s-34 -34.833 -48 -43.5c-28.667 -18.667 -57.667 -29.667 -87 -33s-55 -5 -77 -5c-17.333 0 -34.833 0.666992 -52.5 2s-35 4.5 -52 9.5s-33.5 12 -49.5 21s-31 21.5 -45 37.5
c-17.333 19.333 -31.833 44.666 -43.5 75.999s-17.5 68.333 -17.5 111c0 48 6.66699 88.833 20 122.5s29 61.167 47 82.5c28 32.667 58.667 54.5 92 65.5s67.666 16.5 102.999 16.5c14.667 0 30.334 -0.833008 47.001 -2.5s33.667 -5.16699 51 -10.5s34.333 -13 51 -23
s32.334 -23 47.001 -39c16 -18 28.167 -37 36.5 -57s14.333 -40 18 -60s5.83398 -39.5 6.50098 -58.5s1 -36.167 1 -51.5v-12h-335c-0.666992 -12 0.333008 -25.333 3 -40s7.66699 -27 15 -37c8.66699 -11.333 18.667 -19 30 -23s22.666 -6 33.999 -6
c6.66699 0 14 0.666992 22 2s15.667 4 23 8c8 4.66699 13.667 9.83398 17 15.501s5.66602 10.834 6.99902 15.501h177zM366 311.998c0 11.333 -1.66797 23.499 -5.00098 36.499s-8.66602 23.5 -15.999 31.5c-7.33301 8.66699 -15.333 14.334 -24 17.001s-17 4 -25 4
c-11.333 0 -21.333 -1.66699 -30 -5s-16.667 -9 -24 -17s-13 -18.333 -17 -31s-6.33301 -24.667 -7 -36h148zM440.999 699.997l-104 -132h-120l59 132h165z" />
    <glyph glyph-name="afii10074.var.accented" unicode="&#x438;`" horiz-adv-x="639" 
d="M399 508h181v-508h-174v260l4 27h-4l-166 -287h-181v508h174v-260l-4 -26h4zM468 700l-104 -132h-120l59 132h165z" />
    <glyph glyph-name="afii10080.var.accented" unicode="&#x43e;`" horiz-adv-x="590" 
d="M558 255c0 -48 -6.33203 -88.167 -18.999 -120.5s-28.667 -58.5 -48 -78.5c-15.333 -16 -31.5 -28.833 -48.5 -38.5s-34.167 -17.167 -51.5 -22.5s-34.166 -8.83301 -50.499 -10.5s-31.5 -2.5 -45.5 -2.5s-29.333 0.833008 -46 2.5s-33.667 5.16699 -51 10.5
s-34.5 12.833 -51.5 22.5s-32.833 22.5 -47.5 38.5c-7.33301 7.33301 -14.833 16.833 -22.5 28.5s-14.834 25.667 -21.501 42s-12.167 35 -16.5 56s-6.5 45.167 -6.5 72.5c0 46 6.66699 85.333 20 118s29.333 59 48 79c14.667 16 30.667 28.833 48 38.5
s34.666 17.167 51.999 22.5s34.166 8.83301 50.499 10.5s31.5 2.5 45.5 2.5c11.333 0 24.833 -0.666992 40.5 -2s32.334 -4.5 50.001 -9.5s35.667 -12.333 54 -22s35.5 -23.167 51.5 -40.5c7.33301 -8 15 -17.833 23 -29.5s15.167 -25.5 21.5 -41.5s11.5 -34.5 15.5 -55.5
s6 -44.5 6 -70.5zM295.001 394c-18 0 -32.999 -6.66699 -44.999 -20c-6.66699 -7.33301 -12 -16 -16 -26s-7.16699 -20.333 -9.5 -31s-3.83301 -21.5 -4.5 -32.5s-1 -21.167 -1 -30.5s0.333008 -19.5 1 -30.5s2.16699 -22 4.5 -33s5.66602 -21.5 9.99902 -31.5
s9.83301 -18.667 16.5 -26c11.333 -12.667 26 -19 44 -19s33 6.66699 45 20c12.667 14.667 21 33.667 25 57s6 44.333 6 63s-2 39.667 -6 63s-12.333 42.333 -25 57c-12 13.333 -27 20 -45 20zM444.002 700l-104 -132h-120l59 132h165z" />
    <glyph glyph-name="afii10085.var.accented" unicode="&#x443;`" horiz-adv-x="500" 
d="M40 -40c9.33301 -4 18.1719 -6.66699 26.5049 -8s18.166 -2 29.499 -2c7.33301 0 14.666 0.5 21.999 1.5s14.666 4.83301 21.999 11.5c7.33301 6 12.666 12.833 15.999 20.5s5.66602 15.167 6.99902 22.5l5 25l-182 477h186l88 -313h5l69 313h172l-161 -502
c-7.33301 -23.333 -15.833 -48.5 -25.5 -75.5s-23.5 -49.833 -41.5 -68.5c-12 -12 -29 -23.333 -51 -34s-51.333 -16 -88 -16c-15.333 0 -31.5 1 -48.5 3s-33.833 5.33301 -50.5 10v135zM395.006 700l-104 -132h-120l59 132h165z" />
    <glyph glyph-name="afii10093.var.accented" unicode="&#x44b;`" horiz-adv-x="808" 
d="M749 508v-508h-180v508h180zM239 334h98.999c8 0 18.167 -0.333008 30.5 -1s25.5 -2.5 39.5 -5.5s27.833 -7.66699 41.5 -14s25.834 -15.166 36.501 -26.499c12 -12.667 21.667 -29.334 29 -50.001s11 -43.667 11 -69c0 -24 -3.33301 -47 -10 -69s-16.667 -40 -30 -54
c-10 -10.667 -21 -19 -33 -25s-24 -10.5 -36 -13.5s-23.5 -4.83301 -34.5 -5.5s-20.167 -1 -27.5 -1h-296v508h180v-174zM237.999 107l52.999 -0.000976562c7.33301 0 15.5 1 24.5 3s16.167 5.66699 21.5 11c2.66699 2.66699 6 7.33398 10 14.001s6 16.667 6 30
c0 7.33301 -1.16699 15.333 -3.5 24s-7.16602 16 -14.499 22c-4 3.33301 -9.5 6.33301 -16.5 9s-16.167 4 -27.5 4h-53v-117zM552.998 699.999l-104 -132h-120l59 132h165z" />
    <glyph glyph-name="afii10095.var.accented" unicode="&#x44d;`" horiz-adv-x="584" 
d="M242 308l128.009 -0.000976562c-0.666992 13.333 -3.16699 25.5 -7.5 36.5s-9.83301 20.167 -16.5 27.5c-10.667 11.333 -21.667 18.333 -33 21s-22.333 4 -33 4c-12.667 0 -24.834 -1.5 -36.501 -4.5s-22.167 -10.167 -31.5 -21.5
c-6.66699 -8 -11.834 -17.167 -15.501 -27.5s-6.16699 -20.5 -7.5 -30.5h-155c2.66699 25.333 9 50.666 19 75.999s23 47 39 65c14.667 16.667 30.5 29.667 47.5 39s34.167 16.5 51.5 21.5s34.166 8.16699 50.499 9.5s30.833 2 43.5 2c14 0 29.833 -0.833008 47.5 -2.5
s36 -5.16699 55 -10.5s37.833 -13.333 56.5 -24s35.667 -25.334 51 -44.001c17.333 -20.667 31.166 -46.5 41.499 -77.5s15.5 -67.5 15.5 -109.5c0 -48.667 -6.33301 -90 -19 -124s-28.334 -61 -47.001 -81c-14.667 -16 -30.334 -28.667 -47.001 -38
s-33.834 -16.5 -51.501 -21.5s-35 -8.16699 -52 -9.5s-33.5 -2 -49.5 -2c-15.333 0 -31.166 0.666992 -47.499 2s-32.833 4 -49.5 8s-32.834 9.83301 -48.501 17.5s-29.834 17.834 -42.501 30.501c-18 17.333 -33 40 -45 68s-19 57 -21 87h157
c1.33301 -9.33301 3.83301 -19.166 7.5 -29.499s8.5 -19.166 14.5 -26.499c10.667 -12 22.5 -19.333 35.5 -22s24.5 -4 34.5 -4s20.833 1.5 32.5 4.5s22.167 9.16699 31.5 18.5c7.33301 8 13.166 18.5 17.499 31.5s6.83301 25.5 7.5 37.5h-128v103zM441.009 699.999
l-104 -132h-120l59 132h165z" />
    <glyph glyph-name="afii10096.var.accented" unicode="&#x44e;`" horiz-adv-x="841" 
d="M301 331c1.33301 6 3.33203 13.666 5.99902 22.999s6.33398 19.5 11.001 30.5s10.5 22.333 17.5 34s15.167 22.834 24.5 33.501c14.667 16 30.334 28.833 47.001 38.5s33.5 17.167 50.5 22.5s33.667 8.83301 50 10.5s31.166 2.5 44.499 2.5
c11.333 0 24.833 -0.666992 40.5 -2s32.167 -4.5 49.5 -9.5s34.833 -12.333 52.5 -22s34.167 -23.167 49.5 -40.5c18.667 -20.667 34.167 -47.167 46.5 -79.5s18.5 -71.5 18.5 -117.5c0 -27.333 -2.16699 -51.5 -6.5 -72.5s-9.83301 -39.667 -16.5 -56
s-13.834 -30.333 -21.501 -42s-14.834 -21.167 -21.501 -28.5c-14.667 -16 -30.334 -28.833 -47.001 -38.5s-33.5 -17.167 -50.5 -22.5s-33.667 -8.83301 -50 -10.5s-31.166 -2.5 -44.499 -2.5c-14 0 -29.167 0.833008 -45.5 2.5s-33 5.16699 -50 10.5
s-33.667 12.833 -50 22.5s-31.833 22.5 -46.5 38.5c-17.333 19.333 -31.166 41.5 -41.499 66.5s-17.166 50.5 -20.499 76.5h-59v-199h-179v508h179v-177h63zM550.999 393.999c-18 0 -32.666 -6.67188 -43.999 -20.0049c-7.33301 -8 -13 -17.333 -17 -28s-7 -21.667 -9 -33
s-3.16699 -22.166 -3.5 -32.499s-0.5 -19.166 -0.5 -26.499c0 -18.667 1.66699 -39.667 5 -63s12 -42.666 26 -57.999c11.333 -12.667 25.666 -19 42.999 -19c18 0 32.667 6.66699 44 20c7.33301 8.66699 13 18.334 17 29.001s7 21.5 9 32.5s3.16699 21.5 3.5 31.5
s0.5 19 0.5 27s-0.166992 17 -0.5 27s-1.5 20.5 -3.5 31.5s-5 21.833 -9 32.5s-9.66699 20.334 -17 29.001c-11.333 13.333 -26 20 -44 20zM567 699.994l-104 -132h-120l59 132h165z" />
    <glyph glyph-name="afii10097.var.accented" unicode="&#x44f;`" horiz-adv-x="561" 
d="M207 0l-184.001 -0.000976562l116 175c-12 3.33301 -24.667 8.5 -38 15.5s-24.666 15.5 -33.999 25.5c-9.33301 9.33301 -18 22.833 -26 40.5s-12 40.834 -12 69.501c0 20.667 3.16699 43.5 9.5 68.5s17.5 46.167 33.5 63.5c10.667 12 22.667 21.333 36 28
s26.5 11.667 39.5 15s25.333 5.33301 37 6s21.5 1 29.5 1h288v-508h-180v166h-28zM276.999 395.999c-8.66699 0 -17.499 -0.669922 -26.499 -2.00293s-17.5 -5.66602 -25.5 -12.999c-12.667 -11.333 -19 -27.666 -19 -48.999c0 -9.33301 1.5 -17.666 4.5 -24.999
s6.83301 -13.333 11.5 -18c8 -8 17.667 -12.833 29 -14.5s21.666 -2.5 30.999 -2.5h41v124h-46zM429 699.996l-104 -132h-120l59 132h165z" />
    <glyph glyph-name="fi" unicode="fi" horiz-adv-x="645" 
d="M586 0h-180.001v370h-139v-370h-180v370h-82v138h82v8c0 8 0.333008 17.667 1 29s2.33398 23.333 5.00098 36s6.66699 25.5 12 38.5s12.666 24.5 21.999 34.5c18 19.333 39.333 31.833 64 37.5s47.334 8.5 68.001 8.5c15.333 0 32.666 -0.833008 51.999 -2.5
s37.333 -4.16699 54 -7.5v-125c-6 1.33301 -13 2.66602 -21 3.99902s-15.667 2 -23 2c-13.333 0 -23.166 -1.66699 -29.499 -5s-10.5 -6 -12.5 -8c-6 -5.33301 -9.5 -11.666 -10.5 -18.999s-1.5 -14.333 -1.5 -21v-10h319v-508zM405.999 700h180v-132h-180v132z" />
    <glyph glyph-name="fl" unicode="fl" horiz-adv-x="647" 
d="M406 700h182v-700h-182v370h-139v-370h-180v370h-82v138h82v8c0 8 0.333008 17.667 1 29s2.33398 23.333 5.00098 36s6.66699 25.5 12 38.5s12.666 24.5 21.999 34.5c10.667 11.333 26.334 21.833 47.001 31.5s49 14.5 85 14.5c14.667 0 30.667 -0.833008 48 -2.5
s33.666 -3.83398 48.999 -6.50098v-125c-5.33301 1.33301 -10.5 2.5 -15.5 3.5s-11.167 1.5 -18.5 1.5c-4 0 -10.667 -0.666992 -20 -2s-17 -5 -23 -11c-6 -5.33301 -9.5 -11.666 -10.5 -18.999s-1.5 -14.333 -1.5 -21v-10h139v192z" />
    <glyph glyph-name=".notdef" horiz-adv-x="500" 
d="M442 8v496h-384v-496h384zM50 512h400v-512h-400v512z" />
    <glyph glyph-name="space" unicode=" " horiz-adv-x="233" 
 />
    <glyph glyph-name="exclam" unicode="!" horiz-adv-x="343" 
d="M74 191h192v-191h-192v191zM121 270l-53 264v182h207v-182l-53 -264h-101z" />
    <glyph glyph-name="quotedbl" unicode="&#x22;" horiz-adv-x="534" 
d="M193 503h-88l-51 197h191zM429 503h-88l-51 197h190z" />
    <glyph glyph-name="numbersign" unicode="#" horiz-adv-x="630" 
d="M326 0l23 163h-129l-23 -163h-95l23 163h-137l17 103h136l30 187h-139l17 103h136l23 144h95l-21 -144h128l22 144h95l-21 -144h137l-17 -103h-135l-29 -187h137l-17 -103h-137l-25 -163h-94zM396 453h-130l-29 -187h129z" />
    <glyph glyph-name="dollar" unicode="$" horiz-adv-x="630" 
d="M215 240c-0.666992 -13.333 0.833984 -26.3311 4.50098 -38.998s9.16699 -23.334 16.5 -32.001c5.33301 -7.33301 12.5 -13.666 21.5 -18.999s20.167 -8.33301 33.5 -9v141c-8 2 -20 5.33301 -36 10s-33 10.667 -51 18s-36.167 16.5 -54.5 27.5s-33.833 23.5 -46.5 37.5
c-19.333 21.333 -31.833 43.833 -37.5 67.5s-8.5 45.167 -8.5 64.5c0 33.333 5 62.333 15 87s22.333 45 37 61c12 13.333 25.333 24.166 40 32.499s29.834 15 45.501 20s31.5 8.33301 47.5 10s31.667 2.5 47 2.5v75h71v-75c29.333 0 58.166 -4.83301 86.499 -14.5
s51.166 -22.5 68.499 -38.5s32.333 -38 45 -66s19 -60.333 19 -97v-10h-164v10c0 8.66699 -1.16699 17.5 -3.5 26.5s-6.16602 16.5 -11.499 22.5c-4.66699 5.33301 -10.834 10.166 -18.501 14.499s-16.167 7.16602 -25.5 8.49902v-129c42.667 -12 79.667 -25.167 111 -39.5
s56.666 -32.166 75.999 -53.499c11.333 -13.333 22.166 -31.333 32.499 -54s15.5 -51 15.5 -85c0 -26.667 -2.66699 -50 -8 -70s-12.166 -37.5 -20.499 -52.5s-17.166 -27.667 -26.499 -38s-18 -18.5 -26 -24.5c-18 -14 -40 -25.5 -66 -34.5s-54 -13.5 -84 -13.5v-77h-71v77
c-32 -1.33301 -64.833 3.5 -98.5 14.5s-62.167 27.833 -85.5 50.5c-20 19.333 -36.167 45 -48.5 77s-18.5 70.667 -18.5 116h177zM357.001 140.002c9.33301 0.666992 17.499 2.66699 24.499 6s13.167 7.33301 18.5 12c7.33301 7.33301 12.166 15.333 14.499 24
s3.5 17.334 3.5 26.001c0 9.33301 -1.33301 17.666 -4 24.999s-8 14 -16 20c-5.33301 4 -11.666 7.33301 -18.999 10s-14.666 4.66699 -21.999 6v-129zM291 577.002c-16.667 0 -30.668 -5.00098 -42.001 -15.001c-5.33301 -5.33301 -9.66602 -12.166 -12.999 -20.499
s-5 -16.5 -5 -24.5c0 -6.66699 1.33301 -13.5 4 -20.5s6.66699 -12.833 12 -17.5c4 -3.33301 10.5 -7 19.5 -11s17.167 -6.66699 24.5 -8v117z" />
    <glyph glyph-name="percent" unicode="%" horiz-adv-x="797" 
d="M570 713h91l-420 -713h-96zM609 263c-6 0 -12.499 -1.33105 -19.499 -3.99805s-13.5 -8.66699 -19.5 -18c-5.33301 -8 -9 -17.833 -11 -29.5s-3 -22.834 -3 -33.501c0 -9.33301 1.16699 -20.333 3.5 -33s6.5 -23.334 12.5 -32.001c5.33301 -8 11.5 -13.333 18.5 -16
s13.167 -4 18.5 -4c8 0 15.167 2 21.5 6s11.5 8.66699 15.5 14c5.33301 7.33301 9.16602 17.5 11.499 30.5s3.5 24.5 3.5 34.5s-0.833008 21 -2.5 33s-5.83398 22.667 -12.501 32c-9.33301 13.333 -21.666 20 -36.999 20zM783.001 178.002
c0 -22 -3.16504 -46.833 -9.49805 -74.5s-20.833 -53.167 -43.5 -76.5c-11.333 -11.333 -26.666 -22.333 -45.999 -33s-44 -16 -74 -16s-54.833 5.16699 -74.5 15.5s-34.834 21.166 -45.501 32.499c-11.333 11.333 -20.5 23.666 -27.5 36.999s-12.333 26.833 -16 40.5
s-6.16699 26.834 -7.5 39.501s-2 24.334 -2 35.001s0.666992 22.5 2 35.5s3.83301 26 7.5 39s9 26 16 39s16.167 25.5 27.5 37.5c11.333 11.333 26.666 22.333 45.999 33s44 16 74 16s54.667 -5.33301 74 -16s34.666 -21.667 45.999 -33
c22.667 -23.333 37.167 -48.833 43.5 -76.5s9.5 -52.5 9.5 -74.5zM186.003 607.002c-6 0 -12.499 -1.33105 -19.499 -3.99805s-13.5 -8.66699 -19.5 -18c-5.33301 -8 -9 -17.833 -11 -29.5s-3 -22.834 -3 -33.501c0 -9.33301 1.16699 -20.333 3.5 -33
s6.5 -23.334 12.5 -32.001c5.33301 -8 11.5 -13.333 18.5 -16s13.167 -4 18.5 -4c8 0 15.167 2 21.5 6s11.5 8.66699 15.5 14c5.33301 7.33301 9.16602 17.5 11.499 30.5s3.5 24.5 3.5 34.5s-0.833008 21 -2.5 33s-5.83398 22.667 -12.501 32
c-9.33301 13.333 -21.666 20 -36.999 20zM360.004 522.004c0 -22 -3.16504 -46.833 -9.49805 -74.5s-20.833 -53.167 -43.5 -76.5c-11.333 -11.333 -26.666 -22.333 -45.999 -33s-44 -16 -74 -16s-54.833 5.16699 -74.5 15.5s-34.834 21.166 -45.501 32.499
c-11.333 11.333 -20.5 23.666 -27.5 36.999s-12.333 26.833 -16 40.5s-6.16699 26.834 -7.5 39.501s-2 24.334 -2 35.001s0.666992 22.5 2 35.5s3.83301 26 7.5 39s9 26 16 39s16.167 25.5 27.5 37.5c11.333 11.333 26.666 22.333 45.999 33s44 16 74 16
s54.667 -5.33301 74 -16s34.666 -21.667 45.999 -33c22.667 -23.333 37.167 -48.833 43.5 -76.5s9.5 -52.5 9.5 -74.5z" />
    <glyph glyph-name="ampersand" unicode="&#x26;" horiz-adv-x="628" 
d="M583 335c-8.66699 -43.333 -20.668 -78.502 -36.001 -105.502s-27.666 -46.167 -36.999 -57.5l127 -172h-206l-37 52c-7.33301 -8 -16 -16 -26 -24s-22 -15.5 -36 -22.5s-30.5 -12.667 -49.5 -17s-40.5 -6.5 -64.5 -6.5c-34.667 0 -64 5 -88 15s-46.333 26.333 -67 49
c-19.333 21.333 -33.166 43.666 -41.499 66.999s-12.5 50 -12.5 80c0 30.667 4.16699 59 12.5 85s23.166 50.333 44.499 73c11.333 12 23.666 22.667 36.999 32s27.333 17.333 42 24c-19.333 20.667 -31.833 41.334 -37.5 62.001s-8.5 39.667 -8.5 57
c0 24 3.5 47.167 10.5 69.5s19.167 42.833 36.5 61.5c15.333 16.667 34.5 29.834 57.5 39.501s51.167 14.5 84.5 14.5c22 0 44.667 -3.33301 68 -10s43 -17 59 -31c17.333 -15.333 30.833 -34.833 40.5 -58.5s14.5 -47.167 14.5 -70.5
c0 -35.333 -8.83301 -68.166 -26.5 -98.499s-44.167 -54.5 -79.5 -72.5l59 -78c4.66699 7.33301 8.33398 14.5 11.001 21.5s4.66699 14.167 6 21.5h143zM230.999 286.998c-5.33301 -3.33301 -10.498 -7.16699 -15.498 -11.5s-9.5 -8.5 -13.5 -12.5
c-8.66699 -9.33301 -14 -18 -16 -26s-3 -17 -3 -27c0 -8 0.666992 -15.667 2 -23s5.66602 -15 12.999 -23c7.33301 -7.33301 14.666 -12.333 21.999 -15s16.333 -4 27 -4c9.33301 0 19.333 1.5 30 4.5s21.667 10.167 33 21.5zM286.001 470.997
c5.33301 2.66699 11.667 6.33594 19 11.0029s13.666 9.66699 18.999 15c5.33301 6 9.66602 13.167 12.999 21.5s5 16.166 5 23.499s-1.33301 14.666 -4 21.999s-6 13 -10 17c-4 4.66699 -9.16699 8 -15.5 10s-12.5 3 -18.5 3c-7.33301 0 -13.666 -1.33301 -18.999 -4
s-9.66602 -5.66699 -12.999 -9c-4 -4.66699 -7.16699 -10.834 -9.5 -18.501s-3.5 -14.167 -3.5 -19.5c0 -7.33301 1.5 -15 4.5 -23s6.83301 -15 11.5 -21c2.66699 -4 4.5 -6.66699 5.5 -8l3 -4c1 -1.33301 2.33301 -3 4 -5s4.5 -5.66699 8.5 -11z" />
    <glyph glyph-name="quotesingle" unicode="'" horiz-adv-x="298" 
d="M193 503h-88l-51 197h190z" />
    <glyph glyph-name="parenleft" unicode="(" horiz-adv-x="406" 
d="M323 761l-34.5 -108c-11.667 -38 -21.167 -71.667 -28.5 -101c-11.333 -42 -19.833 -82 -25.5 -120s-8.5 -81 -8.5 -129c0 -30 1 -57.167 3 -81.5s4.83301 -47.333 8.5 -69s8.16699 -43.167 13.5 -64.5s11.666 -44.333 18.999 -69c8 -28.667 16 -55.834 24 -81.501
l29 -89.5h-146l-20 41.5l-22.5 49c-7.66699 17 -15 34.167 -22 51.5s-13.167 33.666 -18.5 48.999c-13.333 38 -24.333 79.333 -33 124s-13 91.334 -13 140.001c0 44.667 3.33301 88.334 10 131.001s17.334 85 32.001 127c4.66699 14 10.667 29.833 18 47.5l22.5 53.5
c7.66699 18 15.5 35.5 23.5 52.5s15.667 32.5 23 46.5h146z" />
    <glyph glyph-name="parenright" unicode=")" horiz-adv-x="406" 
d="M229 761c16.667 -32 32.998 -66.166 48.998 -102.499s28.667 -68.833 38 -97.5c14 -42 24.5 -84.5 31.5 -127.5s10.5 -90.5 10.5 -142.5c0 -43.333 -3.5 -84.666 -10.5 -123.999s-18.833 -82 -35.5 -128c-5.33301 -15.333 -11.5 -31.5 -18.5 -48.5l-22 -51l-22.5 -49
l-20 -42.5h-146c10.667 30 20 58.167 28 84.5l25 86.5c6 21.333 11.667 42.666 17 63.999s10 43.333 14 66s7.16699 46.5 9.5 71.5s3.5 52.5 3.5 82.5c0 24.667 -0.666992 47.5 -2 68.5s-3.5 41.333 -6.5 61s-6.66699 39.167 -11 58.5s-9.16602 39.666 -14.499 60.999
c-9.33301 36 -19.166 71.167 -29.499 105.5s-21.5 68.833 -33.5 103.5h146z" />
    <glyph glyph-name="asterisk" unicode="*" horiz-adv-x="432" 
d="M158 463l-66 57l55 82l-88 33l28 89l88 -34v102h83v-102l88 34l27 -89l-88 -33l56 -82l-66 -57l-59 85z" />
    <glyph glyph-name="plus" unicode="+" horiz-adv-x="627" 
d="M268 398v219h91v-219h218v-90h-218v-219h-91v219h-218v90h218z" />
    <glyph glyph-name="comma" unicode="," horiz-adv-x="317" 
d="M63 199l190.999 0.000976562v-180c0 -12.667 -0.5 -26.167 -1.5 -40.5s-3.16699 -28.666 -6.5 -42.999s-8.5 -28.5 -15.5 -42.5s-16.5 -27.333 -28.5 -40c-11.333 -11.333 -23 -20.333 -35 -27s-23.833 -11.667 -35.5 -15s-23 -5.5 -34 -6.5s-20.833 -1.5 -29.5 -1.5h-5
v103h3c4.66699 0 10.167 0.166992 16.5 0.5s12.833 1.33301 19.5 3s13.334 4.16699 20.001 7.5s13 8.33301 19 15c8 9.33301 13.833 20.166 17.5 32.499s5.5 24.166 5.5 35.499h-101v199z" />
    <glyph glyph-name="hyphen" unicode="-" horiz-adv-x="455" 
d="M48 390h359v-185h-359v185z" />
    <glyph glyph-name="period" unicode="." horiz-adv-x="317" 
d="M63 206h191v-206h-191v206z" />
    <glyph glyph-name="slash" unicode="/" horiz-adv-x="414" 
d="M330 700h84l-330 -885h-84z" />
    <glyph glyph-name="zero" unicode="0" horiz-adv-x="630" 
d="M318 -13c-37.333 0 -73.5 5.33594 -108.5 16.0029s-66.833 31.667 -95.5 63c-26 28 -47.5 65.5 -64.5 112.5s-25.5 104.5 -25.5 172.5c0 66 8 122.333 24 169s37.333 84 64 112c8 8 18 16.833 30 26.5s26.333 18.5 43 26.5s36 14.667 58 20s47 8 75 8
c14 0 29.333 -0.833008 46 -2.5s34 -5.33398 52 -11.001s36 -13.834 54 -24.501s35.333 -25 52 -43c20 -22 35.667 -45.667 47 -71s19.833 -50.833 25.5 -76.5s9 -50.167 10 -73.5s1.5 -43.333 1.5 -60c0 -24.667 -1 -49.667 -3 -75s-6.16699 -50.5 -12.5 -75.5
s-15.5 -49.167 -27.5 -72.5s-27.667 -45 -47 -65c-16 -16 -32.333 -29 -49 -39s-33.5 -17.833 -50.5 -23.5s-33.833 -9.33398 -50.5 -11.001s-32.667 -2.5 -48 -2.5zM315 138.003c11.333 0 21.665 2.16895 30.998 6.50195s17.666 10.166 24.999 17.499
c13.333 13.333 23.666 35 30.999 65s11 72 11 126c0 48 -3.33301 86.833 -10 116.5s-17.667 52.5 -33 68.5s-33.666 24 -54.999 24c-14 0 -25.667 -2.83301 -35 -8.5s-17.666 -12.834 -24.999 -21.501c-12 -14.667 -21.333 -35 -28 -61s-10 -64.333 -10 -115
c0 -30.667 1 -57 3 -79s4.83301 -40.5 8.5 -55.5s7.83398 -27 12.501 -36s9.66699 -16.5 15 -22.5c6.66699 -7.33301 14.834 -13.333 24.501 -18s21.167 -7 34.5 -7z" />
    <glyph glyph-name="one" unicode="1" horiz-adv-x="630" 
d="M110 576h10.999c19.333 0 38.833 2.16699 58.5 6.5s36.834 10.833 51.501 19.5c10 6 22.5 16.5 37.5 31.5s25.833 37.167 32.5 66.5h158v-700h-204v466h-145v110z" />
    <glyph glyph-name="two" unicode="2" horiz-adv-x="630" 
d="M568 0l-521.004 0.00488281v26c0 15.333 0.666992 31 2 47s4.33301 32 9 48s11.334 32.167 20.001 48.5s20.334 32.833 35.001 49.5c19.333 21.333 37.5 38 54.5 50l49.5 34l75 49c20.667 13.333 35.834 23.666 45.501 30.999s17.167 13.666 22.5 18.999
c9.33301 9.33301 17.166 20.833 23.499 34.5s9.5 29.5 9.5 47.5c0 16 -2.33301 28.667 -7 38s-9 16.333 -13 21c-9.33301 9.33301 -19.166 15.5 -29.499 18.5s-19.5 4.5 -27.5 4.5c-11.333 0 -22 -1.66699 -32 -5s-19 -9.33301 -27 -18
c-11.333 -12.667 -18.166 -27 -20.499 -43s-3.16602 -34 -2.49902 -54h-183c-3.33301 36.667 1.16699 72.167 13.5 106.5s30.166 63.166 53.499 86.499c15.333 16 31.833 28.833 49.5 38.5s35.667 17.167 54 22.5s36.5 8.83301 54.5 10.5s35 2.5 51 2.5
c14 0 29.833 -0.833008 47.5 -2.5s35.667 -5 54 -10s36.333 -12.5 54 -22.5s33.834 -23 48.501 -39c12.667 -14 24.667 -33.333 36 -58s17 -56.334 17 -95.001c0 -22.667 -3.33301 -46.334 -10 -71.001s-19.334 -48 -38.001 -70c-13.333 -15.333 -28.833 -29 -46.5 -41
s-37.167 -23.667 -58.5 -35l-86 -47c-20.667 -11.333 -34.5 -20.833 -41.5 -28.5s-12.167 -15.167 -15.5 -22.5h280v-171z" />
    <glyph glyph-name="three" unicode="3" horiz-adv-x="630" 
d="M218 252l-0.000976562 -12.0049c0 -10 1.16699 -22.333 3.5 -37s8.5 -28.334 18.5 -41.001c8.66699 -10.667 18.667 -18.167 30 -22.5s23.666 -6.5 36.999 -6.5c8.66699 0 18.334 1.16699 29.001 3.5s20.667 7.83301 30 16.5c10.667 10 17.334 21 20.001 33s4 23 4 33
c0 11.333 -1.66699 22.5 -5 33.5s-10.666 20.5 -21.999 28.5c-9.33301 7.33301 -20.833 12 -34.5 14s-26.167 3 -37.5 3h-31v131h40c10.667 0 22.167 0.833008 34.5 2.5s23.833 6.5 34.5 14.5c7.33301 5.33301 13.666 12.833 18.999 22.5s8 21.834 8 36.501
s-2.66699 26.334 -8 35.001s-10.666 15 -15.999 19c-8 6.66699 -16.5 11 -25.5 13s-17.5 3 -25.5 3c-17.333 0 -31.666 -2.66699 -42.999 -8s-20.666 -12.666 -27.999 -21.999c-7.33301 -8.66699 -13 -19.834 -17 -33.501s-6 -26.167 -6 -37.5v-7h-176
c-0.666992 42 6.83301 79 22.5 111s34.167 57.333 55.5 76c16.667 14.667 40.667 28.167 72 40.5s72.666 18.5 123.999 18.5c31.333 0 62.833 -3.5 94.5 -10.5s59.167 -19.167 82.5 -36.5c22 -17.333 39 -38.666 51 -63.999s18 -53 18 -83
c0 -25.333 -3.83301 -46.833 -11.5 -64.5s-16.834 -32.5 -27.501 -44.5c-11.333 -12.667 -23 -22.167 -35 -28.5s-24.333 -11.166 -37 -14.499v-5c19.333 -3.33301 35.666 -9.16602 48.999 -17.499s24 -17.166 32 -26.499c16.667 -18 27.5 -37.167 32.5 -57.5
s7.5 -38.833 7.5 -55.5c0 -42 -7.83301 -76.833 -23.5 -104.5s-33.167 -48.834 -52.5 -63.501c-15.333 -12 -31.5 -21.333 -48.5 -28s-34.167 -11.667 -51.5 -15s-34.166 -5.33301 -50.499 -6s-30.833 -1 -43.5 -1c-16.667 0 -34.334 0.666992 -53.001 2
s-37.5 4.5 -56.5 9.5s-37.5 12.333 -55.5 22s-34.333 22.834 -49 39.501c-18.667 20.667 -33.667 46.667 -45 78s-17 66 -17 104v10h183z" />
    <glyph glyph-name="four" unicode="4" horiz-adv-x="630" 
d="M29 149v164l306 387h181v-393h81v-158h-81v-149h-194v149h-293zM331 307v196l-158 -196h158z" />
    <glyph glyph-name="five" unicode="5" horiz-adv-x="630" 
d="M236 216c0 -13.333 2.16992 -24.5039 6.50293 -33.5039s9.16602 -16.167 14.499 -21.5c4.66699 -5.33301 11.5 -10.666 20.5 -15.999s20.5 -8 34.5 -8c12.667 0 24 2.5 34 7.5s18.333 11.167 25 18.5c8.66699 10 15.334 23.833 20.001 41.5s7 34.834 7 51.501
c0 12 -2 26.167 -6 42.5s-11.333 29.5 -22 39.5c-9.33301 9.33301 -19.833 14.833 -31.5 16.5s-21.167 2.5 -28.5 2.5c-4 0 -8.83301 -0.333008 -14.5 -1s-11.834 -2.5 -18.501 -5.5s-13.167 -7.5 -19.5 -13.5s-11.833 -14.333 -16.5 -25h-184l38 388h446v-155h-317
l-10 -102c22 19.333 44.833 31.5 68.5 36.5s46.834 7.5 69.501 7.5c11.333 0 24 -0.666992 38 -2s28.667 -4.16602 44 -8.49902s30.666 -10.666 45.999 -18.999s30 -19.5 44 -33.5c13.333 -13.333 24 -27.5 32 -42.5s14 -30 18 -45s6.66699 -29.5 8 -43.5s2 -26.667 2 -38
c0 -39.333 -5.33301 -75.333 -16 -108s-26.334 -60.667 -47.001 -84c-16 -18 -33.667 -32.167 -53 -42.5s-38.666 -18 -57.999 -23s-38 -8 -56 -9s-34.333 -1.5 -49 -1.5c-29.333 0 -59.833 3 -91.5 9s-61.834 21.667 -90.501 47
c-8.66699 7.33301 -17.334 16.5 -26.001 27.5s-16.5 23.667 -23.5 38s-12.667 30.5 -17 48.5s-6.5 37.667 -6.5 59h186z" />
    <glyph glyph-name="six" unicode="6" horiz-adv-x="630" 
d="M414 526c-1.33301 9.33301 -4.33301 17.332 -9 23.999s-9.66699 11.667 -15 15c-13.333 8.66699 -30.666 13 -51.999 13c-19.333 0 -35.5 -3.16699 -48.5 -9.5s-23.833 -14.166 -32.5 -23.499c-12 -13.333 -21.167 -29.833 -27.5 -49.5s-9.83301 -37.5 -10.5 -53.5
c21.333 19.333 43.166 31.666 65.499 36.999s45.166 8 68.499 8c12.667 0 26 -0.666992 40 -2s28.167 -4.16602 42.5 -8.49902s28.5 -10.333 42.5 -18s27.333 -17.5 40 -29.5c18.667 -17.333 34.667 -40.333 48 -69s20 -63 20 -103c0 -36 -5.66699 -70.833 -17 -104.5
s-28.333 -62.834 -51 -87.501c-16 -17.333 -32.667 -31.166 -50 -41.499s-34.833 -18.166 -52.5 -23.499s-35.167 -8.83301 -52.5 -10.5s-33.666 -2.5 -48.999 -2.5c-16 0 -32.5 0.833008 -49.5 2.5s-33.667 5.16699 -50 10.5s-32.666 13.333 -48.999 24
s-32.166 25 -47.499 43c-16.667 19.333 -29.834 40.333 -39.501 63s-17 45.167 -22 67.5s-8.16699 43.833 -9.5 64.5s-2 39 -2 55c0 59.333 7.5 116.5 22.5 171.5s39.167 101.167 72.5 138.5c25.333 28 54.666 49.333 87.999 64s73 22 119 22c36.667 0 68.5 -4.5 95.5 -13.5
s49.167 -20.833 66.5 -35.5c19.333 -16.667 35.333 -37.334 48 -62.001s20.667 -50 24 -76h-167zM323 359.999c-20 0 -35.667 -3.33105 -47 -9.99805s-19.666 -12.667 -24.999 -18c-9.33301 -10.667 -16.333 -23.834 -21 -39.501s-7 -31.167 -7 -46.5
c0 -16 2.33301 -32.333 7 -49s11.667 -30.334 21 -41.001c6 -6.66699 14.667 -13.167 26 -19.5s25.666 -9.5 42.999 -9.5c12.667 0 24.5 2 35.5 6s21.167 11.667 30.5 23c10 12 17.5 26.333 22.5 43s7.5 33.667 7.5 51c0 15.333 -2.16699 30.333 -6.5 45
s-11.166 27 -20.499 37c-10.667 12 -21.834 19.667 -33.501 23s-22.5 5 -32.5 5z" />
    <glyph glyph-name="seven" unicode="7" horiz-adv-x="630" 
d="M67 700l495.999 -0.000976562v-154c-24 -27.333 -45 -55.333 -63 -84s-33.167 -55.5 -45.5 -80.5s-22 -46.833 -29 -65.5l-14.5 -39c-14.667 -42.667 -25.167 -87.167 -31.5 -133.5s-9.16602 -94.166 -8.49902 -143.499h-206c2 61.333 9.66699 118.5 23 171.5
s29 99.167 47 138.5c8 17.333 17.167 35.5 27.5 54.5s21.5 38 33.5 57s24.5 37.667 37.5 56l37.5 51.5h-304v171z" />
    <glyph glyph-name="eight" unicode="8" horiz-adv-x="630" 
d="M315 713c26.667 0 56.668 -3.16699 90.001 -9.5s64.666 -20.5 93.999 -42.5c25.333 -19.333 44.5 -42.833 57.5 -70.5s19.5 -55.5 19.5 -83.5c0 -15.333 -2 -31.5 -6 -48.5s-11 -32.167 -21 -45.5c-7.33301 -9.33301 -16.333 -18 -27 -26s-22 -14.667 -34 -20
c12 -4 23.667 -9.66699 35 -17s22 -17.333 32 -30c13.333 -17.333 23.166 -35.5 29.499 -54.5s9.5 -39.167 9.5 -60.5c0 -39.333 -6.16699 -71.666 -18.5 -96.999s-27.166 -45.666 -44.499 -60.999c-15.333 -14 -31.666 -25 -48.999 -33s-35.333 -14 -54 -18
s-37.5 -6.5 -56.5 -7.5s-37.833 -1.5 -56.5 -1.5c-18 0 -36.5 0.5 -55.5 1.5s-37.833 3.5 -56.5 7.5s-36.667 10 -54 18s-34 19 -50 33c-17.333 15.333 -32.166 35.666 -44.499 60.999s-18.5 57.666 -18.5 96.999c0 21.333 3.16699 41.5 9.5 60.5s16.166 37.167 29.499 54.5
c10 12.667 20.667 22.667 32 30s23 13 35 17c-12 5.33301 -23.333 12 -34 20s-19.667 16.667 -27 26c-10 13.333 -17 28.5 -21 45.5s-6 33.167 -6 48.5c0 28 6.5 55.833 19.5 83.5s32.167 51.167 57.5 70.5c29.333 22 60.666 36.167 93.999 42.5s63.333 9.5 90 9.5z
M315.001 309c-18.667 0 -33.666 -2.66797 -44.999 -8.00098s-20.333 -11.333 -27 -18c-6 -6 -11.333 -14.167 -16 -24.5s-7 -23.166 -7 -38.499c0 -19.333 3.16699 -34 9.5 -44s11.5 -16.667 15.5 -20c10 -9.33301 21.167 -15.333 33.5 -18s23.833 -4 34.5 -4
c11.333 0 22.833 1 34.5 3s22.5 7.66699 32.5 17c9.33301 8 16.666 18.333 21.999 31s8 26 8 40c0 24.667 -8.66699 45 -26 61c-6.66699 6 -15.667 11.333 -27 16s-25.333 7 -42 7zM316.002 580.999c-10 0 -20.8359 -1.16797 -32.5029 -3.50098
s-22.5 -8.16602 -32.5 -17.499c-7.33301 -6.66699 -13.5 -15.167 -18.5 -25.5s-7.5 -22.833 -7.5 -37.5c0 -16.667 2.33301 -29.667 7 -39s8.66699 -15.666 12 -18.999c10 -11.333 21.5 -18.333 34.5 -21s24.833 -4 35.5 -4c12 0 23.5 1.33301 34.5 4
s21.167 8.33398 30.5 17.001c17.333 15.333 26 36.666 26 63.999c0 16 -2.66699 29.167 -8 39.5s-11.666 18.5 -18.999 24.5c-9.33301 7.33301 -19.166 12.166 -29.499 14.499s-21.166 3.5 -32.499 3.5z" />
    <glyph glyph-name="nine" unicode="9" horiz-adv-x="630" 
d="M216 174c1.33301 -9.33301 4.33203 -17.332 8.99902 -23.999s9.66699 -11.667 15 -15c6 -4 13.667 -7.16699 23 -9.5s19 -3.5 29 -3.5c19.333 0 35.5 3.16699 48.5 9.5s23.833 14.166 32.5 23.499c12 13.333 21.167 29.833 27.5 49.5s9.83301 37.5 10.5 53.5
c-21.333 -19.333 -43.166 -31.666 -65.499 -36.999s-45.166 -8 -68.499 -8c-12.667 0 -25.834 0.666992 -39.501 2s-27.667 4.16602 -42 8.49902s-28.666 10.333 -42.999 18s-27.833 17.5 -40.5 29.5c-18 17.333 -33.833 40.333 -47.5 69s-20.5 63.667 -20.5 105
c0 34.667 5.66699 68.667 17 102s28.333 62.666 51 87.999c16 17.333 32.667 31.166 50 41.499s34.833 18.166 52.5 23.499s35.167 8.83301 52.5 10.5s33.666 2.5 48.999 2.5c16 0 32.5 -0.833008 49.5 -2.5s33.667 -5.16699 50 -10.5s32.666 -13.333 48.999 -24
s32.166 -25 47.499 -43c16.667 -19.333 29.834 -40.333 39.501 -63s17 -45.167 22 -67.5s8.16699 -43.666 9.5 -63.999s2 -38.166 2 -53.499c0 -60.667 -7.66699 -118.667 -23 -174s-39.333 -101.333 -72 -138c-25.333 -28 -54.666 -49.333 -87.999 -64s-73 -22 -119 -22
c-36.667 0 -68.5 4.5 -95.5 13.5s-49.167 20.833 -66.5 35.5c-19.333 16.667 -35.333 37.334 -48 62.001s-20.667 50 -24 76h167zM306.999 340.001c20 0 35.667 3.33301 47 10s19.666 12.667 24.999 18c9.33301 10.667 16.333 24 21 40s7 32 7 48
c0 15.333 -2.33301 31 -7 47s-11.667 29.667 -21 41c-6 6.66699 -14.667 13.167 -26 19.5s-25.666 9.5 -42.999 9.5c-12.667 0 -24.5 -2 -35.5 -6s-21.167 -11.667 -30.5 -23c-10.667 -12 -18.334 -26.333 -23.001 -43s-7 -33 -7 -49c0 -34.667 9 -62.667 27 -84
c10.667 -12 21.834 -19.667 33.501 -23s22.5 -5 32.5 -5z" />
    <glyph glyph-name="colon" unicode=":" horiz-adv-x="317" 
d="M63 206h191v-206h-191v206zM63 508h191v-207h-191v207z" />
    <glyph glyph-name="semicolon" unicode=";" horiz-adv-x="317" 
d="M63 509h191v-207h-191v207zM63 199l190.999 0.000976562v-180c0 -12.667 -0.5 -26.167 -1.5 -40.5s-3.16699 -28.666 -6.5 -42.999s-8.5 -28.5 -15.5 -42.5s-16.5 -27.333 -28.5 -40c-11.333 -11.333 -23 -20.333 -35 -27s-23.833 -11.667 -35.5 -15s-23 -5.5 -34 -6.5
s-20.833 -1.5 -29.5 -1.5h-5v103h3c4.66699 0 10.167 0.166992 16.5 0.5s12.833 1.33301 19.5 3s13.334 4.16699 20.001 7.5s13 8.33301 19 15c8 9.33301 13.833 20.166 17.5 32.499s5.5 24.166 5.5 35.499h-101v199z" />
    <glyph glyph-name="semicolon" unicode="&#x37e;" horiz-adv-x="317" 
d="M63 509h191v-207h-191v207zM63 199l190.999 0.000976562v-180c0 -12.667 -0.5 -26.167 -1.5 -40.5s-3.16699 -28.666 -6.5 -42.999s-8.5 -28.5 -15.5 -42.5s-16.5 -27.333 -28.5 -40c-11.333 -11.333 -23 -20.333 -35 -27s-23.833 -11.667 -35.5 -15s-23 -5.5 -34 -6.5
s-20.833 -1.5 -29.5 -1.5h-5v103h3c4.66699 0 10.167 0.166992 16.5 0.5s12.833 1.33301 19.5 3s13.334 4.16699 20.001 7.5s13 8.33301 19 15c8 9.33301 13.833 20.166 17.5 32.499s5.5 24.166 5.5 35.499h-101v199z" />
    <glyph glyph-name="less" unicode="&#x3c;" horiz-adv-x="600" 
d="M546 135l-43 -85l-466 261v101l466 261l43 -85l-406 -227z" />
    <glyph glyph-name="equal" unicode="=" horiz-adv-x="627" 
d="M577 463v-91h-527v91h527zM577 301v-91h-527v91h527z" />
    <glyph glyph-name="greater" unicode="&#x3e;" horiz-adv-x="600" 
d="M54 588l43 85l466 -261v-101l-466 -261l-43 85l406 226z" />
    <glyph glyph-name="question" unicode="?" horiz-adv-x="565" 
d="M170 187h194v-187h-194v187zM36 473v8.99707c0 34 5.5 65.167 16.5 93.5s24.833 51.166 41.5 68.499c14 14.667 30 26.334 48 35.001s35.833 15.334 53.5 20.001s34.5 7.5 50.5 8.5s29.333 1.5 40 1.5s23.334 -0.333008 38.001 -1s30 -2.5 46 -5.5s32 -7.5 48 -13.5
s30.667 -14 44 -24c18.667 -14 34.5 -33.167 47.5 -57.5s19.5 -53.5 19.5 -87.5c0 -47.333 -14 -86.333 -42 -117c-9.33301 -10 -19 -18.667 -29 -26s-20 -14 -30 -20c-11.333 -6.66699 -21.833 -13.167 -31.5 -19.5s-18.167 -13.833 -25.5 -22.5
c-10.667 -12 -17.334 -23.833 -20.001 -35.5s-4 -21.167 -4 -28.5v-6h-152v17c0 11.333 0.5 24 1.5 38s4.5 28.667 10.5 44c7.33301 18 15.5 31.833 24.5 41.5s19.5 19.5 31.5 29.5l24 20l15 13c5.33301 4.66699 10.5 10 15.5 16s9.16699 13 12.5 21s5 17.333 5 28
c0 18.667 -4.66699 32.667 -14 42c-6 6.66699 -12.333 10.834 -19 12.501s-12.667 2.5 -18 2.5s-12.333 -1.16699 -21 -3.5s-16.667 -8.16602 -24 -17.499s-12 -21 -14 -35s-3 -26.667 -3 -38v-3h-186z" />
    <glyph glyph-name="at" unicode="@" horiz-adv-x="821" 
d="M586 237l-2.49805 -15.5078c-1 -6.33301 -1 -12.666 0 -18.999s3.83301 -11.666 8.5 -15.999s12.334 -6.5 23.001 -6.5c13.333 0 25.166 3.83301 35.499 11.5s18.833 15.834 25.5 24.501c11.333 15.333 19.666 33.833 24.999 55.5s8 41.834 8 60.501
c0 19.333 -2.16699 39 -6.5 59s-10.5 39.333 -18.5 58s-17.167 36 -27.5 52s-21.5 30 -33.5 42c-22 21.333 -50.333 39.5 -85 54.5s-74.667 22.5 -120 22.5c-46.667 0 -88.5 -8 -125.5 -24s-68.167 -36.667 -93.5 -62c-22 -22 -42 -52.667 -60 -92s-27 -89 -27 -149
c0 -53.333 8.16699 -99.166 24.5 -137.499s37.166 -70.833 62.499 -97.5c28 -29.333 59.667 -50.666 95 -63.999s74 -20 116 -20c32.667 0 62 4.33301 88 13s51.333 21.667 76 39l39 -77c-30.667 -20 -62 -34.833 -94 -44.5s-68.333 -14.5 -109 -14.5
c-59.333 0 -111 8.5 -155 25.5s-82 40.833 -114 71.5c-11.333 10.667 -23.666 24.667 -36.999 42s-25.666 38.5 -36.999 63.5s-20.833 54.167 -28.5 87.5s-11.5 71.333 -11.5 114c0 56.667 8.33301 110 25 160s45.667 96.333 87 139c37.333 38.667 78 66.834 122 84.501
s94.333 26.5 151 26.5c68 0 125.333 -10.833 172 -32.5s84.667 -48.167 114 -79.5c30.667 -32.667 54.334 -71.167 71.001 -115.5s25 -90.166 25 -137.499c0 -34.667 -5.33301 -69 -16 -103s-27.334 -62.667 -50.001 -86c-20.667 -21.333 -44.834 -37.333 -72.501 -48
s-54.834 -16 -81.501 -16c-12 0 -25 1 -39 3s-26.667 6.66699 -38 14c-7.33301 4.66699 -13.333 9.66699 -18 15s-8.33398 12.333 -11.001 21c-4 -4.66699 -9.5 -10 -16.5 -16s-15.833 -11.833 -26.5 -17.5s-23.334 -10.334 -38.001 -14.001s-31.667 -5.5 -51 -5.5
c-34.667 0 -62 6 -82 18s-35 25.333 -45 40c-9.33301 14 -16.666 30.333 -21.999 49s-8 37.667 -8 57c0 16.667 1.5 33.667 4.5 51s7.66699 34.5 14 51.5s14.333 33.333 24 49s20.834 29.834 33.501 42.501c19.333 19.333 39.833 33.333 61.5 42s45.167 13 70.5 13
c24 0 42.833 -3.66699 56.5 -11s24.167 -16.333 31.5 -27l4 22h148zM414.002 406.992c-15.333 0 -28.3311 -4.66602 -38.998 -13.999c-2.66699 -2 -6.66699 -6.83301 -12 -14.5s-11.333 -21.167 -18 -40.5c-4.66699 -13.333 -8 -25.666 -10 -36.999s-3 -25.666 -3 -42.999
c0 -6.66699 0.333008 -14.834 1 -24.501s4.33398 -18.167 11.001 -25.5c2.66699 -3.33301 6.66699 -6.66602 12 -9.99902s12.666 -5 21.999 -5s17.333 1.66699 24 5s12 6.66602 16 9.99902c7.33301 6.66699 13.666 15.667 18.999 27s9.66602 23 12.999 35
c2.66699 9.33301 5.16699 21.333 7.5 36s3.5 27 3.5 37c0 7.33301 -0.666992 16.166 -2 26.499s-4.33301 18.166 -9 23.499c-7.33301 9.33301 -19.333 14 -36 14z" />
    <glyph glyph-name="A" unicode="A" horiz-adv-x="653" 
d="M200 0h-203l233 700h193l233 -700h-203l-29 99h-195zM387 243l-61 215l-60 -215h121z" />
    <glyph glyph-name="B" unicode="B" horiz-adv-x="706" 
d="M433 700c10.667 0 22.3359 -0.332031 35.0029 -0.999023s25.5 -2.33398 38.5 -5.00098s26 -6.83398 39 -12.501s25.167 -13.5 36.5 -23.5c4.66699 -4 9.83398 -9.5 15.501 -16.5s11.167 -15.833 16.5 -26.5s9.83301 -23.5 13.5 -38.5s5.5 -32.167 5.5 -51.5
c0 -20.667 -2.83301 -39.667 -8.5 -57s-15.834 -34.333 -30.501 -51c-9.33301 -10 -19 -18.5 -29 -25.5s-21.667 -12.5 -35 -16.5v-4c7.33301 -1.33301 19.666 -5.33301 36.999 -12s34.666 -19 51.999 -37c17.333 -18.667 29.166 -39.167 35.499 -61.5s9.5 -45.5 9.5 -69.5
c0 -23.333 -3.83301 -48 -11.5 -74s-23.5 -49 -47.5 -69c-15.333 -13.333 -36.833 -24.666 -64.5 -33.999s-64.5 -14 -110.5 -14h-353v700h356zM276.002 430.001h94.001c6 0 13.667 0.5 23 1.5s17.666 5.16699 24.999 12.5c10 10 15 24 15 42c0 10 -1.5 18.667 -4.5 26
s-7.16699 13 -12.5 17c-7.33301 6 -15.833 9.66699 -25.5 11s-17.5 2 -23.5 2h-91v-112zM276.003 158.001l112 0.000976562c8.66699 0 17.5 0.666992 26.5 2s17.167 5.66602 24.5 12.999c6 6 10.333 13.5 13 22.5s4 17.833 4 26.5s-1.33301 17.5 -4 26.5
s-7.33398 16.5 -14.001 22.5c-7.33301 6.66699 -16.166 10.667 -26.499 12s-18.5 2 -24.5 2h-111v-127z" />
    <glyph glyph-name="C" unicode="C" horiz-adv-x="703" 
d="M671 260c-1.33301 -16 -3.99902 -33.002 -7.99902 -51.002s-9.16699 -35.667 -15.5 -53s-14.166 -34 -23.499 -50s-19.666 -30.333 -30.999 -43c-18 -19.333 -37.5 -34.333 -58.5 -45s-42 -18.667 -63 -24s-41.333 -8.66602 -61 -9.99902s-36.5 -2 -50.5 -2
c-16.667 0 -34.667 0.666992 -54 2s-38.833 4.83301 -58.5 10.5s-39.334 13.834 -59.001 24.501s-38.167 25 -55.5 43c-28 29.333 -50.167 67.833 -66.5 115.5s-24.5 103.5 -24.5 167.5c0 22.667 1.33301 46.334 4 71.001s7.5 49.334 14.5 74.001s16.5 48.667 28.5 72
s27.667 45.333 47 66c18 19.333 37 35 57 47s40.167 21.333 60.5 28s40.5 11.167 60.5 13.5s39.333 3.5 58 3.5c28.667 0 54.667 -2.33301 78 -7s44 -11 62 -19s33.667 -17.167 47 -27.5s24.666 -20.833 33.999 -31.5c10.667 -12 20.167 -25.5 28.5 -40.5
s15.666 -30.833 21.999 -47.5s11.333 -33.334 15 -50.001s6.16699 -32.667 7.5 -48h-194c-1.33301 13.333 -4.83301 25.5 -10.5 36.5s-12.167 19.833 -19.5 26.5c-6 5.33301 -14 10.333 -24 15s-23 7 -39 7c-21.333 0 -38.833 -3.66699 -52.5 -11s-24.167 -15.333 -31.5 -24
c-9.33301 -10 -16.5 -21.333 -21.5 -34s-9 -25.667 -12 -39s-4.83301 -26.5 -5.5 -39.5s-1 -24.833 -1 -35.5c0 -24 2.16699 -48.833 6.5 -74.5s13.833 -48.167 28.5 -67.5c12.667 -16.667 25.834 -27.5 39.501 -32.5s28.167 -7.5 43.5 -7.5c10.667 0 22.5 1.66699 35.5 5
s25.167 10.666 36.5 21.999c8 8 14.667 17.667 20 29s8.66602 23 9.99902 35h196z" />
    <glyph glyph-name="D" unicode="D" horiz-adv-x="731" 
d="M379 700c18.667 0 37.498 -0.835938 56.498 -2.50293s37.833 -5.16699 56.5 -10.5s36.834 -13.166 54.501 -23.499s34.834 -24.166 51.501 -41.499c22.667 -23.333 40.167 -49.833 52.5 -79.5s21.333 -58.334 27 -86.001s9 -52.167 10 -73.5s1.5 -35.666 1.5 -42.999
c0 -51.333 -7.5 -100.666 -22.5 -147.999s-38.167 -87 -69.5 -119c-18 -18 -36 -32 -54 -42s-36.333 -17.167 -55 -21.5s-37 -7 -55 -8s-36 -1.5 -54 -1.5h-302v700h302zM275.998 187.997l63 0.00195312c15.333 0 31.833 1.66699 49.5 5s34.167 12.666 49.5 27.999
c16.667 17.333 27.167 38.166 31.5 62.499s6.5 46.5 6.5 66.5c0 20.667 -2 43.5 -6 68.5s-13.333 45.833 -28 62.5c-15.333 16.667 -32.5 26.667 -51.5 30s-36.167 5 -51.5 5h-63v-328z" />
    <glyph glyph-name="E" unicode="E" horiz-adv-x="649" 
d="M554 436v-165h-277v-86h331v-185h-531v700h523v-185h-323v-79h277z" />
    <glyph glyph-name="F" unicode="F" horiz-adv-x="598" 
d="M531 417v-171h-254v-246h-200v700h507v-192h-307v-91h254z" />
    <glyph glyph-name="G" unicode="G" horiz-adv-x="742" 
d="M685 389l-0.00292969 -389h-144l-11 62c-13.333 -18 -27.833 -32.333 -43.5 -43s-31.834 -18.667 -48.501 -24s-33 -8.83301 -49 -10.5s-31 -2.5 -45 -2.5c-16 0 -33 0.833008 -51 2.5s-36 5.16699 -54 10.5s-36 13 -54 23s-35.333 23.667 -52 41
c-28 28 -50.167 64.833 -66.5 110.5s-24.5 100.834 -24.5 165.501c0 37.333 2.83301 70.833 8.5 100.5s13.167 56.334 22.5 80.001s19.5 44.167 30.5 61.5s22.167 32 33.5 44c32 36 67 61.5 105 76.5s80.667 22.5 128 22.5c18.667 0 37.667 -1.16699 57 -3.5
s38.5 -6 57.5 -11s37.167 -11.833 54.5 -20.5s33 -19 47 -31c12 -10.667 23.333 -23.334 34 -38.001s20 -30.334 28 -47.001s14.667 -34.167 20 -52.5s9 -36.833 11 -55.5h-203c-1.33301 10 -3.83301 20.167 -7.5 30.5s-8.83398 19.5 -15.501 27.5
c-11.333 13.333 -24.166 21.666 -38.499 24.999s-26.166 5 -35.499 5c-15.333 0 -30.166 -2.83301 -44.499 -8.5s-27.166 -15.167 -38.499 -28.5c-9.33301 -10.667 -16.666 -23 -21.999 -37s-9.5 -28.333 -12.5 -43s-4.83301 -28.834 -5.5 -42.501s-1 -25.834 -1 -36.501
c0 -10 0.5 -22.167 1.5 -36.5s3 -29.166 6 -44.499s7.66699 -30.666 14 -45.999s15.166 -28.666 26.499 -39.999c13.333 -13.333 26.833 -22 40.5 -26s27.834 -6 42.501 -6c13.333 0 25.833 1.66699 37.5 5s23.167 10 34.5 20c12 10.667 21 21.667 27 33s9.66699 19 11 23
h-86v154h275z" />
    <glyph glyph-name="H" unicode="H" horiz-adv-x="721" 
d="M277 0h-200v700h200v-241h167v241h200v-700h-200v275h-167v-275z" />
    <glyph glyph-name="I" unicode="I" horiz-adv-x="354" 
d="M277 700v-700h-200v700h200z" />
    <glyph glyph-name="J" unicode="J" horiz-adv-x="584" 
d="M214 278l-0.00488281 -41.001c0 -26.667 3.66699 -46.334 11 -59.001c5.33301 -8.66699 10.833 -14.334 16.5 -17.001s12.5 -4 20.5 -4s14.333 1.33301 19 4s9.33398 7.66699 14.001 15c5.33301 9.33301 8.66602 18.5 9.99902 27.5s2 17.833 2 26.5v470h200v-438
c0 -17.333 -0.666992 -35.666 -2 -54.999s-4.16602 -38.5 -8.49902 -57.5s-10.666 -37.5 -18.999 -55.5s-19.5 -34.333 -33.5 -49c-13.333 -14 -27.666 -25.167 -42.999 -33.5s-30.833 -14.666 -46.5 -18.999s-31.167 -7.16602 -46.5 -8.49902s-29.666 -2 -42.999 -2
c-15.333 0 -31.333 0.666992 -48 2s-33 4.33301 -49 9s-31.667 11.5 -47 20.5s-29.666 20.833 -42.999 35.5c-14.667 16 -26 33.5 -34 52.5s-14 38 -18 57s-6.33301 37.667 -7 56s-1 34.833 -1 49.5v14h196z" />
    <glyph glyph-name="K" unicode="K" horiz-adv-x="702" 
d="M469 700h232l-251 -291l266 -409h-239l-155 266l-45 -55v-211h-200v700h200v-229z" />
    <glyph glyph-name="L" unicode="L" horiz-adv-x="551" 
d="M546 0h-469v700h200v-515h269v-185z" />
    <glyph glyph-name="M" unicode="M" horiz-adv-x="905" 
d="M259 460l-5 -1l5 -53v-406h-182v700h268l98 -396l6 -48h7l7 48l97 396h268v-700h-182v406l5 53l-5 1l-119 -460h-149z" />
    <glyph glyph-name="N" unicode="N" horiz-adv-x="739" 
d="M269 388l8 -53v-335h-200v700h200l184 -388h8l-8 53v335h201v-700h-201l-184 388h-8z" />
    <glyph glyph-name="O" unicode="O" horiz-adv-x="748" 
d="M42 349c0 64.667 8.83203 119.33 26.499 163.997s38.5 81 62.5 109c18.667 21.333 38 38.333 58 51s40.333 22.5 61 29.5s41.167 11.667 61.5 14s40.166 3.5 59.499 3.5c21.333 0 43 -1.33301 65 -4s43.833 -7.5 65.5 -14.5s42.667 -17 63 -30s39.5 -29.833 57.5 -50.5
c18 -20 32.5 -41.5 43.5 -64.5s19.5 -46.167 25.5 -69.5s10 -46.166 12 -68.499s3 -43.5 3 -63.5c0 -17.333 -0.833008 -37.166 -2.5 -59.499s-5.33398 -45.666 -11.001 -69.999s-14 -48.833 -25 -73.5s-25.5 -48 -43.5 -70c-18.667 -22 -38.167 -39.5 -58.5 -52.5
s-41.166 -23 -62.499 -30s-42.666 -11.667 -63.999 -14s-42 -3.5 -62 -3.5c-21.333 0 -43 1.16699 -65 3.5s-44 7.16602 -66 14.499s-43.333 17.666 -64 30.999s-40.334 31 -59.001 53c-7.33301 8.66699 -15.666 20.334 -24.999 35.001s-18.166 32.834 -26.499 54.501
s-15.333 47 -21 76s-8.5 62.167 -8.5 99.5zM254.999 350.996c0 -27.333 2.33008 -54 6.99707 -80s15 -48.667 31 -68c11.333 -13.333 23.5 -22.833 36.5 -28.5s27.833 -8.5 44.5 -8.5c16 0 30.833 2.5 44.5 7.5s26.167 14.833 37.5 29.5c10 13.333 18.667 31.833 26 55.5
s11 54.5 11 92.5c0 26.667 -2 53 -6 79s-14.333 49 -31 69c-9.33301 11.333 -20.166 20.333 -32.499 27s-27.5 10 -45.5 10c-16 0 -31.167 -2.66699 -45.5 -8s-27.166 -15 -38.499 -29c-15.333 -18.667 -25.666 -41.5 -30.999 -68.5s-8 -53.5 -8 -79.5z" />
    <glyph glyph-name="P" unicode="P" horiz-adv-x="674" 
d="M397 700c14.667 0 30.168 -0.830078 46.501 -2.49707s32.5 -4.83398 48.5 -9.50098s31.667 -11.334 47 -20.001s30 -20 44 -34c13.333 -14 24 -29.167 32 -45.5s14.167 -32.5 18.5 -48.5s7.16602 -31.5 8.49902 -46.5s2 -28.5 2 -40.5
c0 -11.333 -0.5 -24.666 -1.5 -39.999s-3.5 -31.5 -7.5 -48.5s-10 -34.167 -18 -51.5s-19 -33.333 -33 -48c-15.333 -16 -31.333 -28.333 -48 -37s-33.167 -14.834 -49.5 -18.501s-32.333 -5.83398 -48 -6.50098s-29.5 -1 -41.5 -1h-118v-202h-202v700h320zM278.001 370.003
l83.001 0.00292969c9.33301 0 19.666 0.833008 30.999 2.5s21.666 7.5 30.999 17.5c8.66699 9.33301 13.834 19.166 15.501 29.499s2.5 19.166 2.5 26.499s-0.833008 15.166 -2.5 23.499s-6.16699 16.166 -13.5 23.499c-9.33301 8.66699 -20 13.834 -32 15.501
s-22.667 2.5 -32 2.5h-83v-141z" />
    <glyph glyph-name="Q" unicode="Q" horiz-adv-x="748" 
d="M535 13c-17.333 -9.33301 -37.667 -16.835 -61 -22.502s-55.666 -8.5 -96.999 -8.5c-21.333 0 -43 1.16699 -65 3.5s-44 7.16602 -66 14.499s-43.333 17.666 -64 30.999s-40.334 31 -59.001 53c-7.33301 8.66699 -15.666 20.334 -24.999 35.001
s-18.166 32.834 -26.499 54.501s-15.333 47 -21 76s-8.5 62.167 -8.5 99.5c0 64.667 8.83301 119.334 26.5 164.001s38.5 81 62.5 109c18.667 21.333 38 38.333 58 51s40.333 22.5 61 29.5s41.167 11.667 61.5 14s40.166 3.5 59.499 3.5c21.333 0 43 -1.33301 65 -4
s43.833 -7.5 65.5 -14.5s42.667 -17 63 -30s39.5 -29.833 57.5 -50.5c18 -20 32.5 -41.5 43.5 -64.5s19.5 -46.167 25.5 -69.5s10 -46.166 12 -68.499s3 -43.5 3 -63.5c0 -51.333 -5.33301 -98 -16 -140s-31.334 -84.333 -62.001 -127l63 -71l-84 -93zM479.999 251.998
c5.33301 18 8.83008 34.668 10.4971 50.001s2.5 31.666 2.5 48.999c0 27.333 -2 53.833 -6 79.5s-14.333 48.5 -31 68.5c-9.33301 11.333 -20.166 20.333 -32.499 27s-27.5 10 -45.5 10c-16 0 -31.167 -2.66699 -45.5 -8s-27.166 -15 -38.499 -29
c-15.333 -18.667 -25.666 -41.5 -30.999 -68.5s-8 -53.5 -8 -79.5c0 -27.333 2.33301 -54 7 -80s15 -48.667 31 -68c12 -14.667 25 -24.5 39 -29.5s27.667 -7.5 41 -7.5c14.667 0 27 1.66699 37 5l-50 63l69 74z" />
    <glyph glyph-name="R" unicode="R" horiz-adv-x="694" 
d="M77 700h355.995c10 0 21.5 -0.5 34.5 -1.5s26.333 -3.5 40 -7.5s27.334 -9.83301 41.001 -17.5s26.834 -17.834 39.501 -30.501c22.667 -23.333 37.334 -48.666 44.001 -75.999s10 -55.333 10 -84c0 -22.667 -2.5 -44.5 -7.5 -65.5s-16.167 -41.167 -33.5 -60.5
c-10 -10.667 -20 -18.667 -30 -24s-19 -9.33301 -27 -12v-5c10 -3.33301 20.667 -8.33301 32 -15s22 -17.334 32 -32.001c13.333 -20 20.666 -39.333 21.999 -58s2.33301 -35.667 3 -51l2 -57c0.666992 -18.667 2.33398 -35.667 5.00098 -51s8.66699 -32.666 18 -51.999
h-207c-9.33301 16 -15.166 30.667 -17.499 44s-3.83301 27.333 -4.5 42l-1 42c0 6.66699 -0.166992 14.167 -0.5 22.5s-1.16602 16.833 -2.49902 25.5s-3.5 16.834 -6.5 24.501s-7.5 14.5 -13.5 20.5c-9.33301 9.33301 -20.333 15.166 -33 17.499s-24.667 3.5 -36 3.5h-57
v-242h-202v700zM277.995 392l100.002 -0.000976562c7.33301 0 15.666 0.833008 24.999 2.5s18.333 6.5 27 14.5s14.167 17 16.5 27s3.5 19 3.5 27c0 7.33301 -1 15.5 -3 24.5s-6.66699 17.167 -14 24.5c-8.66699 8.66699 -18.334 13.834 -29.001 15.501s-19.667 2.5 -27 2.5
h-99v-138z" />
    <glyph glyph-name="S" unicode="S" horiz-adv-x="622" 
d="M233 235c-0.666992 -12 0.831055 -25.1719 4.49805 -39.5049s9.5 -26.5 17.5 -36.5c9.33301 -11.333 19.166 -18.666 29.499 -21.999s20.5 -5 30.5 -5c5.33301 0 13.166 0.5 23.499 1.5s19.5 4.83301 27.5 11.5c6.66699 5.33301 12.167 12.5 16.5 21.5
s6.5 18.833 6.5 29.5c0 7.33301 -1.66699 15.666 -5 24.999s-9.66602 17.666 -18.999 24.999c-3.33301 3.33301 -10 7.33301 -20 12s-26 10 -48 16l-53 14c-13.333 3.33301 -27.166 7.16602 -41.499 11.499s-28.333 9.33301 -42 15s-26.834 12.334 -39.501 20.001
s-24 16.834 -34 27.501c-12.667 13.333 -23.667 30.5 -33 51.5s-14 47.167 -14 78.5c0 39.333 7.5 73 22.5 101s32.167 50.667 51.5 68c14.667 12.667 30.5 23 47.5 31s33.833 14 50.5 18s33.167 6.66699 49.5 8s31.5 2 45.5 2c12.667 0 27.334 -0.5 44.001 -1.5
s33.834 -3.5 51.501 -7.5s35.334 -10 53.001 -18s33.834 -19 48.501 -33c19.333 -18.667 34.666 -42 45.999 -70s17.333 -57.333 18 -88h-191c0 8.66699 -1.16699 17.5 -3.5 26.5s-5.83301 16.167 -10.5 21.5c-5.33301 6.66699 -12.333 12 -21 16s-19 6 -31 6
c-9.33301 0 -18.166 -1 -26.499 -3s-15.833 -5 -22.5 -9c-7.33301 -5.33301 -12.666 -11.5 -15.999 -18.5s-5 -14.5 -5 -22.5c0 -5.33301 0.666992 -10.666 2 -15.999s4.66602 -10.666 9.99902 -15.999c8 -8.66699 19.167 -15 33.5 -19l52.5 -14l58 -15
c22 -5.33301 46.5 -13.166 73.5 -23.499s51.167 -27.166 72.5 -50.499c11.333 -12 22.333 -29 33 -51s16 -50.333 16 -85c0 -34 -5.33301 -65.833 -16 -95.5s-25.334 -54.5 -44.001 -74.5c-16 -18 -33.667 -32 -53 -42s-39 -17.667 -59 -23s-39.667 -8.66602 -59 -9.99902
s-37 -2 -53 -2c-15.333 0 -32.5 0.666992 -51.5 2s-38.167 4.83301 -57.5 10.5s-38.5 13.667 -57.5 24s-36.167 24.5 -51.5 42.5c-19.333 22 -34 49 -44 81s-15.333 63 -16 93h203z" />
    <glyph glyph-name="T" unicode="T" horiz-adv-x="570" 
d="M9 508v192h552v-192h-176v-508h-200v508h-176z" />
    <glyph glyph-name="U" unicode="U" horiz-adv-x="738" 
d="M661 263c0 -16.667 -0.501953 -33.5 -1.50195 -50.5s-3.66699 -33.833 -8 -50.5s-10.666 -33.167 -18.999 -49.5s-19.5 -32.5 -33.5 -48.5c-28.667 -32 -62.334 -53.667 -101.001 -65s-81.334 -17 -128.001 -17c-46 0 -88.833 5.66699 -128.5 17s-73.834 33 -102.501 65
c-13.333 15.333 -24.166 31 -32.499 47s-14.666 32.333 -18.999 49s-7.16602 33.667 -8.49902 51s-2 35 -2 53v436h201v-427c0 -14 1.33301 -29.167 4 -45.5s9.33398 -30.5 20.001 -42.5c10.667 -12.667 22.5 -20.334 35.5 -23.001s23.5 -4 31.5 -4s18.5 1.33301 31.5 4
s24.833 10.334 35.5 23.001c8.66699 10 15 22.833 19 38.5s6 32.167 6 49.5v427h200v-437z" />
    <glyph glyph-name="V" unicode="V" horiz-adv-x="617" 
d="M323 327l84 373h214l-211 -700h-204l-210 700h213l86 -373l10 -71h7z" />
    <glyph glyph-name="W" unicode="W" horiz-adv-x="889" 
d="M370 0h-202l-172 700h197l73 -375l12 -81l77 456h178l69 -377l10 -79l12 91l73 365h196l-171 -700h-200l-77 455z" />
    <glyph glyph-name="X" unicode="X" horiz-adv-x="675" 
d="M235 0h-244l231 366l-200 334h217l102 -195l103 195h222l-206 -334l224 -366h-240l-103 204z" />
    <glyph glyph-name="Y" unicode="Y" horiz-adv-x="617" 
d="M410 700h216l-218 -455v-245h-200v245l-217 455h216l103 -282z" />
    <glyph glyph-name="Z" unicode="Z" horiz-adv-x="626" 
d="M48 508v192h518v-155l-303 -353h327v-192h-554v189l279 319h-267z" />
    <glyph glyph-name="bracketleft" unicode="[" horiz-adv-x="361" 
d="M313 761v-133h-86v-644h86v-136h-265v913h265z" />
    <glyph glyph-name="backslash" unicode="\" horiz-adv-x="414" 
d="M330 -185l-330 885h84l330 -885h-84z" />
    <glyph glyph-name="bracketright" unicode="]" horiz-adv-x="361" 
d="M313 -152h-265v136h86v644h-86v133h265v-913z" />
    <glyph glyph-name="asciicircum" unicode="^" horiz-adv-x="514" 
d="M171 482h-145l140 218h180l140 -218h-145l-85 145z" />
    <glyph glyph-name="underscore" unicode="_" horiz-adv-x="447" 
d="M0 -105h447v-85h-447v85z" />
    <glyph glyph-name="grave" unicode="`" horiz-adv-x="332" 
d="M241 568h-120l-104 132h165z" />
    <glyph glyph-name="a" unicode="a" horiz-adv-x="568" 
d="M47 340c1.33301 23.333 6.16699 45.3301 14.5 65.9971s18.5 38 30.5 52c12.667 14.667 26.834 26.5 42.501 35.5s31.834 15.833 48.501 20.5s33.334 7.83398 50.001 9.50098s32.667 2.5 48 2.5c12 0 25.833 -0.5 41.5 -1.5s32 -3.33301 49 -7s33.833 -9.5 50.5 -17.5
s31.667 -19 45 -33c10.667 -11.333 19.167 -23.333 25.5 -36s11 -25.334 14 -38.001s4.83301 -25.167 5.5 -37.5s1 -23.5 1 -33.5v-234c0 -15.333 0.5 -27.5 1.5 -36.5s2.83301 -16.167 5.5 -21.5c3.33301 -7.33301 7.33301 -12.666 12 -15.999
s8.66699 -5.66602 12 -6.99902v-7h-194l-11 55h-2c-14.667 -20 -33 -36.333 -55 -49c-18.667 -10.667 -37.5 -17.334 -56.5 -20.001s-35.833 -4 -50.5 -4c-18 0 -37 2.16699 -57 6.5s-38.667 15.166 -56 32.499c-16.667 16.667 -27.167 34.834 -31.5 54.501
s-6.5 38.167 -6.5 55.5c0 19.333 2.16699 37 6.5 53s13.166 31.333 26.499 46c18 20 38.167 33.667 60.5 41s42.833 12 61.5 14l59 7c21.333 2.66699 38.666 5.33398 51.999 8.00098s23.333 7.33398 30 14.001c6 6 9.66699 12.5 11 19.5s2 13.833 2 20.5
c0 7.33301 -0.5 13.833 -1.5 19.5s-4.16699 11.167 -9.5 16.5c-6.66699 7.33301 -14.5 11.5 -23.5 12.5s-16.167 1.5 -21.5 1.5c-9.33301 0 -17.833 -0.833008 -25.5 -2.5s-14.834 -6.16699 -21.501 -13.5c-5.33301 -6 -9.33301 -13.5 -12 -22.5s-3.66699 -17.5 -3 -25.5
h-168zM333.001 229.997c-11.333 -8 -21.334 -13.3301 -30.001 -15.9971s-18 -4.66699 -28 -6c-11.333 -2 -22.166 -4.33301 -32.499 -7s-19.166 -8.33398 -26.499 -17.001c-8 -8.66699 -12 -19.334 -12 -32.001c0 -7.33301 1.33301 -13.833 4 -19.5s5.66699 -10.167 9 -13.5
c5.33301 -5.33301 11 -8.83301 17 -10.5s11.667 -2.5 17 -2.5c11.333 0 21.333 1.66699 30 5s17 9.33301 25 18c13.333 14.667 21.166 29.167 23.499 43.5s3.5 29.166 3.5 44.499v13z" />
    <glyph glyph-name="b" unicode="b" horiz-adv-x="623" 
d="M230 0l-170.998 -0.00195312v700h180v-235c11.333 14 23.166 25 35.499 33s24.5 14 36.5 18s23.333 6.66699 34 8s20 2 28 2c30 0 57.667 -4.66699 83 -14s48.666 -26.333 69.999 -51c19.333 -22.667 35 -51.334 47 -86.001s18 -75 18 -121
c0 -42 -5.66699 -81.333 -17 -118s-28.333 -67.667 -51 -93c-22 -24 -45.333 -40.167 -70 -48.5s-52 -12.5 -82 -12.5c-10 0 -21.167 0.833008 -33.5 2.5s-24.5 4.83398 -36.5 9.50098s-23.833 11.334 -35.5 20.001s-22.167 20.334 -31.5 35.001h-4v-49zM232.002 247.998
c0 -15.333 1.66699 -33.5 5 -54.5s12 -39.167 26 -54.5c6.66699 -7.33301 14.5 -13.333 23.5 -18s19.833 -7 32.5 -7c21.333 0 39 8 53 24c2 2 4.66699 5.5 8 10.5s6.83301 12.167 10.5 21.5s6.83398 20.833 9.50098 34.5s4 30.167 4 49.5c0 16 -1.83301 34.333 -5.5 55
s-11.834 38 -24.501 52c-13.333 15.333 -31.333 23 -54 23c-24 0 -43.333 -8.33301 -58 -25c-7.33301 -8 -13 -16.833 -17 -26.5s-7 -19.5 -9 -29.5s-3.16699 -19.833 -3.5 -29.5s-0.5 -18.167 -0.5 -25.5z" />
    <glyph glyph-name="c" unicode="c" horiz-adv-x="566" 
d="M534 200c-2 -21.333 -5.82227 -40.3389 -11.4893 -57.0059s-11.834 -31 -18.501 -43s-12.834 -22 -18.501 -30s-9.83398 -13.333 -12.501 -16c-14.667 -16 -30.167 -28.833 -46.5 -38.5s-32.666 -17 -48.999 -22s-32.833 -8.16699 -49.5 -9.5s-32.334 -2 -47.001 -2
s-29.834 0.666992 -45.501 2s-31.5 4.33301 -47.5 9s-31.667 11.5 -47 20.5s-30 20.833 -44 35.5c-20 21.333 -35.833 48 -47.5 80s-17.5 68.667 -17.5 110c0 40 6.33301 78.667 19 116s30.667 69 54 95c14 15.333 28.833 27.833 44.5 37.5s31.667 17.334 48 23.001
s32.666 9.66699 48.999 12s32.166 3.5 47.499 3.5c13.333 0 27.833 -0.833008 43.5 -2.5s31.5 -5.16699 47.5 -10.5s31.667 -12.666 47 -21.999s29.666 -21.666 42.999 -36.999c16.667 -19.333 29.667 -41.666 39 -66.999s14.666 -51.666 15.999 -78.999h-166
c0 12 -1.66699 24.5 -5 37.5s-8.66602 23.167 -15.999 30.5c-10.667 12 -26.667 18 -48 18c-20 0 -36.667 -7 -50 -21c-12 -13.333 -19.333 -30.833 -22 -52.5s-4 -43.167 -4 -64.5c0 -7.33301 0.166992 -16.166 0.5 -26.499s1.16602 -21.166 2.49902 -32.499
s3.83301 -22.5 7.5 -33.5s9.16699 -20.5 16.5 -28.5c7.33301 -8.66699 15.166 -14.334 23.499 -17.001s17.166 -4 26.499 -4c6.66699 0 14.5 1 23.5 3s17.167 6.66699 24.5 14s12.666 18.333 15.999 33s5 26.667 5 36h169z" />
    <glyph glyph-name="d" unicode="d" horiz-adv-x="623" 
d="M387 0l0.00683594 49h-4c-10.667 -14.667 -22.334 -26.5 -35.001 -35.5s-25.334 -15.833 -38.001 -20.5s-25 -7.66699 -37 -9s-22.667 -2 -32 -2c-28 0 -54.333 4.66699 -79 14s-47.334 26 -68.001 50c-20 23.333 -35.333 51.833 -46 85.5s-16 70.5 -16 110.5
c0 18 1.16699 36.667 3.5 56s6.16602 38.5 11.499 57.5s12.166 37.333 20.499 55s18.5 33.5 30.5 47.5c21.333 25.333 44.333 43 69 53s51.667 15 81 15c19.333 0 36.166 -2 50.499 -6s26.666 -9 36.999 -15s19 -12.667 26 -20s12.5 -14 16.5 -20v235h186v-700h-177z
M390.007 255c0 17.333 -1.66504 35.167 -4.99805 53.5s-11.333 34.833 -24 49.5c-8.66699 9.33301 -17.834 16 -27.501 20s-20.167 6 -31.5 6c-22 0 -39.667 -7.66699 -53 -23c-9.33301 -10 -16.666 -23.833 -21.999 -41.5s-8 -41.167 -8 -70.5c0 -4 0.333008 -10.667 1 -20
s2.16699 -19.5 4.5 -30.5s5.66602 -22 9.99902 -33s10.166 -20.5 17.499 -28.5c6 -6 13.5 -11.333 22.5 -16s19.5 -7 31.5 -7c22.667 0 41 8.33301 55 25c13.333 16 21.5 34.333 24.5 55s4.5 41 4.5 61z" />
    <glyph glyph-name="e" unicode="e" horiz-adv-x="583" 
d="M545 147c-9.33301 -35.333 -23 -63.168 -41 -83.501s-34 -34.833 -48 -43.5c-28.667 -18.667 -57.667 -29.667 -87 -33s-55 -5 -77 -5c-17.333 0 -34.833 0.666992 -52.5 2s-35 4.5 -52 9.5s-33.5 12 -49.5 21s-31 21.5 -45 37.5
c-17.333 19.333 -31.833 44.666 -43.5 75.999s-17.5 68.333 -17.5 111c0 48 6.66699 88.833 20 122.5s29 61.167 47 82.5c28 32.667 58.667 54.5 92 65.5s67.666 16.5 102.999 16.5c14.667 0 30.334 -0.833008 47.001 -2.5s33.667 -5.16699 51 -10.5s34.333 -13 51 -23
s32.334 -23 47.001 -39c16 -18 28.167 -37 36.5 -57s14.333 -40 18 -60s5.83398 -39.5 6.50098 -58.5s1 -36.167 1 -51.5v-12h-335c-0.666992 -12 0.333008 -25.333 3 -40s7.66699 -27 15 -37c8.66699 -11.333 18.667 -19 30 -23s22.666 -6 33.999 -6
c6.66699 0 14 0.666992 22 2s15.667 4 23 8c8 4.66699 13.667 9.83398 17 15.501s5.66602 10.834 6.99902 15.501h177zM366 311.998c0 11.333 -1.66797 23.499 -5.00098 36.499s-8.66602 23.5 -15.999 31.5c-7.33301 8.66699 -15.333 14.334 -24 17.001s-17 4 -25 4
c-11.333 0 -21.333 -1.66699 -30 -5s-16.667 -9 -24 -17s-13 -18.333 -17 -31s-6.33301 -24.667 -7 -36h148z" />
    <glyph glyph-name="f" unicode="f" horiz-adv-x="385" 
d="M380 370h-112.004v-370h-180v370h-83v138h83v8c0 24 2.16699 48.167 6.5 72.5s15.833 46.166 34.5 65.499s40.334 31.833 65.001 37.5s48.334 8.5 71.001 8.5c15.333 0 34 -1 56 -3s41.667 -4.33301 59 -7v-127c-7.33301 2 -16.166 3.83301 -26.499 5.5
s-20.166 2.5 -29.499 2.5c-6.66699 0 -13.667 -0.833008 -21 -2.5s-14 -5.16699 -20 -10.5c-8 -7.33301 -12.5 -14.666 -13.5 -21.999s-1.5 -15.333 -1.5 -24v-4h112v-138z" />
    <glyph glyph-name="g" unicode="g" horiz-adv-x="612" 
d="M238 -25c1.33301 -14.667 6.33105 -25.9971 14.998 -33.9971c6 -5.33301 13.667 -8.66602 23 -9.99902s17.333 -2 24 -2c8.66699 0 18 0.833008 28 2.5s19.333 7.16699 28 16.5c8 9.33301 12.833 19.166 14.5 29.499s2.5 20.5 2.5 30.5v56h-4
c-10.667 -10 -21.667 -18 -33 -24s-22.5 -10.5 -33.5 -13.5s-21.667 -4.83301 -32 -5.5s-19.833 -1 -28.5 -1c-26 0 -52.333 3 -79 9s-51.334 21.667 -74.001 47c-13.333 14.667 -23.833 30.5 -31.5 47.5s-13.334 33.833 -17.001 50.5s-6 32.5 -7 47.5
s-1.5 27.833 -1.5 38.5c0 14.667 0.833008 30.5 2.5 47.5s4.66699 34 9 51s10.5 34 18.5 51s18.333 33.167 31 48.5c19.333 23.333 41 40.5 65 51.5s52.333 16.5 85 16.5c19.333 0 36.333 -2 51 -6s27.5 -9 38.5 -15s20.333 -12.5 28 -19.5s14.167 -13.833 19.5 -20.5h5v43
h168v-432c0 -18 -0.666992 -36 -2 -54s-4.16602 -35.833 -8.49902 -53.5s-10.666 -34.667 -18.999 -51s-19.166 -31.833 -32.499 -46.5c-14 -15.333 -29 -27.333 -45 -36s-32.333 -15.167 -49 -19.5s-33.334 -7 -50.001 -8s-33 -1.5 -49 -1.5c-12 0 -25.167 0.5 -39.5 1.5
s-28.666 3 -42.999 6s-28.666 7.33301 -42.999 13s-27.5 13.167 -39.5 22.5c-6 4.66699 -12.333 10.667 -19 18s-13 16.166 -19 26.499s-11.167 22.166 -15.5 35.499s-6.83301 28.666 -7.5 45.999h166zM218.998 269.003c0 -15.333 1.16895 -30.833 3.50195 -46.5
s8.5 -30.167 18.5 -43.5c14 -19.333 33.333 -29 58 -29c12 0 22.833 2.33301 32.5 7s17.5 10.667 23.5 18c5.33301 6 10.666 16 15.999 30s8 35.667 8 65c0 14 -1.5 29.833 -4.5 47.5s-10.167 33.167 -21.5 46.5c-8.66699 9.33301 -17.834 15.666 -27.501 18.999
s-18.5 5 -26.5 5c-11.333 0 -21.333 -2.33301 -30 -7s-16 -10 -22 -16c-12 -13.333 -19.667 -28.666 -23 -45.999s-5 -34 -5 -50z" />
    <glyph glyph-name="h" unicode="h" 
d="M231 457l3.99805 -0.00292969c10.667 14 21.5 24.833 32.5 32.5s19.167 13.167 24.5 16.5c15.333 8 30.333 13.333 45 16s29.667 4 45 4c21.333 0 43 -2.83301 65 -8.5s42.667 -18.5 62 -38.5c20.667 -22 33.5 -47.167 38.5 -75.5s7.5 -60.166 7.5 -95.499v-308h-180v275
c0 19.333 -1.16699 34.833 -3.5 46.5s-5.83301 21.167 -10.5 28.5c-6.66699 10 -14.167 16.833 -22.5 20.5s-17.166 5.5 -26.499 5.5c-24 0 -42.333 -9.66699 -55 -29c-7.33301 -11.333 -12.166 -23.666 -14.499 -36.999s-3.5 -25.666 -3.5 -36.999v-273h-180v700h172v-243z
" />
    <glyph glyph-name="i" unicode="i" horiz-adv-x="298" 
d="M239 508v-508h-180v508h180zM59 700h180v-132h-180v132z" />
    <glyph glyph-name="j" unicode="j" horiz-adv-x="303" 
d="M64 700h180v-132h-180v132zM244 508l-0.00292969 -507.001c0 -23.333 -2 -48.166 -6 -74.499s-15 -49.5 -33 -69.5c-9.33301 -10.667 -19.666 -19 -30.999 -25s-22.833 -10.5 -34.5 -13.5s-23.167 -4.83301 -34.5 -5.5s-21.333 -1 -30 -1c-22 0 -40.667 1.16699 -56 3.5
s-27.666 4.5 -36.999 6.5v142c12.667 -2 22.334 -3 29.001 -3c4 0 10.167 0.5 18.5 1.5s15.5 4.83301 21.5 11.5c5.33301 5.33301 8.83301 12.833 10.5 22.5s2.5 20.5 2.5 32.5v479h180z" />
    <glyph glyph-name="k" unicode="k" horiz-adv-x="569" 
d="M373 508h200l-180 -205l185 -303h-201l-98 183l-40 -44v-139h-180v700h180v-350z" />
    <glyph glyph-name="l" unicode="l" horiz-adv-x="298" 
d="M239 700v-700h-180v700h180z" />
    <glyph glyph-name="m" unicode="m" horiz-adv-x="897" 
d="M221 508l0.00292969 -69.0039h5c5.33301 10 12.333 20.5 21 31.5s18.667 20.5 30 28.5s24.166 14.5 38.499 19.5s30.5 7.5 48.5 7.5c16 0 32 -2.33301 48 -7s29.667 -11 41 -19c10.667 -7.33301 20.334 -17.333 29.001 -30s15.667 -26 21 -40
c3.33301 6.66699 9.66602 16.334 18.999 29.001s22 24.667 38 36c15.333 11.333 31.166 19.333 47.499 24s35.166 7 56.499 7c7.33301 0 16 -0.5 26 -1.5s20.5 -3 31.5 -6s22.167 -7.5 33.5 -13.5s22 -14.333 32 -25l13 -17c6 -8 11.667 -19 17 -33
s10.166 -31.5 14.499 -52.5s6.5 -46.167 6.5 -75.5v-302h-176v284c0 12 -0.666992 24 -2 36s-5.66602 23.333 -12.999 34c-10 15.333 -24.333 23 -43 23c-22.667 0 -39.667 -9.66699 -51 -29c-5.33301 -10 -9.5 -21.667 -12.5 -35s-4.5 -25.666 -4.5 -36.999v-276h-175v288
c0 12 -1.33301 25 -4 39s-7 24.667 -13 32c-5.33301 6.66699 -11.5 11.334 -18.5 14.001s-14.5 4 -22.5 4c-22 0 -39 -9.33301 -51 -28c-6 -9.33301 -10.333 -20.166 -13 -32.499s-4 -24.833 -4 -37.5v-279h-176v508h162z" />
    <glyph glyph-name="n" unicode="n" 
d="M231 457l3.99902 -0.00292969c10.667 14 21.5 24.833 32.5 32.5s19.167 13.167 24.5 16.5c15.333 8 30.333 13.333 45 16s29.667 4 45 4c21.333 0 43 -2.83301 65 -8.5s42.667 -18.5 62 -38.5c20.667 -22 33.5 -47.167 38.5 -75.5s7.5 -60.166 7.5 -95.499v-308h-180v275
c0 25.333 -2 43.5 -6 54.5s-6.66699 17.833 -8 20.5c-7.33301 11.333 -15.5 18.5 -24.5 21.5s-17.167 4.5 -24.5 4.5c-24 0 -42.333 -9.66699 -55 -29c-7.33301 -11.333 -12.166 -23.666 -14.499 -36.999s-3.5 -25.666 -3.5 -36.999v-273h-180v508h172v-51z" />
    <glyph glyph-name="o" unicode="o" horiz-adv-x="590" 
d="M558 255c0 -48 -6.33203 -88.167 -18.999 -120.5s-28.667 -58.5 -48 -78.5c-15.333 -16 -31.5 -28.833 -48.5 -38.5s-34.167 -17.167 -51.5 -22.5s-34.166 -8.83301 -50.499 -10.5s-31.5 -2.5 -45.5 -2.5s-29.333 0.833008 -46 2.5s-33.667 5.16699 -51 10.5
s-34.5 12.833 -51.5 22.5s-32.833 22.5 -47.5 38.5c-7.33301 7.33301 -14.833 16.833 -22.5 28.5s-14.834 25.667 -21.501 42s-12.167 35 -16.5 56s-6.5 45.167 -6.5 72.5c0 46 6.66699 85.333 20 118s29.333 59 48 79c14.667 16 30.667 28.833 48 38.5
s34.666 17.167 51.999 22.5s34.166 8.83301 50.499 10.5s31.5 2.5 45.5 2.5c11.333 0 24.833 -0.666992 40.5 -2s32.334 -4.5 50.001 -9.5s35.667 -12.333 54 -22s35.5 -23.167 51.5 -40.5c7.33301 -8 15 -17.833 23 -29.5s15.167 -25.5 21.5 -41.5s11.5 -34.5 15.5 -55.5
s6 -44.5 6 -70.5zM295.001 394c-18 0 -32.999 -6.66699 -44.999 -20c-6.66699 -7.33301 -12 -16 -16 -26s-7.16699 -20.333 -9.5 -31s-3.83301 -21.5 -4.5 -32.5s-1 -21.167 -1 -30.5s0.333008 -19.5 1 -30.5s2.16699 -22 4.5 -33s5.66602 -21.5 9.99902 -31.5
s9.83301 -18.667 16.5 -26c11.333 -12.667 26 -19 44 -19s33 6.66699 45 20c12.667 14.667 21 33.667 25 57s6 44.333 6 63s-2 39.667 -6 63s-12.333 42.333 -25 57c-12 13.333 -27 20 -45 20z" />
    <glyph glyph-name="p" unicode="p" horiz-adv-x="623" 
d="M230 508v-56h4c10 16.667 21.167 29.834 33.5 39.501s25.166 17 38.499 22s26.5 8.33301 39.5 10s25.167 2.5 36.5 2.5c10.667 0 22 -0.5 34 -1.5s24.333 -3.33301 37 -7s25.167 -9.16699 37.5 -16.5s24.5 -17.333 36.5 -30c16 -17.333 28.333 -36.5 37 -57.5
s15 -41.5 19 -61.5s6.33301 -38.167 7 -54.5s1 -27.833 1 -34.5c0 -42.667 -5.5 -83.334 -16.5 -122.001s-27.833 -71 -50.5 -97c-22 -25.333 -45.667 -42 -71 -50s-53 -12 -83 -12c-10 0 -20.5 0.666992 -31.5 2s-22.167 3.83301 -33.5 7.5s-22.666 9.16699 -33.999 16.5
s-22 17 -32 29v-222h-180v693h171zM232 248c0 -30 2.83301 -52.668 8.5 -68.001s11.167 -26.666 16.5 -33.999c7.33301 -9.33301 16 -17 26 -23s21.667 -9 35 -9c11.333 0 21.666 2 30.999 6s18 10.667 26 20c14 16.667 22.333 35.167 25 55.5s4 37.833 4 52.5
c0 16 -1.33301 34.333 -4 55s-11 39 -25 55c-8 9.33301 -16.667 16 -26 20s-19.666 6 -30.999 6c-12 0 -22.5 -2.33301 -31.5 -7s-17.167 -11 -24.5 -19s-13 -17.333 -17 -28s-7 -21.167 -9 -31.5s-3.16699 -20 -3.5 -29s-0.5 -16.167 -0.5 -21.5z" />
    <glyph glyph-name="q" unicode="q" horiz-adv-x="623" 
d="M393 508l171 -0.000976562v-693h-180v222c-10.667 -12 -21.834 -21.667 -33.501 -29s-23.5 -13 -35.5 -17s-23.667 -6.5 -35 -7.5s-22 -1.5 -32 -1.5c-25.333 0 -50.833 3.33301 -76.5 10s-50.167 22.334 -73.5 47.001c-16 17.333 -31 42.166 -45 74.499
s-21 75.5 -21 129.5c0 42 5.33301 82.333 16 121s28 72 52 100c21.333 24.667 44 41.167 68 49.5s51 12.5 81 12.5c10.667 0 22.167 -0.833008 34.5 -2.5s24.833 -5.16699 37.5 -10.5s24.834 -12.666 36.501 -21.999s22.167 -22 31.5 -38h4v55zM391 255.999
c0 18 -1.66699 36.5 -5 55.5s-11.666 35.5 -24.999 49.5c-14 15.333 -32.333 23 -55 23c-10 0 -19.667 -1.66699 -29 -5s-18 -9.33301 -26 -18c-7.33301 -8 -13.166 -17 -17.499 -27s-7.5 -20.167 -9.5 -30.5s-3.33301 -20.5 -4 -30.5s-1 -18.333 -1 -25
c0 -16.667 1.66699 -34.667 5 -54s10.666 -36.333 21.999 -51c8 -10.667 16.833 -18.167 26.5 -22.5s20.167 -6.5 31.5 -6.5s21.5 1.83301 30.5 5.5s17.833 10.5 26.5 20.5c9.33301 10.667 16.666 25.167 21.999 43.5s8 42.5 8 72.5z" />
    <glyph glyph-name="r" unicode="r" horiz-adv-x="435" 
d="M421 358c-7.33301 1.33301 -15.999 2.49902 -25.999 3.49902s-19.667 1.5 -29 1.5c-13.333 0 -28.833 -2.33301 -46.5 -7s-33.5 -15 -47.5 -31c-15.333 -18 -24.666 -39.5 -27.999 -64.5s-5 -49.167 -5 -72.5v-188h-180v508h172v-72
c7.33301 12 16.166 23.833 26.499 35.5s21.833 21.167 34.5 28.5c15.333 9.33301 31 15.333 47 18s31.333 4 46 4c7.33301 0 13.666 -0.166992 18.999 -0.5s11 -1.16602 17 -2.49902v-161z" />
    <glyph glyph-name="s" unicode="s" horiz-adv-x="533" 
d="M205 168c-1.33301 -8.66699 -0.662109 -18.168 2.00488 -28.501s7 -18.833 13 -25.5c6.66699 -7.33301 14.334 -12 23.001 -14s17.667 -3 27 -3c8.66699 0 17 0.5 25 1.5s15.667 4.16699 23 9.5c5.33301 3.33301 9.83301 8 13.5 14s5.5 13.667 5.5 23
c0 15.333 -7.66699 26.666 -23 33.999c-4.66699 2 -11 4.16699 -19 6.5s-22.667 5.16602 -44 8.49902l-46 8c-22.667 4 -44.834 9.33301 -66.501 16s-40.5 17.667 -56.5 33s-26.167 31.666 -30.5 48.999s-6.5 33.666 -6.5 48.999c0 26 4.5 50.5 13.5 73.5
s25.167 43.167 48.5 60.5c24.667 18.667 51.667 30.5 81 35.5s57.333 7.5 84 7.5c26 0 53 -2.5 81 -7.5s52.333 -15.167 73 -30.5c14.667 -11.333 28.167 -27.666 40.5 -48.999s19.166 -47 20.499 -77h-155c0.666992 9.33301 -0.5 17.833 -3.5 25.5
s-6.83301 14.167 -11.5 19.5c-7.33301 7.33301 -15.166 11.833 -23.499 13.5s-16.5 2.5 -24.5 2.5c-7.33301 0 -14.833 -0.666992 -22.5 -2s-14.834 -4.66602 -21.501 -9.99902c-4.66699 -3.33301 -8.5 -7.83301 -11.5 -13.5s-4.5 -12.5 -4.5 -20.5
c0 -13.333 6.33301 -23.666 19 -30.999c4.66699 -2.66699 11.167 -5 19.5 -7s21.833 -4.66699 40.5 -8l62 -10c16 -2.66699 35.167 -7.5 57.5 -14.5s42.166 -19.5 59.499 -37.5c15.333 -16.667 25.5 -34.167 30.5 -52.5s7.5 -35.166 7.5 -50.499
c0 -30.667 -5.33301 -58 -16 -82s-25.334 -43.333 -44.001 -58c-12 -10 -25.5 -17.833 -40.5 -23.5s-30.5 -10 -46.5 -13s-31.833 -5 -47.5 -6s-29.834 -1.5 -42.501 -1.5c-40.667 0 -77.834 3.83301 -111.501 11.5s-62.167 24.834 -85.5 51.501
c-12.667 14.667 -23 32.667 -31 54s-12 44.333 -12 69h177z" />
    <glyph glyph-name="t" unicode="t" horiz-adv-x="392" 
d="M5 508l81.998 -0.000976562v150h180v-150h102v-138h-102v-168c0 -15.333 1 -27.166 3 -35.499s5 -14.833 9 -19.5c6 -6.66699 13.333 -10.667 22 -12s15.334 -2 20.001 -2c9.33301 0 17.833 0.666992 25.5 2s15.167 3 22.5 5v-141c-20 -5.33301 -39.333 -9 -58 -11
s-37.667 -3 -57 -3c-9.33301 0 -19.833 0.333008 -31.5 1s-23.667 2.5 -36 5.5s-24.166 7.33301 -35.499 13s-21.333 13.167 -30 22.5c-22.667 26 -34 67.667 -34 125v218h-82v138z" />
    <glyph glyph-name="u" unicode="u" 
d="M383 54l-3.99902 0.00195312c-10.667 -14 -21.5 -24.833 -32.5 -32.5s-19.167 -13.167 -24.5 -16.5c-15.333 -8 -30.333 -13.333 -45 -16s-29.667 -4 -45 -4c-21.333 0 -43 2.83301 -65 8.5s-42.667 18.5 -62 38.5c-20.667 22 -33.5 47.167 -38.5 75.5
s-7.5 60.166 -7.5 95.499v305h180v-272c0 -26 2.16699 -44.667 6.5 -56s6.83301 -17.666 7.5 -18.999c7.33301 -11.333 15.5 -18.5 24.5 -21.5s17.167 -4.5 24.5 -4.5c24 0 42.333 9.66699 55 29c7.33301 11.333 12.166 23.666 14.499 36.999s3.5 25.666 3.5 36.999v270h180
v-508h-172v54z" />
    <glyph glyph-name="v" unicode="v" horiz-adv-x="506" 
d="M252 191l86 317h177l-168 -508h-194l-162 508h181l74 -317h6z" />
    <glyph glyph-name="w" unicode="w" horiz-adv-x="754" 
d="M378 281l-61 -281h-167l-159 508h171l76 -292h2l61 292h154l62 -292h2l71 292h173l-153 -508h-164l-63 281h-5z" />
    <glyph glyph-name="x" unicode="x" horiz-adv-x="497" 
d="M323 508h183l-161 -245l161 -263h-182l-74 142l-76 -142h-183l166 263l-157 245h180l71 -142z" />
    <glyph glyph-name="y" unicode="y" horiz-adv-x="500" 
d="M40 -40c9.33301 -4 18.1719 -6.66699 26.5049 -8s18.166 -2 29.499 -2c7.33301 0 14.666 0.5 21.999 1.5s14.666 4.83301 21.999 11.5c7.33301 6 12.666 12.833 15.999 20.5s5.66602 15.167 6.99902 22.5l5 25l-182 477h186l88 -313h5l69 313h172l-161 -502
c-7.33301 -23.333 -15.833 -48.5 -25.5 -75.5s-23.5 -49.833 -41.5 -68.5c-12 -12 -29 -23.333 -51 -34s-51.333 -16 -88 -16c-15.333 0 -31.5 1 -48.5 3s-33.833 5.33301 -50.5 10v135z" />
    <glyph glyph-name="z" unicode="z" horiz-adv-x="482" 
d="M43 508h404v-140l-228 -229h240v-139h-436v140l231 230h-211v138z" />
    <glyph glyph-name="braceleft" unicode="{" horiz-adv-x="484" 
d="M119 361c22 1.33301 39.333 8.33496 52 21.002c13.333 12.667 21.666 28.667 24.999 48s5 37 5 53c0 10.667 -0.166992 21.167 -0.5 31.5s-0.833008 20.833 -1.5 31.5s-1.16699 21 -1.5 31s-0.5 20.333 -0.5 31c0 9.33301 0.333008 19.833 1 31.5s2.5 23.5 5.5 35.5
s7.33301 24 13 36s13.5 23 23.5 33c15.333 15.333 35.333 27.666 60 36.999s51 14 79 14h11v-95c-5.33301 -0.666992 -11.333 -2.16699 -18 -4.5s-13 -7.16602 -19 -14.499c-9.33301 -10 -14.666 -21 -15.999 -33s-2 -24 -2 -36c0 -16.667 0.166992 -28.167 0.5 -34.5
s0.833008 -12 1.5 -17s1.16699 -11.833 1.5 -20.5s0.5 -23.334 0.5 -44.001c0 -23.333 -2.5 -46.5 -7.5 -69.5s-17.5 -45.167 -37.5 -66.5c-15.333 -15.333 -30.666 -27 -45.999 -35s-25.333 -12.667 -30 -14v-8c4.66699 -1.33301 14.667 -6 30 -14
s30.666 -19.667 45.999 -35c20 -21.333 32.5 -43.5 37.5 -66.5s7.5 -46.167 7.5 -69.5c0 -20.667 -0.166992 -35.334 -0.5 -44.001s-0.833008 -15.5 -1.5 -20.5s-1.16699 -10.667 -1.5 -17s-0.5 -17.833 -0.5 -34.5c0 -12 0.666992 -24 2 -36s6.66602 -23 15.999 -33
c6 -7.33301 12.333 -12.166 19 -14.499s12.667 -3.83301 18 -4.5v-95h-11c-23.333 0 -48 4.16699 -74 12.5s-47.667 21.166 -65 38.499c-10 10 -17.833 21 -23.5 33s-10 24 -13 36s-4.83301 23.833 -5.5 35.5s-1 22.167 -1 31.5c0 10.667 0.166992 21 0.5 31
s0.833008 20.333 1.5 31s1.16699 21.167 1.5 31.5s0.5 20.833 0.5 31.5c0 16 -1.66699 33.667 -5 53s-11.666 35.333 -24.999 48c-12.667 12.667 -30 19.667 -52 21v108z" />
    <glyph glyph-name="bar" unicode="|" horiz-adv-x="437" 
d="M176 829h85v-1053h-85v1053z" />
    <glyph glyph-name="braceright" unicode="}" horiz-adv-x="484" 
d="M365 253c-22 -1.33301 -39.333 -8.33496 -52 -21.002c-13.333 -12.667 -21.666 -28.667 -24.999 -48s-5 -37 -5 -53c0 -10.667 0.166992 -21.167 0.5 -31.5s0.833008 -20.833 1.5 -31.5s1.16699 -21 1.5 -31s0.5 -20.333 0.5 -31c0 -9.33301 -0.333008 -19.833 -1 -31.5
s-2.5 -23.5 -5.5 -35.5s-7.33301 -24 -13 -36s-13.5 -23 -23.5 -33c-17.333 -17.333 -39 -30.166 -65 -38.499s-50.667 -12.5 -74 -12.5h-11v95c5.33301 0.666992 11.333 2.16699 18 4.5s13 7.16602 19 14.499c9.33301 10 14.666 21 15.999 33s2 24 2 36
c0 16.667 -0.166992 28.167 -0.5 34.5s-0.833008 12 -1.5 17s-1.16699 11.833 -1.5 20.5s-0.5 23.334 -0.5 44.001c0 23.333 2.5 46.5 7.5 69.5s17.5 45.167 37.5 66.5c15.333 15.333 30.666 27 45.999 35s25.333 12.667 30 14v8c-4.66699 1.33301 -14.667 6 -30 14
s-30.666 19.667 -45.999 35c-20 21.333 -32.5 43.5 -37.5 66.5s-7.5 46.167 -7.5 69.5c0 20.667 0.166992 35.334 0.5 44.001s0.833008 15.5 1.5 20.5s1.16699 10.667 1.5 17s0.5 17.833 0.5 34.5c0 12 -0.666992 24 -2 36s-6.66602 23 -15.999 33
c-6 7.33301 -12.333 12.166 -19 14.499s-12.667 3.83301 -18 4.5v95h11c28 0 54.333 -4.66699 79 -14s44.667 -21.666 60 -36.999c10 -10 17.833 -21 23.5 -33s10 -24 13 -36s4.83301 -23.833 5.5 -35.5s1 -22.167 1 -31.5c0 -10.667 -0.166992 -21 -0.5 -31
s-0.833008 -20.333 -1.5 -31s-1.16699 -21.167 -1.5 -31.5s-0.5 -20.833 -0.5 -31.5c0 -16 1.66699 -33.667 5 -53s11.666 -35.333 24.999 -48c12.667 -12.667 30 -19.667 52 -21v-108z" />
    <glyph glyph-name="asciitilde" unicode="~" horiz-adv-x="613" 
d="M50 332c6.66699 14.667 15.168 30.3359 25.501 47.0029s20.5 30.334 30.5 41.001c14 15.333 29 26.166 45 32.499s34.667 9.5 56 9.5c24 0 43.667 -3 59 -9s30 -13 44 -21l44 -25l31.5 -16.5c11 -5.66699 22.833 -8.5 35.5 -8.5c15.333 0 29 5.33301 41 16
c4.66699 4 9.16699 9.66699 13.5 17s7.83301 14.666 10.5 21.999l77 -48c-0.666992 -1.33301 -2 -5.33301 -4 -12s-5.16699 -14.5 -9.5 -23.5s-9.83301 -18.667 -16.5 -29s-14.334 -20.166 -23.001 -29.499c-14.667 -14.667 -29 -24.5 -43 -29.5s-29 -7.5 -45 -7.5
c-21.333 0 -40.5 2.66699 -57.5 8s-33.5 12.666 -49.5 21.999l-51 29c-5.33301 3.33301 -14.333 7.66602 -27 12.999s-25.667 8 -39 8c-16 0 -30 -5.66699 -42 -17c-5.33301 -5.33301 -10.333 -11.333 -15 -18s-8.66699 -13.334 -12 -20.001z" />
    <glyph glyph-name="uni00A0" unicode="&#xa0;" horiz-adv-x="233" 
 />
    <glyph glyph-name="exclamdown" unicode="&#xa1;" horiz-adv-x="343" 
d="M269 338h-192v191h192v-191zM222 259l53 -264v-182h-207v182l53 264h101z" />
    <glyph glyph-name="cent" unicode="&#xa2;" horiz-adv-x="630" 
d="M569 200c-2.66699 -28 -9.33008 -54.665 -19.9971 -79.998s-24.334 -47.666 -41.001 -66.999c-17.333 -19.333 -38 -35.333 -62 -48s-52 -19.667 -84 -21v-116h-70v116c-10 0.666992 -21.333 2.16699 -34 4.5s-26 6.16602 -40 11.499s-28.167 12.833 -42.5 22.5
s-28.5 22.167 -42.5 37.5c-28 32 -46 65.333 -54 100s-12 67 -12 97c0 51.333 6.66699 92.833 20 124.5s28.333 56.5 45 74.5c6 6.66699 13.667 14 23 22s20.666 15.5 33.999 22.5s28.5 13 45.5 18s36.167 7.83301 57.5 8.5v109h70v-109c8 -0.666992 17.833 -2 29.5 -4
s24 -5.5 37 -10.5s26.5 -12.167 40.5 -21.5s27.333 -21.333 40 -36c15.333 -17.333 28.166 -38.166 38.499 -62.499s16.166 -51.5 17.499 -81.5h-166c0 9.33301 -1.5 20.666 -4.5 33.999s-8.5 24.666 -16.5 33.999c-7.33301 7.33301 -15 12.166 -23 14.499
s-16.333 3.5 -25 3.5c-10 0 -19 -1.16699 -27 -3.5s-15.667 -8.16602 -23 -17.499c-9.33301 -11.333 -16 -26 -20 -44s-6 -39.333 -6 -64c0 -26.667 2 -52.167 6 -76.5s12.667 -44.166 26 -59.499c8 -8.66699 15.5 -13.834 22.5 -15.501s15.167 -2.5 24.5 -2.5
c8.66699 0 16.834 0.833008 24.501 2.5s15.167 6.5 22.5 14.5c3.33301 4 7.5 11.167 12.5 21.5s7.5 26.166 7.5 47.499h169z" />
    <glyph glyph-name="sterling" unicode="&#xa3;" horiz-adv-x="630" 
d="M605 72c-17.333 -20 -33.501 -35.832 -48.501 -47.499s-29.333 -20.5 -43 -26.5s-26.5 -9.83301 -38.5 -11.5s-23.333 -2.5 -34 -2.5c-20 0 -37 1.66699 -51 5s-29 9 -45 17l-20 10c-12.667 6 -25 11.333 -37 16s-25.333 7 -40 7c-16.667 0 -31.167 -3.5 -43.5 -10.5
s-24.5 -16.5 -36.5 -28.5l-87 149c14.667 13.333 24.5 22.666 29.5 27.999l9.5 10c8 9.33301 15 20.666 21 33.999s9 26.333 9 39c0 7.33301 -1 15.166 -3 23.499s-4.33301 15.5 -7 21.5h-76v70h50c-7.33301 16.667 -13.666 35.667 -18.999 57s-8 41.666 -8 60.999
c0 34.667 6.5 66.334 19.5 95.001s30.167 52 51.5 70c15.333 13.333 37 25.833 65 37.5s65 17.5 111 17.5s84 -6.5 114 -19.5s54 -28.167 72 -45.5c14.667 -14.667 26.167 -29.834 34.5 -45.501s14.666 -31.5 18.999 -47.5s7 -31.833 8 -47.5s1.5 -30.834 1.5 -45.501v-13
h-178v11c0 10 -0.333008 20.833 -1 32.5s-4.33398 22.834 -11.001 33.501c-6.66699 11.333 -14.5 19 -23.5 23s-19.167 6 -30.5 6c-6 0 -12.5 -0.833008 -19.5 -2.5s-14.167 -6.16699 -21.5 -13.5c-9.33301 -8.66699 -15.166 -18.167 -17.499 -28.5
s-3.5 -20.166 -3.5 -29.499c0 -15.333 1.83301 -26.833 5.5 -34.5s8.5 -16.834 14.5 -27.501c4.66699 -7.33301 8.5 -14.666 11.5 -21.999s5.5 -14.666 7.5 -21.999h88v-70h-78c1.33301 -10.667 1.33301 -22.334 0 -35.001s-4.66602 -24.667 -9.99902 -36
c-4 -9.33301 -9.16699 -17.666 -15.5 -24.999s-12.833 -13.666 -19.5 -18.999l4 -7c3.33301 1.33301 10.333 3.83301 21 7.5s23 5.5 37 5.5c9.33301 0 18.333 -1 27 -3s17 -4.66699 25 -8l27 -9.5c8.66699 -3 17.667 -4.5 27 -4.5c11.333 0 23.333 3.33301 36 10
s25 18 37 34z" />
    <glyph glyph-name="currency" unicode="&#xa4;" horiz-adv-x="739" 
d="M111 159c-15.333 22.667 -28.1699 47.8311 -38.5029 75.498s-15.5 60.5 -15.5 98.5c0 35.333 4.66699 67 14 95s22.333 54 39 78l-101 101l81 83l98 -104c8 6 17.833 12.333 29.5 19s25 12.834 40 18.501s31.667 10.5 50 14.5s38.5 6 60.5 6
c40 0 74.833 -5.83301 104.5 -17.5s54.834 -25.167 75.501 -40.5l101 102l75 -84l-97 -99c21.333 -32.667 35.333 -64 42 -94s10 -56 10 -78c0 -23.333 -3.5 -49.5 -10.5 -78.5s-20.167 -59.167 -39.5 -90.5l101 -107l-82 -78l-100 101
c-25.333 -18.667 -52.666 -33 -81.999 -43s-61.666 -15 -96.999 -15c-41.333 0 -76.5 5.83301 -105.5 17.5s-53.833 24.834 -74.5 39.501l-99 -102l-79 80zM168.996 332.997c0 -27.333 5.16699 -53.166 15.5 -77.499s24.5 -45.5 42.5 -63.5s39.167 -32.167 63.5 -42.5
s50.166 -15.5 77.499 -15.5s53.166 5.16699 77.499 15.5s45.5 24.5 63.5 42.5s32.167 39.167 42.5 63.5s15.5 50.166 15.5 77.499s-5.16699 53.166 -15.5 77.499s-24.5 45.5 -42.5 63.5s-39.167 32.167 -63.5 42.5s-50.166 15.5 -77.499 15.5
s-53.166 -5.16699 -77.499 -15.5s-45.5 -24.5 -63.5 -42.5s-32.167 -39.167 -42.5 -63.5s-15.5 -50.166 -15.5 -77.499z" />
    <glyph glyph-name="yen" unicode="&#xa5;" horiz-adv-x="630" 
d="M416 700h216l-218 -455v-8h68v-66h-68v-33h68v-66h-68v-72h-200v72h-68v66h68v33h-68v66h68v8l-217 455h216l103 -282z" />
    <glyph glyph-name="brokenbar" unicode="&#xa6;" horiz-adv-x="437" 
d="M261 176v-400h-85v400h85zM176 429v400h85v-400h-85z" />
    <glyph glyph-name="section" unicode="&#xa7;" horiz-adv-x="561" 
d="M224 23c0 -8.66699 1.16992 -17.8418 3.50293 -27.5088s6.16602 -17.5 11.499 -23.5c6.66699 -7.33301 14 -12 22 -14s15.333 -3 22 -3c5.33301 0 10.833 0.666992 16.5 2s11.167 4.33301 16.5 9c10 9.33301 15 21.333 15 36c0 6.66699 -0.833008 12.5 -2.5 17.5
s-5.5 10.167 -11.5 15.5c-3.33301 2.66699 -8 5.5 -14 8.5s-16.667 6.83301 -32 11.5l-87 27c-15.333 4.66699 -32.666 11.334 -51.999 20.001s-36.333 20.334 -51 35.001c-12.667 12.667 -23.334 29.5 -32.001 50.5s-13 46.5 -13 76.5c0 37.333 9 71 27 101
c12.667 22 29.667 39.667 51 53c-6 8.66699 -13 21.667 -21 39s-12 39 -12 65c0 21.333 3.83301 43.333 11.5 66s19.5 42.667 35.5 60c12 12.667 25 22.667 39 30s28 13 42 17s27.667 6.5 41 7.5s25 1.5 35 1.5c8 0 18.167 -0.5 30.5 -1.5s25.333 -3.16699 39 -6.5
s27.167 -8.5 40.5 -15.5s25.666 -16.5 36.999 -28.5c15.333 -16 26.333 -35.5 33 -58.5s10 -44.167 10 -63.5v-15h-142c0 6.66699 -1 14 -3 22s-5 14.333 -9 19s-9.5 8.33398 -16.5 11.001s-14.167 4 -21.5 4s-14.333 -1 -21 -3s-12 -5.33301 -16 -10
c-3.33301 -3.33301 -6 -7.66602 -8 -12.999s-3 -11.333 -3 -18c0 -11.333 3 -20 9 -26c3.33301 -4.66699 10 -9.5 20 -14.5s29 -11.167 57 -18.5l59 -16c4.66699 -1.33301 11.167 -3.33301 19.5 -6s17 -6.16699 26 -10.5s18.333 -9.66602 28 -15.999
s18.5 -13.833 26.5 -22.5c15.333 -16.667 26.666 -36.667 33.999 -60s11 -47.666 11 -72.999c0 -22 -2.66699 -41.5 -8 -58.5s-11.666 -31.5 -18.999 -43.5c-3.33301 -5.33301 -9 -13.166 -17 -23.499s-19.667 -20.833 -35 -31.5c14 -16.667 24 -33.167 30 -49.5
s9 -33.833 9 -52.5c0 -23.333 -3.66699 -47 -11 -71s-19.666 -45.333 -36.999 -64c-12 -13.333 -24.833 -24 -38.5 -32s-27.334 -14 -41.001 -18s-26.834 -6.5 -39.501 -7.5s-24.334 -1.5 -35.001 -1.5c-28 0 -55 3.33301 -81 10s-49.667 21.334 -71 44.001
c-17.333 18.667 -30.666 41.334 -39.999 68.001s-14 53 -14 79v11h147zM354.003 195.992c6 6 10.168 9.99902 12.501 11.999s4.16602 4 5.49902 6c2.66699 3.33301 4.66699 8 6 14s2 11 2 15c0 7.33301 -1 13.5 -3 18.5s-4.66699 9.16699 -8 12.5
c-3.33301 4 -8.16602 8 -14.499 12s-12.5 7 -18.5 9l-125 46l-9.50098 -10s-6.16699 -7.33301 -7.5 -10c-2 -3.33301 -3.83301 -7 -5.5 -11s-2.5 -9 -2.5 -15c0 -5.33301 0.833008 -11.166 2.5 -17.499s5.16699 -12.5 10.5 -18.5c6 -7.33301 12 -12 18 -14l18 -6z" />
    <glyph glyph-name="dieresis" unicode="&#xa8;" horiz-adv-x="473" 
d="M45 700h151v-132h-151v132zM277 700h151v-132h-151v132z" />
    <glyph glyph-name="copyright" unicode="&#xa9;" horiz-adv-x="718" 
d="M508 305c-1.33301 -16 -5.16895 -32.8311 -11.502 -50.498s-15.166 -32.834 -26.499 -45.501c-8 -9.33301 -16.833 -16.5 -26.5 -21.5s-19.167 -8.83301 -28.5 -11.5s-18.333 -4.33398 -27 -5.00098s-16.334 -1 -23.001 -1c-22.667 0 -43.667 3.33301 -63 10
s-37.333 19 -54 37c-19.333 22 -31.666 45.667 -36.999 71s-8 47.666 -8 66.999c0 6.66699 0.333008 15.167 1 25.5s2.33398 21.333 5.00098 33s6.5 23.334 11.5 35.001s11.833 22.5 20.5 32.5s18 18.167 28 24.5s20.333 11 31 14s21 5 31 6s19.333 1.5 28 1.5
c16 0 34.667 -2.33301 56 -7s39.666 -15.667 54.999 -33c10 -11.333 18 -25.5 24 -42.5s9.66699 -33.167 11 -48.5h-92c0 6.66699 -1.16699 12.334 -3.5 17.001s-5.16602 8.66699 -8.49902 12c-5.33301 5.33301 -11.333 8.83301 -18 10.5s-12.667 2.5 -18 2.5
c-18 0 -32 -6 -42 -18c-7.33301 -9.33301 -12.333 -20 -15 -32s-4 -23.667 -4 -35s1.33301 -24.5 4 -39.5s8.66699 -27.167 18 -36.5c4.66699 -4.66699 10.167 -8.5 16.5 -11.5s14.166 -4.5 23.499 -4.5c8.66699 0 15.834 1.16699 21.501 3.5s10.167 5.16602 13.5 8.49902
s6.33301 7.5 9 12.5s4 11.5 4 19.5h94zM8.99707 350.002c0 44.667 8.66895 88.665 26.002 131.998s43 82 77 116c37.333 36.667 77.833 62.834 121.5 78.501s85.5 23.5 125.5 23.5s81.833 -7.83301 125.5 -23.5s84.167 -41.834 121.5 -78.501c34 -34 59.667 -72.667 77 -116
s26 -87.333 26 -132s-8.66699 -88.667 -26 -132s-43 -82 -77 -116s-72.333 -59.5 -115 -76.5s-86.667 -25.5 -132 -25.5c-13.333 0 -29.333 1.16699 -48 3.5s-39 7 -61 14s-44.833 17.333 -68.5 31s-46.834 31.834 -69.501 54.501s-40.834 45.834 -54.501 69.501
s-24 46.5 -31 68.5s-11.667 42.333 -14 61s-3.5 34.667 -3.5 48zM88.999 350c0 -34 6.66602 -68 19.999 -102s32.666 -63.667 57.999 -89c26 -26 56 -45.667 90 -59s68 -20 102 -20s67.833 6.5 101.5 19.5s63.834 33.167 90.501 60.5c28 28.667 48 59.667 60 93
s18 65.666 18 96.999c0 34 -6.5 67.833 -19.5 101.5s-33.5 64.167 -61.5 91.5c-28 28 -58.667 47.833 -92 59.5s-65.666 17.5 -96.999 17.5c-34.667 0 -68.667 -6.5 -102 -19.5s-63.333 -33.167 -90 -60.5c-28 -28.667 -48 -59.667 -60 -93s-18 -65.666 -18 -96.999z" />
    <glyph glyph-name="ordfeminine" unicode="&#xaa;" horiz-adv-x="363" 
d="M46 345h299v-59h-299v59zM38 606c0.666992 12 3.16992 24.833 7.50293 38.5s10.833 25.5 19.5 35.5c2.66699 3.33301 6.83398 7.33301 12.501 12s13.167 9 22.5 13s20.666 7.5 33.999 10.5s29.333 4.5 48 4.5c30 0 54.5 -4 73.5 -12s33.167 -17.333 42.5 -28
c13.333 -14 21.333 -28.667 24 -44s4 -28.666 4 -39.999v-140v-18.5c0 -5.66699 1.33301 -11.167 4 -16.5c4 -6.66699 9 -11 15 -13v-5h-124l-6 31h-2c-4 -5.33301 -8.83301 -10.666 -14.5 -15.999s-12.167 -9.66602 -19.5 -12.999
c-2.66699 -1.33301 -9.16699 -3.66602 -19.5 -6.99902s-24.833 -5 -43.5 -5c-11.333 0 -23.333 1.66699 -36 5s-24.334 10.666 -35.001 21.999c-8.66699 9.33301 -14.5 19.333 -17.5 30s-4.5 22 -4.5 34c0 9.33301 1.16699 19 3.5 29s8.16602 20 17.499 30
c11.333 11.333 23.5 19.166 36.5 23.499s23.833 7.16602 32.5 8.49902l27 4c19.333 3.33301 32.833 5.5 40.5 6.5s13.5 2.83301 17.5 5.5c5.33301 3.33301 8.66602 6.66602 9.99902 9.99902s2 7.33301 2 12c0 4 -0.5 8.33301 -1.5 13s-3.5 8.66699 -7.5 12
c-2 1.33301 -4.66699 2.83301 -8 4.5s-8 2.5 -14 2.5c-11.333 0 -20 -3 -26 -9c-3.33301 -3.33301 -5.83301 -8 -7.5 -14s-2.16699 -11.333 -1.5 -16h-106zM210.003 539c-5.33301 -4 -10.3301 -6.83398 -14.9971 -8.50098s-10.334 -3.16699 -17.001 -4.5
c-4.66699 -1.33301 -10 -2.66602 -16 -3.99902s-11 -4 -15 -8c-5.33301 -5.33301 -8 -12 -8 -20c0 -3.33301 0.333008 -7 1 -11s2.33398 -7.66699 5.00098 -11c3.33301 -3.33301 6.66602 -5.5 9.99902 -6.5s6.66602 -1.5 9.99902 -1.5c6.66699 0 12.667 1.33301 18 4
s9.66602 5.66699 12.999 9c6.66699 7.33301 10.667 15.833 12 25.5s2 19.167 2 28.5v8z" />
    <glyph glyph-name="guillemotleft" unicode="&#xab;" horiz-adv-x="421" 
d="M171 495v-177l-58 -53l58 -55v-179l-135 140v185zM349 496v-177l-60 -53l60 -55v-180l-136 141v185z" />
    <glyph glyph-name="logicalnot" unicode="&#xac;" horiz-adv-x="608" 
d="M558 390v-224h-81v139h-429v85h510z" />
    <glyph glyph-name="uni00AD" unicode="&#xad;" horiz-adv-x="455" 
d="M48 390h359v-185h-359v185z" />
    <glyph glyph-name="registered" unicode="&#xae;" horiz-adv-x="718" 
d="M231 522h173.001c20 0 36.167 -3.16699 48.5 -9.5s21.5 -12.833 27.5 -19.5c9.33301 -10 16 -22 20 -36s6 -27.333 6 -40c0 -8.66699 -1.16699 -18.167 -3.5 -28.5s-6.16602 -19.5 -11.499 -27.5c-2.66699 -3.33301 -6.5 -7.33301 -11.5 -12s-11.833 -8.66699 -20.5 -12
v-2c6 -2 11.5 -4.83301 16.5 -8.5s9.16699 -7.5 12.5 -11.5c7.33301 -9.33301 11 -19.166 11 -29.499s0.333008 -19.5 1 -27.5l1 -28c0.666992 -11.333 2.5 -21.5 5.5 -30.5s5.16699 -15.167 6.5 -18.5h-96c-5.33301 8 -8.33301 15 -9 21s-1.33398 12.667 -2.00098 20l-1 21
c-0.666992 9.33301 -1.5 17.666 -2.5 24.999s-3.16699 13.333 -6.5 18c-4.66699 5.33301 -9.83398 8.5 -15.501 9.5s-11.167 1.5 -16.5 1.5h-37v-116h-96v341zM327.001 372l52.002 0.00292969c3.33301 0 7.66602 0.166992 12.999 0.5s9.66602 2.16602 12.999 5.49902
c6.66699 5.33301 10 14.666 10 27.999c0 7.33301 -1 13 -3 17s-4 7 -6 9c-3.33301 3.33301 -7.5 5.16602 -12.5 5.49902s-9.16699 0.5 -12.5 0.5h-54v-66zM89.0029 350.003c0 -34 6.66602 -68 19.999 -102s32.666 -63.667 57.999 -89c26 -26 56 -45.667 90 -59
s68 -20 102 -20s67.833 6.5 101.5 19.5s63.834 33.167 90.501 60.5c28 28.667 48 59.667 60 93s18 65.666 18 96.999c0 34 -6.5 67.833 -19.5 101.5s-33.5 64.167 -61.5 91.5c-28 28 -58.667 47.833 -92 59.5s-65.666 17.5 -96.999 17.5c-34.667 0 -68.667 -6.5 -102 -19.5
s-63.333 -33.167 -90 -60.5c-28 -28.667 -48 -59.667 -60 -93s-18 -65.666 -18 -96.999zM9.00195 350.003c0 44.667 8.66895 88.665 26.002 131.998s43 82 77 116c37.333 36.667 77.833 62.834 121.5 78.501s85.5 23.5 125.5 23.5s81.833 -7.83301 125.5 -23.5
s84.167 -41.834 121.5 -78.501c34 -34 59.667 -72.667 77 -116s26 -87.333 26 -132s-8.66699 -88.667 -26 -132s-43 -82 -77 -116s-72.333 -59.5 -115 -76.5s-86.667 -25.5 -132 -25.5c-13.333 0 -29.333 1.16699 -48 3.5s-39 7 -61 14s-44.833 17.333 -68.5 31
s-46.834 31.834 -69.501 54.501s-40.834 45.834 -54.501 69.501s-24 46.5 -31 68.5s-11.667 42.333 -14 61s-3.5 34.667 -3.5 48z" />
    <glyph glyph-name="macron" unicode="&#xaf;" horiz-adv-x="456" 
d="M45 686h366v-96h-366v96z" />
    <glyph glyph-name="macron" unicode="&#x2c9;" horiz-adv-x="456" 
d="M45 686h366v-96h-366v96z" />
    <glyph glyph-name="degree" unicode="&#xb0;" horiz-adv-x="320" 
d="M36 605c0 16.667 3.33301 32.667 10 48s15.5 28.5 26.5 39.5s24 19.833 39 26.5s31.167 10 48.5 10c16.667 0 32.667 -3.33301 48 -10s28.5 -15.5 39.5 -26.5s19.833 -24.167 26.5 -39.5s10 -31.333 10 -48c0 -17.333 -3.33301 -33.5 -10 -48.5s-15.5 -28 -26.5 -39
s-24.167 -19.833 -39.5 -26.5s-31.333 -10 -48 -10c-17.333 0 -33.5 3.33301 -48.5 10s-28 15.5 -39 26.5s-19.833 24 -26.5 39s-10 31.167 -10 48.5zM106 605c0 -15.333 5.16699 -28.166 15.5 -38.499s23.166 -15.5 38.499 -15.5s28.166 5.16699 38.499 15.5
s15.5 23.166 15.5 38.499s-5.16699 28.166 -15.5 38.499s-23.166 15.5 -38.499 15.5s-28.166 -5.16699 -38.499 -15.5s-15.5 -23.166 -15.5 -38.499z" />
    <glyph glyph-name="plusminus" unicode="&#xb1;" horiz-adv-x="627" 
d="M268 465v198h91v-198h218v-90h-218v-162h-91v162h-218v90h218zM577 173v-90h-527v90h527z" />
    <glyph glyph-name="twosuperior" unicode="&#xb2;" horiz-adv-x="392" 
d="M350 291l-315.998 0.00488281v8c0 25.333 2.16699 47.833 6.5 67.5s14.166 38.5 29.499 56.5c11.333 12.667 22.5 22.5 33.5 29.5l33.5 20.5l41 24c12.667 7.33301 22.167 13.5 28.5 18.5s11.166 9.5 14.499 13.5c12.667 14 19 31.333 19 52
c0 10 -1.33301 18.167 -4 24.5s-5.66699 11.166 -9 14.499c-3.33301 4 -8.16602 7.5 -14.499 10.5s-14.5 4.5 -24.5 4.5c-9.33301 0 -16.833 -1.83301 -22.5 -5.5s-10.167 -7.16699 -13.5 -10.5c-6 -7.33301 -9.5 -16 -10.5 -26s-1.5 -18.667 -1.5 -26v-6h-108v7
c0 18 1.66699 36.5 5 55.5s13.333 37.167 30 54.5c17.333 18.667 37.333 30.834 60 36.501s43.334 8.5 62.001 8.5c33.333 0 60.166 -4.5 80.499 -13.5s36.5 -20.167 48.5 -33.5c13.333 -14.667 22.166 -30.334 26.499 -47.001s6.5 -33.334 6.5 -50.001
s-2 -31.834 -6 -45.501s-11.667 -26.5 -23 -38.5c-7.33301 -8 -16.833 -16 -28.5 -24s-22.167 -14.333 -31.5 -19l-12 -6c-3.33301 -2 -6.83301 -3.83301 -10.5 -5.5s-7.16699 -3.5 -10.5 -5.5c-3.33301 -1.33301 -6.66602 -3 -9.99902 -5s-6.66602 -3.66699 -9.99902 -5
c-12.667 -6.66699 -20.834 -12.334 -24.501 -17.001s-5.83398 -9.33398 -6.50098 -14.001h172v-103z" />
    <glyph glyph-name="threesuperior" unicode="&#xb3;" horiz-adv-x="408" 
d="M142 442l0.000976562 -5.99707c0 -7.33301 1 -15.333 3 -24s5.66699 -16.334 11 -23.001c10 -12 25 -18 45 -18c10 0 18.167 1.5 24.5 4.5s11.166 6.16699 14.499 9.5c3.33301 4 6.33301 9.66699 9 17s4 14.333 4 21c0 7.33301 -1.33301 14.166 -4 20.499
s-6.66699 11.5 -12 15.5c-6.66699 5.33301 -14 8.33301 -22 9s-15.333 1 -22 1h-28v81h27c6 0 13 0.5 21 1.5s14.667 3.16699 20 6.5c7.33301 4 12 9 14 15s3 12.667 3 20c0 5.33301 -0.833008 11.333 -2.5 18s-5.83398 12.667 -12.501 18
c-4.66699 3.33301 -10.167 5.83301 -16.5 7.5s-13.166 2.5 -20.499 2.5c-12 0 -21.667 -2 -29 -6s-12.666 -8.66699 -15.999 -14c-3.33301 -4.66699 -5.83301 -10.5 -7.5 -17.5s-2.5 -13.5 -2.5 -19.5v-6h-105v6c0 17.333 3.33301 35.166 10 53.499s15.667 33.5 27 45.5
c8.66699 9.33301 18.334 16.833 29.001 22.5s21.5 10 32.5 13s22 4.83301 33 5.5s21.167 1 30.5 1c17.333 0 36.166 -1.66699 56.499 -5s38.5 -10.666 54.5 -21.999c19.333 -13.333 31.5 -28.333 36.5 -45s7.5 -32.334 7.5 -47.001c0 -11.333 -1.66699 -23 -5 -35
s-9.33301 -23 -18 -33c-7.33301 -8.66699 -15 -14.667 -23 -18s-15.667 -5.33301 -23 -6v-2c12.667 -2 24 -6 34 -12s18.333 -12.667 25 -20c14.667 -16.667 22 -38.334 22 -65.001c0 -21.333 -4.33301 -41.166 -13 -59.499s-20.667 -33.166 -36 -44.499
c-17.333 -12.667 -36.833 -20.334 -58.5 -23.001s-40.834 -4 -57.501 -4c-22 0 -45.167 2.5 -69.5 7.5s-45.5 17.5 -63.5 37.5c-12.667 14 -22 31 -28 51s-9 39.333 -9 58v6h110z" />
    <glyph glyph-name="acute" unicode="&#xb4;" horiz-adv-x="332" 
d="M315 700l-104 -132h-120l59 132h165z" />
    <glyph glyph-name="mu" unicode="&#xb5;" horiz-adv-x="628" 
d="M59 -185l0.000976562 693.001h180v-236c0 -28 1.16699 -50.667 3.5 -68s5.83301 -31.666 10.5 -42.999c8 -20 17.833 -33 29.5 -39s22.167 -9 31.5 -9c18.667 0 32.667 5.66699 42 17s16.333 23 21 35c6 16.667 9.5 34 10.5 52s1.5 36.333 1.5 55v236h180v-508h-173v77
h-7c-1.33301 -11.333 -4 -22.833 -8 -34.5s-8.66699 -21.167 -14 -28.5c-8.66699 -12.667 -17.834 -20.834 -27.501 -24.501s-18.167 -5.5 -25.5 -5.5c-13.333 0 -24 3.16699 -32 9.5s-14.667 13.166 -20 20.499c-5.33301 8.66699 -10.333 18.5 -15 29.5
s-7.66699 22.167 -9 33.5h-6v-262h-173z" />
    <glyph glyph-name="paragraph" unicode="&#xb6;" horiz-adv-x="471" 
d="M177 370c-25.333 1.33301 -47.3311 7.16699 -65.998 17.5s-34.334 23.333 -47.001 39s-22 33 -28 52s-9 37.833 -9 56.5c0 22.667 4 44 12 64s18.667 37.5 32 52.5s29.166 26.833 47.499 35.5s37.833 13 58.5 13h86v-885h-86v555zM325.002 700.001h86v-885h-86v885z" />
    <glyph glyph-name="periodcentered" unicode="&#xb7;" horiz-adv-x="317" 
d="M63 470h191v-206h-191v206z" />
    <glyph glyph-name="cedilla" unicode="&#xb8;" horiz-adv-x="299" 
d="M55 -164c9.33301 -3.33301 18.667 -5.83301 28 -7.5s18.666 -2.5 27.999 -2.5c3.33301 0 9 0.166992 17 0.5s14.667 1.83301 20 4.5c6.66699 3.33301 11 7 13 11s3 8.66699 3 14c0 13.333 -6.66699 22 -20 26c-2.66699 1.33301 -8 2.33301 -16 3s-23 1 -45 1h-13l21 67
c4 0.666992 10.833 1.16699 20.5 1.5s18.5 0.5 26.5 0.5c21.333 0 39.333 -1.66699 54 -5s27 -8.33301 37 -15c15.333 -10 25.5 -22 30.5 -36s7.5 -27.667 7.5 -41c0 -24 -4.66699 -42.833 -14 -56.5s-17.666 -23.167 -24.999 -28.5c-14.667 -11.333 -30.5 -18 -47.5 -20
s-31.5 -3 -43.5 -3c-28.667 0 -50.5 1.5 -65.5 4.5s-27.833 6.83301 -38.5 11.5z" />
    <glyph glyph-name="onesuperior" unicode="&#xb9;" horiz-adv-x="302" 
d="M27 627l8 0.000976562c11.333 0 23.5 1.16699 36.5 3.5s23.5 6.16602 31.5 11.499c20 12 33.333 31.333 40 58h91v-420h-120v280h-87v67z" />
    <glyph glyph-name="ordmasculine" unicode="&#xba;" horiz-adv-x="379" 
d="M352 553c0 -32 -4.49902 -57.499 -13.499 -76.499s-18.167 -33.167 -27.5 -42.5c-10 -10 -20.333 -18 -31 -24s-21.334 -10.5 -32.001 -13.5s-21.167 -4.83301 -31.5 -5.5s-19.5 -1 -27.5 -1c-18.667 0 -38.667 2.33301 -60 7s-41.666 17 -60.999 37
c-17.333 18 -28.5 37.167 -33.5 57.5s-7.5 41.5 -7.5 63.5c0 19.333 2.5 39.833 7.5 61.5s16.167 41.5 33.5 59.5c11.333 11.333 26.833 21.5 46.5 30.5s44.5 13.5 74.5 13.5c18 0 33.833 -1.66699 47.5 -5s25.5 -7.33301 35.5 -12s18.167 -9.5 24.5 -14.5
s11.166 -9.16699 14.499 -12.5c11.333 -12 21 -28.333 29 -49s12 -45.334 12 -74.001zM41.001 345.001h298v-59h-298v59zM189.001 639.001c-8 0 -14.332 -1.6709 -18.999 -5.00391s-7.66699 -5.66602 -9 -6.99902c-3.33301 -3.33301 -6.83301 -10.166 -10.5 -20.499
s-5.5 -28.166 -5.5 -53.499c0 -21.333 1.66699 -37.333 5 -48s7.33301 -18.667 12 -24c6.66699 -8 16 -12 28 -12c11.333 0 20.666 4.66699 27.999 14c5.33301 6.66699 9.16602 15.5 11.499 26.5s3.5 25.5 3.5 43.5c0 22.667 -1.5 39.334 -4.5 50.001
s-6.83301 18.667 -11.5 24c-7.33301 8 -16.666 12 -27.999 12z" />
    <glyph glyph-name="guillemotright" unicode="&#xbb;" horiz-adv-x="421" 
d="M385 171l-135 -140l-1 177l59 54l-59 55v179l136 -140v-185zM208 170l-136 -139v176l60 54l-60 55v179l136 -140v-185z" />
    <glyph glyph-name="onequarter" unicode="&#xbc;" horiz-adv-x="792" 
d="M32 627l7.00098 -0.00195312h8c4.66699 0 10.5 0.5 17.5 1.5s14.5 2.5 22.5 4.5s15 5 21 9c8 4.66699 15.667 11.834 23 21.501s12.666 21.834 15.999 36.501h91v-420h-120v280h-86v67zM614.001 699.998h97l-540 -700h-97zM413.001 91.998v97l182 231h107v-233h49v-95
h-49v-92h-113v92h-176zM595.001 186.998v118l-96 -118h96z" />
    <glyph glyph-name="onehalf" unicode="&#xbd;" horiz-adv-x="857" 
d="M32 627l7 0.000976562c11.333 0 23.5 1.16699 36.5 3.5s23.5 6.16602 31.5 11.499c20 12 33.333 31.333 40 58h91v-420h-120v280h-86v67zM816 0.000976562l-315.998 0.00585938v8c0 21.333 1.33301 42.166 4 62.499s13 40.833 31 61.5c10.667 12.667 21.667 22.667 33 30
s22.666 14 33.999 20l42 24c5.33301 3.33301 12.333 8.16602 21 14.499s15.667 12.166 21 17.499s9.83301 12.166 13.5 20.499s5.5 18.833 5.5 31.5c0 10 -1.33301 18.167 -4 24.5s-5.66699 11.166 -9 14.499c-3.33301 4 -8 7.5 -14 10.5s-13.667 4.5 -23 4.5
s-17 -1.5 -23 -4.5s-10.667 -6.83301 -14 -11.5c-6.66699 -8 -10.5 -16.667 -11.5 -26s-1.5 -18 -1.5 -26v-6h-108v7c0 18 1.66699 36.5 5 55.5s13.333 37.167 30 54.5c17.333 18.667 37.333 30.834 60 36.501s43.334 8.5 62.001 8.5c33.333 0 60.166 -4.5 80.499 -13.5
s36.5 -20.167 48.5 -33.5c13.333 -14.667 22.166 -30.334 26.499 -47.001s6.5 -33.334 6.5 -50.001s-2 -31.834 -6 -45.501s-11.667 -26.5 -23 -38.5c-5.33301 -5.33301 -12.333 -11.5 -21 -18.5s-21.667 -15.167 -39 -24.5l-11 -6c-3.33301 -2 -6.16602 -3.5 -8.49902 -4.5
s-4.83301 -2.16699 -7.5 -3.5s-6 -2.83301 -10 -4.5s-9.33301 -4.5 -16 -8.5c-12.667 -6.66699 -20.834 -12.167 -24.501 -16.5s-5.5 -9.16602 -5.5 -14.499h172v-103zM614.002 700.007h97l-540 -700h-97z" />
    <glyph glyph-name="threequarters" unicode="&#xbe;" horiz-adv-x="866" 
d="M688 700h97l-540 -700h-97zM487 92v97l182 231h107v-233h49v-95h-49v-92h-113v92h-176zM669 187v118l-96 -118h96zM143 442l-0.000976562 -5.99707c0 -6 0.5 -13.5 1.5 -22.5s4.83301 -17.167 11.5 -24.5s14 -12.166 22 -14.499s15.667 -3.5 23 -3.5
c6 0 12.667 0.833008 20 2.5s13.666 5.5 18.999 11.5c5.33301 5.33301 8.83301 11.5 10.5 18.5s2.5 13.5 2.5 19.5s-0.833008 12.167 -2.5 18.5s-6.16699 12.166 -13.5 17.499s-14.666 8.33301 -21.999 9s-14.666 1 -21.999 1h-28v81h27c6.66699 0 14 0.5 22 1.5
s14.667 3.16699 20 6.5c4.66699 3.33301 8.66699 8.16602 12 14.499s5 13.166 5 20.499s-1.33301 14.166 -4 20.499s-6.66699 11.5 -12 15.5s-11.333 6.66699 -18 8s-12.667 2 -18 2c-9.33301 0 -17.833 -1.5 -25.5 -4.5s-14.167 -8.16699 -19.5 -15.5
c-5.33301 -6.66699 -8.33301 -12.834 -9 -18.501s-1 -11.834 -1 -18.501v-6h-106v6c0 17.333 3.33301 35.166 10 53.499s15.667 33.5 27 45.5c8.66699 9.33301 18.5 16.833 29.5 22.5s22.167 10 33.5 13s22.333 4.83301 33 5.5s20.334 1 29.001 1
c18.667 0 37.834 -1.66699 57.501 -5s37.5 -10.666 53.5 -21.999c19.333 -13.333 31.5 -28.166 36.5 -44.499s7.5 -32.166 7.5 -47.499c0 -11.333 -1.33301 -23 -4 -35s-8.66699 -23 -18 -33c-8 -8.66699 -16 -14.5 -24 -17.5s-15.333 -5.16699 -22 -6.5v-2
c24.667 -4 44 -14.667 58 -32c7.33301 -9.33301 13 -19.666 17 -30.999s6 -22.666 6 -33.999c0 -21.333 -4.83301 -41.333 -14.5 -60s-21.5 -33.334 -35.5 -44.001c-17.333 -12.667 -36.833 -20.334 -58.5 -23.001s-40.834 -4 -57.501 -4c-22 0 -44.833 2.5 -68.5 7.5
s-44.834 17.5 -63.501 37.5c-11.333 12 -20.5 27.333 -27.5 46s-10.5 39.667 -10.5 63v6h111z" />
    <glyph glyph-name="questiondown" unicode="&#xbf;" horiz-adv-x="565" 
d="M395 338h-194v187h194v-187zM529 52v-9c0 -34 -5.5 -65.167 -16.5 -93.5s-24.833 -51.166 -41.5 -68.499c-14 -15.333 -30 -27.166 -48 -35.499s-35.833 -14.833 -53.5 -19.5s-34.5 -7.5 -50.5 -8.5s-29.333 -1.5 -40 -1.5s-23.334 0.333008 -38.001 1s-30 2.5 -46 5.5
s-32 7.5 -48 13.5s-30.667 14 -44 24c-18.667 14 -34.5 33.167 -47.5 57.5s-19.5 53.5 -19.5 87.5c0 47.333 14 86.333 42 117c9.33301 10 19 18.667 29 26s20 14 30 20c11.333 6.66699 21.833 13.167 31.5 19.5s18.167 13.833 25.5 22.5
c10.667 12 17.334 23.833 20.001 35.5s4 21.167 4 28.5v6h152v-17c0 -11.333 -0.5 -24 -1.5 -38s-4.5 -28.667 -10.5 -44c-7.33301 -18 -15.5 -31.833 -24.5 -41.5s-19.5 -19.5 -31.5 -29.5l-24 -20l-15 -13c-5.33301 -4.66699 -10.5 -10 -15.5 -16s-9.16699 -13 -12.5 -21
s-5 -17.333 -5 -28c0 -18.667 4.66699 -32.667 14 -42c6 -6.66699 12.333 -10.834 19 -12.501s12.667 -2.5 18 -2.5s12.333 1.16699 21 3.5s16.667 8.16602 24 17.499s12 21 14 35s3 26.667 3 38v3h186z" />
    <glyph glyph-name="Agrave" unicode="&#xc0;" horiz-adv-x="653" 
d="M200 0h-203l233 700h193l233 -700h-203l-29 99h-195zM387 243l-61 215l-60 -215h121zM408 766h-132l-105 142h177z" />
    <glyph glyph-name="Aacute" unicode="&#xc1;" horiz-adv-x="653" 
d="M200 0h-203l233 700h193l233 -700h-203l-29 99h-195zM387 243l-61 215l-60 -215h121zM482 908l-105 -142h-132l60 142h177z" />
    <glyph glyph-name="Acircumflex" unicode="&#xc2;" horiz-adv-x="653" 
d="M200 0h-203l233 700h193l233 -700h-203l-29 99h-195zM387 243l-61 215l-60 -215h121zM243 766h-130l112 132h202l112 -132h-130l-83 83z" />
    <glyph glyph-name="Atilde" unicode="&#xc3;" horiz-adv-x="653" 
d="M200 0h-203l233 700h193l233 -700h-203l-29 99h-195zM387 243l-61 215l-60 -215h121zM522 901c-2 -19.333 -6.67285 -38.501 -14.0059 -57.501s-16.666 -34.833 -27.999 -47.5c-9.33301 -10 -19.166 -17.5 -29.499 -22.5s-23.166 -7.5 -38.499 -7.5
c-14.667 0 -27.834 2.16699 -39.501 6.5s-22.5 9.16602 -32.5 14.499l-35 18c-5.33301 3.33301 -11.666 6.16602 -18.999 8.49902s-15 3.5 -23 3.5c-11.333 0 -20 -3.66699 -26 -11c-2.66699 -3.33301 -5 -7.66602 -7 -12.999s-3.33301 -10.666 -4 -15.999h-96
c2 15.333 6.16699 31.333 12.5 48s14.5 31.667 24.5 45c11.333 14.667 23.333 25 36 31s27.334 9 44.001 9c14.667 0 26.667 -1.83301 36 -5.5s19.333 -8.16699 30 -13.5l40 -20c6.66699 -3.33301 13.334 -6.16602 20.001 -8.49902s13 -3.5 19 -3.5
c10.667 0 18.667 3.33301 24 10c3.33301 3.33301 5.83301 8.5 7.5 15.5s2.83398 12.5 3.50098 16.5h95z" />
    <glyph glyph-name="Adieresis" unicode="&#xc4;" horiz-adv-x="653" 
d="M200 0h-203l233 700h193l233 -700h-203l-29 99h-195zM387 243l-61 215l-60 -215h121zM128 908h155v-129h-155v129zM370 908h155v-129h-155v129z" />
    <glyph glyph-name="Aring" unicode="&#xc5;" horiz-adv-x="653" 
d="M200 0h-203l233 700h193l233 -700h-203l-29 99h-195zM387 243l-61 215l-60 -215h121zM226 872c0 15.333 2.5 29.833 7.5 43.5s12 25.5 21 35.5s19.667 18 32 24s25.5 9 39.5 9s27 -3 39 -9s22.5 -14 31.5 -24s16.167 -21.833 21.5 -35.5s8 -28.167 8 -43.5
s-2.5 -29.666 -7.5 -42.999s-12 -25 -21 -35s-19.667 -18 -32 -24s-25.5 -9 -39.5 -9s-27.167 3 -39.5 9s-23 14 -32 24s-16 21.667 -21 35s-7.5 27.666 -7.5 42.999zM285 872c0 -15.333 4.5 -26.833 13.5 -34.5s18.167 -11.5 27.5 -11.5s18.5 3.83301 27.5 11.5
s13.5 19.167 13.5 34.5c0 14.667 -4.5 26.167 -13.5 34.5s-18.167 12.5 -27.5 12.5s-18.5 -4.16699 -27.5 -12.5s-13.5 -19.833 -13.5 -34.5z" />
    <glyph glyph-name="AE" unicode="&#xc6;" horiz-adv-x="1022" 
d="M185 0h-208l384 700h613v-185h-322v-79h275v-165h-275v-86h329v-185h-526v99h-216zM455 243v232h-23l-121 -232h144z" />
    <glyph glyph-name="Ccedilla" unicode="&#xc7;" horiz-adv-x="703" 
d="M671 260c-1.33301 -16 -3.99902 -33.002 -7.99902 -51.002s-9.16699 -35.667 -15.5 -53s-14.166 -34 -23.499 -50s-19.666 -30.333 -30.999 -43c-18 -19.333 -37.5 -34.333 -58.5 -45s-42 -18.667 -63 -24s-41.333 -8.66602 -61 -9.99902s-36.5 -2 -50.5 -2
c-16.667 0 -34.667 0.666992 -54 2s-38.833 4.83301 -58.5 10.5s-39.334 13.834 -59.001 24.501s-38.167 25 -55.5 43c-28 29.333 -50.167 67.833 -66.5 115.5s-24.5 103.5 -24.5 167.5c0 22.667 1.33301 46.334 4 71.001s7.5 49.334 14.5 74.001s16.5 48.667 28.5 72
s27.667 45.333 47 66c18 19.333 37 35 57 47s40.167 21.333 60.5 28s40.5 11.167 60.5 13.5s39.333 3.5 58 3.5c28.667 0 54.667 -2.33301 78 -7s44 -11 62 -19s33.667 -17.167 47 -27.5s24.666 -20.833 33.999 -31.5c10.667 -12 20.167 -25.5 28.5 -40.5
s15.666 -30.833 21.999 -47.5s11.333 -33.334 15 -50.001s6.16699 -32.667 7.5 -48h-194c-1.33301 13.333 -4.83301 25.5 -10.5 36.5s-12.167 19.833 -19.5 26.5c-6 5.33301 -14 10.333 -24 15s-23 7 -39 7c-21.333 0 -38.833 -3.66699 -52.5 -11s-24.167 -15.333 -31.5 -24
c-9.33301 -10 -16.5 -21.333 -21.5 -34s-9 -25.667 -12 -39s-4.83301 -26.5 -5.5 -39.5s-1 -24.833 -1 -35.5c0 -24 2.16699 -48.833 6.5 -74.5s13.833 -48.167 28.5 -67.5c12.667 -16.667 25.834 -27.5 39.501 -32.5s28.167 -7.5 43.5 -7.5c10.667 0 22.5 1.66699 35.5 5
s25.167 10.666 36.5 21.999c8 8 14.667 17.667 20 29s8.66602 23 9.99902 35h196zM253.001 -164.002c9.33301 -3.33301 18.667 -5.83301 28 -7.5s18.666 -2.5 27.999 -2.5c3.33301 0 9 0.166992 17 0.5s14.667 1.83301 20 4.5c6.66699 3.33301 11 7 13 11s3 8.66699 3 14
c0 13.333 -6.66699 22 -20 26c-2.66699 1.33301 -8 2.33301 -16 3s-23 1 -45 1h-13l21 67c4 0.666992 10.833 1.16699 20.5 1.5s18.5 0.5 26.5 0.5c21.333 0 39.333 -1.66699 54 -5s27 -8.33301 37 -15c15.333 -10 25.5 -22 30.5 -36s7.5 -27.667 7.5 -41
c0 -24 -4.66699 -42.833 -14 -56.5s-17.666 -23.167 -24.999 -28.5c-14.667 -11.333 -30.5 -18 -47.5 -20s-31.5 -3 -43.5 -3c-28 0 -49.5 1.5 -64.5 4.5s-28.167 6.83301 -39.5 11.5z" />
    <glyph glyph-name="Egrave" unicode="&#xc8;" horiz-adv-x="649" 
d="M554 436v-165h-277v-86h331v-185h-531v700h523v-185h-323v-79h277zM406 766h-132l-105 142h177z" />
    <glyph glyph-name="Eacute" unicode="&#xc9;" horiz-adv-x="649" 
d="M554 436v-165h-277v-86h331v-185h-531v700h523v-185h-323v-79h277zM480 908l-105 -142h-132l60 142h177z" />
    <glyph glyph-name="Ecircumflex" unicode="&#xca;" horiz-adv-x="649" 
d="M554 436v-165h-277v-86h331v-185h-531v700h523v-185h-323v-79h277zM241 766h-130l112 132h202l112 -132h-130l-83 83z" />
    <glyph glyph-name="Edieresis" unicode="&#xcb;" horiz-adv-x="649" 
d="M554 436v-165h-277v-86h331v-185h-531v700h523v-185h-323v-79h277zM126 908h155v-129h-155v129zM368 908h155v-129h-155v129z" />
    <glyph glyph-name="Igrave" unicode="&#xcc;" horiz-adv-x="354" 
d="M277 700v-700h-200v700h200zM258 766h-132l-105 142h177z" />
    <glyph glyph-name="Iacute" unicode="&#xcd;" horiz-adv-x="354" 
d="M277 700v-700h-200v700h200zM332 908l-105 -142h-132l60 142h177z" />
    <glyph glyph-name="Icircumflex" unicode="&#xce;" horiz-adv-x="354" 
d="M277 700v-700h-200v700h200zM109 766h-130l97 132h202l97 -132h-130l-68 83z" />
    <glyph glyph-name="Idieresis" unicode="&#xcf;" horiz-adv-x="354" 
d="M277 700v-700h-200v700h200zM4 908h141v-129h-141v129zM210 908h140v-129h-140v129z" />
    <glyph glyph-name="Eth" unicode="&#xd0;" horiz-adv-x="751" 
d="M400 700c18.667 0 37.3291 -0.833984 55.9961 -2.50098s37.334 -5.16699 56.001 -10.5s36.834 -13.166 54.501 -23.499s34.834 -24.166 51.501 -41.499c32 -32.667 55.167 -74 69.5 -124s21.5 -102.333 21.5 -157c0 -38 -3 -71.5 -9 -100.5s-13.5 -54.167 -22.5 -75.5
s-18.833 -39.5 -29.5 -54.5s-21 -27.5 -31 -37.5c-17.333 -17.333 -35 -30.833 -53 -40.5s-36.333 -16.834 -55 -21.501s-37.167 -7.66699 -55.5 -9s-36.166 -2 -53.499 -2h-303v319h-88v104h88v277h303zM295.995 422.999h118v-104h-118v-131h64
c14.667 0 31.167 1.66699 49.5 5s34.833 12.666 49.5 27.999c8 8 14.5 17.5 19.5 28.5s8.66699 22.333 11 34s4 23.167 5 34.5s1.5 22 1.5 32c0 62.667 -11.333 106.334 -34 131.001c-15.333 16.667 -32.5 26.667 -51.5 30s-36.167 5 -51.5 5h-63v-93z" />
    <glyph glyph-name="Ntilde" unicode="&#xd1;" horiz-adv-x="739" 
d="M269 388l8 -53v-335h-200v700h200l184 -388h8l-8 53v335h201v-700h-201l-184 388h-8zM565 901c-2 -19.333 -6.67285 -38.501 -14.0059 -57.501s-16.666 -34.833 -27.999 -47.5c-9.33301 -10 -19.166 -17.5 -29.499 -22.5s-23.166 -7.5 -38.499 -7.5
c-14.667 0 -27.834 2.16699 -39.501 6.5s-22.5 9.16602 -32.5 14.499l-35 18c-5.33301 3.33301 -11.666 6.16602 -18.999 8.49902s-15 3.5 -23 3.5c-11.333 0 -20 -3.66699 -26 -11c-2.66699 -3.33301 -5 -7.66602 -7 -12.999s-3.33301 -10.666 -4 -15.999h-96
c2 15.333 6.16699 31.333 12.5 48s14.5 31.667 24.5 45c11.333 14.667 23.333 25 36 31s27.334 9 44.001 9c14.667 0 26.667 -1.83301 36 -5.5s19.333 -8.16699 30 -13.5l40 -20c6.66699 -3.33301 13.334 -6.16602 20.001 -8.49902s13 -3.5 19 -3.5
c10.667 0 18.667 3.33301 24 10c3.33301 3.33301 5.83301 8.5 7.5 15.5s2.83398 12.5 3.50098 16.5h95z" />
    <glyph glyph-name="Ograve" unicode="&#xd2;" horiz-adv-x="748" 
d="M42 349c0 64.667 8.83203 119.33 26.499 163.997s38.5 81 62.5 109c18.667 21.333 38 38.333 58 51s40.333 22.5 61 29.5s41.167 11.667 61.5 14s40.166 3.5 59.499 3.5c21.333 0 43 -1.33301 65 -4s43.833 -7.5 65.5 -14.5s42.667 -17 63 -30s39.5 -29.833 57.5 -50.5
c18 -20 32.5 -41.5 43.5 -64.5s19.5 -46.167 25.5 -69.5s10 -46.166 12 -68.499s3 -43.5 3 -63.5c0 -17.333 -0.833008 -37.166 -2.5 -59.499s-5.33398 -45.666 -11.001 -69.999s-14 -48.833 -25 -73.5s-25.5 -48 -43.5 -70c-18.667 -22 -38.167 -39.5 -58.5 -52.5
s-41.166 -23 -62.499 -30s-42.666 -11.667 -63.999 -14s-42 -3.5 -62 -3.5c-21.333 0 -43 1.16699 -65 3.5s-44 7.16602 -66 14.499s-43.333 17.666 -64 30.999s-40.334 31 -59.001 53c-7.33301 8.66699 -15.666 20.334 -24.999 35.001s-18.166 32.834 -26.499 54.501
s-15.333 47 -21 76s-8.5 62.167 -8.5 99.5zM254.999 350.996c0 -27.333 2.33008 -54 6.99707 -80s15 -48.667 31 -68c11.333 -13.333 23.5 -22.833 36.5 -28.5s27.833 -8.5 44.5 -8.5c16 0 30.833 2.5 44.5 7.5s26.167 14.833 37.5 29.5c10 13.333 18.667 31.833 26 55.5
s11 54.5 11 92.5c0 26.667 -2 53 -6 79s-14.333 49 -31 69c-9.33301 11.333 -20.166 20.333 -32.499 27s-27.5 10 -45.5 10c-16 0 -31.167 -2.66699 -45.5 -8s-27.166 -15 -38.499 -29c-15.333 -18.667 -25.666 -41.5 -30.999 -68.5s-8 -53.5 -8 -79.5zM454.996 765.996
h-132l-105 142h177z" />
    <glyph glyph-name="Oacute" unicode="&#xd3;" horiz-adv-x="748" 
d="M42 349c0 64.667 8.83203 119.33 26.499 163.997s38.5 81 62.5 109c18.667 21.333 38 38.333 58 51s40.333 22.5 61 29.5s41.167 11.667 61.5 14s40.166 3.5 59.499 3.5c21.333 0 43 -1.33301 65 -4s43.833 -7.5 65.5 -14.5s42.667 -17 63 -30s39.5 -29.833 57.5 -50.5
c18 -20 32.5 -41.5 43.5 -64.5s19.5 -46.167 25.5 -69.5s10 -46.166 12 -68.499s3 -43.5 3 -63.5c0 -17.333 -0.833008 -37.166 -2.5 -59.499s-5.33398 -45.666 -11.001 -69.999s-14 -48.833 -25 -73.5s-25.5 -48 -43.5 -70c-18.667 -22 -38.167 -39.5 -58.5 -52.5
s-41.166 -23 -62.499 -30s-42.666 -11.667 -63.999 -14s-42 -3.5 -62 -3.5c-21.333 0 -43 1.16699 -65 3.5s-44 7.16602 -66 14.499s-43.333 17.666 -64 30.999s-40.334 31 -59.001 53c-7.33301 8.66699 -15.666 20.334 -24.999 35.001s-18.166 32.834 -26.499 54.501
s-15.333 47 -21 76s-8.5 62.167 -8.5 99.5zM254.999 350.996c0 -27.333 2.33008 -54 6.99707 -80s15 -48.667 31 -68c11.333 -13.333 23.5 -22.833 36.5 -28.5s27.833 -8.5 44.5 -8.5c16 0 30.833 2.5 44.5 7.5s26.167 14.833 37.5 29.5c10 13.333 18.667 31.833 26 55.5
s11 54.5 11 92.5c0 26.667 -2 53 -6 79s-14.333 49 -31 69c-9.33301 11.333 -20.166 20.333 -32.499 27s-27.5 10 -45.5 10c-16 0 -31.167 -2.66699 -45.5 -8s-27.166 -15 -38.499 -29c-15.333 -18.667 -25.666 -41.5 -30.999 -68.5s-8 -53.5 -8 -79.5zM528.996 907.996
l-105 -142h-132l60 142h177z" />
    <glyph glyph-name="Ocircumflex" unicode="&#xd4;" horiz-adv-x="748" 
d="M42 349c0 64.667 8.83203 119.33 26.499 163.997s38.5 81 62.5 109c18.667 21.333 38 38.333 58 51s40.333 22.5 61 29.5s41.167 11.667 61.5 14s40.166 3.5 59.499 3.5c21.333 0 43 -1.33301 65 -4s43.833 -7.5 65.5 -14.5s42.667 -17 63 -30s39.5 -29.833 57.5 -50.5
c18 -20 32.5 -41.5 43.5 -64.5s19.5 -46.167 25.5 -69.5s10 -46.166 12 -68.499s3 -43.5 3 -63.5c0 -17.333 -0.833008 -37.166 -2.5 -59.499s-5.33398 -45.666 -11.001 -69.999s-14 -48.833 -25 -73.5s-25.5 -48 -43.5 -70c-18.667 -22 -38.167 -39.5 -58.5 -52.5
s-41.166 -23 -62.499 -30s-42.666 -11.667 -63.999 -14s-42 -3.5 -62 -3.5c-21.333 0 -43 1.16699 -65 3.5s-44 7.16602 -66 14.499s-43.333 17.666 -64 30.999s-40.334 31 -59.001 53c-7.33301 8.66699 -15.666 20.334 -24.999 35.001s-18.166 32.834 -26.499 54.501
s-15.333 47 -21 76s-8.5 62.167 -8.5 99.5zM254.999 350.996c0 -27.333 2.33008 -54 6.99707 -80s15 -48.667 31 -68c11.333 -13.333 23.5 -22.833 36.5 -28.5s27.833 -8.5 44.5 -8.5c16 0 30.833 2.5 44.5 7.5s26.167 14.833 37.5 29.5c10 13.333 18.667 31.833 26 55.5
s11 54.5 11 92.5c0 26.667 -2 53 -6 79s-14.333 49 -31 69c-9.33301 11.333 -20.166 20.333 -32.499 27s-27.5 10 -45.5 10c-16 0 -31.167 -2.66699 -45.5 -8s-27.166 -15 -38.499 -29c-15.333 -18.667 -25.666 -41.5 -30.999 -68.5s-8 -53.5 -8 -79.5zM290.996 765.996
h-130l112 132h202l112 -132h-130l-83 83z" />
    <glyph glyph-name="Otilde" unicode="&#xd5;" horiz-adv-x="748" 
d="M42 349c0 64.667 8.83203 119.33 26.499 163.997s38.5 81 62.5 109c18.667 21.333 38 38.333 58 51s40.333 22.5 61 29.5s41.167 11.667 61.5 14s40.166 3.5 59.499 3.5c21.333 0 43 -1.33301 65 -4s43.833 -7.5 65.5 -14.5s42.667 -17 63 -30s39.5 -29.833 57.5 -50.5
c18 -20 32.5 -41.5 43.5 -64.5s19.5 -46.167 25.5 -69.5s10 -46.166 12 -68.499s3 -43.5 3 -63.5c0 -17.333 -0.833008 -37.166 -2.5 -59.499s-5.33398 -45.666 -11.001 -69.999s-14 -48.833 -25 -73.5s-25.5 -48 -43.5 -70c-18.667 -22 -38.167 -39.5 -58.5 -52.5
s-41.166 -23 -62.499 -30s-42.666 -11.667 -63.999 -14s-42 -3.5 -62 -3.5c-21.333 0 -43 1.16699 -65 3.5s-44 7.16602 -66 14.499s-43.333 17.666 -64 30.999s-40.334 31 -59.001 53c-7.33301 8.66699 -15.666 20.334 -24.999 35.001s-18.166 32.834 -26.499 54.501
s-15.333 47 -21 76s-8.5 62.167 -8.5 99.5zM254.999 350.996c0 -27.333 2.33008 -54 6.99707 -80s15 -48.667 31 -68c11.333 -13.333 23.5 -22.833 36.5 -28.5s27.833 -8.5 44.5 -8.5c16 0 30.833 2.5 44.5 7.5s26.167 14.833 37.5 29.5c10 13.333 18.667 31.833 26 55.5
s11 54.5 11 92.5c0 26.667 -2 53 -6 79s-14.333 49 -31 69c-9.33301 11.333 -20.166 20.333 -32.499 27s-27.5 10 -45.5 10c-16 0 -31.167 -2.66699 -45.5 -8s-27.166 -15 -38.499 -29c-15.333 -18.667 -25.666 -41.5 -30.999 -68.5s-8 -53.5 -8 -79.5zM569.996 900.996
c-2 -19.333 -6.67285 -38.501 -14.0059 -57.501s-16.666 -34.833 -27.999 -47.5c-9.33301 -10 -19.166 -17.5 -29.499 -22.5s-23.166 -7.5 -38.499 -7.5c-14.667 0 -27.834 2.16699 -39.501 6.5s-22.5 9.16602 -32.5 14.499l-35 18
c-5.33301 3.33301 -11.666 6.16602 -18.999 8.49902s-15 3.5 -23 3.5c-11.333 0 -20 -3.66699 -26 -11c-2.66699 -3.33301 -5 -7.66602 -7 -12.999s-3.33301 -10.666 -4 -15.999h-96c2 15.333 6.16699 31.333 12.5 48s14.5 31.667 24.5 45c11.333 14.667 23.333 25 36 31
s27.334 9 44.001 9c14.667 0 26.667 -1.83301 36 -5.5s19.333 -8.16699 30 -13.5l40 -20c6.66699 -3.33301 13.334 -6.16602 20.001 -8.49902s13 -3.5 19 -3.5c10.667 0 18.667 3.33301 24 10c3.33301 3.33301 5.83301 8.5 7.5 15.5s2.83398 12.5 3.50098 16.5h95z" />
    <glyph glyph-name="Odieresis" unicode="&#xd6;" horiz-adv-x="748" 
d="M42 349c0 64.667 8.83203 119.33 26.499 163.997s38.5 81 62.5 109c18.667 21.333 38 38.333 58 51s40.333 22.5 61 29.5s41.167 11.667 61.5 14s40.166 3.5 59.499 3.5c21.333 0 43 -1.33301 65 -4s43.833 -7.5 65.5 -14.5s42.667 -17 63 -30s39.5 -29.833 57.5 -50.5
c18 -20 32.5 -41.5 43.5 -64.5s19.5 -46.167 25.5 -69.5s10 -46.166 12 -68.499s3 -43.5 3 -63.5c0 -17.333 -0.833008 -37.166 -2.5 -59.499s-5.33398 -45.666 -11.001 -69.999s-14 -48.833 -25 -73.5s-25.5 -48 -43.5 -70c-18.667 -22 -38.167 -39.5 -58.5 -52.5
s-41.166 -23 -62.499 -30s-42.666 -11.667 -63.999 -14s-42 -3.5 -62 -3.5c-21.333 0 -43 1.16699 -65 3.5s-44 7.16602 -66 14.499s-43.333 17.666 -64 30.999s-40.334 31 -59.001 53c-7.33301 8.66699 -15.666 20.334 -24.999 35.001s-18.166 32.834 -26.499 54.501
s-15.333 47 -21 76s-8.5 62.167 -8.5 99.5zM254.999 350.996c0 -27.333 2.33008 -54 6.99707 -80s15 -48.667 31 -68c11.333 -13.333 23.5 -22.833 36.5 -28.5s27.833 -8.5 44.5 -8.5c16 0 30.833 2.5 44.5 7.5s26.167 14.833 37.5 29.5c10 13.333 18.667 31.833 26 55.5
s11 54.5 11 92.5c0 26.667 -2 53 -6 79s-14.333 49 -31 69c-9.33301 11.333 -20.166 20.333 -32.499 27s-27.5 10 -45.5 10c-16 0 -31.167 -2.66699 -45.5 -8s-27.166 -15 -38.499 -29c-15.333 -18.667 -25.666 -41.5 -30.999 -68.5s-8 -53.5 -8 -79.5zM174.996 907.996h155
v-129h-155v129zM416.996 907.996h155v-129h-155v129z" />
    <glyph glyph-name="multiply" unicode="&#xd7;" horiz-adv-x="618" 
d="M245 351l-164 162l64 65l164 -163l164 163l64 -65l-164 -162l164 -165l-64 -64l-164 165l-164 -164l-64 64z" />
    <glyph glyph-name="Oslash" unicode="&#xd8;" horiz-adv-x="748" 
d="M105 109c-23.333 38 -39.666 76 -48.999 114s-14 80 -14 126c0 36.667 3 69.667 9 99s13.333 55.166 22 77.499s18.167 41.333 28.5 57s20.166 28.834 29.499 39.501c18.667 21.333 38 38.333 58 51s40.333 22.5 61 29.5s41.167 11.667 61.5 14s40.166 3.5 59.499 3.5
c22.667 0 43.334 -1 62.001 -3s36 -5.33301 52 -10s31.167 -10.334 45.5 -17.001s28.166 -14.667 41.499 -24l69 82l79 -79l-71 -85c22 -38 37 -74.667 45 -110s12 -75 12 -119c0 -17.333 -0.833008 -37.166 -2.5 -59.499s-5.33398 -45.666 -11.001 -69.999
s-14 -48.833 -25 -73.5s-25.5 -48 -43.5 -70c-18.667 -22 -38.167 -39.5 -58.5 -52.5s-41.166 -23 -62.499 -30s-42.666 -11.667 -63.999 -14s-42 -3.5 -62 -3.5c-42 0 -77.833 3.66699 -107.5 11s-58.167 19.666 -85.5 36.999l-77 -92l-79 79zM443 512
c-8.66699 7.33301 -18.002 13.168 -28.002 17.501s-22.333 6.5 -37 6.5c-16 0 -31.167 -2.66699 -45.5 -8s-27.166 -15 -38.499 -29c-15.333 -18.667 -25.666 -41.5 -30.999 -68.5s-8 -53.5 -8 -79.5c0 -22.667 1 -42.334 3 -59.001zM312.998 184.002
c6.66699 -5.33301 14.668 -9.66602 24.001 -12.999s21.666 -5 36.999 -5c16 0 30.833 2.5 44.5 7.5s26.167 14.833 37.5 29.5c12 15.333 21.167 35.666 27.5 60.999s9.5 54 9.5 86c0 7.33301 -0.166992 14.833 -0.5 22.5s-0.833008 15.5 -1.5 23.5z" />
    <glyph glyph-name="Ugrave" unicode="&#xd9;" horiz-adv-x="738" 
d="M661 263c0 -16.667 -0.501953 -33.5 -1.50195 -50.5s-3.66699 -33.833 -8 -50.5s-10.666 -33.167 -18.999 -49.5s-19.5 -32.5 -33.5 -48.5c-28.667 -32 -62.334 -53.667 -101.001 -65s-81.334 -17 -128.001 -17c-46 0 -88.833 5.66699 -128.5 17s-73.834 33 -102.501 65
c-13.333 15.333 -24.166 31 -32.499 47s-14.666 32.333 -18.999 49s-7.16602 33.667 -8.49902 51s-2 35 -2 53v436h201v-427c0 -14 1.33301 -29.167 4 -45.5s9.33398 -30.5 20.001 -42.5c10.667 -12.667 22.5 -20.334 35.5 -23.001s23.5 -4 31.5 -4s18.5 1.33301 31.5 4
s24.833 10.334 35.5 23.001c8.66699 10 15 22.833 19 38.5s6 32.167 6 49.5v427h200v-437zM449.998 766h-132l-105 142h177z" />
    <glyph glyph-name="Uacute" unicode="&#xda;" horiz-adv-x="738" 
d="M661 263c0 -16.667 -0.501953 -33.5 -1.50195 -50.5s-3.66699 -33.833 -8 -50.5s-10.666 -33.167 -18.999 -49.5s-19.5 -32.5 -33.5 -48.5c-28.667 -32 -62.334 -53.667 -101.001 -65s-81.334 -17 -128.001 -17c-46 0 -88.833 5.66699 -128.5 17s-73.834 33 -102.501 65
c-13.333 15.333 -24.166 31 -32.499 47s-14.666 32.333 -18.999 49s-7.16602 33.667 -8.49902 51s-2 35 -2 53v436h201v-427c0 -14 1.33301 -29.167 4 -45.5s9.33398 -30.5 20.001 -42.5c10.667 -12.667 22.5 -20.334 35.5 -23.001s23.5 -4 31.5 -4s18.5 1.33301 31.5 4
s24.833 10.334 35.5 23.001c8.66699 10 15 22.833 19 38.5s6 32.167 6 49.5v427h200v-437zM523.998 908l-105 -142h-132l60 142h177z" />
    <glyph glyph-name="Ucircumflex" unicode="&#xdb;" horiz-adv-x="738" 
d="M661 263c0 -16.667 -0.501953 -33.5 -1.50195 -50.5s-3.66699 -33.833 -8 -50.5s-10.666 -33.167 -18.999 -49.5s-19.5 -32.5 -33.5 -48.5c-28.667 -32 -62.334 -53.667 -101.001 -65s-81.334 -17 -128.001 -17c-46 0 -88.833 5.66699 -128.5 17s-73.834 33 -102.501 65
c-13.333 15.333 -24.166 31 -32.499 47s-14.666 32.333 -18.999 49s-7.16602 33.667 -8.49902 51s-2 35 -2 53v436h201v-427c0 -14 1.33301 -29.167 4 -45.5s9.33398 -30.5 20.001 -42.5c10.667 -12.667 22.5 -20.334 35.5 -23.001s23.5 -4 31.5 -4s18.5 1.33301 31.5 4
s24.833 10.334 35.5 23.001c8.66699 10 15 22.833 19 38.5s6 32.167 6 49.5v427h200v-437zM285.998 766h-130l112 132h202l112 -132h-130l-83 83z" />
    <glyph glyph-name="Udieresis" unicode="&#xdc;" horiz-adv-x="738" 
d="M661 263c0 -16.667 -0.501953 -33.5 -1.50195 -50.5s-3.66699 -33.833 -8 -50.5s-10.666 -33.167 -18.999 -49.5s-19.5 -32.5 -33.5 -48.5c-28.667 -32 -62.334 -53.667 -101.001 -65s-81.334 -17 -128.001 -17c-46 0 -88.833 5.66699 -128.5 17s-73.834 33 -102.501 65
c-13.333 15.333 -24.166 31 -32.499 47s-14.666 32.333 -18.999 49s-7.16602 33.667 -8.49902 51s-2 35 -2 53v436h201v-427c0 -14 1.33301 -29.167 4 -45.5s9.33398 -30.5 20.001 -42.5c10.667 -12.667 22.5 -20.334 35.5 -23.001s23.5 -4 31.5 -4s18.5 1.33301 31.5 4
s24.833 10.334 35.5 23.001c8.66699 10 15 22.833 19 38.5s6 32.167 6 49.5v427h200v-437zM169.998 908h155v-129h-155v129zM411.998 908h155v-129h-155v129z" />
    <glyph glyph-name="Yacute" unicode="&#xdd;" horiz-adv-x="617" 
d="M410 700h216l-218 -455v-245h-200v245l-217 455h216l103 -282zM464 908l-105 -142h-132l60 142h177z" />
    <glyph glyph-name="Thorn" unicode="&#xde;" horiz-adv-x="667" 
d="M277 700l0.000976562 -111.997h120c14 0 29.167 -0.833008 45.5 -2.5s33 -5 50 -10s33.667 -12 50 -21s31.5 -21.167 45.5 -36.5c20 -22 34.333 -48.333 43 -79s13 -61.334 13 -92.001c0 -32 -4.83301 -63.333 -14.5 -94s-24.834 -57 -45.501 -79
c-15.333 -16 -31.333 -28.333 -48 -37s-33.167 -14.834 -49.5 -18.501s-32.333 -5.83398 -48 -6.50098s-29.5 -1 -41.5 -1h-120v-111h-200v700h200zM276.001 279.003l84.999 0.000976562c10 0 20.833 0.833008 32.5 2.5s21.834 6.83398 30.501 15.501
c8 8 12.833 17.5 14.5 28.5s2.5 19.5 2.5 25.5c0 7.33301 -0.833008 15.666 -2.5 24.999s-6.16699 17.666 -13.5 24.999c-9.33301 9.33301 -20 14.833 -32 16.5s-22.667 2.5 -32 2.5h-85v-141z" />
    <glyph glyph-name="germandbls" unicode="&#xdf;" horiz-adv-x="587" 
d="M59 447c0 12.667 0.496094 27.165 1.49609 43.498s3.33301 33.333 7 51s9.33398 35.167 17.001 52.5s18.167 33.666 31.5 48.999s28 27.5 44 36.5s32.167 16 48.5 21s32.333 8.33301 48 10s29.834 2.5 42.501 2.5c20.667 0 44.5 -2.66699 71.5 -8
s51.833 -17.333 74.5 -36c15.333 -13.333 28.833 -31.166 40.5 -53.499s17.5 -50.166 17.5 -83.499c0 -8 -0.666992 -17.833 -2 -29.5s-4.5 -23.667 -9.5 -36s-12.167 -24.166 -21.5 -35.499s-22 -20.666 -38 -27.999v-6c19.333 -3.33301 36.166 -9.66602 50.499 -18.999
s26.166 -19.666 35.499 -30.999c28 -33.333 42 -80 42 -140c0 -30 -4.16699 -58.333 -12.5 -85s-20.833 -49.667 -37.5 -69c-11.333 -13.333 -23.666 -24 -36.999 -32s-26.833 -14 -40.5 -18s-27.167 -6.66699 -40.5 -8s-26 -2 -38 -2c-13.333 0 -25.666 0.666992 -36.999 2
s-23.666 4 -36.999 8v145c5.33301 -2.66699 10.666 -4.33398 15.999 -5.00098s11.666 -1 18.999 -1c13.333 0 24.333 2.16699 33 6.5s15.334 9.16602 20.001 14.499c5.33301 5.33301 9.83301 13.166 13.5 23.499s5.5 23.833 5.5 40.5c0 4 -0.166992 9.33301 -0.5 16
s-1.5 13.667 -3.5 21s-4.83301 14.5 -8.5 21.5s-8.83398 13.167 -15.501 18.5c-9.33301 7.33301 -20 11.833 -32 13.5s-22 2.5 -30 2.5h-15v124h11c6.66699 0 13 1.5 19 4.5s11 6.83301 15 11.5c6.66699 7.33301 10.834 15.333 12.501 24s2.5 17 2.5 25
c0 7.33301 -0.833008 15 -2.5 23s-5.16699 15.333 -10.5 22c-8.66699 9.33301 -20 14 -34 14c-9.33301 0 -17.666 -1.66699 -24.999 -5s-13.666 -9.33301 -18.999 -18c-6 -10 -9.5 -20.333 -10.5 -31s-1.5 -20.667 -1.5 -30v-484h-180v447z" />
    <glyph glyph-name="agrave" unicode="&#xe0;" horiz-adv-x="568" 
d="M47 340c1.33301 23.333 6.16699 45.3301 14.5 65.9971s18.5 38 30.5 52c12.667 14.667 26.834 26.5 42.501 35.5s31.834 15.833 48.501 20.5s33.334 7.83398 50.001 9.50098s32.667 2.5 48 2.5c12 0 25.833 -0.5 41.5 -1.5s32 -3.33301 49 -7s33.833 -9.5 50.5 -17.5
s31.667 -19 45 -33c10.667 -11.333 19.167 -23.333 25.5 -36s11 -25.334 14 -38.001s4.83301 -25.167 5.5 -37.5s1 -23.5 1 -33.5v-234c0 -15.333 0.5 -27.5 1.5 -36.5s2.83301 -16.167 5.5 -21.5c3.33301 -7.33301 7.33301 -12.666 12 -15.999
s8.66699 -5.66602 12 -6.99902v-7h-194l-11 55h-2c-14.667 -20 -33 -36.333 -55 -49c-18.667 -10.667 -37.5 -17.334 -56.5 -20.001s-35.833 -4 -50.5 -4c-18 0 -37 2.16699 -57 6.5s-38.667 15.166 -56 32.499c-16.667 16.667 -27.167 34.834 -31.5 54.501
s-6.5 38.167 -6.5 55.5c0 19.333 2.16699 37 6.5 53s13.166 31.333 26.499 46c18 20 38.167 33.667 60.5 41s42.833 12 61.5 14l59 7c21.333 2.66699 38.666 5.33398 51.999 8.00098s23.333 7.33398 30 14.001c6 6 9.66699 12.5 11 19.5s2 13.833 2 20.5
c0 7.33301 -0.5 13.833 -1.5 19.5s-4.16699 11.167 -9.5 16.5c-6.66699 7.33301 -14.5 11.5 -23.5 12.5s-16.167 1.5 -21.5 1.5c-9.33301 0 -17.833 -0.833008 -25.5 -2.5s-14.834 -6.16699 -21.501 -13.5c-5.33301 -6 -9.33301 -13.5 -12 -22.5s-3.66699 -17.5 -3 -25.5
h-168zM333.001 229.997c-11.333 -8 -21.334 -13.3301 -30.001 -15.9971s-18 -4.66699 -28 -6c-11.333 -2 -22.166 -4.33301 -32.499 -7s-19.166 -8.33398 -26.499 -17.001c-8 -8.66699 -12 -19.334 -12 -32.001c0 -7.33301 1.33301 -13.833 4 -19.5s5.66699 -10.167 9 -13.5
c5.33301 -5.33301 11 -8.83301 17 -10.5s11.667 -2.5 17 -2.5c11.333 0 21.333 1.66699 30 5s17 9.33301 25 18c13.333 14.667 21.166 29.167 23.499 43.5s3.5 29.166 3.5 44.499v13zM356 568h-120l-104 132h165z" />
    <glyph glyph-name="aacute" unicode="&#xe1;" horiz-adv-x="568" 
d="M47 340c1.33301 23.333 6.16699 45.3301 14.5 65.9971s18.5 38 30.5 52c12.667 14.667 26.834 26.5 42.501 35.5s31.834 15.833 48.501 20.5s33.334 7.83398 50.001 9.50098s32.667 2.5 48 2.5c12 0 25.833 -0.5 41.5 -1.5s32 -3.33301 49 -7s33.833 -9.5 50.5 -17.5
s31.667 -19 45 -33c10.667 -11.333 19.167 -23.333 25.5 -36s11 -25.334 14 -38.001s4.83301 -25.167 5.5 -37.5s1 -23.5 1 -33.5v-234c0 -15.333 0.5 -27.5 1.5 -36.5s2.83301 -16.167 5.5 -21.5c3.33301 -7.33301 7.33301 -12.666 12 -15.999
s8.66699 -5.66602 12 -6.99902v-7h-194l-11 55h-2c-14.667 -20 -33 -36.333 -55 -49c-18.667 -10.667 -37.5 -17.334 -56.5 -20.001s-35.833 -4 -50.5 -4c-18 0 -37 2.16699 -57 6.5s-38.667 15.166 -56 32.499c-16.667 16.667 -27.167 34.834 -31.5 54.501
s-6.5 38.167 -6.5 55.5c0 19.333 2.16699 37 6.5 53s13.166 31.333 26.499 46c18 20 38.167 33.667 60.5 41s42.833 12 61.5 14l59 7c21.333 2.66699 38.666 5.33398 51.999 8.00098s23.333 7.33398 30 14.001c6 6 9.66699 12.5 11 19.5s2 13.833 2 20.5
c0 7.33301 -0.5 13.833 -1.5 19.5s-4.16699 11.167 -9.5 16.5c-6.66699 7.33301 -14.5 11.5 -23.5 12.5s-16.167 1.5 -21.5 1.5c-9.33301 0 -17.833 -0.833008 -25.5 -2.5s-14.834 -6.16699 -21.501 -13.5c-5.33301 -6 -9.33301 -13.5 -12 -22.5s-3.66699 -17.5 -3 -25.5
h-168zM333.001 229.997c-11.333 -8 -21.334 -13.3301 -30.001 -15.9971s-18 -4.66699 -28 -6c-11.333 -2 -22.166 -4.33301 -32.499 -7s-19.166 -8.33398 -26.499 -17.001c-8 -8.66699 -12 -19.334 -12 -32.001c0 -7.33301 1.33301 -13.833 4 -19.5s5.66699 -10.167 9 -13.5
c5.33301 -5.33301 11 -8.83301 17 -10.5s11.667 -2.5 17 -2.5c11.333 0 21.333 1.66699 30 5s17 9.33301 25 18c13.333 14.667 21.166 29.167 23.499 43.5s3.5 29.166 3.5 44.499v13zM430 700l-104 -132h-120l59 132h165z" />
    <glyph glyph-name="acircumflex" unicode="&#xe2;" horiz-adv-x="568" 
d="M47 340c1.33301 23.333 6.16699 45.3301 14.5 65.9971s18.5 38 30.5 52c12.667 14.667 26.834 26.5 42.501 35.5s31.834 15.833 48.501 20.5s33.334 7.83398 50.001 9.50098s32.667 2.5 48 2.5c12 0 25.833 -0.5 41.5 -1.5s32 -3.33301 49 -7s33.833 -9.5 50.5 -17.5
s31.667 -19 45 -33c10.667 -11.333 19.167 -23.333 25.5 -36s11 -25.334 14 -38.001s4.83301 -25.167 5.5 -37.5s1 -23.5 1 -33.5v-234c0 -15.333 0.5 -27.5 1.5 -36.5s2.83301 -16.167 5.5 -21.5c3.33301 -7.33301 7.33301 -12.666 12 -15.999
s8.66699 -5.66602 12 -6.99902v-7h-194l-11 55h-2c-14.667 -20 -33 -36.333 -55 -49c-18.667 -10.667 -37.5 -17.334 -56.5 -20.001s-35.833 -4 -50.5 -4c-18 0 -37 2.16699 -57 6.5s-38.667 15.166 -56 32.499c-16.667 16.667 -27.167 34.834 -31.5 54.501
s-6.5 38.167 -6.5 55.5c0 19.333 2.16699 37 6.5 53s13.166 31.333 26.499 46c18 20 38.167 33.667 60.5 41s42.833 12 61.5 14l59 7c21.333 2.66699 38.666 5.33398 51.999 8.00098s23.333 7.33398 30 14.001c6 6 9.66699 12.5 11 19.5s2 13.833 2 20.5
c0 7.33301 -0.5 13.833 -1.5 19.5s-4.16699 11.167 -9.5 16.5c-6.66699 7.33301 -14.5 11.5 -23.5 12.5s-16.167 1.5 -21.5 1.5c-9.33301 0 -17.833 -0.833008 -25.5 -2.5s-14.834 -6.16699 -21.501 -13.5c-5.33301 -6 -9.33301 -13.5 -12 -22.5s-3.66699 -17.5 -3 -25.5
h-168zM333.001 229.997c-11.333 -8 -21.334 -13.3301 -30.001 -15.9971s-18 -4.66699 -28 -6c-11.333 -2 -22.166 -4.33301 -32.499 -7s-19.166 -8.33398 -26.499 -17.001c-8 -8.66699 -12 -19.334 -12 -32.001c0 -7.33301 1.33301 -13.833 4 -19.5s5.66699 -10.167 9 -13.5
c5.33301 -5.33301 11 -8.83301 17 -10.5s11.667 -2.5 17 -2.5c11.333 0 21.333 1.66699 30 5s17 9.33301 25 18c13.333 14.667 21.166 29.167 23.499 43.5s3.5 29.166 3.5 44.499v13zM192 568h-124l112 132h202l112 -132h-124l-89 88z" />
    <glyph glyph-name="atilde" unicode="&#xe3;" horiz-adv-x="568" 
d="M47 340c1.33301 23.333 6.16699 45.3301 14.5 65.9971s18.5 38 30.5 52c12.667 14.667 26.834 26.5 42.501 35.5s31.834 15.833 48.501 20.5s33.334 7.83398 50.001 9.50098s32.667 2.5 48 2.5c12 0 25.833 -0.5 41.5 -1.5s32 -3.33301 49 -7s33.833 -9.5 50.5 -17.5
s31.667 -19 45 -33c10.667 -11.333 19.167 -23.333 25.5 -36s11 -25.334 14 -38.001s4.83301 -25.167 5.5 -37.5s1 -23.5 1 -33.5v-234c0 -15.333 0.5 -27.5 1.5 -36.5s2.83301 -16.167 5.5 -21.5c3.33301 -7.33301 7.33301 -12.666 12 -15.999
s8.66699 -5.66602 12 -6.99902v-7h-194l-11 55h-2c-14.667 -20 -33 -36.333 -55 -49c-18.667 -10.667 -37.5 -17.334 -56.5 -20.001s-35.833 -4 -50.5 -4c-18 0 -37 2.16699 -57 6.5s-38.667 15.166 -56 32.499c-16.667 16.667 -27.167 34.834 -31.5 54.501
s-6.5 38.167 -6.5 55.5c0 19.333 2.16699 37 6.5 53s13.166 31.333 26.499 46c18 20 38.167 33.667 60.5 41s42.833 12 61.5 14l59 7c21.333 2.66699 38.666 5.33398 51.999 8.00098s23.333 7.33398 30 14.001c6 6 9.66699 12.5 11 19.5s2 13.833 2 20.5
c0 7.33301 -0.5 13.833 -1.5 19.5s-4.16699 11.167 -9.5 16.5c-6.66699 7.33301 -14.5 11.5 -23.5 12.5s-16.167 1.5 -21.5 1.5c-9.33301 0 -17.833 -0.833008 -25.5 -2.5s-14.834 -6.16699 -21.501 -13.5c-5.33301 -6 -9.33301 -13.5 -12 -22.5s-3.66699 -17.5 -3 -25.5
h-168zM333.001 229.997c-11.333 -8 -21.334 -13.3301 -30.001 -15.9971s-18 -4.66699 -28 -6c-11.333 -2 -22.166 -4.33301 -32.499 -7s-19.166 -8.33398 -26.499 -17.001c-8 -8.66699 -12 -19.334 -12 -32.001c0 -7.33301 1.33301 -13.833 4 -19.5s5.66699 -10.167 9 -13.5
c5.33301 -5.33301 11 -8.83301 17 -10.5s11.667 -2.5 17 -2.5c11.333 0 21.333 1.66699 30 5s17 9.33301 25 18c13.333 14.667 21.166 29.167 23.499 43.5s3.5 29.166 3.5 44.499v13zM477 703c-2 -19.333 -6.66699 -38.6689 -14 -58.002s-16.333 -35 -27 -47
c-10 -11.333 -20.667 -19.166 -32 -23.499s-23.666 -6.5 -36.999 -6.5c-16.667 0 -30.334 2.16699 -41.001 6.5s-21 9.16602 -31 14.499l-39 20c-4.66699 2.66699 -10.334 5 -17.001 7s-13.667 3 -21 3c-11.333 0 -20 -3.66699 -26 -11
c-2.66699 -3.33301 -5 -7.66602 -7 -12.999s-3.33301 -10.666 -4 -15.999h-96c2 15.333 6.16699 31.333 12.5 48s14.5 31.667 24.5 45c11.333 14.667 23 25 35 31s26.333 9 43 9c14.667 0 27.167 -1.83301 37.5 -5.5s20.5 -8.16699 30.5 -13.5l42 -21
c9.33301 -4.66699 17 -7.66699 23 -9s10.667 -2 14 -2c10.667 0 18.667 3.33301 24 10c3.33301 3.33301 5.83301 8.5 7.5 15.5s2.83398 12.5 3.50098 16.5h95z" />
    <glyph glyph-name="adieresis" unicode="&#xe4;" horiz-adv-x="568" 
d="M47 340c1.33301 23.333 6.16699 45.3301 14.5 65.9971s18.5 38 30.5 52c12.667 14.667 26.834 26.5 42.501 35.5s31.834 15.833 48.501 20.5s33.334 7.83398 50.001 9.50098s32.667 2.5 48 2.5c12 0 25.833 -0.5 41.5 -1.5s32 -3.33301 49 -7s33.833 -9.5 50.5 -17.5
s31.667 -19 45 -33c10.667 -11.333 19.167 -23.333 25.5 -36s11 -25.334 14 -38.001s4.83301 -25.167 5.5 -37.5s1 -23.5 1 -33.5v-234c0 -15.333 0.5 -27.5 1.5 -36.5s2.83301 -16.167 5.5 -21.5c3.33301 -7.33301 7.33301 -12.666 12 -15.999
s8.66699 -5.66602 12 -6.99902v-7h-194l-11 55h-2c-14.667 -20 -33 -36.333 -55 -49c-18.667 -10.667 -37.5 -17.334 -56.5 -20.001s-35.833 -4 -50.5 -4c-18 0 -37 2.16699 -57 6.5s-38.667 15.166 -56 32.499c-16.667 16.667 -27.167 34.834 -31.5 54.501
s-6.5 38.167 -6.5 55.5c0 19.333 2.16699 37 6.5 53s13.166 31.333 26.499 46c18 20 38.167 33.667 60.5 41s42.833 12 61.5 14l59 7c21.333 2.66699 38.666 5.33398 51.999 8.00098s23.333 7.33398 30 14.001c6 6 9.66699 12.5 11 19.5s2 13.833 2 20.5
c0 7.33301 -0.5 13.833 -1.5 19.5s-4.16699 11.167 -9.5 16.5c-6.66699 7.33301 -14.5 11.5 -23.5 12.5s-16.167 1.5 -21.5 1.5c-9.33301 0 -17.833 -0.833008 -25.5 -2.5s-14.834 -6.16699 -21.501 -13.5c-5.33301 -6 -9.33301 -13.5 -12 -22.5s-3.66699 -17.5 -3 -25.5
h-168zM333.001 229.997c-11.333 -8 -21.334 -13.3301 -30.001 -15.9971s-18 -4.66699 -28 -6c-11.333 -2 -22.166 -4.33301 -32.499 -7s-19.166 -8.33398 -26.499 -17.001c-8 -8.66699 -12 -19.334 -12 -32.001c0 -7.33301 1.33301 -13.833 4 -19.5s5.66699 -10.167 9 -13.5
c5.33301 -5.33301 11 -8.83301 17 -10.5s11.667 -2.5 17 -2.5c11.333 0 21.333 1.66699 30 5s17 9.33301 25 18c13.333 14.667 21.166 29.167 23.499 43.5s3.5 29.166 3.5 44.499v13zM90 700h151v-132h-151v132zM322 700h151v-132h-151v132z" />
    <glyph glyph-name="aring" unicode="&#xe5;" horiz-adv-x="568" 
d="M47 340c1.33301 23.333 6.16699 45.3301 14.5 65.9971s18.5 38 30.5 52c12.667 14.667 26.834 26.5 42.501 35.5s31.834 15.833 48.501 20.5s33.334 7.83398 50.001 9.50098s32.667 2.5 48 2.5c12 0 25.833 -0.5 41.5 -1.5s32 -3.33301 49 -7s33.833 -9.5 50.5 -17.5
s31.667 -19 45 -33c10.667 -11.333 19.167 -23.333 25.5 -36s11 -25.334 14 -38.001s4.83301 -25.167 5.5 -37.5s1 -23.5 1 -33.5v-234c0 -15.333 0.5 -27.5 1.5 -36.5s2.83301 -16.167 5.5 -21.5c3.33301 -7.33301 7.33301 -12.666 12 -15.999
s8.66699 -5.66602 12 -6.99902v-7h-194l-11 55h-2c-14.667 -20 -33 -36.333 -55 -49c-18.667 -10.667 -37.5 -17.334 -56.5 -20.001s-35.833 -4 -50.5 -4c-18 0 -37 2.16699 -57 6.5s-38.667 15.166 -56 32.499c-16.667 16.667 -27.167 34.834 -31.5 54.501
s-6.5 38.167 -6.5 55.5c0 19.333 2.16699 37 6.5 53s13.166 31.333 26.499 46c18 20 38.167 33.667 60.5 41s42.833 12 61.5 14l59 7c21.333 2.66699 38.666 5.33398 51.999 8.00098s23.333 7.33398 30 14.001c6 6 9.66699 12.5 11 19.5s2 13.833 2 20.5
c0 7.33301 -0.5 13.833 -1.5 19.5s-4.16699 11.167 -9.5 16.5c-6.66699 7.33301 -14.5 11.5 -23.5 12.5s-16.167 1.5 -21.5 1.5c-9.33301 0 -17.833 -0.833008 -25.5 -2.5s-14.834 -6.16699 -21.501 -13.5c-5.33301 -6 -9.33301 -13.5 -12 -22.5s-3.66699 -17.5 -3 -25.5
h-168zM333.001 229.997c-11.333 -8 -21.334 -13.3301 -30.001 -15.9971s-18 -4.66699 -28 -6c-11.333 -2 -22.166 -4.33301 -32.499 -7s-19.166 -8.33398 -26.499 -17.001c-8 -8.66699 -12 -19.334 -12 -32.001c0 -7.33301 1.33301 -13.833 4 -19.5s5.66699 -10.167 9 -13.5
c5.33301 -5.33301 11 -8.83301 17 -10.5s11.667 -2.5 17 -2.5c11.333 0 21.333 1.66699 30 5s17 9.33301 25 18c13.333 14.667 21.166 29.167 23.499 43.5s3.5 29.166 3.5 44.499v13zM186 670c0 18 3 33.5 9 46.5s13.5 24 22.5 33s19.167 15.667 30.5 20s22.333 6.5 33 6.5
s21.667 -2.16699 33 -6.5s21.5 -11 30.5 -20s16.5 -20 22.5 -33s9 -28.5 9 -46.5s-3 -33.5 -9 -46.5s-13.5 -24 -22.5 -33s-19.167 -15.667 -30.5 -20s-22.333 -6.5 -33 -6.5s-21.667 2.16699 -33 6.5s-21.5 11 -30.5 20s-16.5 20 -22.5 33s-9 28.5 -9 46.5zM241 670
c0 -11.333 3.83301 -21.5 11.5 -30.5s17.167 -13.5 28.5 -13.5s20.833 4.5 28.5 13.5s11.5 19.167 11.5 30.5s-3.83301 21.5 -11.5 30.5s-17.167 13.5 -28.5 13.5s-20.833 -4.5 -28.5 -13.5s-11.5 -19.167 -11.5 -30.5z" />
    <glyph glyph-name="ae" unicode="&#xe6;" horiz-adv-x="871" 
d="M837 147c-6.66699 -30 -18.0029 -55.9941 -34.0029 -77.9941s-34 -39.667 -54 -53c-24.667 -16 -50.834 -25.667 -78.501 -29s-50.834 -5 -69.501 -5c-30 0 -55.333 2.33301 -76 7s-38.334 11 -53.001 19c-11.333 6.66699 -22.833 15.5 -34.5 26.5
s-21.834 24.833 -30.501 41.5c-8.66699 -13.333 -19 -26.333 -31 -39s-25.667 -23 -41 -31c-19.333 -10.667 -39.666 -17.334 -60.999 -20.001s-41.666 -4 -60.999 -4c-10.667 0 -22.5 0.333008 -35.5 1s-26.167 2.5 -39.5 5.5s-26.166 7 -38.499 12
s-23.5 12.167 -33.5 21.5s-19.5 23 -28.5 41s-13.5 41 -13.5 69c0 30 5 53.833 15 71.5s19.333 30.5 28 38.5c16.667 15.333 35.5 25.833 56.5 31.5s39.5 9.5 55.5 11.5l70 9c13.333 1.33301 25.5 3.5 36.5 6.5s19.833 7.16699 26.5 12.5c6 5.33301 10.167 11 12.5 17
s3.5 12.667 3.5 20c0 11.333 -1.66699 20.333 -5 27s-6.66602 11.667 -9.99902 15c-5.33301 5.33301 -11.666 8.66602 -18.999 9.99902s-14.333 2 -21 2c-7.33301 0 -14.666 -0.833008 -21.999 -2.5s-14.333 -6.16699 -21 -13.5c-5.33301 -6 -9.33301 -13.5 -12 -22.5
s-4 -17.5 -4 -25.5h-167c1.33301 28 6.83301 52.333 16.5 73s20.5 37.667 32.5 51s24.833 24.166 38.5 32.499s27.667 14.666 42 18.999s28.666 7.16602 42.999 8.49902s28.5 2 42.5 2c24.667 0 45.834 -1.83301 63.501 -5.5s33 -8.66699 46 -15s24 -14 33 -23
s16.833 -18.5 23.5 -28.5c5.33301 7.33301 12.333 15.166 21 23.499s19.5 16.166 32.5 23.499s28.667 13.333 47 18s39.833 7 64.5 7c43.333 0 79.5 -6.83301 108.5 -20.5s52.833 -30.5 71.5 -50.5c16 -18 28.833 -37.333 38.5 -58s16.834 -41.5 21.501 -62.5
s7.66699 -41.167 9 -60.5s2 -36 2 -50v-12h-330c0 -13.333 1.66699 -27.833 5 -43.5s9.33301 -28.5 18 -38.5c8 -9.33301 16.833 -15.666 26.5 -18.999s19.167 -5 28.5 -5c16.667 0 30.667 3.66699 42 11s18.333 17.333 21 30h182zM322.997 222.006
c-8 -6.66699 -15.667 -11.335 -23 -14.002s-15.666 -4.66699 -24.999 -6c-10.667 -2 -20.667 -3.66699 -30 -5s-17.333 -4.66602 -24 -9.99902c-7.33301 -6 -12 -13 -14 -21s-3 -14.667 -3 -20c0 -6 0.833008 -11.833 2.5 -17.5s5.16699 -11.167 10.5 -16.5
s11.5 -8.66602 18.5 -9.99902s13.5 -2 19.5 -2c9.33301 0 17.666 1.5 24.999 4.5s14.333 8.83301 21 17.5c5.33301 6.66699 10 17 14 31s6.66699 37 8 69zM654.997 312.005c-0.666992 12 -3.00195 24.6689 -7.00195 38.002s-9.33301 23.666 -16 30.999
c-6.66699 8 -14 13.333 -22 16s-16 4 -24 4c-9.33301 0 -18.166 -1.33301 -26.499 -4s-16.166 -8.33398 -23.499 -17.001c-7.33301 -8 -12.833 -18 -16.5 -30s-5.16699 -24.667 -4.5 -38h140z" />
    <glyph glyph-name="ccedilla" unicode="&#xe7;" horiz-adv-x="566" 
d="M534 200c-2 -21.333 -5.82227 -40.3389 -11.4893 -57.0059s-11.834 -31 -18.501 -43s-12.834 -22 -18.501 -30s-9.83398 -13.333 -12.501 -16c-14.667 -16 -30.167 -28.833 -46.5 -38.5s-32.666 -17 -48.999 -22s-32.833 -8.16699 -49.5 -9.5s-32.334 -2 -47.001 -2
s-29.834 0.666992 -45.501 2s-31.5 4.33301 -47.5 9s-31.667 11.5 -47 20.5s-30 20.833 -44 35.5c-20 21.333 -35.833 48 -47.5 80s-17.5 68.667 -17.5 110c0 40 6.33301 78.667 19 116s30.667 69 54 95c14 15.333 28.833 27.833 44.5 37.5s31.667 17.334 48 23.001
s32.666 9.66699 48.999 12s32.166 3.5 47.499 3.5c13.333 0 27.833 -0.833008 43.5 -2.5s31.5 -5.16699 47.5 -10.5s31.667 -12.666 47 -21.999s29.666 -21.666 42.999 -36.999c16.667 -19.333 29.667 -41.666 39 -66.999s14.666 -51.666 15.999 -78.999h-166
c0 12 -1.66699 24.5 -5 37.5s-8.66602 23.167 -15.999 30.5c-10.667 12 -26.667 18 -48 18c-20 0 -36.667 -7 -50 -21c-12 -13.333 -19.333 -30.833 -22 -52.5s-4 -43.167 -4 -64.5c0 -7.33301 0.166992 -16.166 0.5 -26.499s1.16602 -21.166 2.49902 -32.499
s3.83301 -22.5 7.5 -33.5s9.16699 -20.5 16.5 -28.5c7.33301 -8.66699 15.166 -14.334 23.499 -17.001s17.166 -4 26.499 -4c6.66699 0 14.5 1 23.5 3s17.167 6.66699 24.5 14s12.666 18.333 15.999 33s5 26.667 5 36h169zM188.011 -164.006
c9.33301 -3.33301 18.667 -5.83301 28 -7.5s18.666 -2.5 27.999 -2.5c3.33301 0 9 0.166992 17 0.5s14.667 1.83301 20 4.5c6.66699 3.33301 11 7 13 11s3 8.66699 3 14c0 13.333 -6.66699 22 -20 26c-2.66699 1.33301 -8 2.33301 -16 3s-23 1 -45 1h-13l21 67
c4 0.666992 10.833 1.16699 20.5 1.5s18.5 0.5 26.5 0.5c21.333 0 39.333 -1.66699 54 -5s27 -8.33301 37 -15c15.333 -10 25.5 -22 30.5 -36s7.5 -27.667 7.5 -41c0 -24 -4.66699 -42.833 -14 -56.5s-17.666 -23.167 -24.999 -28.5c-14.667 -11.333 -30.5 -18 -47.5 -20
s-31.5 -3 -43.5 -3c-28.667 0 -50.5 1.5 -65.5 4.5s-27.833 6.83301 -38.5 11.5z" />
    <glyph glyph-name="egrave" unicode="&#xe8;" horiz-adv-x="583" 
d="M545 147c-9.33301 -35.333 -23 -63.168 -41 -83.501s-34 -34.833 -48 -43.5c-28.667 -18.667 -57.667 -29.667 -87 -33s-55 -5 -77 -5c-17.333 0 -34.833 0.666992 -52.5 2s-35 4.5 -52 9.5s-33.5 12 -49.5 21s-31 21.5 -45 37.5
c-17.333 19.333 -31.833 44.666 -43.5 75.999s-17.5 68.333 -17.5 111c0 48 6.66699 88.833 20 122.5s29 61.167 47 82.5c28 32.667 58.667 54.5 92 65.5s67.666 16.5 102.999 16.5c14.667 0 30.334 -0.833008 47.001 -2.5s33.667 -5.16699 51 -10.5s34.333 -13 51 -23
s32.334 -23 47.001 -39c16 -18 28.167 -37 36.5 -57s14.333 -40 18 -60s5.83398 -39.5 6.50098 -58.5s1 -36.167 1 -51.5v-12h-335c-0.666992 -12 0.333008 -25.333 3 -40s7.66699 -27 15 -37c8.66699 -11.333 18.667 -19 30 -23s22.666 -6 33.999 -6
c6.66699 0 14 0.666992 22 2s15.667 4 23 8c8 4.66699 13.667 9.83398 17 15.501s5.66602 10.834 6.99902 15.501h177zM366 311.998c0 11.333 -1.66797 23.499 -5.00098 36.499s-8.66602 23.5 -15.999 31.5c-7.33301 8.66699 -15.333 14.334 -24 17.001s-17 4 -25 4
c-11.333 0 -21.333 -1.66699 -30 -5s-16.667 -9 -24 -17s-13 -18.333 -17 -31s-6.33301 -24.667 -7 -36h148zM366.999 567.997h-120l-104 132h165z" />
    <glyph glyph-name="eacute" unicode="&#xe9;" horiz-adv-x="583" 
d="M545 147c-9.33301 -35.333 -23 -63.168 -41 -83.501s-34 -34.833 -48 -43.5c-28.667 -18.667 -57.667 -29.667 -87 -33s-55 -5 -77 -5c-17.333 0 -34.833 0.666992 -52.5 2s-35 4.5 -52 9.5s-33.5 12 -49.5 21s-31 21.5 -45 37.5
c-17.333 19.333 -31.833 44.666 -43.5 75.999s-17.5 68.333 -17.5 111c0 48 6.66699 88.833 20 122.5s29 61.167 47 82.5c28 32.667 58.667 54.5 92 65.5s67.666 16.5 102.999 16.5c14.667 0 30.334 -0.833008 47.001 -2.5s33.667 -5.16699 51 -10.5s34.333 -13 51 -23
s32.334 -23 47.001 -39c16 -18 28.167 -37 36.5 -57s14.333 -40 18 -60s5.83398 -39.5 6.50098 -58.5s1 -36.167 1 -51.5v-12h-335c-0.666992 -12 0.333008 -25.333 3 -40s7.66699 -27 15 -37c8.66699 -11.333 18.667 -19 30 -23s22.666 -6 33.999 -6
c6.66699 0 14 0.666992 22 2s15.667 4 23 8c8 4.66699 13.667 9.83398 17 15.501s5.66602 10.834 6.99902 15.501h177zM366 311.998c0 11.333 -1.66797 23.499 -5.00098 36.499s-8.66602 23.5 -15.999 31.5c-7.33301 8.66699 -15.333 14.334 -24 17.001s-17 4 -25 4
c-11.333 0 -21.333 -1.66699 -30 -5s-16.667 -9 -24 -17s-13 -18.333 -17 -31s-6.33301 -24.667 -7 -36h148zM440.999 699.997l-104 -132h-120l59 132h165z" />
    <glyph glyph-name="ecircumflex" unicode="&#xea;" horiz-adv-x="583" 
d="M545 147c-9.33301 -35.333 -23 -63.168 -41 -83.501s-34 -34.833 -48 -43.5c-28.667 -18.667 -57.667 -29.667 -87 -33s-55 -5 -77 -5c-17.333 0 -34.833 0.666992 -52.5 2s-35 4.5 -52 9.5s-33.5 12 -49.5 21s-31 21.5 -45 37.5
c-17.333 19.333 -31.833 44.666 -43.5 75.999s-17.5 68.333 -17.5 111c0 48 6.66699 88.833 20 122.5s29 61.167 47 82.5c28 32.667 58.667 54.5 92 65.5s67.666 16.5 102.999 16.5c14.667 0 30.334 -0.833008 47.001 -2.5s33.667 -5.16699 51 -10.5s34.333 -13 51 -23
s32.334 -23 47.001 -39c16 -18 28.167 -37 36.5 -57s14.333 -40 18 -60s5.83398 -39.5 6.50098 -58.5s1 -36.167 1 -51.5v-12h-335c-0.666992 -12 0.333008 -25.333 3 -40s7.66699 -27 15 -37c8.66699 -11.333 18.667 -19 30 -23s22.666 -6 33.999 -6
c6.66699 0 14 0.666992 22 2s15.667 4 23 8c8 4.66699 13.667 9.83398 17 15.501s5.66602 10.834 6.99902 15.501h177zM366 311.998c0 11.333 -1.66797 23.499 -5.00098 36.499s-8.66602 23.5 -15.999 31.5c-7.33301 8.66699 -15.333 14.334 -24 17.001s-17 4 -25 4
c-11.333 0 -21.333 -1.66699 -30 -5s-16.667 -9 -24 -17s-13 -18.333 -17 -31s-6.33301 -24.667 -7 -36h148zM202.999 567.997h-124l112 132h202l112 -132h-124l-89 88z" />
    <glyph glyph-name="edieresis" unicode="&#xeb;" horiz-adv-x="583" 
d="M545 147c-9.33301 -35.333 -23 -63.168 -41 -83.501s-34 -34.833 -48 -43.5c-28.667 -18.667 -57.667 -29.667 -87 -33s-55 -5 -77 -5c-17.333 0 -34.833 0.666992 -52.5 2s-35 4.5 -52 9.5s-33.5 12 -49.5 21s-31 21.5 -45 37.5
c-17.333 19.333 -31.833 44.666 -43.5 75.999s-17.5 68.333 -17.5 111c0 48 6.66699 88.833 20 122.5s29 61.167 47 82.5c28 32.667 58.667 54.5 92 65.5s67.666 16.5 102.999 16.5c14.667 0 30.334 -0.833008 47.001 -2.5s33.667 -5.16699 51 -10.5s34.333 -13 51 -23
s32.334 -23 47.001 -39c16 -18 28.167 -37 36.5 -57s14.333 -40 18 -60s5.83398 -39.5 6.50098 -58.5s1 -36.167 1 -51.5v-12h-335c-0.666992 -12 0.333008 -25.333 3 -40s7.66699 -27 15 -37c8.66699 -11.333 18.667 -19 30 -23s22.666 -6 33.999 -6
c6.66699 0 14 0.666992 22 2s15.667 4 23 8c8 4.66699 13.667 9.83398 17 15.501s5.66602 10.834 6.99902 15.501h177zM366 311.998c0 11.333 -1.66797 23.499 -5.00098 36.499s-8.66602 23.5 -15.999 31.5c-7.33301 8.66699 -15.333 14.334 -24 17.001s-17 4 -25 4
c-11.333 0 -21.333 -1.66699 -30 -5s-16.667 -9 -24 -17s-13 -18.333 -17 -31s-6.33301 -24.667 -7 -36h148zM99.999 699.997h151v-132h-151v132zM331.999 699.997h151v-132h-151v132z" />
    <glyph glyph-name="igrave" unicode="&#xec;" horiz-adv-x="298" 
d="M239 508v-508h-180v508h180zM226 568h-120l-104 132h165z" />
    <glyph glyph-name="iacute" unicode="&#xed;" horiz-adv-x="298" 
d="M239 508v-508h-180v508h180zM300 700l-104 -132h-120l59 132h165z" />
    <glyph glyph-name="icircumflex" unicode="&#xee;" horiz-adv-x="298" 
d="M239 508v-508h-180v508h180zM78 568h-124l94 132h202l94 -132h-124l-71 88z" />
    <glyph glyph-name="idieresis" unicode="&#xef;" horiz-adv-x="298" 
d="M239 508v-508h-180v508h180zM-18 700h137v-132h-137v132zM180 700h136v-132h-136v132z" />
    <glyph glyph-name="eth" unicode="&#xf0;" horiz-adv-x="595" 
d="M290 394c-11.333 0 -20.668 -2.00195 -28.001 -6.00195s-13.666 -8.66699 -18.999 -14c-6 -7.33301 -11 -16.166 -15 -26.499s-7 -21.166 -9 -32.499s-3.33301 -22.333 -4 -33s-1 -20 -1 -28c0 -18.667 1.83301 -39.667 5.5 -63s11.5 -42.333 23.5 -57
c6.66699 -8 13.667 -13.333 21 -16s16 -4 26 -4s18.333 1.33301 25 4s13.667 8 21 16c8.66699 10 15.834 24 21.501 42s8.5 44 8.5 78c0 37.333 -3.33301 64.833 -10 82.5s-13.334 30.167 -20.001 37.5c-12 13.333 -27.333 20 -46 20zM149.998 814.998
c63.333 -6 123.331 -23.6689 179.998 -53.002l82 59l47 -61l-63 -42c31.333 -22 57.333 -46.167 78 -72.5s36.667 -51.5 48 -75.5c17.333 -36 29 -73.667 35 -113s9 -78 9 -116c0 -17.333 -0.666992 -37.166 -2 -59.499s-4.66602 -45.666 -9.99902 -69.999
s-13 -48.666 -23 -72.999s-23.667 -46.833 -41 -67.5c-16 -19.333 -33 -34.833 -51 -46.5s-36 -20.5 -54 -26.5s-35.833 -10 -53.5 -12s-34.5 -3 -50.5 -3c-14.667 0 -30 0.833008 -46 2.5s-32.167 5.16699 -48.5 10.5s-32.5 13 -48.5 23s-31.333 23.333 -46 40
c-22 25.333 -38.333 55.666 -49 90.999s-16 72.333 -16 111c0 45.333 6.16699 83.333 18.5 114s26.833 55.334 43.5 74.001c13.333 15.333 27.5 27.666 42.5 36.999s30 16.666 45 21.999s29.5 8.83301 43.5 10.5s27 2.5 39 2.5c31.333 0 57.666 -4 78.999 -12
s38.833 -17.5 52.5 -28.5s24 -22 31 -33s11.833 -19.5 14.5 -25.5h7c-3.33301 28 -9.66602 53.333 -18.999 76s-20.666 44.334 -33.999 65.001c-12 18 -25 34.167 -39 48.5s-31.667 27.5 -53 39.5l-128 -89l-45 60l97 66c-30 10 -60 16 -90 18z" />
    <glyph glyph-name="ntilde" unicode="&#xf1;" 
d="M231 457l3.99902 -0.00292969c10.667 14 21.5 24.833 32.5 32.5s19.167 13.167 24.5 16.5c15.333 8 30.333 13.333 45 16s29.667 4 45 4c21.333 0 43 -2.83301 65 -8.5s42.667 -18.5 62 -38.5c20.667 -22 33.5 -47.167 38.5 -75.5s7.5 -60.166 7.5 -95.499v-308h-180v275
c0 25.333 -2 43.5 -6 54.5s-6.66699 17.833 -8 20.5c-7.33301 11.333 -15.5 18.5 -24.5 21.5s-17.167 4.5 -24.5 4.5c-24 0 -42.333 -9.66699 -55 -29c-7.33301 -11.333 -12.166 -23.666 -14.499 -36.999s-3.5 -25.666 -3.5 -36.999v-273h-180v508h172v-51zM502.999 702.997
c-2 -19.333 -6.66699 -38.6689 -14 -58.002s-16.333 -35 -27 -47c-10 -11.333 -20.667 -19.166 -32 -23.499s-23.666 -6.5 -36.999 -6.5c-16.667 0 -30.334 2.16699 -41.001 6.5s-21 9.16602 -31 14.499l-39 20c-4.66699 2.66699 -10.334 5 -17.001 7s-13.667 3 -21 3
c-11.333 0 -20 -3.66699 -26 -11c-2.66699 -3.33301 -5 -7.66602 -7 -12.999s-3.33301 -10.666 -4 -15.999h-96c2 15.333 6.16699 31.333 12.5 48s14.5 31.667 24.5 45c11.333 14.667 23 25 35 31s26.333 9 43 9c14.667 0 27.167 -1.83301 37.5 -5.5
s20.5 -8.16699 30.5 -13.5l42 -21c9.33301 -4.66699 17 -7.66699 23 -9s10.667 -2 14 -2c10.667 0 18.667 3.33301 24 10c3.33301 3.33301 5.83301 8.5 7.5 15.5s2.83398 12.5 3.50098 16.5h95z" />
    <glyph glyph-name="ograve" unicode="&#xf2;" horiz-adv-x="590" 
d="M558 255c0 -48 -6.33203 -88.167 -18.999 -120.5s-28.667 -58.5 -48 -78.5c-15.333 -16 -31.5 -28.833 -48.5 -38.5s-34.167 -17.167 -51.5 -22.5s-34.166 -8.83301 -50.499 -10.5s-31.5 -2.5 -45.5 -2.5s-29.333 0.833008 -46 2.5s-33.667 5.16699 -51 10.5
s-34.5 12.833 -51.5 22.5s-32.833 22.5 -47.5 38.5c-7.33301 7.33301 -14.833 16.833 -22.5 28.5s-14.834 25.667 -21.501 42s-12.167 35 -16.5 56s-6.5 45.167 -6.5 72.5c0 46 6.66699 85.333 20 118s29.333 59 48 79c14.667 16 30.667 28.833 48 38.5
s34.666 17.167 51.999 22.5s34.166 8.83301 50.499 10.5s31.5 2.5 45.5 2.5c11.333 0 24.833 -0.666992 40.5 -2s32.334 -4.5 50.001 -9.5s35.667 -12.333 54 -22s35.5 -23.167 51.5 -40.5c7.33301 -8 15 -17.833 23 -29.5s15.167 -25.5 21.5 -41.5s11.5 -34.5 15.5 -55.5
s6 -44.5 6 -70.5zM295.001 394c-18 0 -32.999 -6.66699 -44.999 -20c-6.66699 -7.33301 -12 -16 -16 -26s-7.16699 -20.333 -9.5 -31s-3.83301 -21.5 -4.5 -32.5s-1 -21.167 -1 -30.5s0.333008 -19.5 1 -30.5s2.16699 -22 4.5 -33s5.66602 -21.5 9.99902 -31.5
s9.83301 -18.667 16.5 -26c11.333 -12.667 26 -19 44 -19s33 6.66699 45 20c12.667 14.667 21 33.667 25 57s6 44.333 6 63s-2 39.667 -6 63s-12.333 42.333 -25 57c-12 13.333 -27 20 -45 20zM370.002 568h-120l-104 132h165z" />
    <glyph glyph-name="oacute" unicode="&#xf3;" horiz-adv-x="590" 
d="M558 255c0 -48 -6.33203 -88.167 -18.999 -120.5s-28.667 -58.5 -48 -78.5c-15.333 -16 -31.5 -28.833 -48.5 -38.5s-34.167 -17.167 -51.5 -22.5s-34.166 -8.83301 -50.499 -10.5s-31.5 -2.5 -45.5 -2.5s-29.333 0.833008 -46 2.5s-33.667 5.16699 -51 10.5
s-34.5 12.833 -51.5 22.5s-32.833 22.5 -47.5 38.5c-7.33301 7.33301 -14.833 16.833 -22.5 28.5s-14.834 25.667 -21.501 42s-12.167 35 -16.5 56s-6.5 45.167 -6.5 72.5c0 46 6.66699 85.333 20 118s29.333 59 48 79c14.667 16 30.667 28.833 48 38.5
s34.666 17.167 51.999 22.5s34.166 8.83301 50.499 10.5s31.5 2.5 45.5 2.5c11.333 0 24.833 -0.666992 40.5 -2s32.334 -4.5 50.001 -9.5s35.667 -12.333 54 -22s35.5 -23.167 51.5 -40.5c7.33301 -8 15 -17.833 23 -29.5s15.167 -25.5 21.5 -41.5s11.5 -34.5 15.5 -55.5
s6 -44.5 6 -70.5zM295.001 394c-18 0 -32.999 -6.66699 -44.999 -20c-6.66699 -7.33301 -12 -16 -16 -26s-7.16699 -20.333 -9.5 -31s-3.83301 -21.5 -4.5 -32.5s-1 -21.167 -1 -30.5s0.333008 -19.5 1 -30.5s2.16699 -22 4.5 -33s5.66602 -21.5 9.99902 -31.5
s9.83301 -18.667 16.5 -26c11.333 -12.667 26 -19 44 -19s33 6.66699 45 20c12.667 14.667 21 33.667 25 57s6 44.333 6 63s-2 39.667 -6 63s-12.333 42.333 -25 57c-12 13.333 -27 20 -45 20zM444.002 700l-104 -132h-120l59 132h165z" />
    <glyph glyph-name="ocircumflex" unicode="&#xf4;" horiz-adv-x="590" 
d="M558 255c0 -48 -6.33203 -88.167 -18.999 -120.5s-28.667 -58.5 -48 -78.5c-15.333 -16 -31.5 -28.833 -48.5 -38.5s-34.167 -17.167 -51.5 -22.5s-34.166 -8.83301 -50.499 -10.5s-31.5 -2.5 -45.5 -2.5s-29.333 0.833008 -46 2.5s-33.667 5.16699 -51 10.5
s-34.5 12.833 -51.5 22.5s-32.833 22.5 -47.5 38.5c-7.33301 7.33301 -14.833 16.833 -22.5 28.5s-14.834 25.667 -21.501 42s-12.167 35 -16.5 56s-6.5 45.167 -6.5 72.5c0 46 6.66699 85.333 20 118s29.333 59 48 79c14.667 16 30.667 28.833 48 38.5
s34.666 17.167 51.999 22.5s34.166 8.83301 50.499 10.5s31.5 2.5 45.5 2.5c11.333 0 24.833 -0.666992 40.5 -2s32.334 -4.5 50.001 -9.5s35.667 -12.333 54 -22s35.5 -23.167 51.5 -40.5c7.33301 -8 15 -17.833 23 -29.5s15.167 -25.5 21.5 -41.5s11.5 -34.5 15.5 -55.5
s6 -44.5 6 -70.5zM295.001 394c-18 0 -32.999 -6.66699 -44.999 -20c-6.66699 -7.33301 -12 -16 -16 -26s-7.16699 -20.333 -9.5 -31s-3.83301 -21.5 -4.5 -32.5s-1 -21.167 -1 -30.5s0.333008 -19.5 1 -30.5s2.16699 -22 4.5 -33s5.66602 -21.5 9.99902 -31.5
s9.83301 -18.667 16.5 -26c11.333 -12.667 26 -19 44 -19s33 6.66699 45 20c12.667 14.667 21 33.667 25 57s6 44.333 6 63s-2 39.667 -6 63s-12.333 42.333 -25 57c-12 13.333 -27 20 -45 20zM206.002 568h-124l112 132h202l112 -132h-124l-89 88z" />
    <glyph glyph-name="otilde" unicode="&#xf5;" horiz-adv-x="590" 
d="M558 255c0 -48 -6.33203 -88.167 -18.999 -120.5s-28.667 -58.5 -48 -78.5c-15.333 -16 -31.5 -28.833 -48.5 -38.5s-34.167 -17.167 -51.5 -22.5s-34.166 -8.83301 -50.499 -10.5s-31.5 -2.5 -45.5 -2.5s-29.333 0.833008 -46 2.5s-33.667 5.16699 -51 10.5
s-34.5 12.833 -51.5 22.5s-32.833 22.5 -47.5 38.5c-7.33301 7.33301 -14.833 16.833 -22.5 28.5s-14.834 25.667 -21.501 42s-12.167 35 -16.5 56s-6.5 45.167 -6.5 72.5c0 46 6.66699 85.333 20 118s29.333 59 48 79c14.667 16 30.667 28.833 48 38.5
s34.666 17.167 51.999 22.5s34.166 8.83301 50.499 10.5s31.5 2.5 45.5 2.5c11.333 0 24.833 -0.666992 40.5 -2s32.334 -4.5 50.001 -9.5s35.667 -12.333 54 -22s35.5 -23.167 51.5 -40.5c7.33301 -8 15 -17.833 23 -29.5s15.167 -25.5 21.5 -41.5s11.5 -34.5 15.5 -55.5
s6 -44.5 6 -70.5zM295.001 394c-18 0 -32.999 -6.66699 -44.999 -20c-6.66699 -7.33301 -12 -16 -16 -26s-7.16699 -20.333 -9.5 -31s-3.83301 -21.5 -4.5 -32.5s-1 -21.167 -1 -30.5s0.333008 -19.5 1 -30.5s2.16699 -22 4.5 -33s5.66602 -21.5 9.99902 -31.5
s9.83301 -18.667 16.5 -26c11.333 -12.667 26 -19 44 -19s33 6.66699 45 20c12.667 14.667 21 33.667 25 57s6 44.333 6 63s-2 39.667 -6 63s-12.333 42.333 -25 57c-12 13.333 -27 20 -45 20zM491.002 703c-2 -19.333 -6.66699 -38.6689 -14 -58.002s-16.333 -35 -27 -47
c-10 -11.333 -20.667 -19.166 -32 -23.499s-23.666 -6.5 -36.999 -6.5c-16.667 0 -30.334 2.16699 -41.001 6.5s-21 9.16602 -31 14.499l-39 20c-4.66699 2.66699 -10.334 5 -17.001 7s-13.667 3 -21 3c-11.333 0 -20 -3.66699 -26 -11
c-2.66699 -3.33301 -5 -7.66602 -7 -12.999s-3.33301 -10.666 -4 -15.999h-96c2 15.333 6.16699 31.333 12.5 48s14.5 31.667 24.5 45c11.333 14.667 23 25 35 31s26.333 9 43 9c14.667 0 27.167 -1.83301 37.5 -5.5s20.5 -8.16699 30.5 -13.5l42 -21
c9.33301 -4.66699 17 -7.66699 23 -9s10.667 -2 14 -2c10.667 0 18.667 3.33301 24 10c3.33301 3.33301 5.83301 8.5 7.5 15.5s2.83398 12.5 3.50098 16.5h95z" />
    <glyph glyph-name="odieresis" unicode="&#xf6;" horiz-adv-x="590" 
d="M558 255c0 -48 -6.33203 -88.167 -18.999 -120.5s-28.667 -58.5 -48 -78.5c-15.333 -16 -31.5 -28.833 -48.5 -38.5s-34.167 -17.167 -51.5 -22.5s-34.166 -8.83301 -50.499 -10.5s-31.5 -2.5 -45.5 -2.5s-29.333 0.833008 -46 2.5s-33.667 5.16699 -51 10.5
s-34.5 12.833 -51.5 22.5s-32.833 22.5 -47.5 38.5c-7.33301 7.33301 -14.833 16.833 -22.5 28.5s-14.834 25.667 -21.501 42s-12.167 35 -16.5 56s-6.5 45.167 -6.5 72.5c0 46 6.66699 85.333 20 118s29.333 59 48 79c14.667 16 30.667 28.833 48 38.5
s34.666 17.167 51.999 22.5s34.166 8.83301 50.499 10.5s31.5 2.5 45.5 2.5c11.333 0 24.833 -0.666992 40.5 -2s32.334 -4.5 50.001 -9.5s35.667 -12.333 54 -22s35.5 -23.167 51.5 -40.5c7.33301 -8 15 -17.833 23 -29.5s15.167 -25.5 21.5 -41.5s11.5 -34.5 15.5 -55.5
s6 -44.5 6 -70.5zM295.001 394c-18 0 -32.999 -6.66699 -44.999 -20c-6.66699 -7.33301 -12 -16 -16 -26s-7.16699 -20.333 -9.5 -31s-3.83301 -21.5 -4.5 -32.5s-1 -21.167 -1 -30.5s0.333008 -19.5 1 -30.5s2.16699 -22 4.5 -33s5.66602 -21.5 9.99902 -31.5
s9.83301 -18.667 16.5 -26c11.333 -12.667 26 -19 44 -19s33 6.66699 45 20c12.667 14.667 21 33.667 25 57s6 44.333 6 63s-2 39.667 -6 63s-12.333 42.333 -25 57c-12 13.333 -27 20 -45 20zM103.002 700h151v-132h-151v132zM335.002 700h151v-132h-151v132z" />
    <glyph glyph-name="divide" unicode="&#xf7;" horiz-adv-x="627" 
d="M577 415v-94h-527v94h527zM238 548c0 21.333 7.33301 39.333 22 54s32.667 22 54 22s39.333 -7.33301 54 -22s22 -32.667 22 -54c0 -20.667 -6.83301 -38.667 -20.5 -54s-32.167 -23 -55.5 -23s-41.833 7.66699 -55.5 23s-20.5 33.333 -20.5 54zM238 189
c0 21.333 7.33301 39.333 22 54s32.667 22 54 22s39.333 -7.33301 54 -22s22 -32.667 22 -54c0 -22 -7.33301 -40.333 -22 -55s-32.667 -22 -54 -22s-39.333 7.33301 -54 22s-22 33 -22 55z" />
    <glyph glyph-name="oslash" unicode="&#xf8;" horiz-adv-x="590" 
d="M500 442c22 -29.333 37.1689 -58.834 45.502 -88.501s12.5 -62.5 12.5 -98.5c0 -48 -6.33301 -88.167 -19 -120.5s-28.667 -58.5 -48 -78.5c-15.333 -16 -31.5 -29 -48.5 -39s-34.167 -17.5 -51.5 -22.5s-34.166 -8.33301 -50.499 -10s-31.5 -2.5 -45.5 -2.5
c-32 0 -58.5 2.66699 -79.5 8s-40.833 13 -59.5 23l-52 -64l-59 62l45 56c-21.333 28 -36.333 56.833 -45 86.5s-13 63.5 -13 101.5c0 46 6.66699 85.333 20 118s29.333 59 48 79c14.667 16 30.667 28.833 48 38.5s34.666 17.167 51.999 22.5s34.166 8.83301 50.499 10.5
s31.5 2.5 45.5 2.5c31.333 0 57.666 -2.66699 78.999 -8s41.333 -12.666 60 -21.999l49 61l61 -60zM338.002 375.999c-5.33301 5.33301 -11.3359 9.66504 -18.0029 12.998s-15 5 -25 5c-18 0 -33 -6.66699 -45 -20c-7.33301 -8 -13.166 -18 -17.499 -30
s-7.66602 -24.667 -9.99902 -38s-3.66602 -26.666 -3.99902 -39.999s0.166992 -25.666 1.5 -36.999zM251.999 131.998c5.33301 -5.33301 11.333 -9.66797 18 -13.001s15 -5 25 -5c18 0 33 6.66699 45 20c11.333 13.333 19.333 30.833 24 52.5s7 43.167 7 64.5v15
c0 4.66699 -0.333008 9.33398 -1 14.001z" />
    <glyph glyph-name="ugrave" unicode="&#xf9;" 
d="M383 54l-3.99902 0.00195312c-10.667 -14 -21.5 -24.833 -32.5 -32.5s-19.167 -13.167 -24.5 -16.5c-15.333 -8 -30.333 -13.333 -45 -16s-29.667 -4 -45 -4c-21.333 0 -43 2.83301 -65 8.5s-42.667 18.5 -62 38.5c-20.667 22 -33.5 47.167 -38.5 75.5
s-7.5 60.166 -7.5 95.499v305h180v-272c0 -26 2.16699 -44.667 6.5 -56s6.83301 -17.666 7.5 -18.999c7.33301 -11.333 15.5 -18.5 24.5 -21.5s17.167 -4.5 24.5 -4.5c24 0 42.333 9.66699 55 29c7.33301 11.333 12.166 23.666 14.499 36.999s3.5 25.666 3.5 36.999v270h180
v-508h-172v54zM382.001 568.002h-120l-104 132h165z" />
    <glyph glyph-name="uacute" unicode="&#xfa;" 
d="M383 54l-3.99902 0.00195312c-10.667 -14 -21.5 -24.833 -32.5 -32.5s-19.167 -13.167 -24.5 -16.5c-15.333 -8 -30.333 -13.333 -45 -16s-29.667 -4 -45 -4c-21.333 0 -43 2.83301 -65 8.5s-42.667 18.5 -62 38.5c-20.667 22 -33.5 47.167 -38.5 75.5
s-7.5 60.166 -7.5 95.499v305h180v-272c0 -26 2.16699 -44.667 6.5 -56s6.83301 -17.666 7.5 -18.999c7.33301 -11.333 15.5 -18.5 24.5 -21.5s17.167 -4.5 24.5 -4.5c24 0 42.333 9.66699 55 29c7.33301 11.333 12.166 23.666 14.499 36.999s3.5 25.666 3.5 36.999v270h180
v-508h-172v54zM456.001 700.002l-104 -132h-120l59 132h165z" />
    <glyph glyph-name="ucircumflex" unicode="&#xfb;" 
d="M383 54l-3.99902 0.00195312c-10.667 -14 -21.5 -24.833 -32.5 -32.5s-19.167 -13.167 -24.5 -16.5c-15.333 -8 -30.333 -13.333 -45 -16s-29.667 -4 -45 -4c-21.333 0 -43 2.83301 -65 8.5s-42.667 18.5 -62 38.5c-20.667 22 -33.5 47.167 -38.5 75.5
s-7.5 60.166 -7.5 95.499v305h180v-272c0 -26 2.16699 -44.667 6.5 -56s6.83301 -17.666 7.5 -18.999c7.33301 -11.333 15.5 -18.5 24.5 -21.5s17.167 -4.5 24.5 -4.5c24 0 42.333 9.66699 55 29c7.33301 11.333 12.166 23.666 14.499 36.999s3.5 25.666 3.5 36.999v270h180
v-508h-172v54zM218.001 568.002h-124l112 132h202l112 -132h-124l-89 88z" />
    <glyph glyph-name="udieresis" unicode="&#xfc;" 
d="M383 54l-3.99902 0.00195312c-10.667 -14 -21.5 -24.833 -32.5 -32.5s-19.167 -13.167 -24.5 -16.5c-15.333 -8 -30.333 -13.333 -45 -16s-29.667 -4 -45 -4c-21.333 0 -43 2.83301 -65 8.5s-42.667 18.5 -62 38.5c-20.667 22 -33.5 47.167 -38.5 75.5
s-7.5 60.166 -7.5 95.499v305h180v-272c0 -26 2.16699 -44.667 6.5 -56s6.83301 -17.666 7.5 -18.999c7.33301 -11.333 15.5 -18.5 24.5 -21.5s17.167 -4.5 24.5 -4.5c24 0 42.333 9.66699 55 29c7.33301 11.333 12.166 23.666 14.499 36.999s3.5 25.666 3.5 36.999v270h180
v-508h-172v54zM115.001 700.002h151v-132h-151v132zM347.001 700.002h151v-132h-151v132z" />
    <glyph glyph-name="yacute" unicode="&#xfd;" horiz-adv-x="500" 
d="M40 -40c9.33301 -4 18.1719 -6.66699 26.5049 -8s18.166 -2 29.499 -2c7.33301 0 14.666 0.5 21.999 1.5s14.666 4.83301 21.999 11.5c7.33301 6 12.666 12.833 15.999 20.5s5.66602 15.167 6.99902 22.5l5 25l-182 477h186l88 -313h5l69 313h172l-161 -502
c-7.33301 -23.333 -15.833 -48.5 -25.5 -75.5s-23.5 -49.833 -41.5 -68.5c-12 -12 -29 -23.333 -51 -34s-51.333 -16 -88 -16c-15.333 0 -31.5 1 -48.5 3s-33.833 5.33301 -50.5 10v135zM395.006 700l-104 -132h-120l59 132h165z" />
    <glyph glyph-name="thorn" unicode="&#xfe;" horiz-adv-x="618" 
d="M230 700v-248h4c10 16.667 21.167 29.834 33.5 39.501s25.166 17 38.499 22s26.5 8.33301 39.5 10s25.167 2.5 36.5 2.5c10.667 0 22 -0.5 34 -1.5s24.333 -3.33301 37 -7s25.167 -9.16699 37.5 -16.5s24.5 -17.333 36.5 -30c16 -17.333 28.333 -36.5 37 -57.5
s15 -41.5 19 -61.5s6.33301 -38.167 7 -54.5s1 -27.833 1 -34.5c0 -42.667 -5.5 -83.334 -16.5 -122.001s-27.833 -71 -50.5 -97c-22 -25.333 -45.667 -42 -71 -50s-53 -12 -83 -12c-10 0 -20.5 0.666992 -31.5 2s-22.167 3.83301 -33.5 7.5s-22.666 9.16699 -33.999 16.5
s-22 17 -32 29v-222h-180v885h171zM232 248c0 -30 2.83301 -52.668 8.5 -68.001s11.167 -26.666 16.5 -33.999c7.33301 -9.33301 16 -17 26 -23s21.667 -9 35 -9c11.333 0 21.666 2 30.999 6s18 10.667 26 20c14 16.667 22.333 35.167 25 55.5s4 37.833 4 52.5
c0 16 -1.33301 34.333 -4 55s-11 39 -25 55c-8 9.33301 -16.667 16 -26 20s-19.666 6 -30.999 6c-12 0 -22.5 -2.33301 -31.5 -7s-17.167 -11 -24.5 -19s-13 -17.333 -17 -28s-7 -21.167 -9 -31.5s-3.16699 -20 -3.5 -29s-0.5 -16.167 -0.5 -21.5z" />
    <glyph glyph-name="ydieresis" unicode="&#xff;" horiz-adv-x="500" 
d="M40 -40c9.33301 -4 18.1719 -6.66699 26.5049 -8s18.166 -2 29.499 -2c7.33301 0 14.666 0.5 21.999 1.5s14.666 4.83301 21.999 11.5c7.33301 6 12.666 12.833 15.999 20.5s5.66602 15.167 6.99902 22.5l5 25l-182 477h186l88 -313h5l69 313h172l-161 -502
c-7.33301 -23.333 -15.833 -48.5 -25.5 -75.5s-23.5 -49.833 -41.5 -68.5c-12 -12 -29 -23.333 -51 -34s-51.333 -16 -88 -16c-15.333 0 -31.5 1 -48.5 3s-33.833 5.33301 -50.5 10v135zM54.0059 700h151v-132h-151v132zM286.006 700h151v-132h-151v132z" />
    <glyph glyph-name="Amacron" unicode="&#x100;" horiz-adv-x="653" 
d="M200 0h-203l233 700h193l233 -700h-203l-29 99h-195zM387 243l-61 215l-60 -215h121zM143 875h366v-96h-366v96z" />
    <glyph glyph-name="amacron" unicode="&#x101;" horiz-adv-x="568" 
d="M47 340c1.33301 23.333 6.16699 45.3301 14.5 65.9971s18.5 38 30.5 52c12.667 14.667 26.834 26.5 42.501 35.5s31.834 15.833 48.501 20.5s33.334 7.83398 50.001 9.50098s32.667 2.5 48 2.5c12 0 25.833 -0.5 41.5 -1.5s32 -3.33301 49 -7s33.833 -9.5 50.5 -17.5
s31.667 -19 45 -33c10.667 -11.333 19.167 -23.333 25.5 -36s11 -25.334 14 -38.001s4.83301 -25.167 5.5 -37.5s1 -23.5 1 -33.5v-234c0 -15.333 0.5 -27.5 1.5 -36.5s2.83301 -16.167 5.5 -21.5c3.33301 -7.33301 7.33301 -12.666 12 -15.999
s8.66699 -5.66602 12 -6.99902v-7h-194l-11 55h-2c-14.667 -20 -33 -36.333 -55 -49c-18.667 -10.667 -37.5 -17.334 -56.5 -20.001s-35.833 -4 -50.5 -4c-18 0 -37 2.16699 -57 6.5s-38.667 15.166 -56 32.499c-16.667 16.667 -27.167 34.834 -31.5 54.501
s-6.5 38.167 -6.5 55.5c0 19.333 2.16699 37 6.5 53s13.166 31.333 26.499 46c18 20 38.167 33.667 60.5 41s42.833 12 61.5 14l59 7c21.333 2.66699 38.666 5.33398 51.999 8.00098s23.333 7.33398 30 14.001c6 6 9.66699 12.5 11 19.5s2 13.833 2 20.5
c0 7.33301 -0.5 13.833 -1.5 19.5s-4.16699 11.167 -9.5 16.5c-6.66699 7.33301 -14.5 11.5 -23.5 12.5s-16.167 1.5 -21.5 1.5c-9.33301 0 -17.833 -0.833008 -25.5 -2.5s-14.834 -6.16699 -21.501 -13.5c-5.33301 -6 -9.33301 -13.5 -12 -22.5s-3.66699 -17.5 -3 -25.5
h-168zM333.001 229.997c-11.333 -8 -21.334 -13.3301 -30.001 -15.9971s-18 -4.66699 -28 -6c-11.333 -2 -22.166 -4.33301 -32.499 -7s-19.166 -8.33398 -26.499 -17.001c-8 -8.66699 -12 -19.334 -12 -32.001c0 -7.33301 1.33301 -13.833 4 -19.5s5.66699 -10.167 9 -13.5
c5.33301 -5.33301 11 -8.83301 17 -10.5s11.667 -2.5 17 -2.5c11.333 0 21.333 1.66699 30 5s17 9.33301 25 18c13.333 14.667 21.166 29.167 23.499 43.5s3.5 29.166 3.5 44.499v13zM98 686h366v-96h-366v96z" />
    <glyph glyph-name="Abreve" unicode="&#x102;" horiz-adv-x="653" 
d="M200 0h-203l233 700h193l233 -700h-203l-29 99h-195zM387 243l-61 215l-60 -215h121zM504 900c-2 -15.333 -6.33496 -30.833 -13.002 -46.5s-15.667 -29.834 -27 -42.501c-10.667 -12 -22 -21.333 -34 -28s-24 -11.667 -36 -15s-23.833 -5.5 -35.5 -6.5
s-22.5 -1.5 -32.5 -1.5s-20.833 0.5 -32.5 1.5s-23.5 3.16699 -35.5 6.5s-24 8.33301 -36 15s-23.333 16 -34 28c-11.333 12.667 -20.333 26.834 -27 42.501s-11 31.167 -13 46.5h106c1.33301 -7.33301 3.83301 -15.166 7.5 -23.499s8.83398 -15.166 15.501 -20.499
c8 -7.33301 16.5 -11.833 25.5 -13.5s16.833 -2.5 23.5 -2.5s14.5 0.833008 23.5 2.5s17.5 6.16699 25.5 13.5c6.66699 5.33301 11.834 12.166 15.501 20.499s6.16699 16.166 7.5 23.499h106z" />
    <glyph glyph-name="abreve" unicode="&#x103;" horiz-adv-x="568" 
d="M47 340c1.33301 23.333 6.16699 45.3301 14.5 65.9971s18.5 38 30.5 52c12.667 14.667 26.834 26.5 42.501 35.5s31.834 15.833 48.501 20.5s33.334 7.83398 50.001 9.50098s32.667 2.5 48 2.5c12 0 25.833 -0.5 41.5 -1.5s32 -3.33301 49 -7s33.833 -9.5 50.5 -17.5
s31.667 -19 45 -33c10.667 -11.333 19.167 -23.333 25.5 -36s11 -25.334 14 -38.001s4.83301 -25.167 5.5 -37.5s1 -23.5 1 -33.5v-234c0 -15.333 0.5 -27.5 1.5 -36.5s2.83301 -16.167 5.5 -21.5c3.33301 -7.33301 7.33301 -12.666 12 -15.999
s8.66699 -5.66602 12 -6.99902v-7h-194l-11 55h-2c-14.667 -20 -33 -36.333 -55 -49c-18.667 -10.667 -37.5 -17.334 -56.5 -20.001s-35.833 -4 -50.5 -4c-18 0 -37 2.16699 -57 6.5s-38.667 15.166 -56 32.499c-16.667 16.667 -27.167 34.834 -31.5 54.501
s-6.5 38.167 -6.5 55.5c0 19.333 2.16699 37 6.5 53s13.166 31.333 26.499 46c18 20 38.167 33.667 60.5 41s42.833 12 61.5 14l59 7c21.333 2.66699 38.666 5.33398 51.999 8.00098s23.333 7.33398 30 14.001c6 6 9.66699 12.5 11 19.5s2 13.833 2 20.5
c0 7.33301 -0.5 13.833 -1.5 19.5s-4.16699 11.167 -9.5 16.5c-6.66699 7.33301 -14.5 11.5 -23.5 12.5s-16.167 1.5 -21.5 1.5c-9.33301 0 -17.833 -0.833008 -25.5 -2.5s-14.834 -6.16699 -21.501 -13.5c-5.33301 -6 -9.33301 -13.5 -12 -22.5s-3.66699 -17.5 -3 -25.5
h-168zM333.001 229.997c-11.333 -8 -21.334 -13.3301 -30.001 -15.9971s-18 -4.66699 -28 -6c-11.333 -2 -22.166 -4.33301 -32.499 -7s-19.166 -8.33398 -26.499 -17.001c-8 -8.66699 -12 -19.334 -12 -32.001c0 -7.33301 1.33301 -13.833 4 -19.5s5.66699 -10.167 9 -13.5
c5.33301 -5.33301 11 -8.83301 17 -10.5s11.667 -2.5 17 -2.5c11.333 0 21.333 1.66699 30 5s17 9.33301 25 18c13.333 14.667 21.166 29.167 23.499 43.5s3.5 29.166 3.5 44.499v13zM459 702c-2.66699 -18 -7.66895 -34.5 -15.002 -49.5s-15.666 -28.167 -24.999 -39.5
c-21.333 -23.333 -44.333 -37.666 -69 -42.999s-47.667 -8 -69 -8s-44.333 2.66699 -69 8s-47.667 19.666 -69 42.999c-9.33301 11.333 -17.666 24.5 -24.999 39.5s-12.333 31.5 -15 49.5h105c1.33301 -8 3.83301 -16.167 7.5 -24.5s8.5 -15.166 14.5 -20.499
c7.33301 -7.33301 15.333 -12 24 -14s17.667 -3 27 -3c8 0 16.5 0.833008 25.5 2.5s17.5 6.5 25.5 14.5c6 5.33301 10.833 12.166 14.5 20.499s6.16699 16.5 7.5 24.5h105z" />
    <glyph glyph-name="Aogonek" unicode="&#x104;" horiz-adv-x="653" 
d="M200 0h-203.001l233 700h193l233 -700h-53c-18.667 -6 -36.334 -14 -53.001 -24s-31.167 -20.833 -43.5 -32.5s-22.166 -23.667 -29.499 -36s-11 -24.5 -11 -36.5c0 -3.33301 0.5 -7.16602 1.5 -11.499s2.83301 -8.5 5.5 -12.5s6.5 -7.33301 11.5 -10s11.833 -4 20.5 -4
c11.333 0 23.333 2.5 36 7.5s24 11.167 34 18.5l33 -88c-25.333 -15.333 -47.333 -25.5 -66 -30.5s-37.667 -7.5 -57 -7.5c-23.333 0 -43.166 3.66699 -59.499 11s-29.5 16.833 -39.5 28.5s-17.333 24.667 -22 39s-7 28.166 -7 41.499c0 29.333 9 57 27 83s41 47.333 69 64
l-29 99h-195zM386.999 243l-61 215l-60 -215h121z" />
    <glyph glyph-name="aogonek" unicode="&#x105;" horiz-adv-x="568" 
d="M47 340c1.33301 23.333 6.16504 45.3301 14.498 65.9971s18.5 38 30.5 52c12.667 14.667 26.834 26.5 42.501 35.5s31.834 15.833 48.501 20.5s33.334 7.83398 50.001 9.50098s32.667 2.5 48 2.5c12 0 25.833 -0.5 41.5 -1.5s32 -3.33301 49 -7s33.833 -9.5 50.5 -17.5
s31.667 -19 45 -33c10.667 -11.333 19.167 -23.333 25.5 -36s11 -25.334 14 -38.001s4.83301 -25.167 5.5 -37.5s1 -23.5 1 -33.5v-234c0 -15.333 0.5 -27.5 1.5 -36.5s2.83301 -16.167 5.5 -21.5c3.33301 -7.33301 7.33301 -12.666 12 -15.999
s8.66699 -5.66602 12 -6.99902v-7c-15.333 -5.33301 -30.166 -12.5 -44.499 -21.5s-27.166 -19.167 -38.499 -30.5s-20.5 -23.5 -27.5 -36.5s-10.5 -26.167 -10.5 -39.5c0 -10 2 -17.833 6 -23.5s8.5 -9.66699 13.5 -12s10 -3.83301 15 -4.5s8.5 -1 10.5 -1
c13.333 0 26.166 2.83301 38.499 8.5s23.166 12.167 32.499 19.5l29 -81c-23.333 -16 -45.166 -26.333 -65.499 -31s-40.166 -7 -59.499 -7c-30.667 0 -54.5 5.5 -71.5 16.5s-29.5 23.333 -37.5 37s-12.667 26.667 -14 39s-2 19.833 -2 22.5c0 20.667 3.5 39.167 10.5 55.5
s15.5 30.5 25.5 42.5s20.167 21.833 30.5 29.5s18.833 13.5 25.5 17.5h-60l-11 55h-2c-14.667 -20 -33 -36.333 -55 -49c-18.667 -10.667 -37.5 -17.334 -56.5 -20.001s-35.833 -4 -50.5 -4c-18 0 -37 2.16699 -57 6.5s-38.667 15.166 -56 32.499
c-16.667 16.667 -27.167 34.834 -31.5 54.501s-6.5 38.167 -6.5 55.5c0 19.333 2.16699 37 6.5 53s13.166 31.333 26.499 46c18 20 38.167 33.667 60.5 41s42.833 12 61.5 14l59 7c21.333 2.66699 38.666 5.33398 51.999 8.00098s23.333 7.33398 30 14.001
c6 6 9.66699 12.5 11 19.5s2 13.833 2 20.5c0 7.33301 -0.5 13.833 -1.5 19.5s-4.16699 11.167 -9.5 16.5c-6.66699 7.33301 -14.5 11.5 -23.5 12.5s-16.167 1.5 -21.5 1.5c-9.33301 0 -17.833 -0.833008 -25.5 -2.5s-14.834 -6.16699 -21.501 -13.5
c-5.33301 -6 -9.33301 -13.5 -12 -22.5s-3.66699 -17.5 -3 -25.5h-168zM332.999 229.997c-11.333 -8 -21.334 -13.3301 -30.001 -15.9971s-18 -4.66699 -28 -6c-11.333 -2 -22.166 -4.33301 -32.499 -7s-19.166 -8.33398 -26.499 -17.001
c-8 -8.66699 -12 -19.334 -12 -32.001c0 -7.33301 1.33301 -13.833 4 -19.5s5.66699 -10.167 9 -13.5c5.33301 -5.33301 11 -8.83301 17 -10.5s11.667 -2.5 17 -2.5c11.333 0 21.333 1.66699 30 5s17 9.33301 25 18c13.333 14.667 21.166 29.167 23.499 43.5
s3.5 29.166 3.5 44.499v13z" />
    <glyph glyph-name="Cacute" unicode="&#x106;" horiz-adv-x="703" 
d="M671 260c-1.33301 -16 -3.99902 -33.002 -7.99902 -51.002s-9.16699 -35.667 -15.5 -53s-14.166 -34 -23.499 -50s-19.666 -30.333 -30.999 -43c-18 -19.333 -37.5 -34.333 -58.5 -45s-42 -18.667 -63 -24s-41.333 -8.66602 -61 -9.99902s-36.5 -2 -50.5 -2
c-16.667 0 -34.667 0.666992 -54 2s-38.833 4.83301 -58.5 10.5s-39.334 13.834 -59.001 24.501s-38.167 25 -55.5 43c-28 29.333 -50.167 67.833 -66.5 115.5s-24.5 103.5 -24.5 167.5c0 22.667 1.33301 46.334 4 71.001s7.5 49.334 14.5 74.001s16.5 48.667 28.5 72
s27.667 45.333 47 66c18 19.333 37 35 57 47s40.167 21.333 60.5 28s40.5 11.167 60.5 13.5s39.333 3.5 58 3.5c28.667 0 54.667 -2.33301 78 -7s44 -11 62 -19s33.667 -17.167 47 -27.5s24.666 -20.833 33.999 -31.5c10.667 -12 20.167 -25.5 28.5 -40.5
s15.666 -30.833 21.999 -47.5s11.333 -33.334 15 -50.001s6.16699 -32.667 7.5 -48h-194c-1.33301 13.333 -4.83301 25.5 -10.5 36.5s-12.167 19.833 -19.5 26.5c-6 5.33301 -14 10.333 -24 15s-23 7 -39 7c-21.333 0 -38.833 -3.66699 -52.5 -11s-24.167 -15.333 -31.5 -24
c-9.33301 -10 -16.5 -21.333 -21.5 -34s-9 -25.667 -12 -39s-4.83301 -26.5 -5.5 -39.5s-1 -24.833 -1 -35.5c0 -24 2.16699 -48.833 6.5 -74.5s13.833 -48.167 28.5 -67.5c12.667 -16.667 25.834 -27.5 39.501 -32.5s28.167 -7.5 43.5 -7.5c10.667 0 22.5 1.66699 35.5 5
s25.167 10.666 36.5 21.999c8 8 14.667 17.667 20 29s8.66602 23 9.99902 35h196zM503.001 907.998l-105 -142h-132l60 142h177z" />
    <glyph glyph-name="cacute" unicode="&#x107;" horiz-adv-x="566" 
d="M534 200c-2 -21.333 -5.82227 -40.3389 -11.4893 -57.0059s-11.834 -31 -18.501 -43s-12.834 -22 -18.501 -30s-9.83398 -13.333 -12.501 -16c-14.667 -16 -30.167 -28.833 -46.5 -38.5s-32.666 -17 -48.999 -22s-32.833 -8.16699 -49.5 -9.5s-32.334 -2 -47.001 -2
s-29.834 0.666992 -45.501 2s-31.5 4.33301 -47.5 9s-31.667 11.5 -47 20.5s-30 20.833 -44 35.5c-20 21.333 -35.833 48 -47.5 80s-17.5 68.667 -17.5 110c0 40 6.33301 78.667 19 116s30.667 69 54 95c14 15.333 28.833 27.833 44.5 37.5s31.667 17.334 48 23.001
s32.666 9.66699 48.999 12s32.166 3.5 47.499 3.5c13.333 0 27.833 -0.833008 43.5 -2.5s31.5 -5.16699 47.5 -10.5s31.667 -12.666 47 -21.999s29.666 -21.666 42.999 -36.999c16.667 -19.333 29.667 -41.666 39 -66.999s14.666 -51.666 15.999 -78.999h-166
c0 12 -1.66699 24.5 -5 37.5s-8.66602 23.167 -15.999 30.5c-10.667 12 -26.667 18 -48 18c-20 0 -36.667 -7 -50 -21c-12 -13.333 -19.333 -30.833 -22 -52.5s-4 -43.167 -4 -64.5c0 -7.33301 0.166992 -16.166 0.5 -26.499s1.16602 -21.166 2.49902 -32.499
s3.83301 -22.5 7.5 -33.5s9.16699 -20.5 16.5 -28.5c7.33301 -8.66699 15.166 -14.334 23.499 -17.001s17.166 -4 26.499 -4c6.66699 0 14.5 1 23.5 3s17.167 6.66699 24.5 14s12.666 18.333 15.999 33s5 26.667 5 36h169zM432.011 699.994l-104 -132h-120l59 132h165z" />
    <glyph glyph-name="Ccircumflex" unicode="&#x108;" horiz-adv-x="703" 
d="M671 260c-1.33301 -16 -3.99902 -33.002 -7.99902 -51.002s-9.16699 -35.667 -15.5 -53s-14.166 -34 -23.499 -50s-19.666 -30.333 -30.999 -43c-18 -19.333 -37.5 -34.333 -58.5 -45s-42 -18.667 -63 -24s-41.333 -8.66602 -61 -9.99902s-36.5 -2 -50.5 -2
c-16.667 0 -34.667 0.666992 -54 2s-38.833 4.83301 -58.5 10.5s-39.334 13.834 -59.001 24.501s-38.167 25 -55.5 43c-28 29.333 -50.167 67.833 -66.5 115.5s-24.5 103.5 -24.5 167.5c0 22.667 1.33301 46.334 4 71.001s7.5 49.334 14.5 74.001s16.5 48.667 28.5 72
s27.667 45.333 47 66c18 19.333 37 35 57 47s40.167 21.333 60.5 28s40.5 11.167 60.5 13.5s39.333 3.5 58 3.5c28.667 0 54.667 -2.33301 78 -7s44 -11 62 -19s33.667 -17.167 47 -27.5s24.666 -20.833 33.999 -31.5c10.667 -12 20.167 -25.5 28.5 -40.5
s15.666 -30.833 21.999 -47.5s11.333 -33.334 15 -50.001s6.16699 -32.667 7.5 -48h-194c-1.33301 13.333 -4.83301 25.5 -10.5 36.5s-12.167 19.833 -19.5 26.5c-6 5.33301 -14 10.333 -24 15s-23 7 -39 7c-21.333 0 -38.833 -3.66699 -52.5 -11s-24.167 -15.333 -31.5 -24
c-9.33301 -10 -16.5 -21.333 -21.5 -34s-9 -25.667 -12 -39s-4.83301 -26.5 -5.5 -39.5s-1 -24.833 -1 -35.5c0 -24 2.16699 -48.833 6.5 -74.5s13.833 -48.167 28.5 -67.5c12.667 -16.667 25.834 -27.5 39.501 -32.5s28.167 -7.5 43.5 -7.5c10.667 0 22.5 1.66699 35.5 5
s25.167 10.666 36.5 21.999c8 8 14.667 17.667 20 29s8.66602 23 9.99902 35h196zM264.001 765.998h-130l112 132h202l112 -132h-130l-83 83z" />
    <glyph glyph-name="ccircumflex" unicode="&#x109;" horiz-adv-x="566" 
d="M534 200c-2 -21.333 -5.82227 -40.3389 -11.4893 -57.0059s-11.834 -31 -18.501 -43s-12.834 -22 -18.501 -30s-9.83398 -13.333 -12.501 -16c-14.667 -16 -30.167 -28.833 -46.5 -38.5s-32.666 -17 -48.999 -22s-32.833 -8.16699 -49.5 -9.5s-32.334 -2 -47.001 -2
s-29.834 0.666992 -45.501 2s-31.5 4.33301 -47.5 9s-31.667 11.5 -47 20.5s-30 20.833 -44 35.5c-20 21.333 -35.833 48 -47.5 80s-17.5 68.667 -17.5 110c0 40 6.33301 78.667 19 116s30.667 69 54 95c14 15.333 28.833 27.833 44.5 37.5s31.667 17.334 48 23.001
s32.666 9.66699 48.999 12s32.166 3.5 47.499 3.5c13.333 0 27.833 -0.833008 43.5 -2.5s31.5 -5.16699 47.5 -10.5s31.667 -12.666 47 -21.999s29.666 -21.666 42.999 -36.999c16.667 -19.333 29.667 -41.666 39 -66.999s14.666 -51.666 15.999 -78.999h-166
c0 12 -1.66699 24.5 -5 37.5s-8.66602 23.167 -15.999 30.5c-10.667 12 -26.667 18 -48 18c-20 0 -36.667 -7 -50 -21c-12 -13.333 -19.333 -30.833 -22 -52.5s-4 -43.167 -4 -64.5c0 -7.33301 0.166992 -16.166 0.5 -26.499s1.16602 -21.166 2.49902 -32.499
s3.83301 -22.5 7.5 -33.5s9.16699 -20.5 16.5 -28.5c7.33301 -8.66699 15.166 -14.334 23.499 -17.001s17.166 -4 26.499 -4c6.66699 0 14.5 1 23.5 3s17.167 6.66699 24.5 14s12.666 18.333 15.999 33s5 26.667 5 36h169zM194.011 567.994h-124l112 132h202l112 -132h-124
l-89 88z" />
    <glyph glyph-name="Ccaron" unicode="&#x10c;" horiz-adv-x="703" 
d="M671 260c-1.33301 -16 -3.99902 -33.002 -7.99902 -51.002s-9.16699 -35.667 -15.5 -53s-14.166 -34 -23.499 -50s-19.666 -30.333 -30.999 -43c-18 -19.333 -37.5 -34.333 -58.5 -45s-42 -18.667 -63 -24s-41.333 -8.66602 -61 -9.99902s-36.5 -2 -50.5 -2
c-16.667 0 -34.667 0.666992 -54 2s-38.833 4.83301 -58.5 10.5s-39.334 13.834 -59.001 24.501s-38.167 25 -55.5 43c-28 29.333 -50.167 67.833 -66.5 115.5s-24.5 103.5 -24.5 167.5c0 22.667 1.33301 46.334 4 71.001s7.5 49.334 14.5 74.001s16.5 48.667 28.5 72
s27.667 45.333 47 66c18 19.333 37 35 57 47s40.167 21.333 60.5 28s40.5 11.167 60.5 13.5s39.333 3.5 58 3.5c28.667 0 54.667 -2.33301 78 -7s44 -11 62 -19s33.667 -17.167 47 -27.5s24.666 -20.833 33.999 -31.5c10.667 -12 20.167 -25.5 28.5 -40.5
s15.666 -30.833 21.999 -47.5s11.333 -33.334 15 -50.001s6.16699 -32.667 7.5 -48h-194c-1.33301 13.333 -4.83301 25.5 -10.5 36.5s-12.167 19.833 -19.5 26.5c-6 5.33301 -14 10.333 -24 15s-23 7 -39 7c-21.333 0 -38.833 -3.66699 -52.5 -11s-24.167 -15.333 -31.5 -24
c-9.33301 -10 -16.5 -21.333 -21.5 -34s-9 -25.667 -12 -39s-4.83301 -26.5 -5.5 -39.5s-1 -24.833 -1 -35.5c0 -24 2.16699 -48.833 6.5 -74.5s13.833 -48.167 28.5 -67.5c12.667 -16.667 25.834 -27.5 39.501 -32.5s28.167 -7.5 43.5 -7.5c10.667 0 22.5 1.66699 35.5 5
s25.167 10.666 36.5 21.999c8 8 14.667 17.667 20 29s8.66602 23 9.99902 35h196zM430.001 897.998h130l-112 -132h-202l-112 132h130l83 -83z" />
    <glyph glyph-name="ccaron" unicode="&#x10d;" horiz-adv-x="566" 
d="M534 200c-2 -21.333 -5.82227 -40.3389 -11.4893 -57.0059s-11.834 -31 -18.501 -43s-12.834 -22 -18.501 -30s-9.83398 -13.333 -12.501 -16c-14.667 -16 -30.167 -28.833 -46.5 -38.5s-32.666 -17 -48.999 -22s-32.833 -8.16699 -49.5 -9.5s-32.334 -2 -47.001 -2
s-29.834 0.666992 -45.501 2s-31.5 4.33301 -47.5 9s-31.667 11.5 -47 20.5s-30 20.833 -44 35.5c-20 21.333 -35.833 48 -47.5 80s-17.5 68.667 -17.5 110c0 40 6.33301 78.667 19 116s30.667 69 54 95c14 15.333 28.833 27.833 44.5 37.5s31.667 17.334 48 23.001
s32.666 9.66699 48.999 12s32.166 3.5 47.499 3.5c13.333 0 27.833 -0.833008 43.5 -2.5s31.5 -5.16699 47.5 -10.5s31.667 -12.666 47 -21.999s29.666 -21.666 42.999 -36.999c16.667 -19.333 29.667 -41.666 39 -66.999s14.666 -51.666 15.999 -78.999h-166
c0 12 -1.66699 24.5 -5 37.5s-8.66602 23.167 -15.999 30.5c-10.667 12 -26.667 18 -48 18c-20 0 -36.667 -7 -50 -21c-12 -13.333 -19.333 -30.833 -22 -52.5s-4 -43.167 -4 -64.5c0 -7.33301 0.166992 -16.166 0.5 -26.499s1.16602 -21.166 2.49902 -32.499
s3.83301 -22.5 7.5 -33.5s9.16699 -20.5 16.5 -28.5c7.33301 -8.66699 15.166 -14.334 23.499 -17.001s17.166 -4 26.499 -4c6.66699 0 14.5 1 23.5 3s17.167 6.66699 24.5 14s12.666 18.333 15.999 33s5 26.667 5 36h169zM372.011 699.994h124l-112 -132h-202l-112 132h124
l89 -88z" />
    <glyph glyph-name="Dcaron" unicode="&#x10e;" horiz-adv-x="731" 
d="M379 700c18.667 0 37.498 -0.835938 56.498 -2.50293s37.833 -5.16699 56.5 -10.5s36.834 -13.166 54.501 -23.499s34.834 -24.166 51.501 -41.499c22.667 -23.333 40.167 -49.833 52.5 -79.5s21.333 -58.334 27 -86.001s9 -52.167 10 -73.5s1.5 -35.666 1.5 -42.999
c0 -51.333 -7.5 -100.666 -22.5 -147.999s-38.167 -87 -69.5 -119c-18 -18 -36 -32 -54 -42s-36.333 -17.167 -55 -21.5s-37 -7 -55 -8s-36 -1.5 -54 -1.5h-302v700h302zM275.998 187.997l63 0.00195312c15.333 0 31.833 1.66699 49.5 5s34.167 12.666 49.5 27.999
c16.667 17.333 27.167 38.166 31.5 62.499s6.5 46.5 6.5 66.5c0 20.667 -2 43.5 -6 68.5s-13.333 45.833 -28 62.5c-15.333 16.667 -32.5 26.667 -51.5 30s-36.167 5 -51.5 5h-63v-328zM420.998 897.999h130l-112 -132h-202l-112 132h130l83 -83z" />
    <glyph glyph-name="dcaron" unicode="&#x10f;" horiz-adv-x="728" 
d="M387 0l0.00683594 49h-4c-10.667 -14.667 -22.334 -26.5 -35.001 -35.5s-25.334 -15.833 -38.001 -20.5s-25 -7.66699 -37 -9s-22.667 -2 -32 -2c-28 0 -54.333 4.66699 -79 14s-47.334 26 -68.001 50c-20 23.333 -35.333 51.833 -46 85.5s-16 70.5 -16 110.5
c0 18 1.16699 36.667 3.5 56s6.16602 38.5 11.499 57.5s12.166 37.333 20.499 55s18.5 33.5 30.5 47.5c21.333 25.333 44.333 43 69 53s51.667 15 81 15c19.333 0 36.166 -2 50.499 -6s26.666 -9 36.999 -15s19 -12.667 26 -20s12.5 -14 16.5 -20v235h186v-700h-177z
M390.007 255c0 17.333 -1.66504 35.167 -4.99805 53.5s-11.333 34.833 -24 49.5c-8.66699 9.33301 -17.834 16 -27.501 20s-20.167 6 -31.5 6c-22 0 -39.667 -7.66699 -53 -23c-9.33301 -10 -16.666 -23.833 -21.999 -41.5s-8 -41.167 -8 -70.5c0 -4 0.333008 -10.667 1 -20
s2.16699 -19.5 4.5 -30.5s5.66602 -22 9.99902 -33s10.166 -20.5 17.499 -28.5c6 -6 13.5 -11.333 22.5 -16s19.5 -7 31.5 -7c22.667 0 41 8.33301 55 25c13.333 16 21.5 34.333 24.5 55s4.5 41 4.5 61zM602.009 700.001h147v-121c0 -9.33301 -0.333008 -19.666 -1 -30.999
s-2.16699 -23 -4.5 -35s-5.83301 -23.833 -10.5 -35.5s-11 -22.167 -19 -31.5c-13.333 -16 -30.333 -27.5 -51 -34.5s-41 -10.833 -61 -11.5v73c11.333 0.666992 22.5 2.16699 33.5 4.5s20.167 7.5 27.5 15.5c6 6.66699 10.333 15.167 13 25.5s4 20.166 4 29.499v4h-78v148z
" />
    <glyph glyph-name="Dcroat" unicode="&#x110;" horiz-adv-x="751" 
d="M400 700c18.667 0 37.3291 -0.833984 55.9961 -2.50098s37.334 -5.16699 56.001 -10.5s36.834 -13.166 54.501 -23.499s34.834 -24.166 51.501 -41.499c32 -32.667 55.167 -74 69.5 -124s21.5 -102.333 21.5 -157c0 -38 -3 -71.5 -9 -100.5s-13.5 -54.167 -22.5 -75.5
s-18.833 -39.5 -29.5 -54.5s-21 -27.5 -31 -37.5c-17.333 -17.333 -35 -30.833 -53 -40.5s-36.333 -16.834 -55 -21.501s-37.167 -7.66699 -55.5 -9s-36.166 -2 -53.499 -2h-303v319h-88v104h88v277h303zM295.995 422.999h118v-104h-118v-131h64
c14.667 0 31.167 1.66699 49.5 5s34.833 12.666 49.5 27.999c8 8 14.5 17.5 19.5 28.5s8.66699 22.333 11 34s4 23.167 5 34.5s1.5 22 1.5 32c0 62.667 -11.333 106.334 -34 131.001c-15.333 16.667 -32.5 26.667 -51.5 30s-36.167 5 -51.5 5h-63v-93z" />
    <glyph glyph-name="dcroat" unicode="&#x111;" horiz-adv-x="624" 
d="M386 0l0.00488281 49h-4c-10.667 -14.667 -22.334 -26.5 -35.001 -35.5s-25.334 -15.833 -38.001 -20.5s-25 -7.66699 -37 -9s-22.667 -2 -32 -2c-28 0 -54.333 4.66699 -79 14s-47.334 26 -68.001 50c-21.333 24 -36.833 52.5 -46.5 85.5s-14.5 67.5 -14.5 103.5
c0 16 1.16699 33.167 3.5 51.5s6 36.833 11 55.5s11.667 36.667 20 54s18.5 33.333 30.5 48c21.333 25.333 44.333 43 69 53s51.667 15 81 15c19.333 0 36.166 -2 50.499 -6s26.666 -9 36.999 -15s19 -12.667 26 -20s12.5 -14 16.5 -20v112h-186v75h186v62h186v-62h76v-75
h-76v-563h-177zM389.005 248c0 14.667 -1.83301 30.834 -5.5 48.501s-11.5 33.5 -23.5 47.5c-8.66699 9.33301 -17.834 16 -27.501 20s-20.167 6 -31.5 6c-21.333 0 -39 -7.66699 -53 -23c-7.33301 -8 -13 -16.833 -17 -26.5s-6.83301 -19.334 -8.5 -29.001
s-2.66699 -18.834 -3 -27.501s-0.5 -16 -0.5 -22c0 -17.333 1.16699 -32.166 3.5 -44.499s5.33301 -22.5 9 -30.5s7.33398 -14.5 11.001 -19.5s6.5 -8.5 8.5 -10.5c6 -6 13.5 -11.333 22.5 -16s19.5 -7 31.5 -7c22.667 0 41 8.33301 55 25c13.333 16 21.5 34 24.5 54
s4.5 38.333 4.5 55z" />
    <glyph glyph-name="Emacron" unicode="&#x112;" horiz-adv-x="649" 
d="M554 436v-165h-277v-86h331v-185h-531v700h523v-185h-323v-79h277zM141 875h366v-96h-366v96z" />
    <glyph glyph-name="emacron" unicode="&#x113;" horiz-adv-x="583" 
d="M545 147c-9.33301 -35.333 -23 -63.168 -41 -83.501s-34 -34.833 -48 -43.5c-28.667 -18.667 -57.667 -29.667 -87 -33s-55 -5 -77 -5c-17.333 0 -34.833 0.666992 -52.5 2s-35 4.5 -52 9.5s-33.5 12 -49.5 21s-31 21.5 -45 37.5
c-17.333 19.333 -31.833 44.666 -43.5 75.999s-17.5 68.333 -17.5 111c0 48 6.66699 88.833 20 122.5s29 61.167 47 82.5c28 32.667 58.667 54.5 92 65.5s67.666 16.5 102.999 16.5c14.667 0 30.334 -0.833008 47.001 -2.5s33.667 -5.16699 51 -10.5s34.333 -13 51 -23
s32.334 -23 47.001 -39c16 -18 28.167 -37 36.5 -57s14.333 -40 18 -60s5.83398 -39.5 6.50098 -58.5s1 -36.167 1 -51.5v-12h-335c-0.666992 -12 0.333008 -25.333 3 -40s7.66699 -27 15 -37c8.66699 -11.333 18.667 -19 30 -23s22.666 -6 33.999 -6
c6.66699 0 14 0.666992 22 2s15.667 4 23 8c8 4.66699 13.667 9.83398 17 15.501s5.66602 10.834 6.99902 15.501h177zM366 311.998c0 11.333 -1.66797 23.499 -5.00098 36.499s-8.66602 23.5 -15.999 31.5c-7.33301 8.66699 -15.333 14.334 -24 17.001s-17 4 -25 4
c-11.333 0 -21.333 -1.66699 -30 -5s-16.667 -9 -24 -17s-13 -18.333 -17 -31s-6.33301 -24.667 -7 -36h148zM108.999 685.997h366v-96h-366v96z" />
    <glyph glyph-name="Edotaccent" unicode="&#x116;" horiz-adv-x="649" 
d="M554 436v-165h-277v-86h331v-185h-531v700h523v-185h-323v-79h277zM242 908h164v-129h-164v129z" />
    <glyph glyph-name="edotaccent" unicode="&#x117;" horiz-adv-x="583" 
d="M545 147c-9.33301 -35.333 -23 -63.168 -41 -83.501s-34 -34.833 -48 -43.5c-28.667 -18.667 -57.667 -29.667 -87 -33s-55 -5 -77 -5c-17.333 0 -34.833 0.666992 -52.5 2s-35 4.5 -52 9.5s-33.5 12 -49.5 21s-31 21.5 -45 37.5
c-17.333 19.333 -31.833 44.666 -43.5 75.999s-17.5 68.333 -17.5 111c0 48 6.66699 88.833 20 122.5s29 61.167 47 82.5c28 32.667 58.667 54.5 92 65.5s67.666 16.5 102.999 16.5c14.667 0 30.334 -0.833008 47.001 -2.5s33.667 -5.16699 51 -10.5s34.333 -13 51 -23
s32.334 -23 47.001 -39c16 -18 28.167 -37 36.5 -57s14.333 -40 18 -60s5.83398 -39.5 6.50098 -58.5s1 -36.167 1 -51.5v-12h-335c-0.666992 -12 0.333008 -25.333 3 -40s7.66699 -27 15 -37c8.66699 -11.333 18.667 -19 30 -23s22.666 -6 33.999 -6
c6.66699 0 14 0.666992 22 2s15.667 4 23 8c8 4.66699 13.667 9.83398 17 15.501s5.66602 10.834 6.99902 15.501h177zM366 311.998c0 11.333 -1.66797 23.499 -5.00098 36.499s-8.66602 23.5 -15.999 31.5c-7.33301 8.66699 -15.333 14.334 -24 17.001s-17 4 -25 4
c-11.333 0 -21.333 -1.66699 -30 -5s-16.667 -9 -24 -17s-13 -18.333 -17 -31s-6.33301 -24.667 -7 -36h148zM214.999 699.997h180v-132h-180v132z" />
    <glyph glyph-name="Eogonek" unicode="&#x118;" horiz-adv-x="649" 
d="M554 436l-0.000976562 -165h-277v-86h331v-185c-18.667 -6 -36.334 -14 -53.001 -24s-31.167 -20.833 -43.5 -32.5s-22.166 -23.667 -29.499 -36s-11 -24.5 -11 -36.5c0 -3.33301 0.5 -7.16602 1.5 -11.499s2.83301 -8.5 5.5 -12.5s6.5 -7.33301 11.5 -10
s11.833 -4 20.5 -4c11.333 0 23.333 2.5 36 7.5s24 11.167 34 18.5l33 -88c-25.333 -15.333 -47.333 -25.5 -66 -30.5s-37.667 -7.5 -57 -7.5c-23.333 0 -43.166 3.66699 -59.499 11s-29.5 16.833 -39.5 28.5s-17.333 24.667 -22 39s-7 28.166 -7 41.499
c0 29.333 9 57 27 83s41 47.333 69 64h-381v700h523v-185h-323v-79h277z" />
    <glyph glyph-name="eogonek" unicode="&#x119;" horiz-adv-x="583" 
d="M545 147c-9.33301 -35.333 -23.001 -63.168 -41.001 -83.501s-34 -34.833 -48 -43.5c-20.667 -13.333 -40.5 -23.666 -59.5 -30.999s-37.5 -18.333 -55.5 -33c-12.667 -10.667 -23.5 -23.334 -32.5 -38.001s-13.5 -30 -13.5 -46c0 -10 2 -17.833 6 -23.5
s8.5 -9.66699 13.5 -12s10 -3.83301 15 -4.5s8.5 -1 10.5 -1c13.333 0 26.166 2.83301 38.499 8.5s23.166 12.167 32.499 19.5l29 -81c-23.333 -16 -45.166 -26.333 -65.499 -31s-39.833 -7 -58.5 -7c-41.333 0 -72.666 10.667 -93.999 32s-32 49 -32 83
c0 18 4.5 38.5 13.5 61.5s27.167 45.167 54.5 66.5c-36 0 -68.167 6.66699 -96.5 20s-51.166 29.666 -68.499 48.999c-21.333 23.333 -36.833 51.333 -46.5 84s-14.5 67 -14.5 103c0 41.333 5.66699 79.5 17 114.5s28 65.167 50 90.5c28 32.667 58.667 54.5 92 65.5
s67.666 16.5 102.999 16.5c14.667 0 30.334 -0.833008 47.001 -2.5s33.667 -5.16699 51 -10.5s34.333 -13 51 -23s32.334 -23 47.001 -39c16 -18 28.167 -37 36.5 -57s14.333 -40 18 -60s5.83398 -39.5 6.50098 -58.5s1 -36.167 1 -51.5v-12h-335
c-0.666992 -12 0.333008 -25.333 3 -40s7.66699 -27 15 -37c8.66699 -11.333 18.667 -19 30 -23s22.666 -6 33.999 -6c6.66699 0 14 0.666992 22 2s15.667 4 23 8c8 4.66699 13.667 9.83398 17 15.501s5.66602 10.834 6.99902 15.501h177zM365.999 311.998
c0 11.333 -1.66797 23.499 -5.00098 36.499s-8.66602 23.5 -15.999 31.5c-7.33301 8.66699 -15.333 14.334 -24 17.001s-17 4 -25 4c-11.333 0 -21.333 -1.66699 -30 -5s-16.667 -9 -24 -17s-13 -18.333 -17 -31s-6.33301 -24.667 -7 -36h148z" />
    <glyph glyph-name="Ecaron" unicode="&#x11a;" horiz-adv-x="649" 
d="M554 436v-165h-277v-86h331v-185h-531v700h523v-185h-323v-79h277zM407 898h130l-112 -132h-202l-112 132h130l83 -83z" />
    <glyph glyph-name="ecaron" unicode="&#x11b;" horiz-adv-x="583" 
d="M545 147c-9.33301 -35.333 -23 -63.168 -41 -83.501s-34 -34.833 -48 -43.5c-28.667 -18.667 -57.667 -29.667 -87 -33s-55 -5 -77 -5c-17.333 0 -34.833 0.666992 -52.5 2s-35 4.5 -52 9.5s-33.5 12 -49.5 21s-31 21.5 -45 37.5
c-17.333 19.333 -31.833 44.666 -43.5 75.999s-17.5 68.333 -17.5 111c0 48 6.66699 88.833 20 122.5s29 61.167 47 82.5c28 32.667 58.667 54.5 92 65.5s67.666 16.5 102.999 16.5c14.667 0 30.334 -0.833008 47.001 -2.5s33.667 -5.16699 51 -10.5s34.333 -13 51 -23
s32.334 -23 47.001 -39c16 -18 28.167 -37 36.5 -57s14.333 -40 18 -60s5.83398 -39.5 6.50098 -58.5s1 -36.167 1 -51.5v-12h-335c-0.666992 -12 0.333008 -25.333 3 -40s7.66699 -27 15 -37c8.66699 -11.333 18.667 -19 30 -23s22.666 -6 33.999 -6
c6.66699 0 14 0.666992 22 2s15.667 4 23 8c8 4.66699 13.667 9.83398 17 15.501s5.66602 10.834 6.99902 15.501h177zM366 311.998c0 11.333 -1.66797 23.499 -5.00098 36.499s-8.66602 23.5 -15.999 31.5c-7.33301 8.66699 -15.333 14.334 -24 17.001s-17 4 -25 4
c-11.333 0 -21.333 -1.66699 -30 -5s-16.667 -9 -24 -17s-13 -18.333 -17 -31s-6.33301 -24.667 -7 -36h148zM380.999 699.997h124l-112 -132h-202l-112 132h124l89 -88z" />
    <glyph glyph-name="Gcircumflex" unicode="&#x11c;" horiz-adv-x="742" 
d="M685 389l-0.00292969 -389h-144l-11 62c-13.333 -18 -27.833 -32.333 -43.5 -43s-31.834 -18.667 -48.501 -24s-33 -8.83301 -49 -10.5s-31 -2.5 -45 -2.5c-16 0 -33 0.833008 -51 2.5s-36 5.16699 -54 10.5s-36 13 -54 23s-35.333 23.667 -52 41
c-28 28 -50.167 64.833 -66.5 110.5s-24.5 100.834 -24.5 165.501c0 37.333 2.83301 70.833 8.5 100.5s13.167 56.334 22.5 80.001s19.5 44.167 30.5 61.5s22.167 32 33.5 44c32 36 67 61.5 105 76.5s80.667 22.5 128 22.5c18.667 0 37.667 -1.16699 57 -3.5
s38.5 -6 57.5 -11s37.167 -11.833 54.5 -20.5s33 -19 47 -31c12 -10.667 23.333 -23.334 34 -38.001s20 -30.334 28 -47.001s14.667 -34.167 20 -52.5s9 -36.833 11 -55.5h-203c-1.33301 10 -3.83301 20.167 -7.5 30.5s-8.83398 19.5 -15.501 27.5
c-11.333 13.333 -24.166 21.666 -38.499 24.999s-26.166 5 -35.499 5c-15.333 0 -30.166 -2.83301 -44.499 -8.5s-27.166 -15.167 -38.499 -28.5c-9.33301 -10.667 -16.666 -23 -21.999 -37s-9.5 -28.333 -12.5 -43s-4.83301 -28.834 -5.5 -42.501s-1 -25.834 -1 -36.501
c0 -10 0.5 -22.167 1.5 -36.5s3 -29.166 6 -44.499s7.66699 -30.666 14 -45.999s15.166 -28.666 26.499 -39.999c13.333 -13.333 26.833 -22 40.5 -26s27.834 -6 42.501 -6c13.333 0 25.833 1.66699 37.5 5s23.167 10 34.5 20c12 10.667 21 21.667 27 33s9.66699 19 11 23
h-86v154h275zM282.997 766h-130l112 132h202l112 -132h-130l-83 83z" />
    <glyph glyph-name="gcircumflex" unicode="&#x11d;" horiz-adv-x="612" 
d="M238 -25c1.33301 -14.667 6.33105 -25.9971 14.998 -33.9971c6 -5.33301 13.667 -8.66602 23 -9.99902s17.333 -2 24 -2c8.66699 0 18 0.833008 28 2.5s19.333 7.16699 28 16.5c8 9.33301 12.833 19.166 14.5 29.499s2.5 20.5 2.5 30.5v56h-4
c-10.667 -10 -21.667 -18 -33 -24s-22.5 -10.5 -33.5 -13.5s-21.667 -4.83301 -32 -5.5s-19.833 -1 -28.5 -1c-26 0 -52.333 3 -79 9s-51.334 21.667 -74.001 47c-13.333 14.667 -23.833 30.5 -31.5 47.5s-13.334 33.833 -17.001 50.5s-6 32.5 -7 47.5
s-1.5 27.833 -1.5 38.5c0 14.667 0.833008 30.5 2.5 47.5s4.66699 34 9 51s10.5 34 18.5 51s18.333 33.167 31 48.5c19.333 23.333 41 40.5 65 51.5s52.333 16.5 85 16.5c19.333 0 36.333 -2 51 -6s27.5 -9 38.5 -15s20.333 -12.5 28 -19.5s14.167 -13.833 19.5 -20.5h5v43
h168v-432c0 -18 -0.666992 -36 -2 -54s-4.16602 -35.833 -8.49902 -53.5s-10.666 -34.667 -18.999 -51s-19.166 -31.833 -32.499 -46.5c-14 -15.333 -29 -27.333 -45 -36s-32.333 -15.167 -49 -19.5s-33.334 -7 -50.001 -8s-33 -1.5 -49 -1.5c-12 0 -25.167 0.5 -39.5 1.5
s-28.666 3 -42.999 6s-28.666 7.33301 -42.999 13s-27.5 13.167 -39.5 22.5c-6 4.66699 -12.333 10.667 -19 18s-13 16.166 -19 26.499s-11.167 22.166 -15.5 35.499s-6.83301 28.666 -7.5 45.999h166zM218.998 269.003c0 -15.333 1.16895 -30.833 3.50195 -46.5
s8.5 -30.167 18.5 -43.5c14 -19.333 33.333 -29 58 -29c12 0 22.833 2.33301 32.5 7s17.5 10.667 23.5 18c5.33301 6 10.666 16 15.999 30s8 35.667 8 65c0 14 -1.5 29.833 -4.5 47.5s-10.167 33.167 -21.5 46.5c-8.66699 9.33301 -17.834 15.666 -27.501 18.999
s-18.5 5 -26.5 5c-11.333 0 -21.333 -2.33301 -30 -7s-16 -10 -22 -16c-12 -13.333 -19.667 -28.666 -23 -45.999s-5 -34 -5 -50zM219 568.003h-124l112 132h202l112 -132h-124l-89 88z" />
    <glyph glyph-name="Gbreve" unicode="&#x11e;" horiz-adv-x="742" 
d="M685 389l-0.00292969 -389h-144l-11 62c-13.333 -18 -27.833 -32.333 -43.5 -43s-31.834 -18.667 -48.501 -24s-33 -8.83301 -49 -10.5s-31 -2.5 -45 -2.5c-16 0 -33 0.833008 -51 2.5s-36 5.16699 -54 10.5s-36 13 -54 23s-35.333 23.667 -52 41
c-28 28 -50.167 64.833 -66.5 110.5s-24.5 100.834 -24.5 165.501c0 37.333 2.83301 70.833 8.5 100.5s13.167 56.334 22.5 80.001s19.5 44.167 30.5 61.5s22.167 32 33.5 44c32 36 67 61.5 105 76.5s80.667 22.5 128 22.5c18.667 0 37.667 -1.16699 57 -3.5
s38.5 -6 57.5 -11s37.167 -11.833 54.5 -20.5s33 -19 47 -31c12 -10.667 23.333 -23.334 34 -38.001s20 -30.334 28 -47.001s14.667 -34.167 20 -52.5s9 -36.833 11 -55.5h-203c-1.33301 10 -3.83301 20.167 -7.5 30.5s-8.83398 19.5 -15.501 27.5
c-11.333 13.333 -24.166 21.666 -38.499 24.999s-26.166 5 -35.499 5c-15.333 0 -30.166 -2.83301 -44.499 -8.5s-27.166 -15.167 -38.499 -28.5c-9.33301 -10.667 -16.666 -23 -21.999 -37s-9.5 -28.333 -12.5 -43s-4.83301 -28.834 -5.5 -42.501s-1 -25.834 -1 -36.501
c0 -10 0.5 -22.167 1.5 -36.5s3 -29.166 6 -44.499s7.66699 -30.666 14 -45.999s15.166 -28.666 26.499 -39.999c13.333 -13.333 26.833 -22 40.5 -26s27.834 -6 42.501 -6c13.333 0 25.833 1.66699 37.5 5s23.167 10 34.5 20c12 10.667 21 21.667 27 33s9.66699 19 11 23
h-86v154h275zM543.997 900c-2 -15.333 -6.33496 -30.833 -13.002 -46.5s-15.667 -29.834 -27 -42.501c-10.667 -12 -22 -21.333 -34 -28s-24 -11.667 -36 -15s-23.833 -5.5 -35.5 -6.5s-22.5 -1.5 -32.5 -1.5s-20.833 0.5 -32.5 1.5s-23.5 3.16699 -35.5 6.5
s-24 8.33301 -36 15s-23.333 16 -34 28c-11.333 12.667 -20.333 26.834 -27 42.501s-11 31.167 -13 46.5h106c1.33301 -7.33301 3.83301 -15.166 7.5 -23.499s8.83398 -15.166 15.501 -20.499c8 -7.33301 16.5 -11.833 25.5 -13.5s16.833 -2.5 23.5 -2.5
s14.5 0.833008 23.5 2.5s17.5 6.16699 25.5 13.5c6.66699 5.33301 11.834 12.166 15.501 20.499s6.16699 16.166 7.5 23.499h106z" />
    <glyph glyph-name="gbreve" unicode="&#x11f;" horiz-adv-x="612" 
d="M238 -25c1.33301 -14.667 6.33105 -25.9971 14.998 -33.9971c6 -5.33301 13.667 -8.66602 23 -9.99902s17.333 -2 24 -2c8.66699 0 18 0.833008 28 2.5s19.333 7.16699 28 16.5c8 9.33301 12.833 19.166 14.5 29.499s2.5 20.5 2.5 30.5v56h-4
c-10.667 -10 -21.667 -18 -33 -24s-22.5 -10.5 -33.5 -13.5s-21.667 -4.83301 -32 -5.5s-19.833 -1 -28.5 -1c-26 0 -52.333 3 -79 9s-51.334 21.667 -74.001 47c-13.333 14.667 -23.833 30.5 -31.5 47.5s-13.334 33.833 -17.001 50.5s-6 32.5 -7 47.5
s-1.5 27.833 -1.5 38.5c0 14.667 0.833008 30.5 2.5 47.5s4.66699 34 9 51s10.5 34 18.5 51s18.333 33.167 31 48.5c19.333 23.333 41 40.5 65 51.5s52.333 16.5 85 16.5c19.333 0 36.333 -2 51 -6s27.5 -9 38.5 -15s20.333 -12.5 28 -19.5s14.167 -13.833 19.5 -20.5h5v43
h168v-432c0 -18 -0.666992 -36 -2 -54s-4.16602 -35.833 -8.49902 -53.5s-10.666 -34.667 -18.999 -51s-19.166 -31.833 -32.499 -46.5c-14 -15.333 -29 -27.333 -45 -36s-32.333 -15.167 -49 -19.5s-33.334 -7 -50.001 -8s-33 -1.5 -49 -1.5c-12 0 -25.167 0.5 -39.5 1.5
s-28.666 3 -42.999 6s-28.666 7.33301 -42.999 13s-27.5 13.167 -39.5 22.5c-6 4.66699 -12.333 10.667 -19 18s-13 16.166 -19 26.499s-11.167 22.166 -15.5 35.499s-6.83301 28.666 -7.5 45.999h166zM218.998 269.003c0 -15.333 1.16895 -30.833 3.50195 -46.5
s8.5 -30.167 18.5 -43.5c14 -19.333 33.333 -29 58 -29c12 0 22.833 2.33301 32.5 7s17.5 10.667 23.5 18c5.33301 6 10.666 16 15.999 30s8 35.667 8 65c0 14 -1.5 29.833 -4.5 47.5s-10.167 33.167 -21.5 46.5c-8.66699 9.33301 -17.834 15.666 -27.501 18.999
s-18.5 5 -26.5 5c-11.333 0 -21.333 -2.33301 -30 -7s-16 -10 -22 -16c-12 -13.333 -19.667 -28.666 -23 -45.999s-5 -34 -5 -50zM464 702.003c-2.66699 -18 -7.66895 -34.5 -15.002 -49.5s-15.666 -28.167 -24.999 -39.5c-21.333 -23.333 -44.333 -37.666 -69 -42.999
s-47.667 -8 -69 -8s-44.333 2.66699 -69 8s-47.667 19.666 -69 42.999c-9.33301 11.333 -17.666 24.5 -24.999 39.5s-12.333 31.5 -15 49.5h105c1.33301 -8 3.83301 -16.167 7.5 -24.5s8.5 -15.166 14.5 -20.499c7.33301 -7.33301 15.333 -12 24 -14s17.667 -3 27 -3
c8 0 16.5 0.833008 25.5 2.5s17.5 6.5 25.5 14.5c6 5.33301 10.833 12.166 14.5 20.499s6.16699 16.5 7.5 24.5h105z" />
    <glyph glyph-name="Gcommaaccent" unicode="&#x122;" horiz-adv-x="742" 
d="M685 389l-0.00292969 -389h-144l-11 62c-13.333 -18 -27.833 -32.333 -43.5 -43s-31.834 -18.667 -48.501 -24s-33 -8.83301 -49 -10.5s-31 -2.5 -45 -2.5c-16 0 -33 0.833008 -51 2.5s-36 5.16699 -54 10.5s-36 13 -54 23s-35.333 23.667 -52 41
c-28 28 -50.167 64.833 -66.5 110.5s-24.5 100.834 -24.5 165.501c0 37.333 2.83301 70.833 8.5 100.5s13.167 56.334 22.5 80.001s19.5 44.167 30.5 61.5s22.167 32 33.5 44c32 36 67 61.5 105 76.5s80.667 22.5 128 22.5c18.667 0 37.667 -1.16699 57 -3.5
s38.5 -6 57.5 -11s37.167 -11.833 54.5 -20.5s33 -19 47 -31c12 -10.667 23.333 -23.334 34 -38.001s20 -30.334 28 -47.001s14.667 -34.167 20 -52.5s9 -36.833 11 -55.5h-203c-1.33301 10 -3.83301 20.167 -7.5 30.5s-8.83398 19.5 -15.501 27.5
c-11.333 13.333 -24.166 21.666 -38.499 24.999s-26.166 5 -35.499 5c-15.333 0 -30.166 -2.83301 -44.499 -8.5s-27.166 -15.167 -38.499 -28.5c-9.33301 -10.667 -16.666 -23 -21.999 -37s-9.5 -28.333 -12.5 -43s-4.83301 -28.834 -5.5 -42.501s-1 -25.834 -1 -36.501
c0 -10 0.5 -22.167 1.5 -36.5s3 -29.166 6 -44.499s7.66699 -30.666 14 -45.999s15.166 -28.666 26.499 -39.999c13.333 -13.333 26.833 -22 40.5 -26s27.834 -6 42.501 -6c13.333 0 25.833 1.66699 37.5 5s23.167 10 34.5 20c12 10.667 21 21.667 27 33s9.66699 19 11 23
h-86v154h275zM289.997 -63h151v-103c0 -22.667 -2 -46.834 -6 -72.501s-15.667 -49.167 -35 -70.5c-16.667 -18 -35.5 -29.667 -56.5 -35s-38.833 -8 -53.5 -8v75c9.33301 -0.666992 20.333 0.333008 33 3s23.667 9.33398 33 20.001c8 9.33301 12.5 18.333 13.5 27
s1.5 18 1.5 28v4h-81v132z" />
    <glyph glyph-name="gcommaaccent" unicode="&#x123;" horiz-adv-x="612" 
d="M238 -25c1.33301 -14.667 6.33105 -25.9971 14.998 -33.9971c6 -5.33301 13.667 -8.66602 23 -9.99902s17.333 -2 24 -2c8.66699 0 18 0.833008 28 2.5s19.333 7.16699 28 16.5c8 9.33301 12.833 19.166 14.5 29.499s2.5 20.5 2.5 30.5v56h-4
c-10.667 -10 -21.667 -18 -33 -24s-22.5 -10.5 -33.5 -13.5s-21.667 -4.83301 -32 -5.5s-19.833 -1 -28.5 -1c-26 0 -52.333 3 -79 9s-51.334 21.667 -74.001 47c-13.333 14.667 -23.833 30.5 -31.5 47.5s-13.334 33.833 -17.001 50.5s-6 32.5 -7 47.5
s-1.5 27.833 -1.5 38.5c0 14.667 0.833008 30.5 2.5 47.5s4.66699 34 9 51s10.5 34 18.5 51s18.333 33.167 31 48.5c19.333 23.333 41 40.5 65 51.5s52.333 16.5 85 16.5c19.333 0 36.333 -2 51 -6s27.5 -9 38.5 -15s20.333 -12.5 28 -19.5s14.167 -13.833 19.5 -20.5h5v43
h168v-432c0 -18 -0.666992 -36 -2 -54s-4.16602 -35.833 -8.49902 -53.5s-10.666 -34.667 -18.999 -51s-19.166 -31.833 -32.499 -46.5c-14 -15.333 -29 -27.333 -45 -36s-32.333 -15.167 -49 -19.5s-33.334 -7 -50.001 -8s-33 -1.5 -49 -1.5c-12 0 -25.167 0.5 -39.5 1.5
s-28.666 3 -42.999 6s-28.666 7.33301 -42.999 13s-27.5 13.167 -39.5 22.5c-6 4.66699 -12.333 10.667 -19 18s-13 16.166 -19 26.499s-11.167 22.166 -15.5 35.499s-6.83301 28.666 -7.5 45.999h166zM218.998 269.003c0 -15.333 1.16895 -30.833 3.50195 -46.5
s8.5 -30.167 18.5 -43.5c14 -19.333 33.333 -29 58 -29c12 0 22.833 2.33301 32.5 7s17.5 10.667 23.5 18c5.33301 6 10.666 16 15.999 30s8 35.667 8 65c0 14 -1.5 29.833 -4.5 47.5s-10.167 33.167 -21.5 46.5c-8.66699 9.33301 -17.834 15.666 -27.501 18.999
s-18.5 5 -26.5 5c-11.333 0 -21.333 -2.33301 -30 -7s-16 -10 -22 -16c-12 -13.333 -19.667 -28.666 -23 -45.999s-5 -34 -5 -50zM367.008 585.995l-150.981 -0.000976562v88.9893c0 25.9971 2.5 51.1611 7.49902 75.4922c4.99902 24.3301 16.1641 45.4941 33.4951 63.4922
c11.332 11.332 25.6631 20.6641 42.9941 27.9961c17.3311 7.33301 39.6621 11.666 66.9922 12.999v-68.9912c-7.99902 0.666992 -18.6641 -0.333008 -31.9951 -2.99902c-13.332 -2.66699 -24.6641 -9.33301 -33.9961 -19.998
c-6.66602 -7.99902 -10.832 -16.665 -12.498 -25.998c-1.66699 -9.33203 -2.5 -17.6641 -2.5 -24.9971v-3.99902h80.9902v-121.985z" />
    <glyph glyph-name="Hcircumflex" unicode="&#x124;" horiz-adv-x="721" 
d="M277 0h-200v700h200v-241h167v241h200v-700h-200v275h-167v-275zM277 766h-130l112 132h202l112 -132h-130l-83 83z" />
    <glyph glyph-name="hcircumflex" unicode="&#x125;" 
d="M231 457l3.99805 -0.00292969c10.667 14 21.5 24.833 32.5 32.5s19.167 13.167 24.5 16.5c15.333 8 30.333 13.333 45 16s29.667 4 45 4c21.333 0 43 -2.83301 65 -8.5s42.667 -18.5 62 -38.5c20.667 -22 33.5 -47.167 38.5 -75.5s7.5 -60.166 7.5 -95.499v-308h-180v275
c0 19.333 -1.16699 34.833 -3.5 46.5s-5.83301 21.167 -10.5 28.5c-6.66699 10 -14.167 16.833 -22.5 20.5s-17.166 5.5 -26.499 5.5c-24 0 -42.333 -9.66699 -55 -29c-7.33301 -11.333 -12.166 -23.666 -14.499 -36.999s-3.5 -25.666 -3.5 -36.999v-273h-180v700h172v-243z
M56.998 730.997h-124l112 132h202l112 -132h-124l-89 88z" />
    <glyph glyph-name="Imacron" unicode="&#x12a;" horiz-adv-x="354" 
d="M277 700v-700h-200v700h200zM9 875h336v-96h-336v96z" />
    <glyph glyph-name="imacron" unicode="&#x12b;" horiz-adv-x="298" 
d="M239 508v-508h-180v508h180zM-9 686h316v-96h-316v96z" />
    <glyph glyph-name="Iogonek" unicode="&#x12e;" horiz-adv-x="354" 
d="M277 700l-0.000976562 -700c-18.667 -6 -36.334 -14 -53.001 -24s-31.167 -20.833 -43.5 -32.5s-22.166 -23.667 -29.499 -36s-11 -24.5 -11 -36.5c0 -3.33301 0.5 -7.16602 1.5 -11.499s2.83301 -8.5 5.5 -12.5s6.5 -7.33301 11.5 -10s11.833 -4 20.5 -4
c11.333 0 23.333 2.5 36 7.5s24 11.167 34 18.5l33 -88c-25.333 -15.333 -47.333 -25.5 -66 -30.5s-37.667 -7.5 -57 -7.5c-23.333 0 -43.166 3.66699 -59.499 11s-29.5 16.833 -39.5 28.5s-17.333 24.667 -22 39s-7 28.166 -7 41.499c0 29.333 9 57 27 83s41 47.333 69 64
h-50v700h200z" />
    </font>
</defs>
</svg>
