<svg viewBox="0 0 49 48" xmlns="http://www.w3.org/2000/svg"><path d="m40.44922,31.24998c-2.40002,0 -4.5,1 -6,2.60004l-17.70001,-8.70002c0.10004,-0.40002 0.10004,-0.79999 0.10004,-1.19995c0,-0.40002 0,-0.80005 -0.10004,-1.20007l17.70001,-8.59998c1.5,1.59998 3.70001,2.59998 6.09998,2.59998c4.60004,0 8.30005,-3.69995 8.30005,-8.29994c0,-4.60003 -3.70001,-8.30005 -8.30005,-8.30005c-4.59998,0 -8.29999,3.70001 -8.29999,8.30005c0,0.39996 0,0.79993 0.10004,1.19995l-17.70001,8.59999c-1.5,-1.59998 -3.70001,-2.59998 -6.10004,-2.59998c-4.59997,0 -8.29999,3.70001 -8.29999,8.30005c0,4.59998 3.70001,8.29993 8.29999,8.29993c2.40002,0 4.5,-1 6,-2.59998l17.70001,8.70002c-0.09998,0.39996 -0.09998,0.79999 -0.09998,1.20001c0,4.59998 3.70001,8.29999 8.29999,8.29999c4.59998,0 8.29999,-3.70001 8.29999,-8.29999s-3.70001,-8.30005 -8.29999,-8.30005z"/></svg>