<svg viewBox="0 0 25.5 32.5" xmlns="http://www.w3.org/2000/svg"><path d="m25.052685,10.738551c0,7.209998 -4.007999,12.597997 -9.918006,12.597997c-1.985008,0 -3.851011,-1.073 -4.49001,-2.292c0,0 -1.068,4.235001 -1.292,5.053001c-0.796,2.887999 -3.136995,5.776999 -3.317995,6.014999c-0.127,0.165001 -0.406999,0.112999 -0.436999,-0.105c-0.051,-0.368 -0.646998,-4.013 0.055,-6.986c0.352,-1.493 2.363995,-10.015999 2.363995,-10.015999s-0.585999,-1.174 -0.585999,-2.908c0,-2.725 1.577999,-4.758001 3.543998,-4.758001c1.672,0 2.479005,1.254001 2.479005,2.759001c0,1.681999 -1.069004,4.193999 -1.622005,6.521997c-0.460999,1.950001 0.978,3.541 2.90101,3.541c3.482007,0 5.827006,-4.473998 5.827006,-9.772998c0,-4.028001 -2.712,-7.044001 -7.648014,-7.044001c-5.574,0 -9.048994,4.158 -9.048994,8.803002c0,1.602 0.473,2.731999 1.212999,3.605c0.338999,0.401999 0.386998,0.562999 0.263999,1.024999c-0.09,0.339001 -0.289999,1.152 -0.375999,1.475c-0.121999,0.466 -0.499,0.632 -0.92,0.459999c-2.567,-1.048 -3.764,-3.860998 -3.764,-7.021997c0.001,-5.221001 4.404,-11.482001 13.136995,-11.482001c7.019012,0 11.636013,5.077 11.636013,10.530001z"/></svg>